<svg id="Layer_1" data-name="Layer 1" xmlns="http://www.w3.org/2000/svg" xmlns:xlink="http://www.w3.org/1999/xlink" viewBox="0 0 1133 500"><defs><style>.cls-1{fill:url(#linear-gradient);}.cls-2{fill:#5cd894;}.cls-3{fill:#379482;}.cls-4{opacity:0.1;}.cls-4,.cls-6{isolation:isolate;}.cls-5{fill:#a8a8a8;}.cls-6{opacity:0.2;}.cls-7{fill:#ffb9b9;}.cls-8{fill:#ff6584;}.cls-9{fill:#2f2e41;}.cls-10{fill:#05386b;}.cls-11{fill:#fff;}</style><linearGradient id="linear-gradient" x1="345.93" y1="381.73" x2="-261.36" y2="-270.53" gradientTransform="matrix(1, 0, 0, -1, 539.01, 244.4)" gradientUnits="userSpaceOnUse"><stop offset="0" stop-color="#032c56"/><stop offset="1" stop-color="#05386b"/></linearGradient></defs><title>ask_code</title><path class="cls-1" d="M898.77,463.93S842,491,733.39,457.93c-50.5-15.4-73.5-24-73.5-24-22.53-8.43-24.94-10.37-35.56-12.32-32.6-6-37.54,9.13-71.73,1.77a274.63,274.63,0,0,0-44.78-5.84q-6.44-.3-12.89-.3h-3.18c-40.13.4-195.49,34.68-195.49,34.68-57.32,12.65-88.29,19.48-130.56,15-60.85-6.45-144.29-36.25-148-78-4-45.68,90.47-71.55,84.14-117-4.79-34.41-65.4-31-80.27-69C-.3,147,84.38,24.68,175.94,18.93c91.92-5.77,104.55,111.39,259,151,93.95,24.1,178.16,3.54,192,0,28.7-7.34,49.53-17,90-36C877.32,58.64,902.77,9.11,976.47,12.87c11.28.58,75.22,5,112.47,55.06,2.77,3.72,39.36,54.32,21.62,102-18,48.48-72.62,35.3-98.64,86-27,52.69,9.71,94.79-16.44,145C975.38,439.52,932.12,456,898.77,463.93Z"/><path class="cls-2" d="M465.88,317.85c0,50.16-29.88,67.68-66.72,67.68S332.44,368,332.44,317.85s66.72-114,66.72-114S465.88,267.69,465.88,317.85Z"/><path class="cls-3" d="M396.73,377.85l.68-42,28.44-51.93-28.33,45.35.3-18.88,19.6-37.57-19.51,32.58.55-33.95,21-29.92-20.9,24.58.35-62.25-2.17,82.41.18-3.4-21.34-32.61,21,39.13-2,37.92-.06-1L369.91,292l24.52,37.87-.24,4.74-.05.07,0,.39-5,96.2h6.74l.81-49.69,24.46-37.78Z"/><path class="cls-2" d="M759.44,321c0,50.16-29.87,67.67-66.72,67.67S626,371.12,626,321s66.72-114,66.72-114S759.44,270.8,759.44,321Z"/><path class="cls-3" d="M690.29,381l.68-42L719.41,287l-28.33,45.35.31-18.87L711,275.94l-19.52,32.58.55-33.95,21-29.91-20.9,24.58.34-62.26-2.17,82.41.18-3.4-21.34-32.6,21,39.13-2,37.92-.06-1-24.6-34.31L688,333l-.25,4.74,0,.07,0,.39-5,96.19h6.74l.81-49.68,24.46-37.78Z"/><path class="cls-2" d="M620.66,278.36c0,54.84-32.66,74-72.94,74s-73-19.15-73-74,73-124.62,73-124.62S620.66,223.51,620.66,278.36Z"/><path class="cls-3" d="M545.06,344l.75-45.9,31.09-56.78-31,49.58.34-20.64,21.43-41.08-21.34,35.62.6-37.12,22.95-32.7-22.85,26.87.38-68.07-2.38,90.11.2-3.72-23.33-35.65,23,42.78-2.17,41.46-.06-1.1-26.9-37.52,26.82,41.41-.28,5.18,0,.08,0,.42-5.52,105.18h7.37L545,348l26.75-41.3Z"/><path class="cls-3" d="M702.5,438.93c0,11.77-77.26,48.4-172.57,48.4s-172.58-36.63-172.58-48.4,71-38.19,166.35-38.19S702.5,427.16,702.5,438.93Z"/><path class="cls-4" d="M702.5,438.93c0,11.77-77.26,48.4-172.57,48.4s-172.58-36.63-172.58-48.4,71-38.19,166.35-38.19S702.5,427.16,702.5,438.93Z"/><path class="cls-3" d="M702.5,438.93c0,11.77-77.26,21.32-172.57,21.32s-172.58-9.55-172.58-21.32,71-38.19,166.35-38.19S702.5,427.16,702.5,438.93Z"/><path class="cls-3" d="M587.94,379.91c0,16.89,10.61,30.55,23.72,30.55Z"/><path class="cls-2" d="M611.67,410.46c0-17.07,11.84-30.89,26.47-30.89Z"/><path class="cls-2" d="M596.54,381.44c0,16,6.76,29,15.13,29Z"/><path class="cls-3" d="M611.67,410.46c0-21.82,13.68-39.47,30.6-39.47Z"/><path class="cls-5" d="M606.67,410.68s3.37-.11,4.38-.83,5.18-1.58,5.43-.42,5.06,5.75,1.26,5.78-8.83-.59-9.84-1.21S606.67,410.68,606.67,410.68Z"/><path class="cls-6" d="M617.81,414.8c-3.8,0-8.83-.59-9.84-1.2-.77-.47-1.08-2.15-1.18-2.93h-.12s.22,2.71,1.23,3.32,6,1.24,9.84,1.21c1.09,0,1.47-.4,1.45-1C619,414.58,618.62,414.8,617.81,414.8Z"/><path class="cls-4" d="M532.15,446c32.43,0,58.71-4.18,58.71-9.33s-26.28-9.32-58.71-9.32-58.71,4.17-58.71,9.32S499.72,446,532.15,446Z"/><path class="cls-7" d="M558,415.84h-5.78v13.32H558Z"/><path class="cls-8" d="M558.39,236H536.15v40h22.24Z"/><path class="cls-7" d="M574.73,311.64l.77,6.15-20.27,6.15-2.57-11.27Z"/><path class="cls-7" d="M544.71,252.47s-.52,4.61-1.54,4.61-4.62,1.79-4.62,1.79l-1,4.87,7.19,4.36,11.8-1.28,3.33-5.13-3.33-3.33s-2.82-6.14-1.8-7.43S544.71,252.47,544.71,252.47Z"/><path class="cls-4" d="M544.71,252.47s-.52,4.61-1.54,4.61-4.62,1.79-4.62,1.79l-1,4.87,7.19,4.36,11.8-1.28,3.33-5.13-3.33-3.33s-2.82-6.14-1.8-7.43S544.71,252.47,544.71,252.47Z"/><path class="cls-7" d="M512.63,412.05s-2.31,15.37-5.13,16.39,10.78,2.82,10.78,2.82l1-5.64s.26-10.24,1.29-11.78S512.63,412.05,512.63,412.05Z"/><path class="cls-9" d="M538.8,322.65S576,316,576.27,314.71s7.69,9.74,3.07,31.25-16.16,72.24-16.16,72.24-11.8,3.58-11.55.76,4.11-51.74,4.11-51.74l-2.57-20.74L548.81,349,530.59,384.9l-9.23,31s-11.81,2.05-10-2.3,7.7-38.17,7.7-38.17l16.16-47.64S534.7,322.65,538.8,322.65Z"/><path class="cls-7" d="M548.17,255.93a10.76,10.76,0,1,0-10.78-10.76A10.77,10.77,0,0,0,548.17,255.93Z"/><path class="cls-10" d="M559.33,258.62s-5.13,4.87-17.19,3.58,3.34,27.41,3.34,27.41l4.87,28.95s21.55-2.57,22.32-7.43S559.33,258.62,559.33,258.62Z"/><path class="cls-9" d="M554.2,286S548,283,545.73,274.5s-4.36-17.16-5.64-16.91c-1.09.22-11.13,4.09-14.39,6.68a2.37,2.37,0,0,0-1,1.26c-.25,2.31,9.24,25.36,9.24,25.36s7.44,16.65,4.36,22-3.33,12.3,2.31,11.78,24.38-1.53,21.81-15.88c0,0,4.87,10,18.47,2.82,0,0,8.21-1.28,8-4.1s-13.09-27.15-13.09-27.15-2-10.76,1.8-14.86l-8.73-10.24s-2.05-3.07-4.1-1.54a53.05,53.05,0,0,1-7.44,4.36c-.77.25-1.28-.92-1.28-.92a22.21,22.21,0,0,0-2.06,11.93A130.47,130.47,0,0,1,554.2,286Z"/><path class="cls-9" d="M513.4,425.37s-.57-1.79-3.88,0c0,0,1.06-5.64-2.53-5.64s-4.88,6.66-4.88,6.66-1,4.36-7.95,6.15-1.54,7.94,3.34,7.94,11.28-3.84,11.28-3.84,13.35.25,13.6-2.31-1.28-10.24-2.31-10.24-3.07,3.58-3.07,3.58Z"/><path class="cls-9" d="M557,420.86s-3.59-3.84-5.64,2.56-3.6,9-2.31,10,2.31.51,1.79,2.56,1.54,6.41,6.16,6.41,5.9-3.33,5.65-5.64-2.31-5.12-2.31-5.12l-2.06-7.17Z"/><path class="cls-7" d="M577.29,240.69l-13.6,4.61s-12.31,7.17-6.92,8.71,10-4.61,10-4.61l11.8-3.08Z"/><path class="cls-8" d="M540.84,228.54a19.49,19.49,0,0,0-4.12,4.14c-2.49,3.1-4.92,6.8-4.31,10.72.23,1.49.9,2.88,1.27,4.34a23.27,23.27,0,0,1,.44,6.07,8.18,8.18,0,0,1-.32,2.56,16.93,16.93,0,0,1-1.27,2.33c-1.23,2.3-1.26,5-1.26,7.64a6.51,6.51,0,0,0,.35,2.59A9.92,9.92,0,0,0,533.1,271a8.91,8.91,0,0,1,1.68,3.89,9.05,9.05,0,0,1-.29,4.23,3.61,3.61,0,0,0,1.89-.54,3.45,3.45,0,0,0,1.3-1.48,4.4,4.4,0,0,1-1.14,3.62c2.94-.87,6.09-2.34,7.16-5.2a11.07,11.07,0,0,0,.53-3c.57-7.19.9-14.65-1.69-21.38-.82-2.15-1.95-4.24-2.22-6.53s.57-4.94,2.67-5.88a2.42,2.42,0,0,0,.74,1.54c.47.35,1.33.13,1.34-.45l1,1.41a2.53,2.53,0,0,0,1-.84l.69.85,1.49-1.07,1.29,1.38a2.75,2.75,0,0,0,1.13-1.23c.28.42.62.87,1.12.92,1.08.09,1.3-1.62,2.24-2.15a1.58,1.58,0,0,1,1.11-.07,1.56,1.56,0,0,1,.88.67,3.23,3.23,0,0,1,.4,2.19c-.39,3.53-3.4,6.74-2.51,10.17.51,1.93,2.2,3.48,2.32,5.46.11,1.59-.83,3.1-.81,4.69,0,1.87,1.3,3.45,2.56,4.83q3.38,3.68,7.09,7l-.77-1.34a2.4,2.4,0,0,1,1.06.15,2.47,2.47,0,0,1,.89.57,3.37,3.37,0,0,0-.48-2.29,36.61,36.61,0,0,1-4-13.72c-.35-6.64,2.05-13.4.53-19.88a17.14,17.14,0,0,0-5.8-9.25,6.92,6.92,0,0,0-4.28-2,32,32,0,0,0-6.11,0A13.88,13.88,0,0,0,540.84,228.54Z"/><path class="cls-9" d="M566.77,255.55a21.33,21.33,0,0,0,4.11,0A10.83,10.83,0,0,0,574,254l9.75-7.17-8.47,1.28s1.54-11.79,1-12,24.89-5.12,24.38,2.82-14.88,23.56-23.09,26.63l-5.39.77Z"/><path class="cls-11" d="M594.42,346.35h-121v28.42h121Z"/><path class="cls-3" d="M578.63,352.79H488.78v15.1h89.85Z"/><path class="cls-11" d="M509.66,360c0-.39-1.75-.56-4.1-.46,1.36-1.92,2.15-3.45,1.85-3.69s-1.47.76-2.91,2.35c-.13-2.14-.45-3.64-.82-3.64s-.74,1.79-.85,4.24c-2-1.43-3.61-2.28-3.86-2s.84,1.56,2.56,3.08c-2.26.33-3.86.81-3.83,1.19s1.76.56,4.11.46c-1.36,1.92-2.15,3.45-1.85,3.69s1.47-.76,2.9-2.35c.14,2.14.46,3.64.82,3.64s.74-1.79.85-4.24c2,1.43,3.62,2.27,3.86,2s-.84-1.57-2.56-3.08C508.1,360.86,509.7,360.39,509.66,360Z"/><path class="cls-11" d="M524.79,360c0-.39-1.76-.56-4.11-.46,1.36-1.92,2.15-3.45,1.85-3.69s-1.47.76-2.91,2.35c-.13-2.14-.45-3.64-.81-3.64s-.74,1.79-.85,4.24c-2-1.43-3.62-2.28-3.87-2s.85,1.56,2.56,3.08c-2.26.33-3.86.81-3.82,1.19s1.75.56,4.1.46c-1.36,1.92-2.15,3.45-1.85,3.69s1.47-.76,2.91-2.35c.13,2.14.45,3.64.82,3.64s.74-1.79.85-4.24c2,1.43,3.61,2.27,3.86,2s-.85-1.57-2.56-3.08C523.22,360.86,524.82,360.39,524.79,360Z"/><path class="cls-11" d="M539.91,360c0-.39-1.75-.56-4.11-.46,1.37-1.92,2.16-3.45,1.85-3.69s-1.47.76-2.9,2.35c-.14-2.14-.45-3.64-.82-3.64s-.74,1.79-.85,4.24c-2-1.43-3.61-2.28-3.86-2s.84,1.56,2.56,3.08c-2.27.33-3.86.81-3.83,1.19s1.75.56,4.1.46c-1.36,1.92-2.15,3.45-1.84,3.69s1.46-.76,2.9-2.35c.14,2.14.45,3.64.82,3.64s.74-1.79.85-4.24c2,1.43,3.61,2.27,3.86,2s-.84-1.57-2.56-3.08C538.35,360.86,539.94,360.39,539.91,360Z"/><path class="cls-11" d="M555,360c0-.39-1.75-.56-4.1-.46,1.36-1.92,2.15-3.45,1.84-3.69s-1.46.76-2.9,2.35c-.14-2.14-.45-3.64-.82-3.64s-.74,1.79-.85,4.24c-2-1.43-3.61-2.28-3.86-2s.84,1.56,2.56,3.08c-2.27.33-3.86.81-3.83,1.19s1.75.56,4.11.46c-1.37,1.92-2.16,3.45-1.85,3.69s1.47-.76,2.9-2.35c.14,2.14.45,3.64.82,3.64s.74-1.79.85-4.24c2,1.43,3.62,2.27,3.86,2s-.84-1.57-2.56-3.08C553.47,360.86,555.07,360.39,555,360Z"/><path class="cls-11" d="M570.15,360c0-.39-1.75-.56-4.1-.46,1.36-1.92,2.15-3.45,1.85-3.69s-1.47.76-2.91,2.35c-.13-2.14-.45-3.64-.82-3.64s-.73,1.79-.85,4.24c-2-1.43-3.61-2.28-3.86-2s.85,1.56,2.56,3.08c-2.26.33-3.86.81-3.82,1.19s1.75.56,4.1.46c-1.36,1.92-2.15,3.45-1.85,3.69s1.47-.76,2.91-2.35c.13,2.14.45,3.64.81,3.64s.74-1.79.86-4.24c2,1.43,3.61,2.27,3.86,2s-.85-1.57-2.56-3.08C568.59,360.86,570.19,360.39,570.15,360Z"/><path class="cls-7" d="M523.15,334.18s-1.28,16.91,4.88,17.68.51-19.22.51-19.22Z"/><path class="cls-9" d="M526.49,265l-1.8.51s-7.44,59.43-2.56,71c0,0,5.13-2.82,7.69-2.31l4.11-48.41Z"/></svg>