<svg xmlns="http://www.w3.org/2000/svg" xmlns:xlink="http://www.w3.org/1999/xlink" viewBox="0 0 584 549"><defs><style>.cls-1{fill:none;}.cls-2{fill:url(#linear-gradient);}.cls-3,.cls-6{fill:#5cd894;}.cls-3{opacity:0.15;isolation:isolate;}.cls-4{fill:#edf5e0;}.cls-5{fill:#fcfcfc;}.cls-7{fill:#fbbebe;}.cls-8{fill:#1c1c1c;}.cls-9{fill:#379482;}.cls-10{fill:#ffb9b9;}.cls-11{fill:#cfcce0;}</style><linearGradient id="linear-gradient" x1="-432.95" y1="-1041.08" x2="-60.02" y2="-1433.02" gradientTransform="matrix(1, 0, 0, -1, 539.01, -979.6)" gradientUnits="userSpaceOnUse"><stop offset="0" stop-color="#062a4e"/><stop offset="1" stop-color="#05386b"/></linearGradient></defs><title>discussions</title><g id="Layer_2" data-name="Layer 2"><rect class="cls-1" x="5.12" y="48.68" width="573.73" height="451.65"/><path class="cls-2" d="M64.47,345C26.63,325,5.12,280.23,5.12,240c0-63.14,53.15-118.29,102.72-123.26,48.9-4.92,63.49,42.07,110.71,37.66,64.27-6,69.69-95.88,132.45-105,61-8.83,143.69,63.31,149.56,129,2.29,25.87-7.16,52.47,5.7,60.51C521.68,248.5,546,217,562.2,224c25,10.9,26.38,114.49-27.39,186C477.25,486.58,358.6,524,307.63,484.24c-45.49-35.48-8.27-109.91-54.77-141.54C201.84,308.06,133.16,381.42,64.47,345Z"/><rect class="cls-1" x="120.53" y="149.42" width="447.65" height="293.54"/><path class="cls-3" d="M344.36,443c123.61,0,223.82-6.29,223.82-14s-100.21-14-223.82-14-223.83,6.29-223.83,14S220.74,443,344.36,443Z"/><path class="cls-4" d="M462.62,149.42A1.59,1.59,0,0,0,461,151v62.35a1.59,1.59,0,0,0,1.59,1.59h72.87a1.56,1.56,0,0,0,1.12-.46,1.59,1.59,0,0,0,.47-1.13V151a1.59,1.59,0,0,0-1.59-1.59Z"/><path class="cls-5" d="M472.73,187a.69.69,0,0,0-.4.24.7.7,0,0,0,0,.89.69.69,0,0,0,.4.24H526a.69.69,0,0,0,.4-.24.7.7,0,0,0,0-.89.69.69,0,0,0-.4-.24Z"/><path class="cls-5" d="M472.07,195.09a.74.74,0,0,0-.4.25.68.68,0,0,0,0,.88.67.67,0,0,0,.4.24h53.31a.7.7,0,0,0,.41-1.12.77.77,0,0,0-.41-.25Z"/><path class="cls-5" d="M472.73,203.24a.64.64,0,0,0-.4.24.69.69,0,0,0,0,.88.66.66,0,0,0,.4.25H526a.66.66,0,0,0,.4-.25.69.69,0,0,0,0-.88.64.64,0,0,0-.4-.24Z"/><path class="cls-5" d="M472.73,159.76a.71.71,0,0,0-.4.25.68.68,0,0,0,0,.88.71.71,0,0,0,.4.25H526a.71.71,0,0,0,.4-.25.69.69,0,0,0,0-.88.71.71,0,0,0-.4-.25Z"/><path class="cls-5" d="M472.07,167.91a.7.7,0,0,0,0,1.37h53.31a.75.75,0,0,0,.41-.24.72.72,0,0,0,.15-.45.71.71,0,0,0-.15-.44.75.75,0,0,0-.41-.24Z"/><path class="cls-5" d="M472.73,176.05a.69.69,0,0,0-.4.24.75.75,0,0,0-.16.45.7.7,0,0,0,.16.44.69.69,0,0,0,.4.24H526a.69.69,0,0,0,.4-.24.7.7,0,0,0,.16-.44.75.75,0,0,0-.16-.45.69.69,0,0,0-.4-.24Z"/><path class="cls-6" d="M430.06,174.92a1.58,1.58,0,0,0-1.13.46,1.61,1.61,0,0,0-.47,1.13v62.35a1.59,1.59,0,0,0,1.6,1.59h72.86a1.57,1.57,0,0,0,1.59-1.59V176.51a1.64,1.64,0,0,0-.46-1.13,1.6,1.6,0,0,0-1.13-.46Z"/><path class="cls-5" d="M440.16,212.45a.69.69,0,0,0-.4.24.72.72,0,0,0-.16.44.75.75,0,0,0,.16.45.69.69,0,0,0,.4.24h53.31a.69.69,0,0,0,.4-.24.75.75,0,0,0,.16-.45.72.72,0,0,0-.16-.44.69.69,0,0,0-.4-.24Z"/><path class="cls-5" d="M439.51,220.59a.75.75,0,0,0-.41.24.74.74,0,0,0-.15.45.71.71,0,0,0,.15.44.75.75,0,0,0,.41.24h53.31a.72.72,0,0,0,.4-.24.71.71,0,0,0,.15-.44.74.74,0,0,0-.15-.45.72.72,0,0,0-.4-.24Z"/><path class="cls-5" d="M440.16,228.74a.64.64,0,0,0-.4.24.69.69,0,0,0,0,.88.71.71,0,0,0,.4.25h53.31a.71.71,0,0,0,.4-.25.69.69,0,0,0,0-.88.64.64,0,0,0-.4-.24Z"/><path class="cls-5" d="M440.16,185.26a.71.71,0,0,0-.4.25.68.68,0,0,0,0,.88.64.64,0,0,0,.4.24h53.31a.64.64,0,0,0,.4-.24.69.69,0,0,0,0-.88.71.71,0,0,0-.4-.25Z"/><path class="cls-5" d="M439.51,193.41a.7.7,0,0,0-.41,1.12.71.71,0,0,0,.41.25h53.31a.69.69,0,0,0,.4-.25.69.69,0,0,0,0-.88.67.67,0,0,0-.4-.24Z"/><path class="cls-5" d="M440.16,201.55a.69.69,0,0,0-.4.24.7.7,0,0,0,0,.89.69.69,0,0,0,.4.24h53.31a.69.69,0,0,0,.4-.24.7.7,0,0,0,0-.89.69.69,0,0,0-.4-.24Z"/><path class="cls-7" d="M533,407.53l.38,7.25,8-.76-.76-7.26Z"/><path class="cls-7" d="M502.05,399.13l.39,7.25,8-.76-.77-7.25Z"/><path class="cls-8" d="M538.53,308.85l-29,5-1.91,52.68L500,400.08l12.23,5.35L524,372.22l4.21-29.4,3,29.4.38,37,18.72-1.14-4.48-72.51a67.36,67.36,0,0,0-7.36-26.74Z"/><path class="cls-8" d="M534.14,412.11s-2.68-3.06-2.68-1.91-1.53,12.21-1.53,12.21,10.32,3.06,10.32,5,14.89,5,14.51,1.14-13.37-18.32-13.37-18.32S536.05,409.44,534.14,412.11Z"/><path class="cls-8" d="M503.67,403.76s-.82-4-1.38-3-7.37,9.86-7.37,9.86,7.45,7.75,6.51,9.41,10.49,11.67,12.05,8.16-2.56-22.53-2.56-22.53S506.65,402.38,503.67,403.76Z"/><path class="cls-8" d="M503.08,266.77l21.14,2,7-19.2L511,244.72Z"/><path class="cls-7" d="M520.39,262.85a10.69,10.69,0,1,0-10.7-10.69A10.7,10.7,0,0,0,520.39,262.85Z"/><path class="cls-7" d="M514.28,258.65s0,7.25-5.73,10.31,13.75,6.49,13.75,6.49l1.91-6.49s-5.73-2.68-.77-8.78Z"/><path class="cls-9" d="M523.44,267.05s-7,4.33-12.85.44l-2.42-.44-7.26,1.52-3.44,13,13,32.45s22.53,3.82,27.11-4.58l-2.67-34.36-7.26-8.78Z"/><path class="cls-9" d="M526.88,267.43l12.6-17.56L538.34,248l-16.43-8.4v-5.34l25.59,6.87,1.73,2.74-15.09,32.76Z"/><path class="cls-9" d="M501.67,269l-.76-.39-19.1-.76,14.52-12.6-4.59-5.72L470,265.9v3.82l30.94,13Z"/><path class="cls-7" d="M491.55,251.2l2.68-1.52s5.72-7.64,8-4.58-5.35,8.78-5.35,8.78l-4.2,1.52Z"/><path class="cls-7" d="M523.06,235.36l-4.2-2.29s-12.6,1.15-11.08,3.82,10.32.38,10.32.38l5,1.53Z"/><path class="cls-8" d="M512.18,241.84s-4.91,1.64-5.16,8.1a11.27,11.27,0,0,0,.34,3.06c.28,1.18.45,3.69-1.69,7a68.54,68.54,0,0,0-3.92,6.75l0,0,5.39.67,1.15-8.93A44.81,44.81,0,0,1,511.8,246l0-.09s2.36,4.38,7.08,4.38l-1.69-1.68s7.41,3,10.11,3c0,0,2,1.35,0,3.37s-6.07,6.73-3.71,10.44.34,4.71.34,4.71l3.71-2,1.68-1v1.35l8.76-1s2.36-.34-2.69-6.06c0,0-1.34-2.23-.75-4.14a9.66,9.66,0,0,0,.36-4.53C533.91,246.4,529.47,233.85,512.18,241.84Z"/><path class="cls-4" d="M204.82,248.08a1,1,0,0,0-.7.29,1,1,0,0,0-.3.7v76.08a1,1,0,0,0,.3.7,1,1,0,0,0,.7.29H378.55a1,1,0,0,0,.7-.29,1,1,0,0,0,.3-.7V249.07a1,1,0,0,0-.3-.7,1,1,0,0,0-.7-.29Z"/><path class="cls-5" d="M355,263.09H228.33a1.22,1.22,0,0,1-.46-.09,1.2,1.2,0,0,1-.65-.65,1.17,1.17,0,0,1,.26-1.3,1.27,1.27,0,0,1,.39-.26,1.22,1.22,0,0,1,.46-.09H355a1.2,1.2,0,0,1,1.19,1.19,1.2,1.2,0,0,1-1.19,1.2Z"/><path class="cls-5" d="M355,272.65H228.33a1.2,1.2,0,0,1-1.2-1.2,1.2,1.2,0,0,1,1.2-1.19H355a1.2,1.2,0,0,1,1.2,1.19,1.2,1.2,0,0,1-1.2,1.2Z"/><path class="cls-5" d="M355,282.2H228.33a1.22,1.22,0,0,1-.46-.09,1.24,1.24,0,0,1-.39-.25,1.4,1.4,0,0,1-.26-.39,1.22,1.22,0,0,1,0-.92,1.2,1.2,0,0,1,.65-.65,1.22,1.22,0,0,1,.46-.09H355a1.2,1.2,0,0,1,0,2.39Z"/><path class="cls-5" d="M355,291.69H228.33a1.23,1.23,0,0,1-.85-.35,1.2,1.2,0,0,1,0-1.69,1.23,1.23,0,0,1,.85-.35H355a1.23,1.23,0,0,1,.85.35,1.2,1.2,0,0,1,0,1.69A1.23,1.23,0,0,1,355,291.69Z"/><path class="cls-5" d="M355,301.25H228.33a1.22,1.22,0,0,1-.46-.09,1.27,1.27,0,0,1-.39-.26,1.16,1.16,0,0,1-.26-.39,1.18,1.18,0,0,1-.09-.46,1.2,1.2,0,0,1,.35-.84,1.27,1.27,0,0,1,.39-.26,1.22,1.22,0,0,1,.46-.09H355a1.23,1.23,0,0,1,.85.35,1.2,1.2,0,0,1,0,1.69A1.23,1.23,0,0,1,355,301.25Z"/><path class="cls-5" d="M322.88,309.2a.35.35,0,0,0-.24.1.33.33,0,0,0-.1.24v9a.31.31,0,0,0,.1.24.35.35,0,0,0,.24.1h31.65a.35.35,0,0,0,.24-.1.31.31,0,0,0,.1-.24v-9a.33.33,0,0,0-.1-.24.35.35,0,0,0-.24-.1Z"/><path class="cls-8" d="M149.49,326l-3.17,38.14a48,48,0,0,1-2.81,12.34,11.61,11.61,0,0,0-1.12,4.48v28.61a1.66,1.66,0,0,0-1.68,2.24c.56,2.24,1.12,6.17,1.12,6.17h8.42a1.73,1.73,0,0,1,1.12-2.24c1.68-.56,0-5,0-5l9-33.65L173.81,349s7.86,25.24,9.54,28.05c0,0,6.17,31.41,7.3,34.21s1.68,2.8,1.12,3.93a2.5,2.5,0,0,0,0,2.8c.56.56,11.22,0,11.22,0l-2.81-39.82-5.05-47.67-25.81-7.86Z"/><path class="cls-8" d="M148,413.46s-2.8-10.09-7.29-2.24-4.49,10.66-4.49,10.66-7.3,10.65,2.8,9.53,7.86-6.17,7.86-6.17,3.93-2.24,3.93-3.92S148,413.46,148,413.46Z"/><path class="cls-8" d="M193.45,412.34s2.81-10.09,7.3-2.24,4.48,10.65,4.48,10.65,7.3,10.66-2.8,9.54-7.86-6.17-7.86-6.17-3.92-2.24-3.92-3.93S193.45,412.34,193.45,412.34Z"/><path class="cls-10" d="M167.08,250.25s1.12,7.29-2.25,9,7.3,7.85,10.1,7.85,7.86-5.61,7.86-5.61-2.81-8.41-2.24-10.09Z"/><path class="cls-10" d="M173.25,255.86a11.78,11.78,0,1,0-11.78-11.78A11.77,11.77,0,0,0,173.25,255.86Z"/><path class="cls-11" d="M196.26,268.2l-14-8.49s-8,9.05-16.62-1l-14.8,3.92,2.24,38.14s-3.37,15.14-2.24,17.95-2.81,3.92-1.69,4.48,0,4.49,0,4.49,21.89,11.22,46,2.81l-2.24-7.3a5.86,5.86,0,0,0-1.12-5.6s2.24-3.37-.56-6.17c0,0,1.12-5.05-1.69-7.29l-.56-7.86,1.69-3.92Z"/><path class="cls-8" d="M167.22,238.61s-1.4,3,4.22,1.83c0,0,2.1,1.21,2.1-.61,0,0,2.81,3,3.51,1.22s2.11.6,2.11.6l1.41-3,1.4,1.83h4.92s1.4-12.16-15.45-10.94S162.87,250,162.87,250s.14-3.45,1.54-1.63S167.22,238.61,167.22,238.61Z"/><path class="cls-10" d="M201.31,290.64l.56,11.77s2.24,21.88-2.25,31.41v5.05s-1.12,12.9-6.73,12.34,1.68-18.51,1.68-18.51L193.45,308l-1.12-14Z"/><path class="cls-11" d="M190.08,268.76l5.6-.91a27.32,27.32,0,0,1,7.87,14.37c1.68,9,2.25,10.66,2.25,10.66l-13.47,3.36-7.3-14Z"/><path class="cls-6" d="M166.59,272.08a1,1,0,0,0-.7.3,1,1,0,0,0-.3.7v76.07a1,1,0,0,0,1,1H340.32a1,1,0,0,0,1-1V273.08a1,1,0,0,0-1-1Z"/><path class="cls-5" d="M316.81,287.09H190.1a1.18,1.18,0,0,1-1.19-1.19,1.18,1.18,0,0,1,1.19-1.2H316.81a1.2,1.2,0,0,1,1.2,1.2,1.21,1.21,0,0,1-.35.84A1.19,1.19,0,0,1,316.81,287.09Z"/><path class="cls-5" d="M316.81,296.65H190.1a1.23,1.23,0,0,1-.85-.35,1.2,1.2,0,0,1-.34-.84,1.18,1.18,0,0,1,1.19-1.2H316.81a1.2,1.2,0,0,1,1.2,1.2,1.21,1.21,0,0,1-.35.84A1.19,1.19,0,0,1,316.81,296.65Z"/><path class="cls-5" d="M316.81,306.21H190.1a1.18,1.18,0,0,1-1.19-1.2,1.2,1.2,0,0,1,.34-.84,1.23,1.23,0,0,1,.85-.35H316.81a1.22,1.22,0,0,1,.46.09,1.27,1.27,0,0,1,.39.26,1.2,1.2,0,0,1,.35.84,1.18,1.18,0,0,1-.09.46,1.16,1.16,0,0,1-.26.39,1.27,1.27,0,0,1-.39.26A1.22,1.22,0,0,1,316.81,306.21Z"/><path class="cls-5" d="M316.81,315.7H190.1a1.18,1.18,0,0,1-1.19-1.2,1.18,1.18,0,0,1,1.19-1.19H316.81a1.22,1.22,0,0,1,.46.09,1.11,1.11,0,0,1,.39.26,1.2,1.2,0,0,1,.26,1.3,1.2,1.2,0,0,1-.65.65A1.22,1.22,0,0,1,316.81,315.7Z"/><path class="cls-5" d="M316.81,325.26H190.1a1.2,1.2,0,0,1-1.2-1.2,1.2,1.2,0,0,1,1.2-1.19H316.81a1.2,1.2,0,0,1,1.2,1.19,1.2,1.2,0,0,1-1.2,1.2Z"/><path class="cls-5" d="M284.65,333.21a.34.34,0,0,0-.34.34v9a.33.33,0,0,0,.1.25.35.35,0,0,0,.24.1H316.3a.35.35,0,0,0,.24-.1.37.37,0,0,0,.1-.25v-9a.35.35,0,0,0-.1-.24.31.31,0,0,0-.24-.1Z"/><path class="cls-10" d="M142.39,283.9s-5,21.32,1.12,21.32,20.76-24.12,20.76-24.12,15.15-7.85,9-10.66-14,4.49-14,4.49l-9.06,12.58-.48-6.41Z"/><path class="cls-11" d="M154.17,266l-3.36-3.37s-6.74,3.93-7.3,7.85-3.36,16.27-3.36,16.27l10.38.84,3.36-5.05Z"/></g></svg>