<svg xmlns="http://www.w3.org/2000/svg" xmlns:xlink="http://www.w3.org/1999/xlink" viewBox="0 0 584 549"><defs><style>.cls-1{fill:url(#linear-gradient);}.cls-2{fill:#8de4af;}.cls-3{fill:#389583;}.cls-4{fill:#1c1c1c;}.cls-5{fill:#5cd894;}.cls-6{fill:#ffb8b8;}</style><linearGradient id="linear-gradient" x1="-498.18" y1="-1036.17" x2="-60.28" y2="-1483.46" gradientTransform="matrix(1, 0, 0, -1, 539.01, -979.6)" gradientUnits="userSpaceOnUse"><stop offset="0" stop-color="#012952"/><stop offset="1" stop-color="#05386b"/></linearGradient></defs><title>environment_impact</title><g id="Layer_2" data-name="Layer 2"><path class="cls-1" d="M208.68,468.22C159,446.5,89.12,414.84,46,338.61,12,278.46-21.34,162.39,43.09,88,123-4.3,303.35,25,329.65,85.11c17.9,41-41.88,82.78-23,118.11,30.59,57.4,124.63-28.27,206.83,47.53C564,297.43,570.1,395.23,533.59,452.42,464.5,560.52,323.16,518.21,208.68,468.22Z"/><path class="cls-2" d="M547.82,366.25c-2.39,0-4.67,1.16-6.81,3.26-5.79-20.88-14.77-34.31-24.85-34.31s-19.06,13.43-24.85,34.31c-2.13-2.1-4.42-3.26-6.8-3.26-11.46,0-20.74,26.4-20.74,59H568.56C568.56,392.65,559.27,366.25,547.82,366.25Z"/><path class="cls-2" d="M237.82,332.87a11.58,11.58,0,0,0-6.81,2.39c-5.79-15.31-14.77-25.15-24.85-25.15S187.1,320,181.31,335.26a11.58,11.58,0,0,0-6.8-2.39c-11.46,0-20.74,19.37-20.74,43.26H258.56C258.56,352.24,249.27,332.87,237.82,332.87Z"/><path class="cls-3" d="M577.55,436.69H26.33c.5-44.77,123.71-81,275.61-81S577.06,391.92,577.55,436.69Z"/><path class="cls-2" d="M95.91,260.65a70.48,70.48,0,1,0-70.5-70.48A70.5,70.5,0,0,0,95.91,260.65Z"/><path class="cls-4" d="M98.19,392h-4V198.37a66.65,66.65,0,0,1,2-16.16,66.65,66.65,0,0,1,2,16.16Z"/><path class="cls-4" d="M96.42,250.11l-2.09-3.38,29.44-18.25a12.7,12.7,0,0,1,6.81-1.88,12.56,12.56,0,0,1-4.71,5.27Z"/><path class="cls-4" d="M95,231.72l2.09-3.38L76.87,215.79a7.55,7.55,0,0,0-5.39-1,7.55,7.55,0,0,0,3.29,4.38Z"/><path class="cls-4" d="M95,309l2.09-3.38L76.87,293.09a7.55,7.55,0,0,0-5.39-1,7.55,7.55,0,0,0,3.29,4.38Z"/><path class="cls-2" d="M469.77,258.82a67.66,67.66,0,1,0-67.68-67.66A67.67,67.67,0,0,0,469.77,258.82Z"/><path class="cls-4" d="M467.59,384.85h3.82V199a64,64,0,0,0-1.91-15.52A64,64,0,0,0,467.59,199Z"/><path class="cls-4" d="M469.28,248.7l2-3.25L443,227.94a12.06,12.06,0,0,0-6.54-1.8,12.05,12.05,0,0,0,4.52,5.05Z"/><path class="cls-4" d="M470.61,231.05l-2-3.25,19.45-12.05a7.29,7.29,0,0,1,5.18-.95,7.25,7.25,0,0,1-3.16,4.2Z"/><path class="cls-4" d="M470.61,305.25l-2-3.24L488.05,290a7.25,7.25,0,0,1,5.18-1,7.22,7.22,0,0,1-3.16,4.2Z"/><path class="cls-2" d="M106.34,429.9a4.49,4.49,0,0,0-1.77.37,7.27,7.27,0,0,0-12.94,0,4.54,4.54,0,0,0-1.78-.37c-3,0-5.4,3-5.4,6.79h27.29C111.74,432.94,109.32,429.9,106.34,429.9Z"/><path class="cls-2" d="M275.53,425.25a3,3,0,0,0-1.77.63c-1.51-4.05-3.85-6.65-6.47-6.65s-5,2.6-6.47,6.65a3,3,0,0,0-1.78-.63c-3,0-5.4,5.12-5.4,11.44h27.29C280.93,430.37,278.51,425.25,275.53,425.25Z"/><path class="cls-5" d="M510.76,425.25a3,3,0,0,0-1.77.63c-1.51-4.05-3.85-6.65-6.47-6.65s-5,2.6-6.48,6.65a3,3,0,0,0-1.77-.63c-3,0-5.4,5.12-5.4,11.44h27.29C516.16,430.37,513.74,425.25,510.76,425.25Z"/><path class="cls-4" d="M364.54,321.71l-.87,4.12L362.59,330l-3.47,49,11.92.87,5.42-53.52-.87-2.81Z"/><path class="cls-4" d="M354.35,372.2l-5,7.58s-13.87,11.27-3.9,11.92S359.12,385,359.12,385s3.47-1.08,3.9-2.17-.87-10.61-.87-10.61Z"/><path class="cls-4" d="M360,378.05s-5,12.56-4.34,14.73,1.73,2.17,1.52,4.12-.87,6.5,7.37,6.71,4.33-10.83,4.33-10.83l-1.08-14.73Z"/><path class="cls-4" d="M344.81,285.1s-3,5.2-2.6,8.45,6.72,38.13,6.72,38.13l5,42.47,11.05-.87-4.33-39.22,1.08-31.2,1.95,23,12.79.43L384,293.55s-5.63-9.1-6.72-9.75S344.81,285.1,344.81,285.1Z"/><path class="cls-6" d="M359.88,219.34a9.32,9.32,0,1,0-9.32-9.32A9.32,9.32,0,0,0,359.88,219.34Z"/><path class="cls-6" d="M357.17,216l1.3,12.35,14.3-2.17L365,211.65Z"/><path class="cls-2" d="M371.69,222.48s-7.37,5.42-14.52,2.38l-10.84,27.52v34.45s16.26,4.77,25.36-.87c0,0,6.5-1.3,7.58-1.08s-3.9-58.72-3.9-58.72Z"/><path class="cls-3" d="M365,223.78l5,7.15a8.62,8.62,0,0,1,.87,5.85c-.65,3.47-1.3,48.75,4.77,50.48a33.2,33.2,0,0,0,10,1.52s-5.42-26-3.47-30.55l6.07-27.3-16-9.1s-1-4.12-2.67-1.84A15.26,15.26,0,0,1,365,223.78Z"/><path class="cls-3" d="M350.45,264.08l7.4-41.6-7.4,3.9S342,229.85,340.26,234s-8.67,23.84-8.67,23.84,1.74,11.91,8.24,6.93,5-7.37,5-7.37-5.63,23-4.76,23.62,1.3,6.72,1.3,6.72l6.71-1.3Z"/><path class="cls-6" d="M342,240.9l2.81-4.12s6.38-12.78,11-8.45-8.6,14.3-8.6,14.3Z"/><path class="cls-6" d="M380.14,285.75,378.41,288l4.33,5.58,1.95-3.9Z"/><path class="cls-4" d="M356.14,202.3a4.94,4.94,0,0,0-2.58,1.15,4,4,0,0,1-2.62,1,2.75,2.75,0,0,1-1.22-.54,2.72,2.72,0,0,1-.84-1,8.34,8.34,0,0,1-.72-2.58l1.08.38-.88-1,9.31-2.82c2.82-.86,6-1.69,8.58-.27a8.38,8.38,0,0,1,3.12,3.4,17.72,17.72,0,0,1-.25,17.44c-1.43-.13-2.36-1.62-2.59-3s0-2.88-.29-4.29-1.36-2.84-2.79-2.79l-.75,1.6c.48-1-2.39-3.54-3.07-4a10.07,10.07,0,0,1-1.67-1.22C357.37,203.06,357.22,202.29,356.14,202.3Z"/><path class="cls-3" d="M342.86,238.51l5.2,3.25-5.2,21.67s-8.23,10.18-11.27,0c-2.54-8.52,7.07-20.23,10.27-23.83C342.48,238.91,342.86,238.51,342.86,238.51Z"/><path class="cls-3" d="M383.18,230.5h5s4.33,8.45,4.77,13,.43,22.53.43,22.53l-8.45,25.13-6.5-4.76,5.42-14.95s-.65-3.25,0-4.77-2-9.32-2.39-9.75S383.18,230.5,383.18,230.5Z"/><path class="cls-4" d="M265.41,129.77h58.65v-5.22H265.41Z"/><path class="cls-4" d="M265.41,149h58.65v-5.23H265.41Z"/><path class="cls-4" d="M265.41,166.26h58.65V161H265.41Z"/><path class="cls-4" d="M170.2,177.49,199,148.19h32.52V147.1h-33l-.16.16-28.93,29.46Z"/><path class="cls-5" d="M247,135.18a6.42,6.42,0,1,0-6.42-6.42A6.41,6.41,0,0,0,247,135.18Z"/><path class="cls-5" d="M247,154.43a6.42,6.42,0,1,0-6.42-6.42A6.42,6.42,0,0,0,247,154.43Z"/><path class="cls-5" d="M247,171.67a6.42,6.42,0,1,0-6.42-6.42A6.42,6.42,0,0,0,247,171.67Z"/><path class="cls-4" d="M243.35,127.16A6.82,6.82,0,0,1,255,122.34a6.9,6.9,0,0,1,1.87,3.49,6.82,6.82,0,1,1-13.51,1.33Zm.8,0a6,6,0,0,0,10.27,4.25,5.93,5.93,0,0,0,1.65-3.08,6,6,0,1,0-11.92-1.17Z"/><path class="cls-4" d="M243.35,146.41a6.83,6.83,0,1,1,2,4.81A6.81,6.81,0,0,1,243.35,146.41Zm.8,0a6,6,0,0,0,1,3.34,6,6,0,0,0,6.17,2.56,6.07,6.07,0,0,0,3.08-1.65,5.93,5.93,0,0,0,1.65-3.08,6,6,0,1,0-11.92-1.17Z"/><path class="cls-4" d="M243.35,163.65A6.82,6.82,0,0,1,255,158.83a6.9,6.9,0,0,1,1.87,3.49,6.82,6.82,0,1,1-13.51,1.33Zm.8,0a6,6,0,0,0,1,3.34,6,6,0,0,0,6.17,2.56,6.07,6.07,0,0,0,3.08-1.65,5.93,5.93,0,0,0,1.65-3.08,6,6,0,1,0-11.92-1.17Z"/><path class="cls-4" d="M376.75,62.89H318.1v5.23h58.65Z"/><path class="cls-4" d="M376.75,82.14H318.1v5.22h58.65Z"/><path class="cls-4" d="M376.75,99.38H318.1v5.23h58.65Z"/><path class="cls-4" d="M466.5,121.29,443.2,86.53H410.68V85.44h33l.16.16,23.47,34.92Z"/><path class="cls-5" d="M395.2,73.53a6.42,6.42,0,1,0-6.42-6.42A6.43,6.43,0,0,0,395.2,73.53Z"/><path class="cls-5" d="M395.2,92.77a6.42,6.42,0,1,0-6.42-6.41A6.42,6.42,0,0,0,395.2,92.77Z"/><path class="cls-5" d="M395.2,110a6.42,6.42,0,1,0-6.42-6.41A6.42,6.42,0,0,0,395.2,110Z"/><path class="cls-4" d="M392,72.32a6.83,6.83,0,1,1,4.82-2A6.81,6.81,0,0,1,392,72.32Zm0-12.83a6,6,0,0,0-3.34,1,6,6,0,0,0-2.56,6.17A6,6,0,0,0,397,68.85a6,6,0,0,0-5-9.36Z"/><path class="cls-4" d="M392,91.57a6.83,6.83,0,1,1,4.82-2A6.81,6.81,0,0,1,392,91.57Zm0-12.83a6,6,0,0,0-5.56,3.71,6.09,6.09,0,0,0-.34,3.48,6,6,0,0,0,4.73,4.72A6,6,0,1,0,392,78.74Z"/><path class="cls-4" d="M392,108.81a6.81,6.81,0,0,1-1.33-13.5,6.74,6.74,0,0,1,3.94.39A6.82,6.82,0,0,1,392,108.81ZM392,96a6,6,0,0,0-5.56,3.71,6.09,6.09,0,0,0-.34,3.48,6,6,0,0,0,4.73,4.72,6,6,0,0,0,6.17-2.56,6,6,0,0,0,1-3.34,6,6,0,0,0-6-6Z"/><path class="cls-4" d="M273.42,268.13h41v-3.65h-41Z"/><path class="cls-4" d="M273.42,281.57h41v-3.65h-41Z"/><path class="cls-4" d="M273.42,293.61h41V290h-41Z"/><path class="cls-4" d="M206.93,301.46,227,281h22.71v-.76h-23l-.11.11-20.21,20.58Z"/><path class="cls-5" d="M260.54,271.91a4.48,4.48,0,1,0-4.48-4.48A4.49,4.49,0,0,0,260.54,271.91Z"/><path class="cls-5" d="M260.54,285.35a4.48,4.48,0,1,0-4.48-4.48A4.49,4.49,0,0,0,260.54,285.35Z"/><path class="cls-5" d="M260.54,297.39a4.48,4.48,0,1,0-4.48-4.48A4.49,4.49,0,0,0,260.54,297.39Z"/><path class="cls-4" d="M258,266.31a4.74,4.74,0,0,1,2.94-4.4,4.77,4.77,0,0,1,5.19,1,4.76,4.76,0,1,1-8.13,3.37Zm.56,0a4.2,4.2,0,0,0,5,4.12,4.3,4.3,0,0,0,2.15-1.15,4.2,4.2,0,1,0-7.17-3Z"/><path class="cls-4" d="M258,279.75a4.82,4.82,0,0,1,.8-2.65,4.76,4.76,0,0,1,8.36,4.47,4.76,4.76,0,0,1-7.77,1.54A4.75,4.75,0,0,1,258,279.75Zm.56,0a4.2,4.2,0,0,0,5,4.12,4.2,4.2,0,0,0,3.3-3.3,4.21,4.21,0,0,0-.24-2.43,4.22,4.22,0,0,0-3.88-2.59,4.2,4.2,0,0,0-4.2,4.2Z"/><path class="cls-4" d="M258,291.79a4.76,4.76,0,1,1,7.41,4,4.82,4.82,0,0,1-2.65.8,4.76,4.76,0,0,1-4.76-4.76Zm.56,0a4.2,4.2,0,0,0,5,4.12,4.2,4.2,0,0,0,3.3-3.3,4.21,4.21,0,0,0-.24-2.43,4.13,4.13,0,0,0-1.55-1.88,4.2,4.2,0,0,0-6.53,3.49Z"/></g></svg>