<svg xmlns="http://www.w3.org/2000/svg" xmlns:xlink="http://www.w3.org/1999/xlink" viewBox="0 0 918 646"><defs><style>.cls-1,.cls-13{fill:none;}.cls-2{clip-path:url(#clip-path);}.cls-3{fill:url(#linear-gradient);}.cls-4{fill:url(#linear-gradient-2);}.cls-12,.cls-5{fill:#5cd894;}.cls-11,.cls-5,.cls-7,.cls-9{opacity:0.1;}.cls-11,.cls-16,.cls-20,.cls-24,.cls-5,.cls-7{isolation:isolate;}.cls-6{fill:#b77b7f;}.cls-16,.cls-20,.cls-22,.cls-24,.cls-7{fill:#1c1c1c;}.cls-8{fill:#dda2a6;}.cls-10{fill:#918c9e;}.cls-11{fill:#fff;}.cls-13{stroke:#1c1c1c;stroke-miterlimit:10;}.cls-14{fill:#ffd037;}.cls-15{fill:#a8a8a8;}.cls-16{opacity:0.2;}.cls-17{fill:url(#linear-gradient-3);}.cls-18{fill:#efb7b9;}.cls-19{fill:#389583;}.cls-20{opacity:0.12;}.cls-21{fill:#e3787d;}.cls-23{fill:#8de4af;}.cls-24{opacity:0.05;}</style><clipPath id="clip-path"><rect class="cls-1" x="0.01" y="10.12" width="917.99" height="619.28"/></clipPath><linearGradient id="linear-gradient" x1="-52.53" y1="-2333.71" x2="-52.53" y2="-2530.97" gradientTransform="matrix(1, 0, 0, -1, 539.01, -2323.6)" gradientUnits="userSpaceOnUse"><stop offset="0" stop-color="#05294e"/><stop offset="1" stop-color="#05386b"/></linearGradient><linearGradient id="linear-gradient-2" x1="-80.01" y1="-2528.77" x2="-80.01" y2="-2953.05" xlink:href="#linear-gradient"/><linearGradient id="linear-gradient-3" x1="111.45" y1="-2949.24" x2="111.45" y2="-2556.12" gradientTransform="matrix(1, 0, 0, -1, 539.01, -2323.6)" gradientUnits="userSpaceOnUse"><stop offset="0" stop-color="gray" stop-opacity="0.25"/><stop offset="0.54" stop-color="gray" stop-opacity="0.12"/><stop offset="1" stop-color="gray" stop-opacity="0.1"/></linearGradient></defs><title>forgot_password</title><g id="Layer_2" data-name="Layer 2"><g class="cls-2"><path class="cls-3" d="M900.23,200.31a223.9,223.9,0,0,0-36.42-58.1l-505.18-5L774.57,78.72A235.69,235.69,0,0,0,690.16,62a236.28,236.28,0,0,0-282.55-9.58A235.37,235.37,0,0,0,299.48,26.3c-112.24,0-205.77,77.84-226.75,181.07Z"/><path class="cls-4" d="M918,286.88a218.9,218.9,0,0,0-15.75-81.71l-875.55,92a220.54,220.54,0,0,0-20.5,51.88l271.13,40.47L0,419.07c8.33,116.86,108.4,209.12,230.6,209.12a233.83,233.83,0,0,0,158.85-61.53,233.93,233.93,0,0,0,160.18,62.79c92.26,0,171.9-52.61,209-128.66,74.39-23.65,132.19-83,152-157.24L567.72,290.23H918C918,289.11,918,288,918,286.88Z"/><path class="cls-5" d="M498,547.94c14.68,0,26.59-4.13,26.59-9.23s-11.91-9.22-26.59-9.22-26.6,4.13-26.6,9.22S483.29,547.94,498,547.94Z"/><path class="cls-5" d="M832.07,547.94c14.68,0,26.59-4.13,26.59-9.23s-11.91-9.22-26.59-9.22-26.6,4.13-26.6,9.22S817.38,547.94,832.07,547.94Z"/><path class="cls-5" d="M469,594.17c14.68,0,26.59-4.13,26.59-9.23s-11.91-9.22-26.59-9.22-26.59,4.13-26.59,9.22S454.28,594.17,469,594.17Z"/><path class="cls-5" d="M860.9,595.06c14.69,0,26.6-4.13,26.6-9.22s-11.91-9.23-26.6-9.23-26.59,4.13-26.59,9.23S846.22,595.06,860.9,595.06Z"/><path class="cls-6" d="M852,577l5.81,12.41V497.2H852Z"/><path class="cls-6" d="M476.6,577l-5.81,12.41V497.2h5.81Z"/><path class="cls-7" d="M852,577l5.81,12.41V497.2H852Z"/><path class="cls-7" d="M476.6,577l-5.81,12.41V497.2h5.81Z"/><path class="cls-6" d="M516.19,327.78h-16.1V441.16h16.1Z"/><path class="cls-6" d="M840.12,327.78H824V441.16h16.11Z"/><path class="cls-7" d="M516.19,327.78h-16.1V341h16.1Z"/><path class="cls-7" d="M840.12,327.78H824V341h16.11Z"/><path class="cls-8" d="M863,323H475.27v16.91H863Z"/><path class="cls-7" d="M516.19,347.07h-16.1V364h16.1Z"/><path class="cls-7" d="M840.12,347.07H824V364h16.11Z"/><path class="cls-8" d="M863,346H475.27v16.91H863Z"/><path class="cls-7" d="M516.19,370.06h-16.1V387h16.1Z"/><path class="cls-7" d="M840.12,370.06H824V387h16.11Z"/><path class="cls-8" d="M863,369H475.27v16.91H863Z"/><path class="cls-7" d="M516.19,393.06h-16.1V410h16.1Z"/><path class="cls-7" d="M840.12,393.06H824V410h16.11Z"/><path class="cls-8" d="M863,392H475.27v16.92H863Z"/><path class="cls-7" d="M516.19,416.05h-16.1V433h16.1Z"/><path class="cls-7" d="M840.12,416.05H824V433h16.11Z"/><path class="cls-8" d="M863,415H475.27v16.91H863Z"/><g class="cls-9"><path class="cls-7" d="M508.14,334.87a2.34,2.34,0,1,0-2.34-2.33A2.33,2.33,0,0,0,508.14,334.87Z"/><path class="cls-7" d="M508.14,357.87a2.34,2.34,0,1,0-2.34-2.34A2.33,2.33,0,0,0,508.14,357.87Z"/><path class="cls-7" d="M508.14,380.86a2.34,2.34,0,1,0-2.34-2.33A2.33,2.33,0,0,0,508.14,380.86Z"/><path class="cls-7" d="M508.14,403.86a2.34,2.34,0,1,0-2.34-2.34A2.33,2.33,0,0,0,508.14,403.86Z"/><path class="cls-7" d="M508.14,426.85a2.34,2.34,0,1,0-2.34-2.34A2.33,2.33,0,0,0,508.14,426.85Z"/><path class="cls-7" d="M832.07,334.87a2.34,2.34,0,1,0-2.33-2.33A2.33,2.33,0,0,0,832.07,334.87Z"/><path class="cls-7" d="M832.07,357.87a2.34,2.34,0,1,0-2.33-2.34A2.34,2.34,0,0,0,832.07,357.87Z"/><path class="cls-7" d="M832.07,380.86a2.34,2.34,0,1,0-2.33-2.33A2.33,2.33,0,0,0,832.07,380.86Z"/><path class="cls-7" d="M832.07,403.86a2.34,2.34,0,1,0-2.33-2.34A2.34,2.34,0,0,0,832.07,403.86Z"/><path class="cls-7" d="M832.07,426.85a2.34,2.34,0,1,0-2.33-2.34A2.34,2.34,0,0,0,832.07,426.85Z"/></g><path class="cls-10" d="M508.14,333.82a2.34,2.34,0,1,0-2.34-2.34A2.33,2.33,0,0,0,508.14,333.82Z"/><path class="cls-10" d="M508.14,356.82a2.34,2.34,0,1,0-2.34-2.34A2.33,2.33,0,0,0,508.14,356.82Z"/><path class="cls-10" d="M508.14,379.81a2.34,2.34,0,1,0-2.34-2.34A2.33,2.33,0,0,0,508.14,379.81Z"/><path class="cls-10" d="M508.14,402.81a2.34,2.34,0,1,0-2.34-2.34A2.33,2.33,0,0,0,508.14,402.81Z"/><path class="cls-10" d="M508.14,425.8a2.34,2.34,0,1,0-2.34-2.34A2.33,2.33,0,0,0,508.14,425.8Z"/><path class="cls-10" d="M832.07,333.82a2.34,2.34,0,1,0-2.33-2.34A2.34,2.34,0,0,0,832.07,333.82Z"/><path class="cls-10" d="M832.07,356.82a2.34,2.34,0,1,0-2.33-2.34A2.34,2.34,0,0,0,832.07,356.82Z"/><path class="cls-10" d="M832.07,379.81a2.34,2.34,0,1,0-2.33-2.34A2.34,2.34,0,0,0,832.07,379.81Z"/><path class="cls-10" d="M832.07,402.81a2.34,2.34,0,1,0-2.33-2.34A2.34,2.34,0,0,0,832.07,402.81Z"/><path class="cls-10" d="M832.07,425.8a2.34,2.34,0,1,0-2.33-2.34A2.34,2.34,0,0,0,832.07,425.8Z"/><path class="cls-8" d="M872,448.31H466l9.23-11.38H863Z"/><path class="cls-7" d="M872,448.31H466l9.23-11.38H863Z"/><path class="cls-8" d="M872,447.77H466l9.23-11.36H863Z"/><path class="cls-8" d="M886.27,466,450.72,465l14.79-15.6H873.6Z"/><path class="cls-7" d="M886.27,466,450.72,465l14.79-15.6H873.6Z"/><path class="cls-8" d="M886.27,465.48l-435.55-1.05,14.79-15.6H873.6Z"/><path class="cls-8" d="M900,482.13H435.15L449.41,466l437.92.53Z"/><path class="cls-6" d="M505.8,497.2v33.3l-5.71,11.1L498.2,502,498,497.2Z"/><path class="cls-6" d="M831.9,497.2l-.23,4.76-1.89,39.64-5.72-11.1V497.2Z"/><path class="cls-7" d="M505.8,497.2v33.3l-5.71,11.1L498.2,502,498,497.2Z"/><path class="cls-7" d="M831.9,497.2l-.23,4.76-1.89,39.64-5.72-11.1V497.2Z"/><path class="cls-6" d="M500.08,494.56H485.3v47.05h14.78Z"/><path class="cls-6" d="M844.56,494.56H829.78v47.05h14.78Z"/><path class="cls-7" d="M500.09,497.2h5.71V502H485.3v-7.4h14.79Z"/><path class="cls-7" d="M844.56,494.56V502h-20.5V497.2h5.72v-2.64Z"/><path class="cls-6" d="M863,489.27H466V500.9H863Z"/><path class="cls-6" d="M470.79,487.15h-16.9V589.44h16.9Z"/><path class="cls-6" d="M857.77,589.44h16.89V487.15H857.77Z"/><path class="cls-7" d="M863,489.27H466v1.05H863Z"/><path class="cls-8" d="M900,482.13H435.15v7.14H900Z"/><path class="cls-11" d="M900,482.13H435.15v7.14H900Z"/><path class="cls-7" d="M461.33,498a2.34,2.34,0,1,0-2.33-2.34A2.34,2.34,0,0,0,461.33,498Z"/><path class="cls-10" d="M461.33,496.9a2.34,2.34,0,1,0-2.33-2.34A2.34,2.34,0,0,0,461.33,496.9Z"/><path class="cls-7" d="M867.59,497.63a2.34,2.34,0,1,0-2.33-2.34A2.34,2.34,0,0,0,867.59,497.63Z"/><path class="cls-10" d="M867.59,496.58a2.34,2.34,0,1,0-2.33-2.34A2.34,2.34,0,0,0,867.59,496.58Z"/><path class="cls-5" d="M67.82,532c20.66,0,37.41-2.31,37.41-5.14s-16.75-5.15-37.41-5.15-37.4,2.31-37.4,5.15S47.17,532,67.82,532Z"/><path class="cls-5" d="M211.1,546.49c20.66,0,37.4-2.3,37.4-5.14s-16.74-5.14-37.4-5.14-37.4,2.3-37.4,5.14S190.44,546.49,211.1,546.49Z"/><path class="cls-5" d="M379.86,526.81c20.65,0,37.4-2.31,37.4-5.14s-16.75-5.14-37.4-5.14-37.4,2.3-37.4,5.14S359.2,526.81,379.86,526.81Z"/><path class="cls-5" d="M153.75,586.42c14.69,0,26.6-1.64,26.6-3.66s-11.91-3.65-26.6-3.65-26.59,1.64-26.59,3.65S139.07,586.42,153.75,586.42Z"/><path class="cls-5" d="M302.46,582.76c14.68,0,26.59-1.63,26.59-3.65s-11.91-3.66-26.59-3.66-26.59,1.64-26.59,3.66S287.77,582.76,302.46,582.76Z"/><path class="cls-12" d="M211.89,540.2S159.45,368,220.11,299c45.39-51.59,96.89-45.42,120-39a42.76,42.76,0,0,1,27.52,22.9c8.06,17.43,6.61,45.71-50.33,78.72C221.93,416.85,216,492.67,216,492.67Z"/><path class="cls-13" d="M331.86,284.43s-154.64,48.42-120,255.77"/><path class="cls-13" d="M241.55,301.78s21.29,14.37,14.52,36"/><path class="cls-13" d="M316.36,314.58s-13-13.27-28.87-5.95"/><path class="cls-13" d="M255.24,381.22s-22.87-11.61-28.77,2.94"/><path class="cls-13" d="M198.67,405.46s17.2-1.37,17.48,6.89"/><path class="cls-12" d="M209.78,541.57s61.44-125.14,78.31-122.4c8,1.3,11.71,9.19,13.38,17.12a50.45,50.45,0,0,1-3.34,30.47C289.41,486.79,266,524.81,209.78,541.57Z"/><path class="cls-13" d="M287.61,442.92s-64.48,93.62-76.94,97.73"/><path class="cls-13" d="M293.57,457.53H278.52"/><path class="cls-13" d="M275.54,491.78l-23.6,1"/><path class="cls-13" d="M261.18,464.38l2.56,12.3"/><path class="cls-13" d="M236.1,501.83l.45,11.18"/><path class="cls-12" d="M211.6,541.57s-61.43-125.14-78.31-122.4c-8,1.3-11.72,9.19-13.38,17.12a50.38,50.38,0,0,0,3.35,30.47C132,486.79,155.39,524.81,211.6,541.57Z"/><path class="cls-13" d="M133.77,442.92s64.49,93.62,76.95,97.73"/><path class="cls-13" d="M127.82,457.53h15.05"/><path class="cls-13" d="M145.85,491.78l23.59,1"/><path class="cls-13" d="M160.2,464.38l-2.56,12.3"/><path class="cls-13" d="M185.3,501.83,184.83,513"/><path class="cls-12" d="M317.11,570.8a10.65,10.65,0,0,0,3.5-5.28c.45-2.1-.45-4.63-2.45-5.39-2.24-.86-4.64.7-6.46,2.27s-3.9,3.37-6.28,3a9.58,9.58,0,0,0,2.92-9,3.88,3.88,0,0,0-.8-1.82c-1.25-1.33-3.51-.76-5,.29-4.78,3.34-6.06,9.79-6.09,15.6-.48-2.09-.08-4.27-.09-6.42s-.6-4.53-2.39-5.68a7.27,7.27,0,0,0-3.68-.87c-2.13-.08-4.51.13-6,1.7-1.81,1.94-1.34,5.19.23,7.33s4,3.47,6.17,4.95a13.68,13.68,0,0,1,4.42,4.21,4.13,4.13,0,0,1,.32.75h13.37A37.29,37.29,0,0,0,317.11,570.8Z"/><path class="cls-12" d="M83,520.4a10.64,10.64,0,0,0,3.5-5.29c.45-2.09-.44-4.61-2.45-5.39-2.24-.85-4.64.71-6.46,2.28s-3.9,3.37-6.28,3a9.58,9.58,0,0,0,3-9,3.94,3.94,0,0,0-.8-1.82c-1.25-1.33-3.51-.76-5,.29-4.78,3.34-6.06,9.8-6.09,15.6-.48-2.09-.08-4.28-.09-6.38s-.6-4.54-2.39-5.69a7.21,7.21,0,0,0-3.67-.87c-2.13-.07-4.51.14-6,1.7-1.81,1.94-1.34,5.2.23,7.34s4,3.47,6.17,5a13.55,13.55,0,0,1,4.41,4.21,5,5,0,0,1,.33.75H74.77A37.84,37.84,0,0,0,83,520.4Z"/><path class="cls-12" d="M161,570.8a10.65,10.65,0,0,0,3.5-5.28c.45-2.1-.44-4.63-2.45-5.39-2.24-.86-4.64.7-6.46,2.27s-3.9,3.37-6.28,3a9.61,9.61,0,0,0,3-9,3.88,3.88,0,0,0-.8-1.82c-1.25-1.33-3.51-.76-5,.29-4.74,3.34-6.06,9.79-6.09,15.6-.47-2.09-.08-4.27-.08-6.42s-.61-4.53-2.4-5.68a7.21,7.21,0,0,0-3.67-.87c-2.13-.08-4.5.13-6,1.7-1.81,1.94-1.34,5.19.23,7.33s4,3.47,6.18,4.95a13.61,13.61,0,0,1,4.4,4.21,3.57,3.57,0,0,1,.33.75h13.32A37.29,37.29,0,0,0,161,570.8Z"/><path class="cls-12" d="M382.28,468.91s5,6.57-2.31,16.47-13.36,18.27-10.92,24.45c0,0,11.05-18.36,20.05-18.65S392.18,480,382.28,468.91Z"/><path class="cls-7" d="M382.28,468.91a8,8,0,0,1,1,2.07c8.77,10.31,13.45,19.95,5,20.2-7.86.22-17.28,14.29-19.54,17.84.08.27.17.55.27.8,0,0,11.05-18.36,20.05-18.65S392.18,480,382.28,468.91Z"/><path class="cls-14" d="M391.6,477.28c0,2.31-.26,4.18-.57,4.18s-.59-1.87-.59-4.18.33-1.23.65-1.23S391.6,475,391.6,477.28Z"/><path class="cls-14" d="M394.8,480c-2,1.11-3.79,1.78-4,1.5s1.37-1.41,3.4-2.51,1.22-.3,1.37,0S396.82,478.93,394.8,480Z"/><path class="cls-12" d="M355.81,468.91s-5,6.57,2.32,16.47,13.36,18.27,10.92,24.45c0,0-11.06-18.36-20.05-18.65S345.92,480,355.81,468.91Z"/><path class="cls-7" d="M355.81,468.91a8,8,0,0,0-1,2.07c-8.77,10.31-13.46,19.95-5,20.2,7.86.22,17.29,14.29,19.54,17.84a7.46,7.46,0,0,1-.26.8S358,491.46,349,491.17,345.92,480,355.81,468.91Z"/><path class="cls-14" d="M346.5,477.28c0,2.31.25,4.18.57,4.18s.58-1.87.58-4.18-.32-1.23-.64-1.23S346.5,475,346.5,477.28Z"/><path class="cls-14" d="M343.3,480c2,1.11,3.79,1.78,3.94,1.5s-1.36-1.41-3.39-2.51-1.23-.3-1.38,0S341.28,478.93,343.3,480Z"/><path class="cls-15" d="M348.09,509s14-.43,18.23-3.44,21.53-6.6,22.61-1.78,21.06,24,5.24,24.15-36.76-2.47-41-5S348.09,509,348.09,509Z"/><path class="cls-16" d="M394.43,526.22c-15.82.12-36.76-2.47-41-5-3.19-2-4.49-9-4.91-12.23h-.47s.88,11.31,5.1,13.88,25.15,5.17,41,5c4.57,0,6.15-1.66,6.06-4.07C399.59,525.28,397.85,526.19,394.43,526.22Z"/><path class="cls-17" d="M759.46,467.42l.47-.16s-.22-10.21-5.74-15.66-2.07-22.49-2.07-22.49.46-17.92-2.07-22.24,0-20.42,0-20.42V362s-2.07-6.38-2.53-23.82S745.23,323,741.77,318c-1.78-2.59-9.39-5.3-16.38-7.24a132,132,0,0,0-15.07-13.29,20.23,20.23,0,0,1,7.32-5.33c2.48-1.17,5.32-2.39,6.34-4.9a9.87,9.87,0,0,0,.27-4.52,26.86,26.86,0,0,0-1.37-7,9.23,9.23,0,0,0-4.66-5.3c-1.2-.52-2.77-.89-3.12-2.14a3.09,3.09,0,0,1,.07-1.51c.54-2.46,1.43-4.88,1.38-7.39-.06-2.79-1.28-5.42-2.58-7.89-3.27-6.25-7.44-12.42-13.69-15.82-7.83-4.28-17.53-3.45-26.19-1.29a33.69,33.69,0,0,1-7.17,1.33,30.76,30.76,0,0,0-4.4.11,8,8,0,0,0-2.39.8,5.66,5.66,0,0,1,.49-.49,11.7,11.7,0,0,0-3.81,2.84,9.34,9.34,0,0,0-2.39,4.21,5.75,5.75,0,0,0-.19,1.6,7.93,7.93,0,0,0,1.59,4.18,38.34,38.34,0,0,0-3.37,1.9,4.19,4.19,0,0,0-1.39,1.22,2.3,2.3,0,0,0-.27.6,6.28,6.28,0,0,0-.53,2.77.7.7,0,0,1-.06.35,5.2,5.2,0,0,0,.26-.53c-.91,5.59-7.8,9.09-9.74,14.17a7.43,7.43,0,0,0-.79,3.38c.08,4.09,3.7,7.12,5.66,10.71,3.27,6,1.81,13.31.88,20.07-.13,1-.23,1.95-.29,2.95-4.86.8-10.13,2.49-13.36,5.87-7.24,7.61-4,1.14-9.19,17.93L618.45,347l-.69,12.14s-4,4-3.68,8.29-1.72,6.38-1.72,6.38-.46,9,0,11.12-3.45,4.31-3.19,6.24a52.4,52.4,0,0,1,0,6.39c0,.34-3.45.91-3.1,4.87a63.61,63.61,0,0,1,.23,7s-5.74,6-4.59,9.3-1,8.85-1,8.85-1.27,7.27-4.37,9.2c-2.53,1.59-4.52,7.49-5.17,9.65-2.31.08-35.69,1.36-34.58,5.82,1.15,4.61,32.64,6.05,36.31,6.05a3.54,3.54,0,0,0,.48-.05c-.86,5.59-3.07,16.58-7.27,18.36-5.63,2.39-15.86,12.7-15.4,17.24s-1.84,32-3.34,35.86a26,26,0,0,0-.47,6.48c-7.28,12.61-12.64,22.86-14.06,25.59l-.37.71-.43,1.14c-1-.68-8.1,8.4-8.1,8.4s-5.86,10-6.09,11.34-4.72,2.27-4.95,3.29-5.51,7.61-5.51,7.61-3,7.71-8.28,9.75-10.92,7-3.68,12.72,21.72,8.84,21.72,8.84,9.2-9.42,11-13.84,7.12-11.8,7.12-11.8,3.19-6.38,3.68-8.78,11.11-18.44,11.11-18.44l-1.15-.45c.44-.48.94-1,1.5-1.59.39-.41.8-.85,1.25-1.29,1.23,3,2.71,5.07,4.49,5.48,8.5,1.93,14.59-8.4,18.51-9.42s8.15-14.28,8.15-14.28,11.62-9.76,11.73-17.56c0-1.72.06-3.54.1-5.35a93.05,93.05,0,0,1,6.68-11.25c4.3-5.75,7.66-11.35,9.81-12.56,1.6-.87,11.5-10.74,16.74-16l.55-.55c1.59,3.48,3.42,5.94,5.51,6,1.6.05,2.89-2.27,3.91-5.59.1.22.21.43.33.65a39.57,39.57,0,0,0,8.17,9.58s14.72,20.65,13.45,23.94,10.69,17.13,17.54,21.22c5.51,3.27,19.93,19.67,25.43,26l.8.94a4.8,4.8,0,0,1-1.24.31c-1.91.07,2.69,5.14,2.69,5.14s3.6,4.92,3.44,7.35,4.52,8.24,4.52,8.24,8,13.57,7.44,18.23-5.13,17,5.75,14.6,22.53-3.63,22.32-9.16-4.9-15.16-4.9-15.16l-4.83-9.69a85.24,85.24,0,0,1-7-10.58c-2.15-4.31-8.81-18.16-8.81-18.16l-2.39,1-.51-1.08c-2.47-5.23-8.45-18.07-15.69-34.76a137.61,137.61,0,0,0-9.56-18.59l9.56-2c11,10.3,36.9,13.46,36.9,13.46s-1.59-25.64.93-33.14c1.3-3.88-.66-6.11-3-8,10.37-.6,28.84-2.26,29.72-5.78S769.35,468,759.46,467.42Zm-28.83-6.25c-2-.14-3.56-.16-3.56-.16a26.66,26.66,0,0,1,2.29-6.46c1.38-2.28-8.27-8.4-7.66-14.07S718.56,423,718.56,423s.46-12.26,0-17.93a17.32,17.32,0,0,1,2.07-9.75s5.51,14.75,3.19,16.76,0,12.93,0,12.93,4.13,14.52,6.2,19.74c1.22,3,.79,10.08.61,16.42Z"/><path class="cls-18" d="M593,449.07s-34.85,1.19-33.74,5.73,31.73,6,35.3,6,8.71-6.56,8.71-6.56Z"/><path class="cls-19" d="M634.75,433.14H614.64V451.7h20.11Z"/><path class="cls-20" d="M634.75,433.14H614.64V451.7h20.11Z"/><path class="cls-19" d="M603.94,452.42,585.45,489.8l23.44,7.62,18.93-16.26,8.94-17.35,18.11,1.47,19.33,9.64,15.63,9.55,9.45,17.7,13.55,7.67,29.06-6.2,4.24-19.79L722.42,468l-8.59-13L679,449.85l-10.08-15.06-34.85,8.42Z"/><path class="cls-20" d="M603.94,452.77,585.07,493.5l23.82,4.27,18.93-16.26,8.94-17.35,18.11,1.47,19.33,9.64,15.63,9.55,9.45,17.71,13.55,7.66L741.89,504l4.24-19.79L722.42,468.3l-8.59-13L679,450.2l-10.08-15.06-34.85,8.42Z"/><path class="cls-21" d="M652.47,256.19a4,4,0,0,0-1.35,1.21,6.29,6.29,0,0,0-.53,2.74c-.71,6.74-10.15,10.38-10,17.12.08,4,3.59,7,5.5,10.55,3.19,5.93,1.75,13.13.86,19.8-.68,5.05-.68,11,3.19,14.3,1.59,1.36,3.66,2.1,5.1,3.61,3,3.08,2.3,8.13,4.25,12a2.8,2.8,0,0,0,1.93,1.67c3.75,1.24,8-.52,10.58-3.55s3.53-7.1,3.67-11.06a90,90,0,0,0-.89-11.81c-.72-7.57-.47-15.16-1.09-22.76a18.47,18.47,0,0,0-1.59-7c-.58-1.13-1.37-2.15-1.92-3.3a17.38,17.38,0,0,1-1.29-5l-2.11-13.34c-.41-2.66-.8-7.44-3.85-8.47S655,254.61,652.47,256.19Z"/><path class="cls-21" d="M652.47,256.19a4,4,0,0,0-1.35,1.21,6.29,6.29,0,0,0-.53,2.74c-.71,6.74-10.15,10.38-10,17.12.08,4,3.59,7,5.5,10.55,3.19,5.93,1.75,13.13.86,19.8-.68,5.05-.68,11,3.19,14.3,1.59,1.36,3.66,2.1,5.1,3.61,3,3.08,2.3,8.13,4.25,12a2.8,2.8,0,0,0,1.93,1.67c3.75,1.24,8-.52,10.58-3.55s3.53-7.1,3.67-11.06a90,90,0,0,0-.89-11.81c-.72-7.57-.47-15.16-1.09-22.76a18.47,18.47,0,0,0-1.59-7c-.58-1.13-1.37-2.15-1.92-3.3a17.38,17.38,0,0,1-1.29-5l-2.11-13.34c-.41-2.66-.8-7.44-3.85-8.47S655,254.61,652.47,256.19Z"/><g class="cls-9"><path class="cls-7" d="M651.23,258a2.12,2.12,0,0,1,0-.56,2.86,2.86,0,0,0-.42.5,6.53,6.53,0,0,0-.56,2.72,1,1,0,0,1,0,.34,8.39,8.39,0,0,0,1-3Z"/><path class="cls-7" d="M672.63,333.46c-2.53,3-6.83,4.79-10.57,3.55a2.78,2.78,0,0,1-1.17-.6,2.72,2.72,0,0,1-.76-1.07c-2-3.79-1.31-8.84-4.26-11.93-1.44-1.5-3.52-2.24-5.1-3.61-3.87-3.32-3.87-9.24-3.19-14.3.89-6.66,2.33-13.87-.86-19.79-1.91-3.55-5.41-6.53-5.5-10.55a6.07,6.07,0,0,1,.07-1.13,7.69,7.69,0,0,0-1,3.81c.09,4,3.6,7,5.51,10.56,3.18,5.92,1.75,13.12.86,19.78-.68,5.06-.68,11,3.18,14.31,1.6,1.36,3.66,2.1,5.11,3.61,2.95,3.08,2.3,8.14,4.25,11.93a3.54,3.54,0,0,0,.79,1.09,3.14,3.14,0,0,0,1.14.57c3.75,1.24,8.05-.51,10.57-3.55a15.35,15.35,0,0,0,3-6.19,14.07,14.07,0,0,1-2.11,3.51Z"/></g><path class="cls-18" d="M751.34,469.46s34.84,1.2,33.73,5.74-31.72,6-35.3,6-8.7-6.56-8.7-6.56Z"/><path class="cls-19" d="M657.54,310.39s-17.08-1-24.11,6.49-3.91,1.11-8.94,17.67l-5,16.55-.66,12s-3.91,3.91-3.58,8.17-1.68,6.26-1.68,6.26-.44,8.84,0,11-3.35,4.25-3.12,6.15a59.42,59.42,0,0,1,0,6.26c0,.34-3.35.9-3,4.79a61.64,61.64,0,0,1,.23,6.93s-5.58,5.93-4.47,9.17-1,8.72-1,8.72-1.23,7.19-4.24,9.06-5.25,10.32-5.25,10.32,2.79,7.27,2.79,7.61-2,19-7.48,21.36-15.42,12.54-15,17-1.79,31.55-3.24,35.34.22,42.62,8.49,44.52,14.19-8.28,18-9.28,7.92-14.09,7.92-14.09,11.29-9.62,11.4-17.33.45-17.56.45-17.56-13.19-22.35-15.87-24S590,482.19,595.78,474a87.6,87.6,0,0,0,9.5-18.56l6.25-5.59,5.3-20,9.56-31.31,9.05-30.76,7.69-32.32,20.3-14.16S667.05,312.06,657.54,310.39Z"/><path class="cls-18" d="M651.18,487.13,648,490.41c-5.12,5.21-14.77,14.94-16.3,15.8-2.09,1.2-5.35,6.72-9.56,12.38s-9.83,17.9-9.83,17.9-14,19.68-22.18,21.77c-5.59,1.41-13.16,8.72-17.46,13.28-2.07,2.17-3.38,3.72-3.38,3.72L553.18,569l2.09-5.52.35-.71c1.55-3,7.92-15.37,16.32-29.87,9.69-16.69,24.43-32,24.43-32s12.8-11.78,13.25-17.15a66.68,66.68,0,0,0-.14-8.94c-.23-3.86-.6-7.19-.6-7.19l19.5-12.66,14.9,6.22Z"/><path class="cls-18" d="M738.79,565.27l-15.87,7.83-2.11-2.51c-5.35-6.28-19.35-22.45-24.71-25.67-6.74-4.07-18.33-17.64-17.1-20.92s-13.06-23.6-13.06-23.6a39.87,39.87,0,0,1-8-9.47c-1.36-2.5-2.17-5.18-1.54-7.63,1.89-7.5,8.15-23.95,8.15-23.95L667.8,454c.22-.34,11.2-4.11,11.2-4.11l10.84-1.11,13.63,11.62s-.51,2.77-1.26,6.62c-1.65,8.47-4.52,22.18-5.9,23-2,1.23,9.28,10.37,9.28,10.37s7.48,6.39,16.74,28.08c7,16.45,12.84,29.1,15.24,34.26C738.33,564.38,738.79,565.27,738.79,565.27Z"/><path class="cls-7" d="M643.3,461.15l7.88,26L648,490.41c-2.15-5.28-3.8-12.35-5-17.15-2.09-8.49-23.53-6.26-27.25-6.26-1.64,0-4,3.76-6.24,7.76-.24-3.86-.61-7.19-.61-7.19l19.51-12.66Z"/><path class="cls-7" d="M703.46,460.36s-.5,2.77-1.25,6.62a28.55,28.55,0,0,0-7-9.68C684.84,448.06,671,456,671,456c-1.43.53-2.12,2-3.67,3.83a32.59,32.59,0,0,0-7.51,19.07A64.84,64.84,0,0,1,658,490.93c-1.37-2.5-2.18-5.18-1.55-7.63,1.89-7.5,8.15-23.95,8.15-23.95s3-5,3.24-5.38S679,449.86,679,449.86l10.84-1.11Z"/><path class="cls-22" d="M719.69,470.88c-.15,3.73-14,9.58-14,9.58s0-15.66-10.43-24.91S671,454.17,671,454.17c-1.43.53-2.12,2-3.67,3.83a32.59,32.59,0,0,0-7.51,19.06c-.47,7.94-2.63,18.82-6,18.71-5.21-.14-8.77-15.79-10.87-24.29s-23.53-6.27-27.26-6.27-10.87,19.38-13.55,17,3-21.06,3-21.06l18-21.73,3.84-4.63,79.08,4.28s2,3,3.9,6.05,3.62,5.71,3.7,5.92C713.88,451.46,719.84,467.14,719.69,470.88Z"/><path class="cls-7" d="M639.68,447.11c.11.17,14.52,15.83,15.19,18.17a77,77,0,0,1,1.35,8,56.92,56.92,0,0,1,.8-7.11c.47-1.56-1.68-5.19-3.24-6.38s-4.47-3.41-4.86-4.36-2.23-10.68-2.23-10.68l-6-1.34Z"/><path class="cls-7" d="M667,445.55s-9.27,10.62-9,12.18S667,445.55,667,445.55Z"/><path class="cls-18" d="M714.33,320.12,703.61,335l-29.44,6s-29.84-7.46-9.57-15.22a11.62,11.62,0,0,0,5-3.34c3.58-4.29,2.26-10.76-.71-17.07-4.67-9.93-13.4-19.47-13.4-19.47s41.92-18.57,37.15.8a19.54,19.54,0,0,0,.23,10.21c2.5,8.78,10.41,15.69,15.9,19.61a53.85,53.85,0,0,0,5.6,3.6Z"/><path class="cls-7" d="M714.33,320.12,703.61,335l-29.44,6s-29.84-7.46-9.57-15.22a11.54,11.54,0,0,0,5-3.34c4.79,2.12,9.79,3.81,12.32,3.05,0,0,16.56-4.86,26.85-8.94a55.29,55.29,0,0,0,5.6,3.57Z"/><path class="cls-7" d="M710.16,446a111.7,111.7,0,0,0-12.47-3.06c-4.17-.73-8.17-1-9.87.07-4.17,2.68-14.29,8.65-17.87,8.65a5.07,5.07,0,0,1-2.84-.77,5.15,5.15,0,0,1-2-2.21s-11-1.2-18.17,0c-4.78.8-16-4.91-23-8.78l-.8-.45,3.84-4.62,79.08,4.28s2,3,3.9,6.05Z"/><path class="cls-23" d="M707.19,424.2l3,20a114,114,0,0,0-12.47-3.07c-4.17-.73-8.17-1-9.87.07-4.17,2.69-14.29,8.65-17.87,8.65a5.09,5.09,0,0,1-4.79-3s-11-1.2-18.17,0c-4.78.8-16-4.91-23-8.78-3.48-1.95-5.9-3.43-5.9-3.43l4.47-15.82,13.7-14.61L638.35,383l3.27-24.45,5.1-14.88,9.17-21.81,1.63-3.87s1.79,1.06,4.42,2.46c1.22.65,2.61,1.37,4.1,2.1,5.68,2.78,12.65,5.64,15.81,4.68,0,0,14.72-4.31,25-8.22,4.79-1.82,8.58-3.54,9.57-4.71a1.06,1.06,0,0,0,.25-.48c0-.3.06-.07.13.58.63,6.59,2.85,57,2.85,57Z"/><path class="cls-7" d="M719.69,371.41l-12.5,52.79,3,20a114,114,0,0,0-12.47-3.07c-.71-8.18-1.53-22,.63-26.61,3.13-6.71,4.91-27.93,4.91-27.93l3.67-67.5.36-6.53c.26-.19,4.26.56,9.21,1.82l.37.1C717.48,321,719.69,371.41,719.69,371.41Z"/><path class="cls-7" d="M744.76,472.32c-7.8,2.34-18.34,4.91-19.41,2.13-.8-1.91-.71-6.21-.56-10.91,3.8.27,9.51,1,10.36,3.08S741.34,470.19,744.76,472.32Z"/><path class="cls-19" d="M710.83,312.52c.67-.46,25,4.91,28.37,9.84s5.14,2.68,5.58,19.9,2.46,23.49,2.46,23.49v24.16s-2.46,15.88,0,20.13,2,21.91,2,21.91-3.34,16.76,2,22.15,5.58,15.43,5.58,15.43-26.14,9.39-27.9,4.92.9-21.91-1.11-27.06-6-19.46-6-19.46-2.23-10.73,0-12.77-3.12-16.55-3.12-16.55a17.18,17.18,0,0,0-2,9.61c.45,5.59,0,17.67,0,17.67s3.64,11.63,3.05,17.23,8.77,11.63,7.45,13.86a27.46,27.46,0,0,0-2.24,6.39s12.51.12,13.85,3.25,11.62,4.65,12.51,9,10.27,5.73,7.82,13.12-.89,32.65-.89,32.65-45.13-5.59-40.21-26.17,28.15-11.41,28.15-11.41-18.51-10.95-29.28-9.61-15-26.84-15-26.84-3.12-26.17,0-32.88,4.91-27.93,4.91-27.93Z"/><path class="cls-7" d="M731.38,458.8s1.12-2.13,9-.8,12-.44,12-.44S736.3,464.72,731.38,458.8Z"/><path class="cls-7" d="M729.15,355.79c-.11.34,5.81,9.06,1.34,16.11s-8.16,18.36-8.94,20.46-1.86,5.38-1.86,5.38"/><path class="cls-24" d="M708.15,301.77s21,15.78,20.89,23.15c0,0-2,2.35-6.38,2.35s-12.17-2.13-13.06-7-4.25,0-2.35,2.58,3,3.91,3,3.91,19.88,5.48,23.68,8.05-1.59,5.59-1.59,5.59-5.59,10.06-5.25,11.74-13.74,23.59-13.74,23.59-4.69,23.72-4.47,28.19.56,14,.56,14l-8.93,12.33s-2.18-38-.73-43.16,5.36-37.46,5.36-37.46,4.47-19.69,2.68-21.93-2.39-9.17-2.39-9.17Z"/><path class="cls-19" d="M706.36,300.88s21,15.77,20.89,23.15c0,0-2,2.34-6.38,2.34s-12.17-2.12-13.06-7.05-4.25,0-2.35,2.58,3,3.91,3,3.91,19.87,5.49,23.67,8.06-1.59,5.59-1.59,5.59-5.58,10.07-5.25,11.74-13.7,23.64-13.7,23.64-4.69,23.71-4.46,28.18.56,14,.56,14l-7.18,12.3s-4-38-2.52-43.16,5.36-37.46,5.36-37.46,4.47-19.69,2.68-21.92-2.39-9.17-2.39-9.17Z"/><path class="cls-20" d="M706.36,300.88s21,15.77,20.89,23.15c0,0-2,2.34-6.38,2.34s-12.17-2.12-13.06-7.05-4.25,0-2.35,2.58,3,3.91,3,3.91,19.87,5.49,23.67,8.06-1.59,5.59-1.59,5.59-5.58,10.07-5.25,11.74-13.7,23.64-13.7,23.64-4.69,23.71-4.46,28.18.56,14,.56,14l-7.18,12.3s-4-38-2.52-43.16,5.36-37.46,5.36-37.46,4.47-19.69,2.68-21.92-2.39-9.17-2.39-9.17Z"/><path class="cls-7" d="M666.82,319.45a13.66,13.66,0,0,1-.8,3.14c-.79,2.47-2.1,5.83-3.18,9.27-1.6,5.3-6.47,14.87-9.39,23.94s-7.25,28.4-7.25,28.4.89,17.78-5,22.26-12.63,20.91-12.63,20.91-2.12,5.49-4.6,10.7c-3.48-1.94-5.9-3.43-5.9-3.43l4.47-15.81,13.7-14.61L638.35,383l3.27-24.45,5.1-14.88,9.17-21.81,4.11-.33s.84-.5,1.94-1.08C664,319.43,666.89,318.17,666.82,319.45Z"/><path class="cls-24" d="M656.43,322.47s-20.72,1.76-25.35,1.23-2.68,9.95-2.68,9.95-3.6,21.36-2.81,23.63,5,19,2.46,23-10.5,24.94-10.5,24.94-2.57,9.29-4.78,18.57-7.48,27.05-8.83,28.63-12.77,22.15-11.47,25.34,18.9-27.14,22.44-29.85,10.14-19.68,10.14-19.68,6.7-16.45,12.62-20.92,5-22.26,5-22.26,4.35-19.34,7.26-28.4,7.77-18.63,9.38-23.95,3.8-10.37,3.91-12.42S656.43,322.47,656.43,322.47Z"/><path class="cls-19" d="M658.22,321.58s-20.72,1.76-25.36,1.23-2.67,9.95-2.67,9.95-3.58,21.36-2.79,23.59,5,19,2.45,23-10.5,25-10.5,25-2.56,9.28-4.78,18.56-7.48,27.07-8.82,28.64S593,473.74,594.28,477s18.89-27.19,22.44-29.88,10.13-19.68,10.13-19.68,6.71-16.44,12.62-20.91,5-22.26,5-22.26,4.35-19.35,7.26-28.41,7.78-18.63,9.39-23.94,3.79-10.38,3.9-12.42S658.22,321.58,658.22,321.58Z"/><path class="cls-20" d="M658.22,321.58s-20.72,1.76-25.36,1.23-2.67,9.95-2.67,9.95-3.58,21.36-2.79,23.59,5,19,2.45,23-10.5,25-10.5,25-2.56,9.28-4.78,18.56-7.48,27.07-8.82,28.64S593,473.74,594.28,477s18.89-27.19,22.44-29.88,10.13-19.68,10.13-19.68,6.71-16.44,12.62-20.91,5-22.26,5-22.26,4.35-19.35,7.26-28.41,7.78-18.63,9.39-23.94,3.79-10.38,3.9-12.42S658.22,321.58,658.22,321.58Z"/><path class="cls-7" d="M650.18,376.76s2.55,12.88-1.68,19S649,379.51,650.18,376.76Z"/><path class="cls-7" d="M696,419.32s-11.84,2.12-15.74,8.39S696,419.32,696,419.32Z"/><path class="cls-7" d="M696,432.06s-15.07,4.79-12.28,6.49,9.56-1.34,11.5-.79S696,432.06,696,432.06Z"/><path class="cls-7" d="M572.67,571.54c-2.06,2.17-3.38,3.72-3.38,3.72L553.19,569l2.09-5.52.36-.71h.12c1,.65,8.08,5.25,8.08,5.25Z"/><path class="cls-22" d="M563,569.85s-7.14-4.59-8.09-5.26-7.89,8.29-7.89,8.29-5.69,9.84-5.91,11.17-4.58,2.23-4.78,3.24-5.37,7.49-5.37,7.49-2.9,7.61-8,9.58-10.62,6.94-3.58,12.52,21.11,8.73,21.11,8.73,8.93-9.28,10.73-13.64,6.91-11.63,6.91-11.63,3.14-6.27,3.58-8.61,10.7-18.15,10.7-18.15Z"/><path class="cls-7" d="M738.79,565.27l-15.87,7.83-2.11-2.51a68.55,68.55,0,0,0,7.63-3.91l9.17-3.94C738.33,564.38,738.79,565.27,738.79,565.27Z"/><path class="cls-22" d="M729.3,567.58s-7.08,4.18-8.94,4.25S723,576.9,723,576.9s3.5,4.84,3.35,7.23,4.39,8.12,4.39,8.12,7.75,13.35,7.22,18-5,16.76,5.58,14.36,21.89-3.58,21.67-9-4.78-14.91-4.78-14.91l-4.69-9.58a83.44,83.44,0,0,1-6.78-10.44c-2.08-4.25-8.55-17.83-8.55-17.83Z"/><path class="cls-21" d="M665.28,326.59c10-3.84,7.89-13.65,3.19-22.58a26.52,26.52,0,0,1-12.58-9.87c-3,1.31-5.75,4.94-4.62,7.93a11.33,11.33,0,0,0,1.67,2.55,17.11,17.11,0,0,1-1.4,21.49c-.85.88-1.88,1.81-1.87,3,0,1.52,1.59,2.51,3,3a19.66,19.66,0,0,0,5.73,1.15C657.63,331.23,659.18,328.93,665.28,326.59Z"/><path class="cls-7" d="M729.08,463.59s10.72.42,14.29,2.81a14.23,14.23,0,0,1,5,5.92"/><g class="cls-9"><path class="cls-7" d="M652.83,304.82a17.19,17.19,0,0,1,1.8,16.6,17.25,17.25,0,0,0-.91-18.39,11.11,11.11,0,0,1-1.67-2.55,4.47,4.47,0,0,1,0-3,5.24,5.24,0,0,0-1,2.29,5.17,5.17,0,0,0,.14,2.5,10.91,10.91,0,0,0,1.67,2.57Z"/><path class="cls-7" d="M658.28,331.65a19.21,19.21,0,0,1-4.79-1.07c-1.41-.52-3-1.51-3-3a.88.88,0,0,1,0-.23,3.11,3.11,0,0,0-.92,2c0,1.52,1.59,2.51,3,3a19.72,19.72,0,0,0,5.74,1.15,2.62,2.62,0,0,1,0-1.87Z"/><path class="cls-7" d="M666,325c-4.78,1.84-6.78,3.66-7,5.37,1-1.16,3-2.39,6.12-3.58,3.54-1.35,5.58-3.45,6.48-6A11,11,0,0,1,666,325Z"/></g><path class="cls-7" d="M692.81,296.94c-3.58,6.63-15.32,9.76-15.71,9.76a26.38,26.38,0,0,1-8.27-1.3c-4.67-9.94-13.4-19.48-13.4-19.48s41.92-18.56,37.15.8A19.58,19.58,0,0,0,692.81,296.94Z"/><path class="cls-18" d="M703.61,278.37a26.54,26.54,0,0,1-24.39,26.45c-.69.06-1.41.09-2.12.09a26.55,26.55,0,1,1,26.51-26.54Z"/><path class="cls-7" d="M703.61,278.36a26.54,26.54,0,0,1-24.39,26.46c-4.06-3.31-7-7.9-9.42-12.62-1-2.06-2-4.28-1.73-6.57.22-2,1.36-3.77,1.7-5.75.57-3.19-1.07-6.43-2.75-9.26-1.59-2.61-3.06-5.65-5.3-7.72-1.18-1.1-2.27-2.19-3.33-3.33a26.52,26.52,0,0,1,45.22,18.79Z"/><path class="cls-21" d="M657,256c-1.37-1.71-2.77-3.63-2.83-5.82a8.09,8.09,0,0,1,2.39-5.46,10,10,0,0,1,5.58-3.41,30.46,30.46,0,0,1,4.27-.11,32.6,32.6,0,0,0,7-1.28c8.44-2.12,17.83-2.95,25.45,1.27,6.06,3.35,10.12,9.42,13.3,15.59,1.26,2.44,2.45,5,2.5,7.78.06,2.47-.79,4.87-1.34,7.28a3.14,3.14,0,0,0-.06,1.49c.34,1.23,1.86,1.6,3,2.12a9,9,0,0,1,4.53,5.21,26.61,26.61,0,0,1,1.32,7,9.41,9.41,0,0,1-.26,4.44c-1,2.5-3.74,3.67-6.16,4.83a19.77,19.77,0,0,0-7.12,5.26,9.49,9.49,0,0,0-1.92,8.38,9.82,9.82,0,0,0,2,3.35,10,10,0,0,0,3.15,2.33,30.76,30.76,0,0,0,7.49,2.35,8.28,8.28,0,0,1,3.19,1.19c2.28,1.67,2.21,5.36.46,7.58s-4.64,3.19-7.43,3.62a27.09,27.09,0,0,1-17.85-3.79c-3.28-2-6.29-4.92-7-8.69-.45-2.34,0-4.87-1-7-1.27-2.82-4.45-4.09-7.09-5.7-5.4-3.31-9.11-8.78-12-14.43-1-2.06-2-4.28-1.74-6.57.23-2,1.37-3.77,1.71-5.74.57-3.25-1.07-6.43-2.75-9.27-1.59-2.61-3-5.65-5.3-7.73a54.79,54.79,0,0,1-5.61-6Z"/><g class="cls-9"><path class="cls-7" d="M718.48,294.82a25.75,25.75,0,0,0-4.66,2.83c.65-.37,1.32-.71,2-1a19.39,19.39,0,0,0,4.68-2.77C719.82,294.22,719.15,294.51,718.48,294.82Z"/><path class="cls-7" d="M718.3,328.88a27.17,27.17,0,0,1-17.86-3.78c-3.27-2-6.29-4.93-7-8.7-.45-2.33,0-4.86-1-7-1.26-2.82-4.45-4.09-7.09-5.7-5.39-3.31-9.11-8.78-11.95-14.43-1-2.05-2-4.28-1.74-6.56.22-2,1.36-3.78,1.71-5.75.56-3.25-1.07-6.43-2.76-9.27-1.55-2.61-3-5.65-5.29-7.73a56.15,56.15,0,0,1-5.58-6c-1.37-1.72-2.76-3.63-2.83-5.83a8.22,8.22,0,0,1,2.39-5.46,10.8,10.8,0,0,1,1-1,11.36,11.36,0,0,0-3.69,2.8,8,8,0,0,0-2.39,5.46c.07,2.19,1.46,4.11,2.83,5.82a53.43,53.43,0,0,0,5.58,6c2.24,2.08,3.75,5.12,5.3,7.73,1.68,2.83,3.32,6,2.75,9.27-.34,2-1.48,3.76-1.7,5.74-.27,2.29.7,4.51,1.73,6.57,2.85,5.65,6.57,11.12,12,14.43,2.63,1.59,5.82,2.89,7.08,5.7,1,2.17.51,4.7,1,7,.71,3.77,3.74,6.7,7,8.69a27.18,27.18,0,0,0,17.86,3.79,12.09,12.09,0,0,0,6.81-2.93,15.72,15.72,0,0,1-4.14,1.14Z"/></g></g></g></svg>