<svg xmlns="http://www.w3.org/2000/svg" xmlns:xlink="http://www.w3.org/1999/xlink" viewBox="0 0 759 817"><defs><style>.cls-1{fill:none;}.cls-2{clip-path:url(#clip-path);}.cls-3{fill:url(#linear-gradient);}.cls-10,.cls-4{fill:#1c1c1c;}.cls-4{opacity:0.1;}.cls-4,.cls-5{isolation:isolate;}.cls-5,.cls-8{fill:#5cd894;}.cls-5{opacity:0.3;}.cls-6{fill:#fcfcfc;}.cls-7{fill:#389583;}.cls-9{fill:#379482;}.cls-11{fill:#a0616a;}</style><clipPath id="clip-path"><rect class="cls-1" x="34.01" y="0.4" width="690.99" height="766.92"/></clipPath><linearGradient id="linear-gradient" x1="-453.23" y1="-2612.87" x2="14.52" y2="-3140.6" gradientTransform="matrix(1, 0, 0, -1, 539.01, -2323.6)" gradientUnits="userSpaceOnUse"><stop offset="0" stop-color="#05284b"/><stop offset="1" stop-color="#05386b"/></linearGradient></defs><title>login</title><g id="Layer_2" data-name="Layer 2"><g class="cls-2"><path class="cls-3" d="M504,475.52C880.79,728,758.34,822.08,269,736.4,141.16,714,34,619.6,34,475.52S139.22,214.65,269,214.65,384.47,395.4,504,475.52Z"/><path class="cls-4" d="M537.71,721.49c82.2,0,148.84-6,148.84-13.34s-66.64-13.34-148.84-13.34-148.84,6-148.84,13.34S455.51,721.49,537.71,721.49Z"/><path class="cls-4" d="M244.17,281.85c43.57,0,78.89-6,78.89-13.34s-35.32-13.34-78.89-13.34-78.89,6-78.89,13.34S200.6,281.85,244.17,281.85Z"/><path class="cls-4" d="M240,301.35A179.37,179.37,0,0,0,78.17,403.45,178.84,178.84,0,0,1,211.05,344.5c99.07,0,179.39,80.44,179.39,179.67a179.14,179.14,0,0,1-17.53,77.56A179.12,179.12,0,0,0,419.42,481C419.42,381.79,339.11,301.35,240,301.35Z"/><path class="cls-5" d="M390.44,523.38A179.15,179.15,0,0,1,372.91,601,178.88,178.88,0,0,1,240,659.9C141,659.9,60.64,579.46,60.64,480.23a179.14,179.14,0,0,1,17.53-77.56,178.74,178.74,0,0,1,132.88-58.95C310.12,343.72,390.44,424.16,390.44,523.38Z"/><path class="cls-6" d="M240,660.78c-99.4,0-180.27-81-180.27-180.55A180.31,180.31,0,0,1,240,299.68c99.4,0,180.27,81,180.27,180.55A180.32,180.32,0,0,1,240,660.78Zm0-359.33c-68.3,0-131.52,39.88-161.06,101.6a177.27,177.27,0,0,0-17.45,77.18C61.52,578.81,141.6,659,240,659A178.7,178.7,0,0,0,418.54,480.23c0-98.58-80.08-178.78-178.51-178.78Z"/><path class="cls-7" d="M650.45,663.06c-13,17.07-11.54,40.13-11.54,40.13s22.61-4.6,35.64-21.67,11.54-40.13,11.54-40.13S663.48,646,650.45,663.06Z"/><path class="cls-8" d="M659,666.9c-2.53,21.33-19.65,36.84-19.65,36.84s-13-19.09-10.48-40.42,19.64-36.84,19.64-36.84S661.52,645.56,659,666.9Z"/><path class="cls-9" d="M186.34,167.15a74.14,74.14,0,1,0-74-74.13A74.08,74.08,0,0,0,186.34,167.15Z"/><path class="cls-8" d="M346.83,168.6c0,74.06-43.91,99.93-98.12,100-1.26,0-2.52,0-3.76,0-2.52-.06-5-.17-7.46-.34-48.94-3.45-87-30.61-87-99.48,0-71.27,90.87-161.26,97.69-167.91,0,0,0,0,0,0l.39-.38S346.8,94.56,346.83,168.6Z"/><path class="cls-10" d="M245.13,257.23,281,207l-36,55.78-.09,5.77c-2.52-.06-5-.17-7.46-.34l3.83-74.09,0-.57.07-.11.36-7L205.6,130.53l36.22,50.63.1,1.49,2.89-56L213.89,68.92l31.3,47.92,3-116v0l-.46,91.52L278.45,56l-30.86,44.18-.79,50.12,28.71-48.11-28.82,55.48-.43,27.87,41.65-67L246.1,195.26Z"/><path class="cls-10" d="M539,211c-9.41-15.92-28-16.66-28-16.66s-18.14-2.33-29.78,21.92c-10.84,22.61-25.81,44.43-2.41,49.73l4.23-13.18L485.67,267a93,93,0,0,0,10,.17c25.06-.81,48.93.23,48.16-8.77C542.83,246.42,548.09,226.35,539,211Z"/><path class="cls-11" d="M497.52,360.45l2.42,24.24L556,378.63l1.21-18.18Z"/><path class="cls-10" d="M491.47,373.78l-1.61,14.14s-18.56,25.85-16.94,70.3-25.42,242-6.05,243.61,54,4,55.66-2,4.84-235.94,4.84-235.94,8.48,236.23,23,237,63.33,2.42,63.33-3.64-42.76-276.63-42.76-276.63L564.08,398l-6.85-27.88s-42.76,7.27-54.46,4.45S491.47,373.78,491.47,373.78Z"/><path class="cls-11" d="M510.84,261.87A25.86,25.86,0,1,0,485,236,25.84,25.84,0,0,0,510.84,261.87Z"/><path class="cls-11" d="M556,278.84,551.11,286,548,290.55l-5.28,7.68-26.22,2s-6.37-2.06-13.71-5.07c-2.72-1.12-5.57-2.36-8.28-3.68-10.52-5.12-19-11.36-9.47-15.49a33.14,33.14,0,0,0,4.84-2.6,24.9,24.9,0,0,0,3.87-3.15,21.22,21.22,0,0,0,5.81-18.9L525,247.73c-.73,6.45,5.68,13.5,12.86,19.24,2.36,1.9,4.81,3.65,7.11,5.19C551,276.21,556,278.84,556,278.84Z"/><path class="cls-7" d="M521.32,286.51s-24.8-4.24-30.45-13.13c0,0-24.41,3-22.39,16S490.67,373,490.67,373s50.42-9.7,69-2.42l11.3-90.1s-4-8.89-11.7-6.46-10.69.2-10.69.2S539.88,286.51,521.32,286.51Z"/><path class="cls-11" d="M543.91,428.32s17.35,19.39,7.67,22.62S530.2,438,530.2,438Z"/><path class="cls-11" d="M549.56,429.94s-14.12,9.69-8.87,16.16,23.39-5.66,23.39-8.08S549.56,429.94,549.56,429.94Z"/><path class="cls-10" d="M514.87,377.41l-11.7,2-7.66-57a205.31,205.31,0,0,0-1-31c-.86-6.87-2.29-13.47-4.63-18.09a24.9,24.9,0,0,0,3.87-3.15c2.81,4.46,7.93,13.9,9,24.92a40.39,40.39,0,0,1,0,8.3c-2,19-1.61,22.63-1.61,22.63Z"/><path class="cls-7" d="M487.84,276.82s-19-5.26-20.57,6.06.4,40.4,4.84,51.3,19.77,46.47,19.77,46.47,27.83,35.55,29,44,7.26,17.38,7.26,17.38l19.36-12.53-37.91-64.24-16.54-44.44S499.94,280.45,487.84,276.82Z"/><path class="cls-7" d="M562.07,278.43l8.87,2s8.07,34.75,4.84,53.33-3.63,25.05-3.63,25.05l-2.82,52.92s.8,33.94-4.84,28.69-17-7.68-17-7.68,1.21-14.94,5.65-18.58c0,0,5.25-27.88,2-40S562.07,278.43,562.07,278.43Z"/><path class="cls-10" d="M565.29,317.62,555,377.21l-6.26-2.62,10.9-57L548,290.55,537.81,267c2.36,1.9,4.81,3.65,7.11,5.19L551.11,286Z"/><path class="cls-10" d="M534.87,209.5l-18.39-9.65-25.39,4L485.83,227l13.08-.51,3.66-8.53v8.39l6-.23,3.5-13.59L514.29,227l21.46-.44Z"/><path class="cls-10" d="M498.54,708.15c6.93,0,12.54-2.11,12.54-4.71s-5.61-4.7-12.54-4.7-12.53,2.1-12.53,4.7S491.62,708.15,498.54,708.15Z"/><path class="cls-10" d="M583.15,708.15c6.92,0,12.53-2.11,12.53-4.71s-5.61-4.7-12.53-4.7-12.54,2.1-12.54,4.7S576.23,708.15,583.15,708.15Z"/><path class="cls-6" d="M266.31,573.16a87.86,87.86,0,0,1-87.08,5.08l1.94-4a84.39,84.39,0,1,0-47-73l-4.41.14a88.57,88.57,0,1,1,136.57,71.76Z"/><path class="cls-6" d="M226.44,493.34c-13,2.89-30.38,4.65-43,2.81l15.86,12.1-44.41,28.69,2.38,3.71L201.68,512l4.46,19.47C209.69,519.14,218.44,504,226.44,493.34Z"/></g></g></svg>