<svg xmlns="http://www.w3.org/2000/svg" xmlns:xlink="http://www.w3.org/1999/xlink" viewBox="0 0 983 729"><defs><style>.cls-1,.cls-14,.cls-29{fill:none;}.cls-13,.cls-2{fill:#5cd894;}.cls-10,.cls-12,.cls-2,.cls-8{opacity:0.1;}.cls-12,.cls-17,.cls-2,.cls-21,.cls-25,.cls-33,.cls-37,.cls-8{isolation:isolate;}.cls-3{fill:url(#linear-gradient);}.cls-4{fill:url(#linear-gradient-2);}.cls-5{fill:url(#linear-gradient-3);}.cls-6{fill:url(#linear-gradient-4);}.cls-7{fill:#b77b7f;}.cls-17,.cls-21,.cls-25,.cls-33,.cls-8{fill:#1c1c1c;}.cls-9{fill:#dda2a6;}.cls-11{fill:#918c9e;}.cls-12,.cls-37{fill:#fff;}.cls-14{stroke:#565987;}.cls-14,.cls-29{stroke-miterlimit:10;}.cls-15{fill:#ffd037;}.cls-16{fill:#a8a8a8;}.cls-17{opacity:0.2;}.cls-18{fill:url(#linear-gradient-5);}.cls-19{fill:#efb7b9;}.cls-20{fill:#67647e;}.cls-21{opacity:0.12;}.cls-22{fill:#e3787d;}.cls-23{fill:#444053;}.cls-24{fill:#a36468;}.cls-25{opacity:0.05;}.cls-26{fill:#d3899b;}.cls-27{fill:#eec5cd;}.cls-28{fill:#3f2b3b;}.cls-29{stroke:#3f2b3b;}.cls-30{fill:url(#linear-gradient-6);}.cls-31{fill:#864d6c;}.cls-32{fill:#ffc2c8;}.cls-33{opacity:0.03;}.cls-34{fill:#ff8aa1;}.cls-35{fill:#e8f5ff;}.cls-36{fill:#e8f4ff;}.cls-37{opacity:0.5;}.cls-38{fill:#ffe577;}.cls-39{fill:#ffd2c6;}.cls-40{fill:#d38884;}.cls-41{fill:#626696;}.cls-42{fill:#4c4981;}.cls-43{fill:#ceddf9;}.cls-44{fill:#cc8294;}.cls-45{fill:#1e1637;}.cls-46{fill:#ffcde5;}.cls-47{fill:#985c7e;}</style><linearGradient id="linear-gradient" x1="-95.05" y1="-1324.72" x2="-95.05" y2="-1482.33" gradientTransform="matrix(1, 0, 0, -1, 539.01, -979.6)" gradientUnits="userSpaceOnUse"><stop offset="0" stop-color="#032445"/><stop offset="1" stop-color="#05386b"/></linearGradient><linearGradient id="linear-gradient-2" x1="-35.86" y1="-995.59" x2="-35.86" y2="-1100.21" xlink:href="#linear-gradient"/><linearGradient id="linear-gradient-3" x1="-71" y1="-1206.21" x2="-71" y2="-1332.7" xlink:href="#linear-gradient"/><linearGradient id="linear-gradient-4" x1="-51.44" y1="-1100.69" x2="-51.44" y2="-1205.04" xlink:href="#linear-gradient"/><linearGradient id="linear-gradient-5" x1="-371.69" y1="-1517.22" x2="-371.69" y2="-1326.71" gradientTransform="matrix(1, 0, 0, -1, 539.01, -979.6)" gradientUnits="userSpaceOnUse"><stop offset="0" stop-color="gray" stop-opacity="0.25"/><stop offset="0.54" stop-color="gray" stop-opacity="0.12"/><stop offset="1" stop-color="gray" stop-opacity="0.1"/></linearGradient><linearGradient id="linear-gradient-6" x1="55365.39" y1="-1505.48" x2="94250.49" y2="-1505.48" xlink:href="#linear-gradient-5"/></defs><title>nature</title><g id="Layer_2" data-name="Layer 2"><rect class="cls-1" x="19" y="16" width="945" height="697"/><path class="cls-2" d="M557.93,593.47C632,593.47,692,583.89,692,572.08s-60-21.39-134.07-21.39-134.07,9.58-134.07,21.39S483.89,593.47,557.93,593.47Z"/><path class="cls-2" d="M328.6,705.53c74,0,134.07-4.73,134.07-10.57s-60-10.56-134.07-10.56S194.53,689.13,194.53,695,254.56,705.53,328.6,705.53Z"/><path class="cls-2" d="M801.88,696.78c16.22,0,29.36-1.94,29.36-4.34s-13.14-4.34-29.36-4.34-29.36,1.94-29.36,4.34S785.66,696.78,801.88,696.78Z"/><path class="cls-2" d="M746.88,655.34c11.83,0,21.42-1,21.42-2.18S758.71,651,746.88,651s-21.42,1-21.42,2.17S735.05,655.34,746.88,655.34Z"/><path class="cls-2" d="M622.42,637.43c10.74,0,19.44-1,19.44-2.18s-8.7-2.17-19.44-2.17-19.44,1-19.44,2.17S611.69,637.43,622.42,637.43Z"/><path class="cls-2" d="M807.85,613c10.74,0,19.44-1,19.44-2.17s-8.7-2.18-19.44-2.18-19.44,1-19.44,2.18S797.11,613,807.85,613Z"/><path class="cls-2" d="M586.27,695.88c16.22,0,29.36-1.94,29.36-4.34s-13.14-4.34-29.36-4.34-29.36,1.95-29.36,4.34S570.06,695.88,586.27,695.88Z"/><path class="cls-2" d="M189.56,549.1c94.2,0,170.56-4.74,170.56-10.57S283.76,528,189.56,528,19,532.69,19,538.53,95.36,549.1,189.56,549.1Z"/><path class="cls-2" d="M701.59,546.43c39.18,0,70.93-4.73,70.93-10.57s-31.75-10.56-70.93-10.56-70.92,4.73-70.92,10.56S662.42,546.43,701.59,546.43Z"/><path class="cls-3" d="M32.63,345.12C47.31,401.91,78.39,451,127.51,474.8c102.07,49.45,332.26,23.94,504.06-5.34,88.86-15.13,167-56.9,223.71-115.75Z"/><path class="cls-4" d="M933.56,77.79H839.29c-4.48,0-8.14-3.32-8.14-7.38S834.81,63,839.29,63h16.3c-4.49,0-8.16-3.32-8.16-7.37s3.67-7.37,8.16-7.37H843.94c-4.47,0-8.14-3.33-8.14-7.38s3.67-7.38,8.14-7.38h49.24C882.27,29,869.51,25.69,854.81,24c-134.2-15.64-182.09-5.28-199,5.33a198.64,198.64,0,0,1-69,27.36C504.09,72.11,349.3,90.71,209,50.74,139.26,30.86,87.43,64.46,56.37,120.61H949.93c-1.18-16.32-4.66-31.39-11.08-44.58A8.57,8.57,0,0,1,933.56,77.79Z"/><path class="cls-5" d="M24.63,226.61a340.44,340.44,0,0,0,3.66,99.08L855.92,353.1a351.58,351.58,0,0,0,57.5-79.38ZM352,297.26H335.68c4.48,0,8.14,3.32,8.14,7.38s-3.66,7.36-8.14,7.36H241.41c-4.48,0-8.14-3.31-8.14-7.36s3.66-7.38,8.14-7.38h16.3c-4.48,0-8.15-3.32-8.15-7.38s3.67-7.37,8.15-7.37H246.07c-4.48,0-8.15-3.31-8.15-7.37s3.67-7.37,8.15-7.37h94.26c4.48,0,8.15,3.31,8.15,7.37s-3.67,7.37-8.15,7.37H352c4.47,0,8.14,3.32,8.14,7.37S356.45,297.26,352,297.26Z"/><path class="cls-6" d="M950,121.09,46.39,141c-11,25.55-18.31,54.48-21.63,84.45H934.13a321.11,321.11,0,0,0,13.13-53.82C950,154,951.05,136.93,950,121.09ZM208.21,186.27H191.92c4.48,0,8.14,3.32,8.14,7.38S196.4,201,191.92,201H97.65c-4.48,0-8.14-3.32-8.14-7.37s3.66-7.38,8.14-7.38H114c-4.48,0-8.15-3.31-8.15-7.37s3.67-7.37,8.15-7.37H102.31c-4.48,0-8.15-3.32-8.15-7.38s3.67-7.37,8.15-7.37h94.26c4.48,0,8.15,3.32,8.15,7.37s-3.67,7.38-8.15,7.38h11.64c4.47,0,8.14,3.31,8.14,7.37S212.69,186.27,208.21,186.27Z"/><path class="cls-7" d="M289.41,530.59l3.38,7.19v-53.5h-3.38Z"/><path class="cls-7" d="M71.51,530.59l-3.37,7.19v-53.5h3.37Z"/><path class="cls-8" d="M289.41,530.59l3.38,7.19v-53.5h-3.38Z"/><path class="cls-8" d="M71.51,530.59l-3.37,7.19v-53.5h3.37Z"/><path class="cls-7" d="M94.49,386H85.15v65.77h9.34Z"/><path class="cls-7" d="M282.54,386H273.2v65.77h9.34Z"/><path class="cls-8" d="M94.49,386H85.15v7.67h9.34Z"/><path class="cls-8" d="M282.54,386H273.2v7.67h9.34Z"/><path class="cls-9" d="M295.85,383.26H70.75v9.82h225.1Z"/><path class="cls-8" d="M94.49,397.21H85.15V407h9.34Z"/><path class="cls-8" d="M282.54,397.21H273.2V407h9.34Z"/><path class="cls-9" d="M295.85,396.6H70.75v9.81h225.1Z"/><path class="cls-8" d="M94.49,410.55H85.15v9.81h9.34Z"/><path class="cls-8" d="M282.54,410.55H273.2v9.81h9.34Z"/><path class="cls-9" d="M295.85,409.94H70.75v9.81h225.1Z"/><path class="cls-8" d="M94.49,423.89H85.15v9.81h9.34Z"/><path class="cls-8" d="M282.54,423.89H273.2v9.81h9.34Z"/><path class="cls-9" d="M295.85,423.27H70.75v9.81h225.1Z"/><path class="cls-8" d="M94.49,437.22H85.15V447h9.34Z"/><path class="cls-8" d="M282.54,437.22H273.2V447h9.34Z"/><path class="cls-9" d="M295.85,436.61H70.75v9.82h225.1Z"/><g class="cls-10"><path class="cls-8" d="M89.82,390.13a1.35,1.35,0,1,0-1.35-1.35A1.35,1.35,0,0,0,89.82,390.13Z"/><path class="cls-8" d="M89.82,403.47a1.36,1.36,0,1,0-1.35-1.36A1.36,1.36,0,0,0,89.82,403.47Z"/><path class="cls-8" d="M89.82,416.81a1.36,1.36,0,1,0-1.35-1.36A1.36,1.36,0,0,0,89.82,416.81Z"/><path class="cls-8" d="M89.82,430.15a1.36,1.36,0,1,0-1.35-1.36A1.36,1.36,0,0,0,89.82,430.15Z"/><path class="cls-8" d="M89.82,443.48a1.36,1.36,0,1,0-1.35-1.35A1.35,1.35,0,0,0,89.82,443.48Z"/><path class="cls-8" d="M277.87,390.13a1.35,1.35,0,1,0-1.35-1.35A1.34,1.34,0,0,0,277.87,390.13Z"/><path class="cls-8" d="M277.87,403.47a1.36,1.36,0,1,0-1.35-1.36A1.35,1.35,0,0,0,277.87,403.47Z"/><path class="cls-8" d="M277.87,416.81a1.36,1.36,0,1,0-1.35-1.36A1.35,1.35,0,0,0,277.87,416.81Z"/><path class="cls-8" d="M277.87,430.15a1.36,1.36,0,1,0-1.35-1.36A1.35,1.35,0,0,0,277.87,430.15Z"/><path class="cls-8" d="M277.87,443.48a1.36,1.36,0,1,0-1.35-1.35A1.34,1.34,0,0,0,277.87,443.48Z"/></g><path class="cls-11" d="M89.82,389.52a1.35,1.35,0,1,0-1.35-1.35A1.35,1.35,0,0,0,89.82,389.52Z"/><path class="cls-11" d="M89.82,402.86a1.36,1.36,0,1,0-1.35-1.36A1.36,1.36,0,0,0,89.82,402.86Z"/><path class="cls-11" d="M89.82,416.2a1.36,1.36,0,1,0-1.35-1.36A1.36,1.36,0,0,0,89.82,416.2Z"/><path class="cls-11" d="M89.82,429.53a1.36,1.36,0,1,0-1.35-1.35A1.36,1.36,0,0,0,89.82,429.53Z"/><path class="cls-11" d="M89.82,442.87a1.36,1.36,0,1,0-1.35-1.35A1.35,1.35,0,0,0,89.82,442.87Z"/><path class="cls-11" d="M277.87,389.52a1.35,1.35,0,1,0-1.35-1.35A1.34,1.34,0,0,0,277.87,389.52Z"/><path class="cls-11" d="M277.87,402.86a1.36,1.36,0,1,0-1.35-1.36A1.35,1.35,0,0,0,277.87,402.86Z"/><path class="cls-11" d="M277.87,416.2a1.36,1.36,0,1,0-1.35-1.36A1.35,1.35,0,0,0,277.87,416.2Z"/><path class="cls-11" d="M277.87,429.53a1.36,1.36,0,1,0-1.35-1.35A1.35,1.35,0,0,0,277.87,429.53Z"/><path class="cls-11" d="M277.87,442.87a1.36,1.36,0,1,0-1.35-1.35A1.34,1.34,0,0,0,277.87,442.87Z"/><path class="cls-9" d="M301.06,455.93H65.38l5.37-6.59h225.1Z"/><path class="cls-8" d="M301.06,455.93H65.38l5.37-6.59h225.1Z"/><path class="cls-9" d="M301.06,455.62H65.38L70.75,449h225.1Z"/><path class="cls-9" d="M309.34,466.2l-252.85-.62,8.58-9H302Z"/><path class="cls-8" d="M309.34,466.2l-252.85-.62,8.58-9H302Z"/><path class="cls-9" d="M309.34,465.89l-252.85-.62,8.58-9H302Z"/><path class="cls-9" d="M317.3,475.54H47.45l8.28-9.34,254.22.3Z"/><path class="cls-7" d="M88.46,484.28V503.6L85.15,510l-1.09-23-.14-2.76Z"/><path class="cls-7" d="M277.77,484.28l-.14,2.76-1.09,23-3.32-6.44V484.28Z"/><path class="cls-8" d="M88.46,484.28V503.6L85.15,510l-1.09-23-.14-2.76Z"/><path class="cls-8" d="M277.77,484.28l-.14,2.76-1.09,23-3.32-6.44V484.28Z"/><path class="cls-7" d="M85.15,482.75H76.56V510h8.59Z"/><path class="cls-7" d="M285.13,482.75h-8.59V510h8.59Z"/><path class="cls-8" d="M85.15,484.28h3.31V487H76.56v-4.29h8.59Z"/><path class="cls-8" d="M285.13,482.75V487H273.22v-2.76h3.32v-1.53Z"/><path class="cls-7" d="M295.85,479.69H65.38v6.74H295.85Z"/><path class="cls-7" d="M68.14,478.46H58.33v59.33h9.81Z"/><path class="cls-7" d="M292.78,537.78h9.81V478.45h-9.81Z"/><path class="cls-8" d="M295.85,479.69H65.38v.61H295.85Z"/><path class="cls-9" d="M317.3,475.54H47.45v4.14H317.3Z"/><path class="cls-12" d="M317.3,475.54H47.45v4.14H317.3Z"/><path class="cls-8" d="M62.65,484.72a1.35,1.35,0,1,0-1.35-1.35A1.35,1.35,0,0,0,62.65,484.72Z"/><path class="cls-11" d="M62.65,484.11a1.36,1.36,0,1,0-1.35-1.36A1.36,1.36,0,0,0,62.65,484.11Z"/><path class="cls-8" d="M298.49,484.54a1.36,1.36,0,1,0-1.35-1.36A1.35,1.35,0,0,0,298.49,484.54Z"/><path class="cls-11" d="M298.49,483.92a1.36,1.36,0,1,0-1.35-1.35A1.35,1.35,0,0,0,298.49,483.92Z"/><path class="cls-2" d="M802.12,530.55c9.58,0,17.33-1.06,17.33-2.38s-7.75-2.37-17.33-2.37-17.32,1.06-17.32,2.37S792.56,530.55,802.12,530.55Z"/><path class="cls-2" d="M868.49,537.29c9.57,0,17.33-1.07,17.33-2.38s-7.76-2.38-17.33-2.38-17.33,1.07-17.33,2.38S858.92,537.29,868.49,537.29Z"/><path class="cls-2" d="M946.67,528.17c9.57,0,17.33-1.06,17.33-2.37s-7.76-2.38-17.33-2.38-17.33,1.06-17.33,2.38S937.1,528.17,946.67,528.17Z"/><path class="cls-2" d="M841.93,555.77c6.8,0,12.32-.76,12.32-1.69s-5.52-1.69-12.32-1.69-12.32.75-12.32,1.69S835.12,555.77,841.93,555.77Z"/><path class="cls-2" d="M910.82,554.08c6.8,0,12.32-.76,12.32-1.69s-5.52-1.7-12.32-1.7-12.32.76-12.32,1.7S904,554.08,910.82,554.08Z"/><path class="cls-13" d="M868.86,534.38s-24.29-79.7,3.81-111.63c21-23.87,44.89-21,55.58-18.06A19.76,19.76,0,0,1,941,415.27c3.74,8.07,3.06,21.15-23.32,36.43-44.15,25.58-46.9,60.67-46.9,60.67Z"/><path class="cls-14" d="M924.47,416S852.84,438.4,868.9,534.38"/><path class="cls-14" d="M882.61,424s9.86,6.65,6.76,16.65"/><path class="cls-14" d="M917.25,430s-6-6.14-13.36-2.75"/><path class="cls-14" d="M889,460.81s-10.59-5.37-13.33,1.36"/><path class="cls-14" d="M862.74,472s8-.63,8.09,3.17"/><path class="cls-13" d="M867.88,535s28.47-57.93,36.28-56.68c3.71.6,5.43,4.23,6.2,7.93a23.32,23.32,0,0,1-1.55,14.1C904.77,509.65,893.93,527.25,867.88,535Z"/><path class="cls-14" d="M904,489.34s-29.87,43.34-35.64,45.25"/><path class="cls-14" d="M906.7,496.11h-7"/><path class="cls-14" d="M898.34,512l-10.92.47"/><path class="cls-14" d="M891.7,499.28l1.18,5.7"/><path class="cls-14" d="M880.08,516.62l.2,5.18"/><path class="cls-13" d="M868.73,535s-28.46-57.93-36.28-56.68c-3.71.6-5.42,4.23-6.2,7.93a23.32,23.32,0,0,0,1.55,14.1C831.84,509.65,842.69,527.25,868.73,535Z"/><path class="cls-14" d="M832.66,489.34s29.88,43.34,35.65,45.25"/><path class="cls-14" d="M829.91,496.11h7"/><path class="cls-14" d="M838.27,512l10.92.47"/><path class="cls-14" d="M844.91,499.28l-1.18,5.7"/><path class="cls-14" d="M856.54,516.62l-.21,5.18"/><path class="cls-13" d="M917.6,548.54a4.89,4.89,0,0,0,1.61-2.45,2.1,2.1,0,0,0-.12-1.44,2.13,2.13,0,0,0-1-1c-1-.4-2.16.32-3,1s-1.81,1.56-2.91,1.4a4.5,4.5,0,0,0,1.23-1.89,4.44,4.44,0,0,0,.14-2.26,1.76,1.76,0,0,0-.39-.84c-.58-.62-1.62-.36-2.31.13-2.2,1.54-2.82,4.53-2.83,7.22a14.84,14.84,0,0,1,0-3,2.9,2.9,0,0,0-.23-1.45,3.1,3.1,0,0,0-.88-1.18,3.54,3.54,0,0,0-1.69-.4,3.65,3.65,0,0,0-1.47.1,3.55,3.55,0,0,0-1.3.69,2.73,2.73,0,0,0,.11,3.38,10.77,10.77,0,0,0,2.86,2.3,6.33,6.33,0,0,1,2.05,1.94,2.17,2.17,0,0,1,.15.35h6.19A17.26,17.26,0,0,0,917.6,548.54Z"/><path class="cls-13" d="M809.15,525.25a5,5,0,0,0,1.62-2.45,2.2,2.2,0,0,0-1.13-2.49c-1-.39-2.15.33-3,1.05s-1.8,1.56-2.91,1.41a4.52,4.52,0,0,0,1.24-1.89,4.45,4.45,0,0,0,.13-2.26,1.66,1.66,0,0,0-.38-.84c-.57-.62-1.62-.35-2.31.13-2.2,1.55-2.81,4.54-2.82,7.22a13.41,13.41,0,0,1,0-3,3,3,0,0,0-.24-1.46,3,3,0,0,0-.88-1.17,3.32,3.32,0,0,0-1.69-.4,3.48,3.48,0,0,0-2.77.78,2.77,2.77,0,0,0,.11,3.38,10.73,10.73,0,0,0,2.86,2.29,6.47,6.47,0,0,1,2,1.95,1.51,1.51,0,0,1,.14.35h6.2A17.31,17.31,0,0,0,809.15,525.25Z"/><path class="cls-13" d="M845.3,548.54a5,5,0,0,0,1.61-2.45,2.15,2.15,0,0,0-1.13-2.49c-1-.4-2.15.32-3,1s-1.8,1.56-2.91,1.4a4.37,4.37,0,0,0,1.37-4.15,1.51,1.51,0,0,0-.38-.84c-.57-.62-1.62-.36-2.3.13-2.2,1.54-2.82,4.53-2.83,7.22a14.84,14.84,0,0,1,0-3,3,3,0,0,0-1.12-2.63,3.54,3.54,0,0,0-1.69-.4,3.59,3.59,0,0,0-1.46.1,3.55,3.55,0,0,0-1.3.69,2.71,2.71,0,0,0,.11,3.38,10.61,10.61,0,0,0,2.86,2.3,6.2,6.2,0,0,1,2,1.94,3.73,3.73,0,0,1,.16.35h6.19A17.26,17.26,0,0,0,845.3,548.54Z"/><path class="cls-13" d="M947.8,501.38s2.32,3-1.08,7.62-6.19,8.46-5.07,11.31c0,0,5.12-8.51,9.3-8.63S952.38,506.5,947.8,501.38Z"/><path class="cls-8" d="M947.8,501.38a3.66,3.66,0,0,1,.47.95c4.07,4.78,6.23,9.24,2.33,9.36-3.65.1-8,6.61-9.06,8.25a1.63,1.63,0,0,0,.13.37s5.11-8.51,9.3-8.62S952.38,506.5,947.8,501.38Z"/><path class="cls-15" d="M952.11,505.25c0,1.07-.12,1.94-.26,1.94s-.27-.85-.27-1.94.15-.57.29-.57S952.11,504.18,952.11,505.25Z"/><path class="cls-15" d="M953.59,506.52c-.93.52-1.75.85-1.83.7s.64-.65,1.58-1.16.56-.14.64,0S954.53,506,953.59,506.52Z"/><path class="cls-13" d="M935.53,501.38s-2.32,3,1.08,7.62,6.19,8.46,5.07,11.31c0,0-5.07-8.51-9.3-8.63S931,506.5,935.53,501.38Z"/><path class="cls-8" d="M935.53,501.38a3.66,3.66,0,0,0-.47.95c-4.07,4.78-6.23,9.24-2.32,9.36,3.64.1,8,6.61,9,8.25a2.29,2.29,0,0,1-.12.37s-5.08-8.51-9.31-8.62S931,506.5,935.53,501.38Z"/><path class="cls-15" d="M931.24,505.25c0,1.07.12,1.94.26,1.94s.27-.85.27-1.94-.15-.57-.29-.57S931.24,504.18,931.24,505.25Z"/><path class="cls-15" d="M929.73,506.52c.94.52,1.76.85,1.83.7s-.63-.65-1.56-1.16-.57-.14-.65,0S928.8,506,929.73,506.52Z"/><path class="cls-16" d="M932,519.92s6.49-.2,8.45-1.59,10-3.06,10.47-.85,9.75,11.12,2.43,11.18-17-1.15-19-2.34S932,519.92,932,519.92Z"/><path class="cls-17" d="M953.43,527.9c-7.32.06-17-1.14-19-2.33-1.48-.91-2.08-4.16-2.27-5.66H932s.41,5.24,2.36,6.43,11.65,2.39,19,2.33c2.12,0,2.84-.77,2.81-1.88C955.81,527.46,955,527.89,953.43,527.9Z"/><path class="cls-18" d="M100.18,463.64c.43,1.69,9.37,2.54,14.38,2.81-1.13.91-2.08,2-1.45,3.87,1.23,3.63.45,16.07.45,16.07s12.56-1.53,17.9-6.51l4.65,1a66.14,66.14,0,0,0-4.65,9c-3.52,8.09-6.41,14.3-7.62,16.84l-.25.53-1.16-.49s-3.23,6.71-4.27,8.79a40.93,40.93,0,0,1-3.38,5.13l-2.34,4.7s-2.27,4.65-2.38,7.32,5.54,3.27,10.82,4.44,3-4.8,2.78-7.08,3.61-8.83,3.61-8.83,2.27-2.82,2.19-4,1.69-3.55,1.69-3.55,2.22-2.47,1.29-2.5a2.2,2.2,0,0,1-.6-.15l.4-.46c2.66-3.09,9.66-11,12.34-12.62,3.33-2,9.12-8.69,8.52-10.28s6.52-11.6,6.52-11.6a19.87,19.87,0,0,0,4-4.66l.16-.31c.49,1.6,1.13,2.72,1.9,2.7,1,0,1.9-1.22,2.67-2.91l.26.27c2.54,2.53,7.38,7.34,8.14,7.77,1,.58,2.67,3.3,4.76,6.08a47.41,47.41,0,0,1,3.24,5.45v2.6c.12,3.76,5.74,8.51,5.74,8.51s2.06,6.43,4,6.93,4.85,5.5,9,4.56c.84-.2,1.58-1.19,2.17-2.66l.61.63.73.77-.56.22s5.13,7.81,5.35,9a28.53,28.53,0,0,0,1.79,4.23,41.42,41.42,0,0,1,3.46,5.72c.88,2.14,5.35,6.7,5.35,6.7s7-1.54,10.53-4.29.78-5.16-1.79-6.15-4-4.73-4-4.73a37.17,37.17,0,0,1-2.68-3.68c-.11-.49-2.28-.93-2.39-1.59a60.08,60.08,0,0,0-2.95-5.5s-3.46-4.4-3.93-4.07l-.21-.55-.18-.35c-.69-1.32-3.29-6.29-6.77-12.4a12.73,12.73,0,0,0-.24-3.14c-.72-1.87-1.84-15.18-1.61-17.38s-4.74-7.2-7.47-8.35c-2-.84-3.11-6.17-3.52-8.9h.23c1.78,0,17.05-.69,17.61-2.92s-15.69-2.78-16.8-2.82c-.33-1-1.29-3.91-2.54-4.67-1.51-.94-2.12-4.46-2.12-4.46s-1.06-2.69-.5-4.29-2.23-4.51-2.23-4.51a29.29,29.29,0,0,1,.11-3.38c.17-1.93-1.5-2.2-1.5-2.37a26.37,26.37,0,0,1,0-3.08c.11-.93-1.79-2-1.57-3a40.4,40.4,0,0,0,0-5.39,4,4,0,0,1-.84-3.08c.17-2.09-1.79-4-1.79-4l-.33-5.92-2.53-8.13c-2.54-8.14-.95-5-4.46-8.69-1.56-1.64-4.13-2.45-6.48-2.85a11,11,0,0,0-.14-1.42c-.45-3.27-1.16-6.82.43-9.73.95-1.74,2.7-3.21,2.74-5.19A3.65,3.65,0,0,0,172,365c-.94-2.45-4.28-4.14-4.72-6.86l.13.27v-.17a3.11,3.11,0,0,0-.27-1.35,1,1,0,0,0-.12-.29,2.15,2.15,0,0,0-.68-.59,18.3,18.3,0,0,0-1.63-.92,3.85,3.85,0,0,0,.78-2,2.64,2.64,0,0,0-.1-.79,4.5,4.5,0,0,0-1.14-2,5.93,5.93,0,0,0-1.84-1.38l.24.24a4.07,4.07,0,0,0-1.16-.39,15.15,15.15,0,0,0-2.13-.05,16.44,16.44,0,0,1-3.48-.65c-4.23-1-8.9-1.45-12.68.62-3,1.7-5.08,4.64-6.64,7.67a8.94,8.94,0,0,0-1.25,3.82,15,15,0,0,0,.67,3.58,1.54,1.54,0,0,1,0,.74c-.17.61-.92.78-1.5,1a4.44,4.44,0,0,0-2.27,2.54,13,13,0,0,0-.66,3.38,4.64,4.64,0,0,0,.14,2.19c.48,1.22,1.87,1.8,3.07,2.37a9.85,9.85,0,0,1,3.55,2.58,64.69,64.69,0,0,0-7.32,6.42c-3.38.95-7.08,2.26-7.94,3.51-1.69,2.42-2.53,1.32-2.79,9.79S119,409.77,119,409.77v11.84s1.23,7.81,0,9.9-1,10.78-1,10.78,1.69,8.24-1,10.88-2.79,7.61-2.79,7.61l.23.09C109.7,461.2,99.76,462,100.18,463.64ZM128.76,450c1-2.53,3-9.56,3-9.56s1.11-5.28,0-6.27,1.56-8.14,1.56-8.14a8.37,8.37,0,0,1,1,4.73c-.22,2.75,0,8.69,0,8.69s-1.82,5.71-1.52,8.46-4.39,5.71-3.71,6.81a12.8,12.8,0,0,1,1.1,3.13s-.73,0-1.69.08C128.38,454.83,128.18,451.42,128.76,450Z"/><path class="cls-19" d="M195.22,452s16.91.58,16.36,2.79-15.38,2.88-17.12,2.88-4.22-3.17-4.22-3.17Z"/><path class="cls-20" d="M175,453.32h9.75v-9H175Z"/><path class="cls-21" d="M175,453.32h9.75v-9H175Z"/><path class="cls-20" d="M189.91,453.67l9,18.11-11.38,3.69-9.17-7.88L174,459.18l-8.79.72-9.37,4.67-7.57,4.63-4.59,8.58-6.57,3.71-14.09-3L121,468.9l11.5-7.7,4.17-6.32,16.89-2.46,4.89-7.3,16.9,4.09Z"/><path class="cls-21" d="M189.91,453.84l9.16,19.73-11.56,2.07-9.17-7.88L174,459.35l-8.79.72-9.37,4.67-7.57,4.62L143.68,478l-6.57,3.71-14.09-3L121,469.06l11.5-7.7,4.17-6.31,16.89-2.46,4.89-7.3,16.9,4.09Z"/><path class="cls-22" d="M166.38,358.59a1.94,1.94,0,0,1,.66.58,3.18,3.18,0,0,1,.25,1.33c.35,3.26,4.92,5,4.86,8.3-.05,1.94-1.75,3.38-2.67,5.07-1.54,2.88-.85,6.36-.42,9.6.33,2.44.33,5.32-1.55,6.93a29.86,29.86,0,0,0-2.47,1.75c-1.43,1.49-1.12,3.94-2.06,5.77a1.55,1.55,0,0,1-.39.53,1.61,1.61,0,0,1-.55.29,5,5,0,0,1-2.81-.09,4.92,4.92,0,0,1-2.32-1.61,8.76,8.76,0,0,1-1.78-5.35,43.91,43.91,0,0,1,.43-5.72c.35-3.67.23-7.37.53-11a8.78,8.78,0,0,1,.77-3.38c.28-.55.66-1,.93-1.6a8.14,8.14,0,0,0,.62-2.42l1-6.46c.2-1.29.38-3.62,1.88-4.11S165.17,357.82,166.38,358.59Z"/><path class="cls-22" d="M166.38,358.59a1.94,1.94,0,0,1,.66.58,3.18,3.18,0,0,1,.25,1.33c.35,3.26,4.92,5,4.86,8.3-.05,1.94-1.75,3.38-2.67,5.07-1.54,2.88-.85,6.36-.42,9.6.33,2.44.33,5.32-1.55,6.93a29.86,29.86,0,0,0-2.47,1.75c-1.43,1.49-1.12,3.94-2.06,5.77a1.55,1.55,0,0,1-.39.53,1.61,1.61,0,0,1-.55.29,5,5,0,0,1-2.81-.09,4.92,4.92,0,0,1-2.32-1.61,8.76,8.76,0,0,1-1.78-5.35,43.91,43.91,0,0,1,.43-5.72c.35-3.67.23-7.37.53-11a8.78,8.78,0,0,1,.77-3.38c.28-.55.66-1,.93-1.6a8.14,8.14,0,0,0,.62-2.42l1-6.46c.2-1.29.38-3.62,1.88-4.11S165.17,357.82,166.38,358.59Z"/><g class="cls-10"><path class="cls-8" d="M167,359.48v-.27a1.59,1.59,0,0,1,.2.24,3.08,3.08,0,0,1,.25,1.34V361A4.25,4.25,0,0,1,167,359.48Z"/><path class="cls-8" d="M156.62,396a4.93,4.93,0,0,0,5.13,1.69,1.59,1.59,0,0,0,.55-.28,1.74,1.74,0,0,0,.38-.52c.95-1.85.64-4.29,2.07-5.79.79-.62,1.62-1.2,2.47-1.74,1.88-1.62,1.88-4.49,1.54-6.94-.43-3.22-1.12-6.72.43-9.58.92-1.7,2.62-3.17,2.66-5.12a2.44,2.44,0,0,0,0-.54,3.81,3.81,0,0,1,.47,1.84c0,1.95-1.75,3.38-2.67,5.12-1.54,2.87-.84,6.35-.42,9.58.33,2.46.33,5.33-1.55,6.93-.76.66-1.77,1-2.47,1.75-1.43,1.5-1.11,3.95-2.06,5.78a1.83,1.83,0,0,1-.38.54,1.88,1.88,0,0,1-.55.27,4.93,4.93,0,0,1-5.13-1.69,7.33,7.33,0,0,1-1.46-3A6.82,6.82,0,0,0,156.62,396Z"/></g><path class="cls-19" d="M118.43,461.92s-16.91.58-16.35,2.79,15.38,2.88,17.11,2.88,4.23-3.18,4.23-3.18Z"/><path class="cls-20" d="M163.93,384.81s8.28-.48,11.69,3.15,1.9.54,4.33,8.56l2.44,8,.32,5.8s1.9,1.89,1.73,4a4,4,0,0,0,.11,1.61,4,4,0,0,0,.74,1.42,42.92,42.92,0,0,1,0,5.32c-.22,1,1.62,2.06,1.51,3s-.05,2,0,3a2.3,2.3,0,0,1,1.47,2.34,29.29,29.29,0,0,0-.11,3.38s2.7,2.87,2.16,4.44.49,4.23.49,4.23.59,3.47,2.06,4.38,2.53,5,2.53,5-1.35,3.51-1.35,3.68,1,9.21,3.63,10.35,7.47,6.07,7.26,8.23.85,15.29,1.57,17.12-.11,20.66-4.11,21.58-6.89-4-8.73-4.5-3.84-6.83-3.84-6.83-5.47-4.66-5.53-8.4-.21-8.46-.21-8.46,6.38-10.84,7.68-11.66,4.94-5.41,2.12-9.37a42,42,0,0,1-4.6-9l-3-2.7-2.53-9.71-4.66-15.16-4.39-14.91L170.93,397l-9.84-6.86S159.33,385.66,163.93,384.81Z"/><path class="cls-19" d="M167,470.49l1.55,1.59c2.49,2.53,7.17,7.23,7.91,7.65,1,.58,2.6,3.25,4.62,6a68.74,68.74,0,0,1,4.77,8.67s6.76,9.54,10.75,10.55c2.7.69,6.39,4.23,8.46,6.43,1,1.06,1.63,1.81,1.63,1.81l7.81-3-1-2.67-.18-.35c-.74-1.46-3.84-7.44-7.9-14.46a95.11,95.11,0,0,0-11.84-15.53s-6.22-5.72-6.43-8.32a31.29,31.29,0,0,1,.06-4.33c.12-1.87.3-3.47.3-3.47l-9.46-6.14-7.23,3Z"/><path class="cls-19" d="M124.54,508.33l7.69,3.8s.38-.47,1-1.22c2.59-3.05,9.38-10.88,12-12.45,3.24-1.94,8.87-8.56,8.28-10.15s6.33-11.44,6.33-11.44a18.7,18.7,0,0,0,3.86-4.59,5.23,5.23,0,0,0,.75-3.7c-.92-3.63-4-11.6-4-11.6l-1.56-2.6c-.12-.15-5.42-2-5.42-2l-5.25-.54-6.62,5.63s.25,1.34.61,3.21c.81,4.1,2.2,10.74,2.87,11.16,1,.59-4.51,5.08-4.51,5.08S137,480,132.5,490.52c-3.38,8-6.22,14.1-7.39,16.6Z"/><path class="cls-8" d="M170.83,457.9,167,470.49l1.55,1.59a65.24,65.24,0,0,0,2.42-8.31c1-4.12,11.41-3,13.22-3,.79,0,1.91,1.82,3,3.76.12-1.87.29-3.47.29-3.47l-9.45-6.14Z"/><path class="cls-8" d="M141.65,457.52s.25,1.33.61,3.2a13.77,13.77,0,0,1,3.38-4.68c5.08-4.49,11.78-.66,11.78-.66.68.26,1,1,1.77,1.86a15.73,15.73,0,0,1,3.64,9.24,32.09,32.09,0,0,0,.9,5.84,5.28,5.28,0,0,0,.75-3.7c-.92-3.63-4-11.59-4-11.59L159,454.42c-.12-.15-5.42-2-5.42-2l-5.26-.54Z"/><path class="cls-23" d="M133.79,462.64c.07,1.81,6.76,4.63,6.76,4.63s0-7.61,5.08-12.07,11.77-.65,11.77-.65c.69.25,1,1,1.78,1.86a15.72,15.72,0,0,1,3.63,9.24c.24,3.84,1.29,9.11,2.89,9.06,2.54-.07,4.23-7.66,5.28-11.78s11.41-3,13.22-3,5.27,9.39,6.57,8.23-1.45-10.2-1.45-10.2l-8.75-10.53-1.87-2.24-38.35,2.07-1.89,2.93c-.88,1.39-1.75,2.77-1.79,2.87S133.71,460.8,133.79,462.64Z"/><path class="cls-8" d="M172.59,451.1c-.06.07-7.05,7.66-7.37,8.8a36.12,36.12,0,0,0-.66,3.88,25,25,0,0,0-.4-3.45c-.24-.76.85-2.53,1.57-3.08a11.06,11.06,0,0,0,2.36-2.12c.18-.46,1.08-5.18,1.08-5.18l2.93-.65Z"/><path class="cls-8" d="M159.35,450.33s4.49,5.16,4.38,5.93S159.35,450.33,159.35,450.33Z"/><path class="cls-19" d="M136.39,389.56l5.19,7.23,14.28,2.89s14.47-3.62,4.64-7.37a5.74,5.74,0,0,1-2.4-1.63c-1.73-2.07-1.09-5.21.35-8.26A44.72,44.72,0,0,1,165,373s-20.29-9-18,.4a9.45,9.45,0,0,1-.12,4.95c-1.21,4.23-5.07,7.62-7.71,9.5A25.94,25.94,0,0,1,136.39,389.56Z"/><path class="cls-8" d="M136.39,389.56l5.19,7.23,14.28,2.89s14.47-3.62,4.64-7.37a5.74,5.74,0,0,1-2.4-1.63c-2.32,1-4.74,1.85-6,1.48,0,0-8-2.35-13-4.33A27.59,27.59,0,0,1,136.39,389.56Z"/><path class="cls-8" d="M138.41,450.55a52.15,52.15,0,0,1,6-1.48c2-.36,4-.5,4.79,0,2,1.29,6.93,4.22,8.67,4.22a2.38,2.38,0,0,0,1.37-.37,2.48,2.48,0,0,0,.94-1.06,40.55,40.55,0,0,1,8.81,0c2.31.38,7.77-2.39,11.15-4.23l.39-.22-1.87-2.25-38.35,2.08-1.89,2.93Z"/><path class="cls-24" d="M139.84,440l-1.43,9.67a59.11,59.11,0,0,1,6-1.48c2-.35,4-.49,4.79,0,2,1.31,6.93,4.23,8.67,4.23a2.5,2.5,0,0,0,2.31-1.44,40.55,40.55,0,0,1,8.81,0c2.31.39,7.77-2.38,11.15-4.23,1.69-.94,2.86-1.69,2.86-1.69l-2.17-7.67-6.64-7.08-1-10.26-1.58-11.85L169.17,401l-4.46-10.56-.78-1.87s-.85.52-2.15,1.19c-.58.32-1.26.66-2,1-2.75,1.35-6.13,2.73-7.66,2.27,0,0-7.14-2.09-12.14-4-2.31-.84-4.16-1.69-4.64-2.27a.55.55,0,0,1-.12-.24c0-.14,0,0-.06.28-.32,3.19-1.38,27.61-1.38,27.61Z"/><path class="cls-8" d="M133.79,414.42,139.85,440l-1.43,9.68a56.59,56.59,0,0,1,6-1.48c.35-4,.74-10.66-.3-12.89-1.53-3.26-2.39-13.54-2.39-13.54L140,389l-.18-3.16a23.34,23.34,0,0,0-4.46.89l-.18,0C134.85,390,133.79,414.42,133.79,414.42Z"/><path class="cls-8" d="M121.63,463.3c3.78,1.15,8.87,2.39,9.41,1a17.47,17.47,0,0,0,.27-5.28c-1.84.12-4.61.5-5.07,1.49S123.28,462.28,121.63,463.3Z"/><path class="cls-20" d="M138.08,385.88c-.33-.22-12.13,2.38-13.76,4.77s-2.49,1.29-2.71,9.64-1.19,11.38-1.19,11.38v11.7s1.19,7.7,0,9.76-1,10.62-1,10.62,1.63,8.13-1,10.73-2.71,7.48-2.71,7.48,12.68,4.55,13.53,2.38-.44-10.62.54-13.11,2.92-9.43,2.92-9.43,1.09-5.21,0-6.18,1.52-8,1.52-8a8.49,8.49,0,0,1,1,4.66c-.21,2.71,0,8.56,0,8.56s-1.77,5.64-1.48,8.35-4.23,5.64-3.61,6.72A13,13,0,0,1,131.2,459s-6.06,0-6.71,1.57-5.64,2.25-6.07,4.38-5,2.77-3.79,6.35.44,15.82.44,15.82,21.87-2.71,19.49-12.69-13.65-5.52-13.65-5.52,9-5.32,14.2-4.66,7.25-13,7.25-13,1.52-12.69,0-15.93S140,421.76,140,421.76Z"/><path class="cls-8" d="M128.11,456.72s-.54-1-4.38-.38-5.8-.21-5.8-.21S125.73,459.63,128.11,456.72Z"/><path class="cls-8" d="M129.2,406.85c.05.16-2.82,4.39-.65,7.8s3.95,8.89,4.33,9.91.9,2.61.9,2.61"/><path class="cls-25" d="M139.38,380.67s-10.15,7.62-10.15,11.22a4.16,4.16,0,0,0,3.09,1.14c2.11,0,5.92-1,6.34-3.39s2.05,0,1.13,1.25-1.46,1.89-1.46,1.89-9.62,2.63-11.46,3.88.75,2.7.75,2.7,2.71,4.88,2.54,5.69,6.66,11.44,6.66,11.44S139.1,428,139,430.14s-.27,6.77-.27,6.77l4.36,5.92s1.06-18.42.36-20.91-2.61-18.16-2.61-18.16-2.16-9.53-1.3-10.62,1.18-4.45,1.18-4.45Z"/><path class="cls-20" d="M140.25,380.24s-10.15,7.62-10.15,11.22a4.25,4.25,0,0,0,1.43.89,4.06,4.06,0,0,0,1.66.24c2.11,0,5.92-1,6.33-3.38s2.07,0,1.14,1.24-1.46,1.9-1.46,1.9-9.64,2.61-11.47,3.87.77,2.72.77,2.72,2.7,4.87,2.53,5.68,6.67,11.44,6.67,11.44,2.27,11.49,2.16,13.66-.27,6.76-.27,6.76l3.49,5.93S145,424,144.3,421.49s-2.59-18.07-2.59-18.07-2.17-9.54-1.3-10.62,1.18-4.44,1.18-4.44Z"/><path class="cls-21" d="M140.25,380.24s-10.15,7.62-10.15,11.22a4.25,4.25,0,0,0,1.43.89,4.06,4.06,0,0,0,1.66.24c2.11,0,5.92-1,6.33-3.38s2.07,0,1.14,1.24-1.46,1.9-1.46,1.9-9.64,2.61-11.47,3.87.77,2.72.77,2.72,2.7,4.87,2.53,5.68,6.67,11.44,6.67,11.44,2.27,11.49,2.16,13.66-.27,6.76-.27,6.76l3.49,5.93S145,424,144.3,421.49s-2.59-18.07-2.59-18.07-2.17-9.54-1.3-10.62,1.18-4.44,1.18-4.44Z"/><path class="cls-8" d="M159.42,389.24a7.18,7.18,0,0,0,.37,1.52c.4,1.2,1,2.82,1.53,4.49.77,2.54,3.14,7.21,4.55,11.6s3.52,13.76,3.52,13.76-.43,8.62,2.44,10.78S178,441.54,178,441.54s1,2.65,2.23,5.18c1.69-.94,2.86-1.69,2.86-1.69l-2.17-7.67-6.64-7.08-1-10.26-1.58-11.84L169.17,401l-4.46-10.56c-1.19-.08-2-.16-2-.16l-.95-.51C160.8,389.23,159.39,388.6,159.42,389.24Z"/><path class="cls-25" d="M164.46,390.73s10,.85,12.3.6,1.3,4.83,1.3,4.83,1.73,10.34,1.35,11.43-2.43,9.21-1.19,11.16,5.07,12.08,5.07,12.08,1.25,4.5,2.33,9,3.64,13.11,4.28,13.87,6.19,10.75,5.56,12.31-9.17-13.17-10.88-14.47-4.91-9.55-4.91-9.55-3.26-8-6.13-10.15-2.43-10.79-2.43-10.79-2.12-9.37-3.53-13.76-3.77-9-4.55-11.6-1.83-5.08-1.89-6S164.46,390.73,164.46,390.73Z"/><path class="cls-20" d="M163.59,390.27s10.06.84,12.29.59,1.31,4.82,1.31,4.82,1.73,10.36,1.35,11.44-2.44,9.21-1.19,11.16,5.07,12.09,5.07,12.09,1.25,4.49,2.34,9,3.62,13.11,4.28,13.88,6.19,10.74,5.55,12.3-9.16-13.18-10.87-14.47-4.91-9.58-4.91-9.58-3.25-8-6.12-10.15-2.44-10.78-2.44-10.78-2.11-9.37-3.51-13.76-3.78-9-4.55-11.6-1.85-5.08-1.9-6S163.59,390.27,163.59,390.27Z"/><path class="cls-21" d="M163.59,390.27s10.06.84,12.29.59,1.31,4.82,1.31,4.82,1.73,10.36,1.35,11.44-2.44,9.21-1.19,11.16,5.07,12.09,5.07,12.09,1.25,4.49,2.34,9,3.62,13.11,4.28,13.88,6.19,10.74,5.55,12.3-9.16-13.18-10.87-14.47-4.91-9.58-4.91-9.58-3.25-8-6.12-10.15-2.44-10.78-2.44-10.78-2.11-9.37-3.51-13.76-3.78-9-4.55-11.6-1.85-5.08-1.9-6S163.59,390.27,163.59,390.27Z"/><path class="cls-8" d="M167.5,417s-1.25,6.23.84,9.19S168.09,418.34,167.5,417Z"/><path class="cls-8" d="M145.28,437.63s5.74,1,7.61,4.06S145.28,437.63,145.28,437.63Z"/><path class="cls-8" d="M145.28,443.8s7.32,2.34,5.92,3.15-4.66-.65-5.58-.38S145.28,443.8,145.28,443.8Z"/><path class="cls-8" d="M205.09,511.38c1,1.06,1.63,1.81,1.63,1.81l7.81-3-1-2.67-.18-.35h-.05c-.47.33-3.92,2.54-3.92,2.54Z"/><path class="cls-23" d="M209.8,510.57s3.46-2.23,3.92-2.54,3.82,4,3.82,4a60.85,60.85,0,0,1,2.88,5.41c.1.66,2.21,1.09,2.32,1.58a34.36,34.36,0,0,0,2.61,3.63s1.4,3.69,3.9,4.66,5.14,3.38,1.73,6.06-10.24,4.23-10.24,4.23-4.33-4.5-5.2-6.6a39.81,39.81,0,0,0-3.38-5.65,28.22,28.22,0,0,1-1.74-4.17c-.22-1.13-5.2-8.83-5.2-8.83Z"/><path class="cls-8" d="M124.54,508.33l7.69,3.8s.38-.47,1-1.22a32.41,32.41,0,0,1-3.71-1.9l-4.44-1.91Z"/><path class="cls-23" d="M129.12,509.47s3.43,2,4.34,2-1.27,2.46-1.27,2.46-1.69,2.35-1.62,3.51-2.13,3.93-2.13,3.93-3.76,6.47-3.51,8.71,2.42,8.13-2.7,7-10.62-1.69-10.51-4.37,2.31-7.22,2.31-7.22l2.27-4.63a41.08,41.08,0,0,0,3.29-5.07c1-2.06,4.15-8.68,4.15-8.68Z"/><path class="cls-22" d="M160.16,392.7c-4.86-1.87-3.82-6.62-1.53-10.94a13,13,0,0,0,6.08-4.78c1.46.62,2.79,2.38,2.24,3.84a5.51,5.51,0,0,1-.85,1.23,8.3,8.3,0,0,0,.69,10.42c.41.42.91.84.9,1.47s-.76,1.21-1.45,1.46a9.22,9.22,0,0,1-2.79.55C163.88,395,163.12,393.83,160.16,392.7Z"/><path class="cls-8" d="M129.23,459.08s-5.2.2-6.93,1.36a6.77,6.77,0,0,0-2.41,2.86"/><g class="cls-10"><path class="cls-8" d="M166.21,382.15a8.33,8.33,0,0,0-1.47,3.91,8.23,8.23,0,0,0,.63,4.13,8.2,8.2,0,0,1-1.08-4.51,8.28,8.28,0,0,1,1.51-4.4,5,5,0,0,0,.84-1.23,2.07,2.07,0,0,0,0-1.47,2.62,2.62,0,0,1,.51,1.11,2.52,2.52,0,0,1-.07,1.22A5.33,5.33,0,0,1,166.21,382.15Z"/><path class="cls-8" d="M163.58,395.15a9.26,9.26,0,0,0,2.33-.52c.69-.25,1.45-.73,1.46-1.46v-.12a1.57,1.57,0,0,1,.45,1c0,.74-.76,1.22-1.46,1.47a9.4,9.4,0,0,1-2.78.55A1.27,1.27,0,0,0,163.58,395.15Z"/><path class="cls-8" d="M159.81,391.93c2.32.84,3.29,1.77,3.38,2.6a7.48,7.48,0,0,0-3-1.73,5.12,5.12,0,0,1-1.9-1.1,5,5,0,0,1-1.24-1.81A5.36,5.36,0,0,0,159.81,391.93Z"/></g><path class="cls-8" d="M146.81,378.33c1.74,3.21,7.43,4.73,7.61,4.73a12.94,12.94,0,0,0,4-.64A44.8,44.8,0,0,1,165,373s-20.29-9-18,.4A9.38,9.38,0,0,1,146.81,378.33Z"/><path class="cls-19" d="M141.58,369.33a12.87,12.87,0,0,0,11.84,12.82h1a12.86,12.86,0,0,0,2.49-25.48,12.85,12.85,0,0,0-15.35,12.62Z"/><path class="cls-8" d="M141.58,369.33a12.87,12.87,0,0,0,11.84,12.82A18.48,18.48,0,0,0,158,376a5.92,5.92,0,0,0,.85-3.17c-.11-1-.66-1.84-.85-2.79-.27-1.57.53-3.12,1.34-4.49a16.09,16.09,0,0,1,2.54-3.75c.56-.53,1.09-1.05,1.61-1.61a12.87,12.87,0,0,0-21.94,9.11Z"/><path class="cls-22" d="M164.17,358.51a5,5,0,0,0,1.38-2.83,3.88,3.88,0,0,0-1.17-2.64,4.93,4.93,0,0,0-2.71-1.65,15.9,15.9,0,0,0-2.07-.05,15.52,15.52,0,0,1-3.38-.64c-4.1-1-8.65-1.43-12.34.62-2.95,1.62-4.91,4.57-6.45,7.55a8.87,8.87,0,0,0-1.22,3.78,15.07,15.07,0,0,0,.65,3.52,1.46,1.46,0,0,1,0,.72c-.17.6-.91.78-1.47,1a4.39,4.39,0,0,0-2.2,2.53,13.1,13.1,0,0,0-.64,3.39,4.52,4.52,0,0,0,.13,2.16c.47,1.21,1.81,1.77,3,2.34a9.42,9.42,0,0,1,3.45,2.54,4.56,4.56,0,0,1,.95,1.92,4.69,4.69,0,0,1,0,2.14,5.09,5.09,0,0,1-1,1.63,5,5,0,0,1-1.54,1.12,15,15,0,0,1-3.64,1.14,3.91,3.91,0,0,0-1.53.58,2.66,2.66,0,0,0-.23,3.67,5.54,5.54,0,0,0,3.6,1.75,13.12,13.12,0,0,0,8.67-1.84,6.66,6.66,0,0,0,3.38-4.23c.22-1.13,0-2.36.46-3.38.61-1.36,2.16-2,3.44-2.77a16.54,16.54,0,0,0,5.8-7,5.81,5.81,0,0,0,.84-3.18c-.11-1-.66-1.82-.84-2.78-.28-1.57.51-3.12,1.33-4.49a16.45,16.45,0,0,1,2.54-3.74A26.91,26.91,0,0,0,164.17,358.51Z"/><g class="cls-10"><path class="cls-8" d="M134.36,377.31a11.62,11.62,0,0,1,2.27,1.37c-.31-.19-.64-.35-1-.51a8.88,8.88,0,0,1-2.28-1.34Z"/><path class="cls-8" d="M134.46,393.8a13.08,13.08,0,0,0,8.63-1.83,6.68,6.68,0,0,0,3.38-4.23c.22-1.14,0-2.36.47-3.39.61-1.36,2.16-2,3.43-2.75a16.57,16.57,0,0,0,5.8-7,5.85,5.85,0,0,0,.85-3.18c-.11-1-.67-1.83-.85-2.78-.27-1.58.53-3.12,1.35-4.5a16.86,16.86,0,0,1,2.53-3.74,25.63,25.63,0,0,0,2.72-2.89,5.06,5.06,0,0,0,1.38-2.82,3.87,3.87,0,0,0-1.18-2.64,3.78,3.78,0,0,0-.49-.49,5.3,5.3,0,0,1,1.79,1.35,3.9,3.9,0,0,1,1.17,2.65,4.92,4.92,0,0,1-1.37,2.81,25.63,25.63,0,0,1-2.71,2.9,16,16,0,0,0-2.54,3.75,6.72,6.72,0,0,0-1.34,4.49c.17.95.72,1.82.85,2.78a5.74,5.74,0,0,1-.85,3.18,16.72,16.72,0,0,1-5.8,7c-1.27.78-2.82,1.4-3.43,2.77-.47,1-.25,2.27-.47,3.38a6.83,6.83,0,0,1-3.38,4.23,13.23,13.23,0,0,1-8.66,1.84,5.9,5.9,0,0,1-3.3-1.43A7.47,7.47,0,0,0,134.46,393.8Z"/></g><path class="cls-26" d="M176.62,535.22c-.13,1.8-.47,4.7-.47,4.7s-1.46.17-3.69.38l-1.52.12c-1.17.1-2.48.19-3.86.27-2.54.14-5.36.22-8,.17-1.31,0-2.6-.11-3.78-.22-.54-.06-1-.11-1.54-.19-3-.45-5.19-1.31-5.39-2.83a8.43,8.43,0,0,1-.07-1.94c.28-3.39,3.06-2.73,3.06-2.73-.17-.94.5-3.88,1.05-6,.34-1.34.64-2.35.64-2.35l19.56-1.32h.09a1,1,0,0,1,.38.08,1,1,0,0,1,.31.22,1.15,1.15,0,0,1,.21.33,1.21,1.21,0,0,1,.06.38c-.11,2.35-.28,7.72.68,7.84a3,3,0,0,1,1.4.57,2.88,2.88,0,0,1,1,1.18A7.48,7.48,0,0,1,176.62,535.22Z"/><path class="cls-26" d="M160,509.45s-7.37,8.89-10.92,6.43l-.25-.18a9.09,9.09,0,0,1-3.19-6.21c-.06-.64-.16-1.27-.28-1.92a13.47,13.47,0,0,1,.64-6.48c.06-.17.12-.35.19-.52C148.66,499.87,160,509.45,160,509.45Z"/><path class="cls-27" d="M156.05,510.27s-2.33,1.64-5.61,4.31a11.88,11.88,0,0,1-1.61,1.12,9.09,9.09,0,0,1-3.19-6.21c-.06-.64-.16-1.27-.28-1.92a13.47,13.47,0,0,1,.64-6.48C150.59,501.42,156.05,510.27,156.05,510.27Z"/><path class="cls-8" d="M153.52,509.4s-1.25.85-3,2.3a5.51,5.51,0,0,1-.84.59,4.71,4.71,0,0,1-1.18-1.48A4.86,4.86,0,0,1,148,509c0-.35-.1-.69-.16-1a7.15,7.15,0,0,1,.34-3.46C150.6,504.67,153.52,509.4,153.52,509.4Z"/><path class="cls-26" d="M164.79,509.45s7.37,8.89,10.93,6.43l.24-.18a9,9,0,0,0,2.22-2.78,9.12,9.12,0,0,0,1-3.43c.08-.64.18-1.27.3-1.92a13.36,13.36,0,0,0-.65-6.48c-.12-.33-.21-.52-.21-.52C176.13,499.87,164.79,509.45,164.79,509.45Z"/><path class="cls-27" d="M168.75,510.27s2.32,1.64,5.6,4.31A12.54,12.54,0,0,0,176,515.7a9,9,0,0,0,2.22-2.78,9.12,9.12,0,0,0,1-3.43c.08-.64.18-1.27.3-1.92a13.36,13.36,0,0,0-.65-6.48C174.2,501.42,168.75,510.27,168.75,510.27Z"/><path class="cls-8" d="M171.29,509.39s1.24.85,3,2.29a7.23,7.23,0,0,0,.85.6,4.83,4.83,0,0,0,1.17-1.48,4.88,4.88,0,0,0,.52-1.82,5.15,5.15,0,0,1,.16-1,7.06,7.06,0,0,0-.35-3.44C174.19,504.69,171.29,509.39,171.29,509.39Z"/><path class="cls-8" d="M172.6,523.28a17.35,17.35,0,0,1-2.83,3.61c-2.93,2.59-15.57,1.56-16.39,1.43-.17,0-.53-.54-1-1.37.34-1.34.64-2.35.64-2.35Z"/><path class="cls-26" d="M162.59,508.71c-.51,0-1,.05-1.55,0-2.63,0-11.52.07-12.51,3.66-1.16,4.23,4,15.57,4.85,15.7s13.46,1.16,16.39-1.44,6.77-10.72,6.56-11.48C176.33,515.2,180,507.48,162.59,508.71Z"/><path class="cls-8" d="M162.31,515.57a9.33,9.33,0,0,0-9.56,5.41,7.82,7.82,0,0,0,.57,7.87c1,1.43,2.54,2.54,4.59,1.64C162.54,528.58,162.31,515.57,162.31,515.57Z"/><path class="cls-8" d="M162.11,515.16a9.36,9.36,0,0,0-9.57,5.41,7.79,7.79,0,0,0,.58,7.87c1,1.43,2.54,2.49,4.58,1.64C162.3,528.17,162.11,515.16,162.11,515.16Z"/><path class="cls-27" d="M162.11,515.37a9.31,9.31,0,0,0-5.66,1.14,9.49,9.49,0,0,0-3.91,4.26,7.81,7.81,0,0,0,.58,7.88c1,1.43,2.54,2.54,4.58,1.63C162.3,528.38,162.11,515.37,162.11,515.37Z"/><path class="cls-28" d="M155.08,521s-.89.84-.54,1S155.08,521,155.08,521Z"/><path class="cls-28" d="M156.05,522s-.49,1.07-.15,1.19.55-.77.55-.77Z"/><path class="cls-28" d="M153.9,523.64s-.47,1.26,0,1.26S153.9,523.64,153.9,523.64Z"/><path class="cls-29" d="M153.31,527a3.58,3.58,0,0,0,3.38,2.25"/><path class="cls-29" d="M155.53,527.73a1.69,1.69,0,0,0,2.05.28"/><path class="cls-8" d="M163.13,515.57a9.31,9.31,0,0,1,9.56,5.45,7.82,7.82,0,0,1,.78,4,7.74,7.74,0,0,1-1.36,3.85c-1,1.43-2.53,2.54-4.57,1.65C162.93,528.58,163.13,515.57,163.13,515.57Z"/><path class="cls-8" d="M163.34,515.16a9.36,9.36,0,0,1,9.56,5.41,7.79,7.79,0,0,1-.58,7.87c-1,1.43-2.53,2.49-4.58,1.64C163.13,528.17,163.34,515.16,163.34,515.16Z"/><path class="cls-27" d="M163.34,515.37a9.2,9.2,0,0,1,5.65,1.15,9.36,9.36,0,0,1,3.91,4.25,7.81,7.81,0,0,1-.58,7.88c-1,1.43-2.53,2.54-4.58,1.63C163.13,528.38,163.34,515.37,163.34,515.37Z"/><path class="cls-28" d="M170.35,521s.85.84.55,1S170.35,521,170.35,521Z"/><path class="cls-28" d="M169.4,522s.48,1.07.14,1.19-.55-.77-.55-.77Z"/><path class="cls-28" d="M171.55,523.64s.47,1.26,0,1.26S171.55,523.64,171.55,523.64Z"/><path class="cls-29" d="M172.13,527a3.64,3.64,0,0,1-1.36,1.67,3.58,3.58,0,0,1-2.06.58"/><path class="cls-29" d="M169.91,527.73a1.66,1.66,0,0,1-1,.5,1.68,1.68,0,0,1-1.08-.22"/><path class="cls-28" d="M159.63,533.93a9.31,9.31,0,0,1,6.77,0Z"/><path class="cls-8" d="M153.75,540.47c-3-.44-5.19-1.31-5.39-2.83a8.39,8.39,0,0,1-.07-1.94,4.89,4.89,0,0,1,1.16-.42,5.21,5.21,0,0,1,2.66.36c1.44.4,1.34,2.1,1.65,4.3A1.88,1.88,0,0,1,153.75,540.47Z"/><path class="cls-26" d="M149.25,535.46s-3.95.73-1.81,4.13a1.51,1.51,0,0,0,.72.6c.25.09.49.09.47-.27l1.74,2s3.49.41,3.18-1.79-.21-3.9-1.64-4.31A5.32,5.32,0,0,0,149.25,535.46Z"/><path class="cls-29" d="M150.19,537.75s.84,1.91,2,.31"/><path class="cls-29" d="M148.27,538.5s.43,1.81,2.07.46"/><path class="cls-8" d="M176.62,535.22c-.13,1.8-.47,4.7-.47,4.7s-1.46.17-3.69.38a2.41,2.41,0,0,1,0-.38c.31-2.2.21-3.9,1.64-4.31A6,6,0,0,1,176.62,535.22Z"/><path class="cls-26" d="M177,535.46s3.94.73,1.8,4.13a1.47,1.47,0,0,1-.72.6c-.26.09-.5.09-.48-.27l-1.74,2s-3.48.41-3.17-1.79.2-3.9,1.64-4.31A5.36,5.36,0,0,1,177,535.46Z"/><path class="cls-29" d="M176.07,537.75s-.84,1.91-2,.31"/><path class="cls-29" d="M178,538.5s-.44,1.81-2.09.46"/><path class="cls-8" d="M159.07,540.86c-1.31,0-2.6-.11-3.78-.22l-1.19-4a2.91,2.91,0,0,1-.1-.72,2.53,2.53,0,0,1,4.33-1.79,2.5,2.5,0,0,1,.74,1.79C159.07,537.47,159.08,539.43,159.07,540.86Z"/><path class="cls-26" d="M153.9,536.66l1.39,4.69s-2.37-.05-1.69,1.44c0,0,.6.56.85.36,0,0-.32,1,.92,1,0,0,1.33.72,1.84.2s1.59-1.27,1.69-1.58,0-4.13,0-6.82a2.53,2.53,0,0,0-2.53-2.54,2.48,2.48,0,0,0-2.07,1,2.55,2.55,0,0,0-.48,1.09A2.62,2.62,0,0,0,153.9,536.66Z"/><path class="cls-29" d="M155.78,542.56s-1,1-.49,1.56"/><path class="cls-29" d="M155.33,542a1.37,1.37,0,0,0-.66.45,1.49,1.49,0,0,0-.3.75"/><path class="cls-8" d="M172.16,535.94a2.21,2.21,0,0,1-.11.72l-1.11,3.76c-1.17.1-2.48.19-3.86.27v-4.78a2.53,2.53,0,0,1,2.54-2.53,2.5,2.5,0,0,1,1.79.74,2.53,2.53,0,0,1,.75,1.79Z"/><path class="cls-26" d="M172.26,536.66l-1.39,4.66s2.37-.05,1.69,1.44c0,0-.59.56-.79.35,0,0,.3,1-.92,1,0,0-1.33.72-1.85.2s-1.59-1.28-1.69-1.58-.05-4.13,0-6.83a2.53,2.53,0,0,1,3.69-2.26,2.66,2.66,0,0,1,.9.77,2.56,2.56,0,0,1,.45,1.09A2.61,2.61,0,0,1,172.26,536.66Z"/><path class="cls-29" d="M170.38,542.56s1,1,.49,1.56"/><path class="cls-29" d="M170.84,542a1.37,1.37,0,0,1,.66.45,1.39,1.39,0,0,1,.29.75"/><path class="cls-8" d="M162.11,514.34s-4.82-.15-5,3.59,7.53,2.16,7.53,2.16,3.22-.44,2.67-2.71S165.59,514.55,162.11,514.34Z"/><path class="cls-8" d="M162.11,513.94s-4.82-.16-5,3.58,7.53,2.15,7.53,2.15,3.22-.43,2.67-2.7S165.59,514.14,162.11,513.94Z"/><path class="cls-28" d="M162.11,514.14s-4.82-.15-5,3.59,7.53,2.14,7.53,2.14,3.22-.43,2.67-2.69S165.59,514.34,162.11,514.14Z"/><path class="cls-8" d="M151.35,533s1.62.58,2,1.69Z"/><path class="cls-8" d="M174.3,532.12s-1.15.5-1.08,2.54Z"/><path class="cls-27" d="M152,541.37c.36-.21.38-.86,0-1.45s-.91-.91-1.27-.7-.37.86,0,1.45S151.61,541.58,152,541.37Z"/><path class="cls-27" d="M175.59,540.67c.35-.59.33-1.24,0-1.45s-.93.1-1.27.7-.33,1.24,0,1.45S175.25,541.27,175.59,540.67Z"/><path class="cls-2" d="M60.39,713c17,0,30.78-2.37,30.78-5.28s-13.78-5.28-30.78-5.28-30.77,2.36-30.77,5.28S43.4,713,60.39,713Z"/><path class="cls-13" d="M74.13,654.57S31.27,676.72,53.41,702.8c0,0,2.08,5.7,8.11,5.26,0,0-1.2-2.19,3.38-3.95a23.08,23.08,0,0,0,4.63-2.46,10.94,10.94,0,0,0,4.14-5.55s8.77-11.73,2-33.44c0,0,.85-6.13.11-7.12l-5.21,7.14s5.39,3.62,6,8.92c0,0-5.61-8.9-6.83-7.9-.24.21-2.59,3.91-2.59,3.91s9.31,6.34,10,14.56c0,0-5.26-11.51-10.93-13.16L63,674.81S73.17,681,74.36,690.35c0,0-5.91-11.84-12-14.23L60,682.25s9.83,6.25,10.73,14c0,0-8.22-13-11.18-12.58,0,0-1.85,5.76-1.6,7.52,0,0,7,4.65,7.07,9.21,0,0-6.41-8.1-7.4-7.56,0,0-.41,8.13,1.56,12.37,0,0-3.38-6-2.83-12.37,0,0-3.38,2.87-4.11,6.62,0,0-1.85-4.48,4.23-8.6,0,0,.57-6.33,1.27-7.11,0,0-6.57,3.21-9.37,7.16,0,0,1-5.93,10-8.8l2.26-6.21S51.68,679.7,48.93,683c0,0,2-5.83,12.37-8.63l3.08-5.71s-7.93,2.66-11.79,5.71c0,0,3-5,12.73-7.32l2.54-3.58s-5.76,2.06-7.36,2.8-1.93.36-1.93.36A20.79,20.79,0,0,1,68.89,662S74.53,655,74.13,654.57Z"/><path class="cls-2" d="M159.49,670.39c12.7,0,23-1.77,23-3.95s-10.29-4-23-4-23,1.77-23,4S146.79,670.39,159.49,670.39Z"/><path class="cls-13" d="M169.74,626.77s-32,16.54-15.47,36a6.16,6.16,0,0,0,6.06,3.92s-.91-1.63,2.53-2.94a16.93,16.93,0,0,0,3.46-1.85,8.15,8.15,0,0,0,3.1-4.13s6.54-8.77,1.47-25c0,0,.65-4.58.08-5.32l-3.89,5.33s4,2.71,4.48,6.67c0,0-4.22-6.65-5.07-5.92-.19.15-1.94,2.92-1.94,2.92s7,4.72,7.5,10.87c0,0-3.93-8.6-8.17-9.83l-2.4,4.33s7.62,4.64,8.46,11.61c0,0-4.41-8.85-8.93-10.62l-1.78,4.57s7.34,4.67,8,10.48c0,0-6.14-9.71-8.35-9.4,0,0-1.38,4.3-1.19,5.62,0,0,5.18,3.46,5.27,6.87,0,0-4.78-6-5.52-5.65,0,0-.31,6.09,1.17,9.25a18.29,18.29,0,0,1-2.13-9.25,10.16,10.16,0,0,0-3.06,4.95s-1.38-3.38,3.16-6.42c0,0,.43-4.73.95-5.31,0,0-4.91,2.39-7,5.34,0,0,.77-4.39,7.43-6.57l1.69-4.64s-6.67,2.82-8.72,5.31c0,0,1.48-4.36,9.24-6.45l2.3-4.27s-5.92,2-8.81,4.27c0,0,2.24-3.74,9.52-5.46l1.87-2.68s-4.3,1.54-5.5,2.09-1.43.28-1.43.28a15.48,15.48,0,0,1,7.7-3.5S170,627,169.74,626.77Z"/><path class="cls-2" d="M32.63,554.15c7.1,0,12.85-1,12.85-2.21s-5.75-2.21-12.85-2.21-12.84,1-12.84,2.21S25.54,554.15,32.63,554.15Z"/><path class="cls-13" d="M38.37,529.76s-17.9,9.24-8.66,20.13a3.5,3.5,0,0,0,1.34,1.65,3.45,3.45,0,0,0,2.05.55s-.5-.92,1.42-1.69a9.42,9.42,0,0,0,1.93-1,4.55,4.55,0,0,0,1.69-2.31s3.66-4.9.84-14c0,0,.37-2.54.05-3l-2.17,3a6.22,6.22,0,0,1,2.54,3.72s-2.35-3.72-2.85-3.29c-.1.08-1.09,1.62-1.09,1.62s3.9,2.65,4.19,6.08c0,0-2.19-4.81-4.56-5.49l-1.33,2.42s4.22,2.59,4.72,6.48c0,0-2.47-4.94-5-5.92l-1,2.54s4.1,2.61,4.48,5.85c0,0-3.43-5.42-4.67-5.25a13.61,13.61,0,0,0-.67,3.15s2.9,1.94,3,3.84c0,0-2.67-3.39-3.08-3.16,0,0-.17,3.39.65,5.16A10.26,10.26,0,0,1,31,545.7a5.83,5.83,0,0,0-1.69,2.76s-.77-1.87,1.77-3.59a13.26,13.26,0,0,1,.53-3,12.48,12.48,0,0,0-3.91,3s.43-2.45,4.15-3.67l1-2.59s-3.72,1.58-4.87,3c0,0,.84-2.44,5.15-3.6l1.29-2.39A20.93,20.93,0,0,0,29.42,538s1.25-2.09,5.32-3.06l1-1.49s-2.41.85-3.07,1.16-.85.16-.85.16a8.68,8.68,0,0,1,4.31-2S38.53,529.92,38.37,529.76Z"/><path class="cls-13" d="M781.14,99S757.88,79.74,800.3,48.71c0,0,21.05,40.28-7.16,53.92,0,0,.54-19.89-2.08-19.86S781.14,99,781.14,99Z"/><path class="cls-13" d="M745.55,118.65s-41.06,3.8-30-67.09c0,0,59.19,18.62,45.06,59,0,0-18.65-19.72-21.14-17.17S745.55,118.65,745.55,118.65Z"/><path class="cls-13" d="M550.52,209.31s-40.61,7.15-35.34-64.42c0,0,60.49,13.72,49.71,55.11,0,0-20.19-18.13-22.47-15.38S550.52,209.31,550.52,209.31Z"/><path class="cls-13" d="M855.33,115.78S894.39,129,900,57.46c0,0-61.86,4.41-57.51,46.95,0,0,22.71-14.86,24.53-11.8S855.33,115.78,855.33,115.78Z"/><path class="cls-13" d="M649.26,136.72s-39-13.48.33-73.49c0,0,46.24,41.36,16.73,72.33,0,0-8.85-25.66-12.18-24.36S649.26,136.72,649.26,136.72Z"/><path class="cls-13" d="M790.61,115.78s-2.3-21.93,35.66-16.48c0,0-9.56,31.76-31.22,24.49,0,0,10.41-10.11,9-11.42S790.61,115.78,790.61,115.78Z"/><path class="cls-13" d="M752.15,161.26s-2.31-21.94,35.65-16.49c0,0-9.55,31.77-31.22,24.53,0,0,10.41-10.15,9-11.42S752.15,161.26,752.15,161.26Z"/><path class="cls-13" d="M832.59,170.91s-16.66-14.45,14.79-36.38c0,0,14.7,29.74-6.09,39.22,0,0,.71-14.49-1.2-14.51S832.59,170.91,832.59,170.91Z"/><path class="cls-13" d="M765.43,295.14s20.6-7.86,25.09,30.23c0,0-33.14-1.07-31.68-23.89,0,0,12.44,7.47,13.36,5.8S765.43,295.14,765.43,295.14Z"/><path class="cls-13" d="M767.06,256.55s-16.65-14.45,14.79-36.38c0,0,14.71,29.74-6.09,39.23,0,0,.71-14.5-1.19-14.52S767.06,256.55,767.06,256.55Z"/><path class="cls-13" d="M639,215.51s-20,9.31-27.17-28.38c0,0,33.14-1.28,33.3,21.59,0,0-12.94-6.58-13.74-4.84S639,215.51,639,215.51Z"/><path class="cls-13" d="M590.63,170.77s-20,9.31-27.16-28.38c0,0,33.14-1.28,33.29,21.6,0,0-12.94-6.57-13.73-4.84S590.63,170.77,590.63,170.77Z"/><path class="cls-13" d="M657.89,274.61s-22,.85-14-36.71c0,0,31,11.7,22.3,32.84,0,0-9.37-11.09-10.78-9.8S657.89,274.61,657.89,274.61Z"/><path class="cls-13" d="M654,301.24s3.92,21.7-34.34,19.08c0,0,7.18-32.39,29.33-26.73,0,0-9.64,10.84-8.16,12.05S654,301.24,654,301.24Z"/><path class="cls-13" d="M602.68,284.44s-8.35,20.42-39.21-2.36c0,0,23.44-23.46,39.09-6.77,0,0-13.95,4-13.36,5.78S602.68,284.44,602.68,284.44Z"/><path class="cls-13" d="M776.32,204.44s-23.26-19.28,19.16-50.32c0,0,21,40.29-7.16,53.93,0,0,.54-19.89-2.08-19.86S776.32,204.44,776.32,204.44Z"/><path class="cls-13" d="M872.36,164.64s-17-25,32.37-43c0,0,9,44.56-21.83,49.83,0,0,6-19,3.5-19.65S872.36,164.64,872.36,164.64Z"/><path class="cls-13" d="M869.71,243.24S846.45,224,888.87,192.91c0,0,21.06,40.29-7.15,53.93,0,0,.53-19.88-2.08-19.85S869.71,243.24,869.71,243.24Z"/><path class="cls-13" d="M828.18,280.83s9.23-28.76,53.82-.95c0,0-29.54,34.55-52.69,13.44,0,0,18.61-6.92,17.64-9.31S828.18,280.83,828.18,280.83Z"/><path class="cls-13" d="M887.76,259.92s9.23-28.77,53.81-.95c0,0-29.54,34.55-52.69,13.43,0,0,18.6-6.91,17.65-9.3S887.76,259.92,887.76,259.92Z"/><path class="cls-13" d="M696.69,151s-29.74-5.32-8.13-53.24c0,0,38.17,24.68,20.35,50.45,0,0-9.3-17.57-11.59-16.25S696.69,151,696.69,151Z"/><path class="cls-13" d="M626,162.12s-29.9,4.42-24.61-47.9c0,0,44,11.28,35.31,41.38,0,0-14.43-13.69-16.16-11.73S626,162.12,626,162.12Z"/><path class="cls-13" d="M607.41,239.67s-29.89,4.4-24.6-47.91c0,0,44,11.28,35.31,41.38,0,0-14.43-13.69-16.15-11.72S607.41,239.67,607.41,239.67Z"/><path class="cls-13" d="M575.77,263.22S550,279,534.41,228.76c0,0,44.93-6.85,48.67,24.27,0,0-18.61-6.95-19.45-4.47S575.77,263.22,575.77,263.22Z"/><path class="cls-13" d="M818,239.13s-23.27-19.3,19.15-50.33c0,0,21.06,40.29-7.14,53.93,0,0,.52-19.89-2.09-19.86S818,239.13,818,239.13Z"/><path class="cls-7" d="M653,525.67s55.39-2.33,61.22-110.83-51.89-126.9-51.89-126.9S644.06,277.73,636,277.3s-35.22,2.13-35.22,2.13l29.89-5.76s-42-16-54.64-17.3L621.43,266s.65-25.19-10.24-33.52c0,0,9.31-.69,14.23,17.46a34.73,34.73,0,0,0,20.75,23.3c16.86,6.58,40.17,17,45.48,25.86,0,0,9.82,10.24,8.33-16.44s-8.54-49.54-11.11-50.18c0,0-20-21.35-48.2-22.63,0,0,16.43-6.62,44.18,14.09,0,0,2.34-10.46-8.11-22.84s-26.68-38.44-44.4-41.21c0,0,24.76-1.5,44.4,30.53,0,0,7.26,4.7,7.9-7.26s4.9-26.9,4.9-26.9,6,27.55-6.61,39.92c0,0,24.11,31.39,23,66.62,0,0,7.48,16,10.25-2.78,0,0,1.61-25.87,4.81-47.82A65,65,0,0,0,707.41,162c-5.33-6.64-9-13.09-7-16.48l28,33.31s23.48-54.44,40.6-66.18,19.21-14.31,19.21-14.31l-27.54,32.24,34.58-12.17-34.68,16s-16,13-25.18,48.68-10,57.83-10,57.83,49.3-39.07,58.69-37.79l-31.91,24.17a76.08,76.08,0,0,0-30,55.5s61.68-15.8,76.62-18.79l28.17-28.82-21.35,27.32,44-.63L874.74,244s-19.85,16.65-17.93,17.72,31,2.35,31,2.35-73.85-.43-82,4.91-26.21,7.25-26.21,7.25l52.28,7.91-62.31-4.49s-47.2,8.55-49.73,23.28c0,0,9.6,25.07,16,35,5.32,8.27,16,35,18.14,58.5S759.05,456,751,478s-11.09,34.59-7,41.21,7.89,15.16-5.33,16.86-71.29-.84-71.29-.84S649.57,538.73,653,525.67Z"/><path class="cls-8" d="M684,514a27.93,27.93,0,0,1,18.8-2.31c10.88,2.35,27.52,1.1,29,.85"/><path class="cls-8" d="M718.78,386.16s2.64,41.74-2.06,50Z"/><path class="cls-8" d="M728.54,436.13s-3.39,39.09-5.74,46.73S728.54,436.13,728.54,436.13Z"/><path class="cls-8" d="M731.85,340c2.39.85,12.69,21.75,10.62,27.92S731.85,340,731.85,340Z"/><path class="cls-8" d="M705.77,318.36c1.12.51,5.92,12.53,5,16.07S705.77,318.36,705.77,318.36Z"/><path class="cls-8" d="M750.27,388.45c-1.18,12.11-1.83,20.05-1.07,29.75a114.85,114.85,0,0,1-.33,22.63"/><path class="cls-8" d="M621.54,247.33a9.72,9.72,0,0,1,2,6.14c.07,2.2-.21,4.4-.07,6.59s1.24,5,3.54,5.33"/><path class="cls-8" d="M661,175.07a56.26,56.26,0,0,1,7.73,9.6,23.32,23.32,0,0,0,2.19,3.12,36.14,36.14,0,0,0,4.23,3.47,19.94,19.94,0,0,1,6.76,10.59"/><path class="cls-8" d="M772.52,112.69a13.81,13.81,0,0,1-2.74,3.66,39.64,39.64,0,0,0-2.94,2.71,22.75,22.75,0,0,0-1.9,2.78,74.94,74.94,0,0,1-7.91,10"/><path class="cls-8" d="M720.85,174.45c1.84,1.15,2.32,3.62,2.28,5.78s-.41,4.43.4,6.44c.36.92,1,1.69,1.34,2.64a12.22,12.22,0,0,1,.63,5q0,2.94-.17,5.92c-.1,2.36-.33,4.93-1.93,6.67"/><path class="cls-8" d="M722.36,291.46a29.29,29.29,0,0,1,3.86-2.69,16.16,16.16,0,0,1,4-1.75,43.44,43.44,0,0,1,6.56-.71c2.19-.23,4.48-.84,6-2.45"/><path class="cls-8" d="M809.15,264.48c-2.59.07-5.29.17-7.61,1.35-1.17.61-2.2,1.48-3.38,2.12a10.23,10.23,0,0,1-4.9,1.28"/><path class="cls-8" d="M773.15,275.2a1.44,1.44,0,0,1,1-.14,1.47,1.47,0,0,1,.84.58c.47.52.72,1.21,1.2,1.73.95,1,2.54,1.14,3.89,1.19"/><path class="cls-8" d="M758.3,220l-2.53,1.3a44.55,44.55,0,0,0-7.36,4.49"/><path class="cls-8" d="M729.79,244.43c-1.64-.39-3.06,1.36-3.38,3s.05,3.38-.43,5a9.23,9.23,0,0,1-2.46,3.69"/><path class="cls-8" d="M702.07,247.47c-1.5,4.46,1.69,9.31.74,13.94-.28,1.4-.93,2.71-1.26,4.1-.84,3.67.62,7.57,3,10.48"/><path class="cls-30" d="M420.78,665.68a40.91,40.91,0,0,0-7.16,1.76,2.07,2.07,0,0,1-.45.27,8.83,8.83,0,0,1-5.6.41s-7.61,1-11.95-2.48c-1.63-1.3-3.3-2.81-4.74-4.18a2.82,2.82,0,0,0-1.77-.78,2.77,2.77,0,0,0-1.86.54c-.21-.15-.47-.33-.76-.55-1.87-1.39-5.13-4.23-6.43-8-.46-1.3-1-2.58-1.58-3.84-.79-1.69-1.69-3.93-1.57-5.15.12-1.77-5.12-17.22-8.27-24.53A28.72,28.72,0,0,1,366.23,609a8.89,8.89,0,0,1,.17-2.77c.64-1.48,1-8.8-1.42-12l-6.31-17.51-9.05-27.15-.27-.85a36,36,0,0,1-2.19-3.28,30.57,30.57,0,0,1-2.53-5.29c-.12-.35-.24-.73-.34-1.09,3.47-1.1.79-11.05.79-11.05s-1.7-2.81-1.31-11a115.78,115.78,0,0,0-.68-18.89c-.1-.91-.2-1.85-.27-2.8,7.61,3.57,27.51,12.79,29.42,12.79,2.37,0,8.53,3.9,8.53,3.9s12.47,7.31,23.37,2.33-8.69-11.53-14.06-10.59-16.58-5.92-16.58-5.92L353.13,485.7l-8.46-5.08c3.21-7.26,6-20.2-.23-29.36l-2.37-2.53a99.46,99.46,0,0,0,1.69-20.81c0-6.33-.33-12.69-.26-19a18.51,18.51,0,0,0,7.5-20.07,11.21,11.21,0,0,0,2.88-2.61,11.54,11.54,0,0,0-.19-12.8,10.49,10.49,0,0,0-3.6-4,23.84,23.84,0,0,0-4.79-2.12,15,15,0,0,1,1.64.85c.15.1.28.22.43.32-1.69-.68-3.49-1.21-5.14-2a23.72,23.72,0,0,1-2.1-1.15c.79.33,1.6.63,2.42.92l-.3-.13c-2.82-1.38-5.19-3.53-8-5a18.35,18.35,0,0,0-3.59-1.45l.43.21c.52.27,1,.58,1.5.85a22.42,22.42,0,0,0-20.41,2.2c-6.47,4.23-10.64,11.36-12.07,18.86-1,5.14-.8,10.54-2.69,15.43-3.83,9.89-15.23,15.42-19,25.33-1.69,4.48-1.69,9.39-1.84,14.18a158.22,158.22,0,0,1-14.27,60.35c-1.11,2.42-2.45,5-4.48,6.63l-.65,0a7.57,7.57,0,0,1-1.65.85l.7.13-.7.29c.49.11,1,.19,1.48.25a8,8,0,0,1-.84.38c5.69,1.22,11.76-.28,16.75-3.27a43.05,43.05,0,0,0,12.37-12c.27-.37.53-.76.79-1.13a6.48,6.48,0,0,1-.24.68c-.62,1.56-3,26.47-3,28.18s-.47,17.13-1.26,19-10,25.52,2.21,22.72c7.73-1.78,9.13-9.3,9.14-14.52l.59-.2c1-.33,2.26-.7,3.55-1.05v2.07a34.37,34.37,0,0,0-1,5.13,30,30,0,0,1-1.26,5.93l-.07.14c-.62,1.4-5.6,12.88-5.69,21.34L284.43,591l-5.07,8.88s-14.38,17.28-16.91,34.1l-8.58,25.3s-1.94-2.4-2.25-1.47-.94,5.76-1.74,5.92-1.1,3.59-1.1,3.59-4.27,5.14-4.74,8.25a.63.63,0,0,1,0,.3,17.6,17.6,0,0,0-.16,2.71v1.35l.08.39s.16,2.34,6.16,3.74,12.32,2.18,15.48,3.9,12,3.14,12,3.14l11.84-.62a4.46,4.46,0,0,0,2.38-.82,4.37,4.37,0,0,0,.5-6.7l-.12-.11L284,680.66l-.66-.19s-4.48.63-5.8-2.49a11.27,11.27,0,0,1-5.58-10.59s.95-9.65-1.42-8.72c-.26.1-.52.23-.78.35a3.61,3.61,0,0,1,.07-.84v-.26a4.18,4.18,0,0,1,.11-.68V657c.06-.29.14-.59.22-.85v-.07c.1-.32.21-.65.32-1,0-.08.08-.17.11-.26.1-.25.21-.49.33-.74l.15-.33c.06-.12.26-.48.4-.72s.12-.21.19-.31a11.88,11.88,0,0,1,.68-1c4.43-5.93,11.84-19.63,11.84-19.63l6.95-14s3.79-8.11,7.11-9.66,8.84-7.47,10.74-12.3l14-31.3a5.73,5.73,0,0,1,.5,1.92s7.34,18.68,11.12,21.81c0,0,4.78,6.31,6.24,9.5a27.11,27.11,0,0,0,1.36,2.69,9.24,9.24,0,0,1,1.41,3.61c0,1.69,2.85,6.45,2.85,6.45v6.32s.47,15.8,11.2,28.34l5.45,9.12,10.11,15.34.39.57A6.49,6.49,0,0,1,372,670l3.16,6.85a28.24,28.24,0,0,1,1,3.74c0,.72,2.57,7.22,2.57,7.22a.06.06,0,0,1,0,.06v1a.42.42,0,0,0,.06.25l.05.21a1,1,0,0,0,.08.27l.08.22a.77.77,0,0,0,.11.27,1.67,1.67,0,0,0,.12.23,2.4,2.4,0,0,0,.16.27c.06.1.08.14.13.21a3.09,3.09,0,0,0,.33.39l.12.11.14.13.17.13.14.1a4,4,0,0,0,.49.3l.15.06a2.68,2.68,0,0,0,.47.18l.2.07a7,7,0,0,0,.69.15h.18a3.16,3.16,0,0,1,.67,0h.28a7.69,7.69,0,0,0,1,0s13.74-4.57,15.85-5.07,12.84-5,12.84-5,12.11-6.76,11.84-11.32S423.58,665.45,420.78,665.68Z"/><path class="cls-31" d="M335.16,392.53a16.13,16.13,0,0,0-1.18,3.38c-.29,1.57-.11,3.21-.57,4.72-.66,2.21-2.53,3.8-4,5.55a19.82,19.82,0,0,0-4.7,13.11c0,2.76.66,5.54.3,8.28-.3,2.16-1.19,4.18-1.69,6.29a27.1,27.1,0,0,0-.57,6.09,59,59,0,0,0,3.73,20.49,1.89,1.89,0,0,0,.53.85,2,2,0,0,0,1,.32l6.07.85a2.59,2.59,0,0,0,1.69-.14,2.53,2.53,0,0,0,.9-1.21c4.46-9.88,5.22-21,5.16-31.85s-.84-21.75.67-32.48c.49-3.38,1.22-6.77,1.45-10.15.14-2.21-.77-7.27-3.92-4.66C337.59,384,336.37,389.69,335.16,392.53Z"/><path class="cls-8" d="M342.35,381.5a9.09,9.09,0,0,1,.1,1.88c-.23,3.43-1,6.77-1.45,10.15-1.56,10.73-.74,21.64-.67,32.48s-.7,22-5.17,31.84a2.52,2.52,0,0,1-.89,1.21,2.59,2.59,0,0,1-1.69.15l-6.08-.85a1.86,1.86,0,0,1-1-.31l-.09-.1c.25.78.51,1.55.8,2.32a2.11,2.11,0,0,0,.53.84,1.89,1.89,0,0,0,1,.31l6.08.85a1.86,1.86,0,0,0,2.54-1.35c4.46-9.88,5.23-21,5.16-31.85s-.84-21.75.67-32.47c.5-3.39,1.22-6.77,1.45-10.16C343.77,385.07,343.43,382.5,342.35,381.5Z"/><path class="cls-32" d="M332,440.65a64.28,64.28,0,0,0,3.48,5.73l-17.55-7.22s-17.13-12.6-13.2-13.22c.92-.15,2.25-1.69,3.72-3.9a132.43,132.43,0,0,0,7.73-14.31c2.11-4.37,3.62-7.81,3.62-7.81l15.68,7.23a81.27,81.27,0,0,0-4.33,7.87,47.77,47.77,0,0,0-3.51,9.48C326.52,429.19,329.4,435.89,332,440.65Z"/><path class="cls-32" d="M297.26,542.09s-2.16,8-2.16,9.92a30.22,30.22,0,0,1-1.25,5.92s-5.55,12.39-5.64,21.37l-4.57,12.24-5,8.82s-14.09,17.2-16.56,33.93l-9.6,28.47,17.33,1.08a13.26,13.26,0,0,1,2-11.93c4.33-5.92,11.62-19.52,11.62-19.52l6.8-13.93s3.73-8.05,7-9.61,8.67-7.43,10.53-12.23l17.35-39.23,8.22-19.79Z"/><path class="cls-33" d="M333.36,537.6l-8.22,19.79-17.35,39.19c-1.86,4.81-7.27,10.69-10.53,12.23s-7,9.62-7,9.62l-6.82,14s-7.28,13.64-11.62,19.52a13.3,13.3,0,0,0-2.54,6.68,12.79,12.79,0,0,0,.56,5.25l-17.33-1.08,1.25-3.71,8.34-24.8c2.48-16.72,16.57-33.92,16.57-33.92l4.95-8.82,4.58-12.25c.09-9,5.64-21.37,5.64-21.37a29.72,29.72,0,0,0,1.24-5.92c0-1.89,2.17-9.91,2.17-9.91Z"/><path class="cls-8" d="M269.85,663.84l-17.33-1.08,1.25-3.71c1.42,2.3,11.44,2.46,11.44,2.46a21.13,21.13,0,0,1,4.09-2.92A12.62,12.62,0,0,0,269.85,663.84Z"/><path class="cls-34" d="M288.54,690.47l-11.62.63s-8.58-1.39-11.67-3.1-9.31-2.48-15.18-3.87-6-3.72-6-3.72a12.6,12.6,0,0,1,0-4.5.63.63,0,0,1,0-.3c.46-3.1,4.64-8.21,4.64-8.21s.31-3.38,1.08-3.56,1.4-5,1.69-5.92,2.21,1.46,2.21,1.46c.85,2.54,11.57,2.72,11.57,2.72a18.89,18.89,0,0,1,4.8-3.25c2.32-.93,1.4,8.67,1.4,8.67a11.22,11.22,0,0,0,5.47,10.53c1.29,3.11,5.67,2.48,5.67,2.48l.65.19,8,2.14a.57.57,0,0,1,.11.11,4.32,4.32,0,0,1,1.24,2.17,4.35,4.35,0,0,1-4,5.33Z"/><path class="cls-35" d="M288.54,690.47l-11.62.63s-8.58-1.39-11.67-3.1-9.31-2.48-15.18-3.87-6-3.72-6-3.72a4.25,4.25,0,0,1-.1-.49,6.67,6.67,0,0,1-.08-.74,16.25,16.25,0,0,1,.13-3.27l12.59,4.35s9.3,3.1,12.84,3.71c0,0,12.55.93,13.79.93.9,0,.84-2.23,0-4.15l8,2.14a.38.38,0,0,1,.11.11,4.37,4.37,0,0,1-.45,6.63A4.37,4.37,0,0,1,288.54,690.47Z"/><path class="cls-35" d="M261.46,679.87a.74.74,0,1,0-.74-.74A.74.74,0,0,0,261.46,679.87Z"/><path class="cls-35" d="M264.63,665.66a.74.74,0,0,0,0-1.48.74.74,0,0,0,0,1.48Z"/><path class="cls-35" d="M266,669.38a.74.74,0,1,0-.74-.74A.74.74,0,0,0,266,669.38Z"/><path class="cls-35" d="M267.63,672.94a.74.74,0,1,0-.73-.73A.73.73,0,0,0,267.63,672.94Z"/><path class="cls-35" d="M269.91,676.23a.74.74,0,1,0-.73-.73A.74.74,0,0,0,269.91,676.23Z"/><path class="cls-35" d="M272.48,678.82a.74.74,0,1,0-.74-.74A.74.74,0,0,0,272.48,678.82Z"/><path class="cls-35" d="M275.53,681.34a.74.74,0,1,0-.74-.73A.73.73,0,0,0,275.53,681.34Z"/><path class="cls-35" d="M279.13,683.28a.74.74,0,1,0-.73-.74A.74.74,0,0,0,279.13,683.28Z"/><path class="cls-35" d="M265.21,681a.73.73,0,0,0,.74-.73.74.74,0,0,0-.74-.74.73.73,0,0,0-.73.74A.72.72,0,0,0,265.21,681Z"/><path class="cls-34" d="M277,689.12h-.12c-3.59,0-9.59-1.83-11-2.42-1.28-.53-9.2-2.44-9.3-2.46s-6-1.83-8-2.37a33.76,33.76,0,0,1-4.66-2c0-.19-.06-.44-.08-.74a34.81,34.81,0,0,0,4.91,2.09c1.95.55,7.91,2.35,8,2.37.3.07,8,2,9.35,2.49s7.37,2.39,10.83,2.39H277Z"/><path class="cls-8" d="M318.63,537.18l-.13.6-2,8.94-1.31,5.9-10-3L296,546.9v-6.66Z"/><path class="cls-36" d="M318.63,536.56l-.13.6-2,8.94L315.22,552l-10-3L296,546.28v-6.67Z"/><path class="cls-33" d="M318.63,536.56l-.13.6-2,8.94L315.22,552l-10-3L296,546.28v-6.67Z"/><path class="cls-8" d="M335.45,407.14a80.1,80.1,0,0,0-4.33,7.87h-.21a18.52,18.52,0,0,1-14.76-7.31c2.11-4.37,3.62-7.8,3.62-7.8Z"/><path class="cls-32" d="M330.91,413.77a18.59,18.59,0,1,0-18.58-18.59A18.58,18.58,0,0,0,330.91,413.77Z"/><path class="cls-32" d="M338,478.89l13,7.91,20,12.08s11,6.82,16.25,5.92,24.47,5.57,13.79,10.53S378.08,513,378.08,513s-6-3.87-8.35-3.87S338,495,338,495Z"/><path class="cls-32" d="M385.05,661.82v8.46l-12.54,2.54L370.7,670l-9.8-15.23-5.35-9.06c-10.53-12.47-11-28.19-11-28.19v-6.28s-2.79-4.72-2.79-6.43a9.18,9.18,0,0,0-1.39-3.59c-.49-.84-.92-1.76-1.33-2.66-1.43-3.18-6.11-9.47-6.11-9.47C329.22,586,322,567.42,322,567.42c-.08-2.26-2.46-5.52-4.47-7.88-1.51-1.77-2.8-3-2.8-3l24.38-7.67,8.14.7.26.8,8.87,27,6.19,17.42c2.32,3.18,2,10.47,1.39,11.93a8.84,8.84,0,0,0-.16,2.76,28.75,28.75,0,0,0,2.35,10.21c3.1,7.23,8.23,22.61,8.11,24.37-.09,1.21.77,3.38,1.54,5.11.57,1.26,1.1,2.54,1.55,3.83,1.28,3.7,4.47,6.53,6.32,7.92Z"/><path class="cls-8" d="M347.54,550.33a21.56,21.56,0,0,1-8.93,2.29c-3.39,0-14.68,4.34-21.05,6.92-1.51-1.77-2.8-3-2.8-3l24.38-7.67,8.13.7Z"/><path class="cls-36" d="M347.27,549.53A22,22,0,0,1,338,552c-4.79,0-25.55,8.74-25.55,8.74l-2.53-4.1L305.22,549l-2.62-4.3L300.32,541s8.7-2.11,18.13-3.85c11.21-2.08,23.45-3.66,23.36-.6a13.25,13.25,0,0,0,.8,4.45,30.36,30.36,0,0,0,2.48,5.25A37.91,37.91,0,0,0,347.27,549.53Z"/><path class="cls-37" d="M347.27,549.53A22,22,0,0,1,338,552c-4.79,0-25.55,8.74-25.55,8.74l-2.53-4.1,24-11a110,110,0,0,0,11.18.61A37.91,37.91,0,0,0,347.27,549.53Z"/><path class="cls-8" d="M385.05,661.82v8.46l-12.54,2.54L370.7,670a20.78,20.78,0,0,0,2.84.23c3.38,0,7.75-4.34,7.75-4.34.66-.34,1.11-1.76,1.42-3.38a2.73,2.73,0,0,1,1-1.65Z"/><path class="cls-34" d="M421.64,671.27c.26,4.55-11.61,11.26-11.61,11.26s-10.53,4.54-12.59,5-15.54,5-15.54,5c-6.14.62-5.78-4.69-5.78-4.69s-2.54-6.46-2.54-7.18a26.77,26.77,0,0,0-1-3.72l-3.1-6.81a11.57,11.57,0,0,0,4.65.72c3.35,0,7.74-4.33,7.74-4.33.66-.34,1.12-1.76,1.43-3.39a2.78,2.78,0,0,1,4.66-1.48c1.41,1.36,3.05,2.86,4.65,4.16,4.22,3.42,11.72,2.46,11.72,2.46a8.49,8.49,0,0,0,5.47-.41,2.07,2.07,0,0,0,.45-.27,40.5,40.5,0,0,1,7-1.75C420,665.59,421.39,666.73,421.64,671.27Z"/><path class="cls-35" d="M421.64,671.27c.26,4.55-11.61,11.26-11.61,11.26s-10.53,4.54-12.59,5-15.54,5-15.54,5a5.52,5.52,0,0,1-4.31-1,3.94,3.94,0,0,1-.62-.67,5.18,5.18,0,0,1-.84-3,40.87,40.87,0,0,0,6.76-1.35s17.91-5,20.3-6.86c0,0,8.62-3.87,9.08-5.73,0,0-2.54-3.74-2.46-6a2.07,2.07,0,0,0,.45-.27,40.27,40.27,0,0,1,7-1.75C420,665.59,421.39,666.73,421.64,671.27Z"/><path class="cls-34" d="M409.09,681.27c-1.62,2.17-10.62,4.77-11.69,5s-7.7,2.39-7.76,2.42l-6.46,2a10.64,10.64,0,0,1-4.75.92h-.85a3.88,3.88,0,0,1-.62-.66c1.49.11,4.14.14,6-.85l6.51-2c.27-.09,6.76-2.22,7.83-2.43,1.37-.27,9.91-2.86,11.32-4.74Z"/><path class="cls-8" d="M342.67,541a1.5,1.5,0,0,1-.34.16c-3.39,1.08-16.07,1.39-16.07,1.39a53,53,0,0,1-9.69,3.53c-3.05.72-6,.89-7.61-.44-1.28-1-3.61-1.2-6.23-.91a42.07,42.07,0,0,0-6.59,1.34v-6.45l22.58-3.06-.14.61c11.21-2.09,23.44-3.66,23.36-.61A12.93,12.93,0,0,0,342.67,541Z"/><path class="cls-8" d="M335.45,446.37l-17.55-7.23s-17.13-12.6-13.2-13.21c.92-.16,2.25-1.7,3.72-3.91a26.16,26.16,0,0,1,12.26,7.77A150.8,150.8,0,0,0,332,440.63Q333.57,443.59,335.45,446.37Z"/><path class="cls-38" d="M343.09,528.93s2.64,9.91-.77,11-16.07,1.39-16.07,1.39-13.18,6.51-17.41,3.1c-3-2.41-11.54-.1-16.3,1.47-2,.64-3.29,1.16-3.29,1.16s-3.48-17.19,2.09-27.07-1.69-33.92-2-36.25c-.09-.64-.09-2.93-.05-6,.13-7.93.7-20.89,1.6-22.68a43.39,43.39,0,0,0,2.32-6.66s.78-6.2,2-7.13,1.69-3.87,1.69-3.87,1.55-6.5,3.1-8.21,2.16-7,2.16-7a10.86,10.86,0,0,1,5.37.21,26,26,0,0,1,13.14,8c4.23,4.71,12,11.41,12,11.41l9.84,10.74c6.5,9.75,2.94,23.85-.47,30.66-1.69,3.47-1.49,10.16-.84,15.93a119.29,119.29,0,0,1,.67,18.8C341.42,526.14,343.09,528.93,343.09,528.93Z"/><path class="cls-8" d="M315.84,448.39l-1.69,10.15v0s-11.15,24.16-13,27.14-3.72,10.5-3.72,10.5-.62,13.48-1.85,16.07-2.64,18.9-2.64,18.9L292.16,542a26.94,26.94,0,0,1,.42,3.8c-2,.64-3.28,1.16-3.28,1.16s-3.49-17.19,2.09-27.07-1.7-33.92-2-36.25c-.08-.64-.09-2.93-.05-6l2.23-8.46,2.78-13.94,1.06-1.92,3.58-6.6,11.92-3.87Z"/><path class="cls-32" d="M315.22,447.14l-1.69,10.16s-11.14,24.17-13,27.14-3.73,10.49-3.73,10.49S296.2,508.41,295,511s-2.63,18.89-2.63,18.89l-.77,10.85s3.39,16.92-8.51,19.66-3-20.64-2.19-22.47,1.24-17.19,1.24-18.9,2.32-26.48,2.94-28a58,58,0,0,0,1.55-6.47l4.33-16.45,2.79-13.94,1.05-1.93,3.59-6.59,11.93-3.87Z"/><path class="cls-8" d="M315.22,447.14l-1.69,10.16c-.31-17.5-19.82-2-19.82-2l1.05-3.17,3.59-6.59,11.93-3.87Z"/><path class="cls-38" d="M309.19,426.08s-8.37,3.71-9.6,9-5.92,19.06-5.92,19.06,20.44-16.26,19.81,3.24a11.13,11.13,0,0,0,2.64-6.76c.3-4.5,4.64-14.1,1-18.12A33.53,33.53,0,0,0,309.19,426.08Z"/><path class="cls-8" d="M351.7,387.87a11.53,11.53,0,0,0-3.09-15.64c-2.35-1.52-5.18-2.1-7.69-3.34-2.78-1.36-5.08-3.5-7.81-5-6.67-3.64-15.3-2.76-21.64,1.42S301,376.62,299.63,384.08c-1,5.08-.77,10.49-2.63,15.35-3.76,9.84-14.93,15.35-18.65,25.19-1.69,4.45-1.65,9.31-1.8,14.11a159.21,159.21,0,0,1-14,60c-1.45,3.22-3.32,6.68-6.65,7.88,5.59,1.22,11.54-.27,16.43-3.24a42.51,42.51,0,0,0,12.13-12,76.67,76.67,0,0,0,14.07-48.07c-.2-3.78-.57-7.93,1.69-11s6.22-3.9,9.24-6.05c7.26-5.2,7.09-15.75,9.77-24.27a9.59,9.59,0,0,1,2.2-4.09C329.48,390.22,345,396.72,351.7,387.87Z"/><path class="cls-31" d="M351.12,387.26A11.56,11.56,0,0,0,348,371.61c-2.35-1.52-5.19-2.1-7.71-3.34-2.76-1.37-5.07-3.51-7.79-5-6.68-3.64-15.3-2.76-21.64,1.42S300.45,376,299.05,383.47c-1,5.07-.78,10.48-2.63,15.34-3.76,9.83-14.93,15.34-18.61,25.2-1.69,4.45-1.69,9.3-1.81,14.09a159,159,0,0,1-14,60.07c-1.45,3.22-3.31,6.67-6.64,7.87,5.59,1.23,11.54-.27,16.43-3.24A42.6,42.6,0,0,0,284,490.85,76.69,76.69,0,0,0,298,442.78c-.2-3.78-.57-7.94,1.69-11s6.22-3.89,9.24-6c7.25-5.19,7.09-15.75,9.77-24.26a9.42,9.42,0,0,1,2.2-4.1C328.86,389.6,344.36,396.11,351.12,387.26Z"/><path class="cls-35" d="M383.4,670.3a.74.74,0,1,0-.73-.73A.73.73,0,0,0,383.4,670.3Z"/><path class="cls-35" d="M386.91,672.43a.74.74,0,0,0,0-1.48.74.74,0,1,0,0,1.48Z"/><path class="cls-35" d="M390.68,673.9a.74.74,0,0,0,0-1.48.74.74,0,0,0,0,1.48Z"/><path class="cls-35" d="M394.66,674.62a.73.73,0,0,0,.73-.73.74.74,0,1,0-.73.73Z"/><path class="cls-35" d="M398.58,675.09a.74.74,0,1,0-.74-.74A.74.74,0,0,0,398.58,675.09Z"/><path class="cls-35" d="M402.66,675.09a.74.74,0,1,0-.74-.74A.74.74,0,0,0,402.66,675.09Z"/><path class="cls-35" d="M406.78,674.62a.73.73,0,0,0,.74-.73.74.74,0,1,0-1.47,0A.73.73,0,0,0,406.78,674.62Z"/><g class="cls-10"><path class="cls-8" d="M329.39,361.63c2.71,1.48,5.07,3.62,7.8,5a29.29,29.29,0,0,0,3.39,1.37l-.3-.12c-2.76-1.37-5.07-3.51-7.8-5a18,18,0,0,0-3.52-1.45Z"/><path class="cls-8" d="M348,371.2a23,23,0,0,0-4.69-2.12,16.33,16.33,0,0,1,1.6.85A11.55,11.55,0,0,1,348,385.57c-6.76,8.85-22.23,2.35-30.25,10.1a9.5,9.5,0,0,0-2.19,4.1c-2.68,8.52-2.54,19.07-9.77,24.26-3,2.16-7,3.06-9.25,6.05s-1.88,7.2-1.7,11a76.62,76.62,0,0,1-14.06,48.07c-3.33,4.65-7.25,9-12.13,12a24.64,24.64,0,0,1-11.72,3.66,7.05,7.05,0,0,1-1.61.84c5.58,1.23,11.53-.28,16.42-3.25s8.81-7.3,12.14-12a76.72,76.72,0,0,0,14.07-48.06c-.2-3.78-.57-7.94,1.69-11s6.22-3.88,9.24-6c7.26-5.18,7.1-15.74,9.77-24.25a9.47,9.47,0,0,1,2.2-4.1c8-7.76,23.51-1.26,30.25-10.11C354.5,382,353,374.41,348,371.2Z"/></g><path class="cls-8" d="M325.45,528.56s12.32-1.27,14.75-1S325.45,528.56,325.45,528.56Z"/><path class="cls-8" d="M328.6,531.67s7.47-1,10.36,0S328.6,531.67,328.6,531.67Z"/><path class="cls-8" d="M329.68,534.85s9.14.85,10.76.37Z"/><path class="cls-8" d="M323.82,472.39s9.3,4.14,10.14,6.5,6.46,3.83,6.46,3.83"/><path class="cls-13" d="M316.74,387.23s-4.31-5.51-6.27-5.65a3,3,0,0,1-.21,2.28,12.45,12.45,0,0,1-2.21,2.54c-.88.59-1.23,1.11-.64,2.15s1.32,2.59,2.71,2.27,5.25-2.54,6-2.59-4.14-2.34-4.87-2.26c0,0,2.16-.59,5.19,1.75Z"/><path class="cls-13" d="M313.48,381.82a3.71,3.71,0,0,1,.31-1.51,3.63,3.63,0,0,1,.91-1.25,1.51,1.51,0,0,1,.57-.4,1.48,1.48,0,0,1,.69-.09,6.4,6.4,0,0,1,2.31,1.21s2.71,1.48,4.06.05v.53a4.57,4.57,0,0,1-.41,1.9c-.73,1.62-2.25,4.84-3,5.34l-.68-.29s.92-4.61,0-5.73l-.34,5.65h-.38l-3.56-4.1A1.91,1.91,0,0,1,313.48,381.82Z"/><path class="cls-13" d="M323.5,382.92a3.66,3.66,0,0,1,1.51-.05,3.59,3.59,0,0,1,1.41.55,1.61,1.61,0,0,1,.56.48,1.54,1.54,0,0,1,.29.67,6.76,6.76,0,0,1-.65,2.54s-.8,3,.9,4l-.52.13a4.53,4.53,0,0,1-1.94,0c-1.74-.33-5.23-1.06-5.92-1.69l.13-.73s4.69-.18,5.58-1.34l-5.58,1-.06-.38,3.16-4.41A1.94,1.94,0,0,1,323.5,382.92Z"/><path class="cls-13" d="M325.29,392.49a3.83,3.83,0,0,1,.56,1.41,3.66,3.66,0,0,1,0,1.51,1.53,1.53,0,0,1-.26.68,1.55,1.55,0,0,1-.54.48,6.53,6.53,0,0,1-2.6.26s-3.08.26-3.42,2.19l-.29-.45a4.62,4.62,0,0,1-.7-1.81c-.28-1.75-.78-5.28-.42-6.12l.72-.12s1.76,4.34,3.15,4.79l-2.83-4.91.35-.19,5.23,1.48A2,2,0,0,1,325.29,392.49Z"/><path class="cls-13" d="M316.51,397.12a3.74,3.74,0,0,1-1.17,1,3.55,3.55,0,0,1-1.45.41,1.46,1.46,0,0,1-.72,0,1.55,1.55,0,0,1-.63-.37,6.58,6.58,0,0,1-1-2.4s-1.17-2.87-3.11-2.6l.33-.42a4.63,4.63,0,0,1,1.52-1.22c1.58-.79,4.8-2.33,5.7-2.24l.33.65s-3.61,3-3.61,4.45l3.82-4.17.29.27.17,5.43A1.94,1.94,0,0,1,316.51,397.12Z"/><path class="cls-23" d="M316.49,388.54l.59-.75a.26.26,0,0,1,.13-.08h.15l1.19.41a.27.27,0,0,1,.12.09.34.34,0,0,1,.05.14v1a.28.28,0,0,1,0,.13.27.27,0,0,1-.11.1l-1,.44a.25.25,0,0,1-.17,0,.21.21,0,0,1-.13-.1l-.78-1.13a.28.28,0,0,1,0-.15A.27.27,0,0,1,316.49,388.54Z"/><path class="cls-39" d="M647.27,325.94l-9.54,20.3s-1.4,3.81-2.31,4.52-4.91,12.74-4.91,12.74l-10.23,15.78-.7,1.07-4-1.11-2.81-10.5.17-3.05v-.39s6.32-6.61,7.73-7.12c0,0,1.1.13,3.2-5s4-6.24,4-6.24l1.1-3.72,11.84-18.86s9.92-14.24,12.63-7.92S647.27,325.94,647.27,325.94Z"/><path class="cls-40" d="M531.94,347.26a13.81,13.81,0,0,0-1.11,3.38c-.06.3-.13.61-.2.93-.65,3.39-1.11,7.62-1.33,10.1-.11,1.25-.17,2-.17,2s-23.95-1.61-19.8-5.62a8.73,8.73,0,0,0,2.19-4c.12-.42.23-.85.32-1.3a23.67,23.67,0,0,0,.38-3V349a31.64,31.64,0,0,0-.24-5,136.61,136.61,0,0,1,13.66.63C529.61,345.13,532.69,345.9,531.94,347.26Z"/><path class="cls-39" d="M607.66,470a2.23,2.23,0,0,1-.32,1c-1.1,1.61-7.33,34.42-7.33,34.42.5,2.21-.89,6.63-1.8,8.64s-2.92,12.44-2.92,12.44-.49,22.48-1.79,26,.42,11,.42,11c-.13,3.46,2,7.12,3.18,9,.09.12.17.24.24.35.41.57.67.9.67.9a5.38,5.38,0,0,0,1.4,1.74l.28.22a16.28,16.28,0,0,0,5.63,2.37l.19,0c.8.18,1.33.25,1.33.25l.51,2.75-5.32,1.1-10.14.7s-11.94.91-9.24-4.41a7.56,7.56,0,0,0,.49-1.13c.1-.25.2-.52.28-.79,1.63-5.08.53-11.33.53-11.33l-2.31-18.15c-3.81-16.87,3-35.64,3-35.64s-.59-1.5.71-5.31,0-12.17,0-12.17-.7-10.75-1.6-16.08a31.3,31.3,0,0,1-.36-6.77,33.11,33.11,0,0,1,.36-4l22.83-3S607.93,467.86,607.66,470Z"/><path class="cls-8" d="M607.35,581.08l-5.32,1.1-10.14.7s-11.94.91-9.24-4.41a7.56,7.56,0,0,0,.49-1.13c.1-.25.2-.52.28-.79a18.47,18.47,0,0,1,6.05,1.22c3.38,1.31,5.92-2.11,5.92-2.11l1.69-3.16.24-.45c.4.57.66.9.66.9a5.64,5.64,0,0,0,1.7,2l-.28.58-1.61,3.38s2.05.22,4.86.66a2.17,2.17,0,0,0,1.62-.18,2.22,2.22,0,0,0,1-1.26l.19,0c.81.18,1.33.25,1.33.25Z"/><path class="cls-41" d="M612.25,583.54c-.4,1.81-11.59,2.36-11.59,2.36s-6.21-.6-8,.85-6.88,1.1-7.08,1.1-2.91-.1-4-5,1.37-5.56,1.49-5.61a18.5,18.5,0,0,1,6.33,1.23c3.38,1.31,5.92-2.11,5.92-2.11l1.89-3.61c.41.58.67.91.67.91a5.56,5.56,0,0,0,1.69,1.95l-1.88,4s2.05.21,4.86.66a2.2,2.2,0,0,0,1,0,2.29,2.29,0,0,0,.92-.43,2.38,2.38,0,0,0,.65-.79,2.42,2.42,0,0,0,.25-1v-.3s1.75.51,3.91,1.11a4,4,0,0,1,2.87,4.67Z"/><path class="cls-39" d="M633.32,493.89c-.27,1.61-.54,5.77-.54,5.77.94,3.47-1.47,11.73-1.47,11.73l-1.2,4.72c.53,6-3.31,20.74-3.31,20.74s-2.53,13.65-3.91,19.54a16.28,16.28,0,0,0,.69,9.85c.07.16.11.23.11.23a2,2,0,0,0,.08.33c0,.16.09.32.14.48a7.24,7.24,0,0,0,1.32,2.24,6.21,6.21,0,0,0,.72.73,14.5,14.5,0,0,0,4.23,2.63l.67.26a17,17,0,0,0,2.13.67l.24.06-.54,3.15-7.09-1.82-9.49-3.08-4.67-2.67.14-.75v-.08a3.86,3.86,0,0,1,.14-.73c.73-4.15,2.54-15.73,1.64-24.27-1.13-10.56,3.26-25.15,4.34-28.63a17.34,17.34,0,0,0,.8-6.16c-1.74-2.53-2.14-12.69-2.14-12.69s-3.21-6.55-5.87-13.53a35.67,35.67,0,0,1-1.91-7,24.68,24.68,0,0,1-.39-5.15s21.54-19.66,23.91-.62c.08.64.15,1.26.23,1.86C634.53,489.14,633.57,492.35,633.32,493.89Z"/><path class="cls-8" d="M633.32,573.92l-.54,3.15-7.08-1.82-9.5-3.08-4.67-2.67.15-.75v-.08a3.9,3.9,0,0,1,.13-.73l.67-.07h0a8.79,8.79,0,0,1,4,.54c1.55.58,3.57,1.24,4,1a5.13,5.13,0,0,1,2.26-.4l1-2.16.15-.33a6.87,6.87,0,0,0,1.32,2.24,6.22,6.22,0,0,0,.76.78v.76l-.06,1.09a14.12,14.12,0,0,0,3.39,1.57,1.91,1.91,0,0,0,1,0l.66.26a18.11,18.11,0,0,0,2.13.67Z"/><path class="cls-41" d="M629.77,580.64c-2-.56-6.76-1.48-7.51-.77s-7.4,0-7.4,0a4,4,0,0,1-3.38-2c-1.37-2.15-.26-9.07-.26-9.07l.49,0,.84-.08h.06a8.93,8.93,0,0,1,4,.54c1.55.58,3.57,1.25,4,1a4.91,4.91,0,0,1,2.27-.41l1.13-2.49a7.17,7.17,0,0,0,1.32,2.25,9.2,9.2,0,0,0,.76.77l-.09,1.85a14,14,0,0,0,3.38,1.57,1.3,1.3,0,0,0,.91,0,1.37,1.37,0,0,0,.72-.55,1.11,1.11,0,0,0,.13-.27,11.41,11.41,0,0,0,2.8.93,5.09,5.09,0,0,1,5.45,3.93C640.36,580.88,631.74,581.2,629.77,580.64Z"/><path class="cls-8" d="M607.66,470l-1.23.37a18.43,18.43,0,0,1-2.95.63c-6.33.84-16.76.35-20.07.14a32.73,32.73,0,0,1,.36-4l22.83-3S607.93,467.86,607.66,470Z"/><path class="cls-41" d="M627.65,464.43s-8.4,1.29-15.22,2.79c-2.28.5-4.39,1-5.92,1.52a16.67,16.67,0,0,1-3,.63c-7.61,1.06-21.14.08-21.14.08-3.71-12,4.51-27.2,4.51-27.2-.19-1.21,1.69-4.91,1.69-4.91v-.12l1.17-4.3H621l.38,1.85.79,3.75,4.9,23.27Z"/><path class="cls-8" d="M632.44,471.72l-.19.09-3.65,1.62c-4,1.82-15.77,2.17-19.91,2.2a24.64,24.64,0,0,1-.39-5.14s21.54-19.67,23.91-.63C632.29,470.5,632.36,471.1,632.44,471.72Z"/><path class="cls-41" d="M633,469.86l-.76.34-3.65,1.62c-4,1.85-16.22,2.18-20.14,2.2h-1c-1.81-.06-3.61-1.75-3.61-2.19,0-.24-.19-1.43-.35-2.45l-.25-1.53s-8-3.47-12.14-6.28c-3.07-2.09-2.29-16.92-1.69-24.37.2-2.54.39-4.23.39-4.23l31.58,1.84,4.43.26,2.54.56.67.14s1.81,13.25,2.72,14.39.3,4.81.19,6.92a12.3,12.3,0,0,1-.3,2.71s1.31,3.72,1,5.8A11.63,11.63,0,0,0,633,469.86Z"/><path class="cls-40" d="M490.48,461.26c-8.16-.27-2.15-17.26-1.21-19.56s-1.4-7.88-1.4-7.88-2.75-16.19-2.75-17.26a42.52,42.52,0,0,0-.93-6.55,11,11,0,0,1,1.07-6.43c.94-1.47.85-7.36.85-7.36v-7.61l1.8-2.41,4.66,4.4,1.3,1.22,2.26,8.52-.8,12.22-.45,11.89,2.81,16.46S498.64,461.52,490.48,461.26Z"/><path class="cls-8" d="M493,392.61l-6.95-2.87V388.6l1.81-2.41,4.66,4.4Z"/><path class="cls-42" d="M489.81,375.22a32.18,32.18,0,0,0-1.93,6.82,30.48,30.48,0,0,1-1.82,6.55l7.76,3.22Z"/><path class="cls-25" d="M489.81,375.22a32.18,32.18,0,0,0-1.93,6.82,30.48,30.48,0,0,1-1.82,6.55l7.76,3.22Z"/><path class="cls-40" d="M551.37,544.19l-.67,1.36s-.71,4.54-.71,4.65-2,3.13-2,3.13l-5.07,1.09-2.14-.27a30.93,30.93,0,0,0-.58-3.7c-.08-.35-.16-.7-.25-1.06a27.88,27.88,0,0,0-3.53-8s-3.74-9.23-5.07-10.43-6.43-13.39-5.92-16.33c.28-1.62.06-7-.21-11.53-.21-3.68-.46-6.77-.46-6.77l12.68-7.52,1.48,2.33.85,1.39v.86a23.37,23.37,0,0,1-1.13,5.56s-1,6.83,0,8,4,17.3,4.64,24.75a2.42,2.42,0,0,0,.06.66c.26,3.39,2.38,6.48,4.51,8.71l.42.43A30.1,30.1,0,0,0,551.37,544.19Z"/><path class="cls-8" d="M540.84,554.15l2.13.27,5.08-1.09s2-3,2-3.13.65-4.65.65-4.65l.64-1.36.07-.17a28.81,28.81,0,0,1-3.47-2.86l-.35-.35s.72,4.43-3.13,6.41c-1.86.95-3.38,1.69-4.46,2.2Z"/><path class="cls-43" d="M552.25,544.82l-.71,1.58s-.7,4.54-.7,4.64-2,3.14-2,3.14l-5.08,1.08-2.9-.34a17.69,17.69,0,0,0-.24-2.42c-.1-.61-.22-1.29-.38-2,1.08-.5,2.81-1.33,5-2.46,3.85-2,3.12-6.4,3.12-6.4A27,27,0,0,0,551,544C551.54,544.35,552,544.65,552.25,544.82Z"/><path class="cls-8" d="M552.25,544.82l-.71,1.58s-.7,4.54-.7,4.64-2,3.14-2,3.14l-5.08,1.08-2.9-.34a17.69,17.69,0,0,0-.24-2.42,9.48,9.48,0,0,1,1.83.25s6.89,1.47,7.22-4c.2-3.1.85-4.32,1.36-4.79C551.54,544.35,552,544.65,552.25,544.82Z"/><path class="cls-44" d="M551.74,544.46s-1.69-.38-2,5.08-7.22,4-7.22,4-3.38-.85-3.38.57a13,13,0,0,0,.9,3.78s.19,3.24.85,4,.22,3.64.22,3.64.27,2.15,5.59,0c0,0,4.76-1,8.7-6.88.12-.2-.48-.85,3-2s13.31-9.17,12.54-13.05a3.33,3.33,0,0,0-.75-1.74,3.26,3.26,0,0,0-1.59-1,4,4,0,0,0-3.08.42,25.63,25.63,0,0,1-2.87,1.32,13.88,13.88,0,0,1-4.11,1,15.09,15.09,0,0,0-3.19.6A7,7,0,0,1,551.74,544.46Z"/><path class="cls-40" d="M512.74,507a9.62,9.62,0,0,0-1.93,2.24c-1.95,3-3.12,7.12-4.44,8.91-1.69,2.31-2.16,6.82-2.16,6.82-.45,3-6.71,18.78-8.46,21.58S491.69,557,491.69,557c-1.44,1.82-1.36,4.51-1.21,5.8a3.87,3.87,0,0,0,.07.52l.05.21-.05.07-2.31,4-7.38-1-3.74-2.59a12,12,0,0,0,.85-1.58c2-4.55,3.49-12.69,3.49-12.69s2.05-9.3,1.9-11.44a86.9,86.9,0,0,1,.6-8.83s5.77-17.76,7.62-20.67a8,8,0,0,0,1.39-3.81,3,3,0,0,0,0-.85l2.5-2.48S516,504.42,512.74,507Z"/><path class="cls-8" d="M490.65,562.67s0,.23,0,.6v.28l-2.31,4-7.38-1-3.8-2.59a12,12,0,0,0,.85-1.58c1.85-.52,6.1,1,6.1,1s4.58.85,6.51-.52Z"/><path class="cls-43" d="M488.82,573.21,481.35,575,474.48,570l.35-2.86a5.11,5.11,0,0,0,1.26-1.15,4.47,4.47,0,0,0,1-2.06c.4-2.1,6.93.2,6.93.2s4.77.9,6.62-.6a11.76,11.76,0,0,0,.35,4.13,3.09,3.09,0,0,0,1.1,1.64C494,570.55,488.82,573.21,488.82,573.21Z"/><path class="cls-8" d="M488.82,573.21,481.35,575,474.48,570l.35-2.86a5.11,5.11,0,0,0,1.26-1.15,12.68,12.68,0,0,1,1.51,0c1.15.1,3.85,5,3.85,5,6.77.45,8.82-1.76,9.54-3.38a3.09,3.09,0,0,0,1.1,1.64C494,570.55,488.82,573.21,488.82,573.21Z"/><path class="cls-44" d="M481.45,571.78s-2.71-4.93-3.86-5a28.25,28.25,0,0,0-2.91,0s-3,7.13-4.12,7.78-2.74,4-2.74,4,7.94,7.69,15.64,6.23a15.76,15.76,0,0,1,7,1.75c3.56,1.86,18.4.46,20.21-2.81,1.36-2.44,1.89-4.23.71-5.52a3.31,3.31,0,0,0-1.29-.82,3.21,3.21,0,0,0-1.51-.13c-1.87.26-6.06.2-9.74-4.31,0,0-6.77-6.21-7.33-6.22S492,572.51,481.45,571.78Z"/><path class="cls-8" d="M539.92,493.37l0,.06c-.46.51-3.74,4.09-4.72,4.36a45.84,45.84,0,0,0-4.82,2.13s-2,2.68-3.61,2.81a6.26,6.26,0,0,0-1.41.38c-.21-3.68-.46-6.77-.46-6.77l12.69-7.52,1.48,2.33c.34,1,.71,1.81.84,2.09Z"/><path class="cls-43" d="M493.68,441.7s-4.95,6.44,0,15a50.41,50.41,0,0,0,10.15,12.85l16.85,34.92s4.42-2.41,6-2.54,3.62-2.81,3.62-2.81a48.25,48.25,0,0,1,4.81-2.15c1.07-.26,4.78-4.4,4.78-4.4s-1.84-4-1.43-5.08-1.21-3.75-1.21-3.75a22,22,0,0,1-1.07-4.15c0-1.07-1.74-3.61-1.74-3.61s-1.73-2.68-1.73-4.15-2.54-7.22-2.54-7.22l-.67-25.38Z"/><path class="cls-25" d="M539.92,492.57s-3.7,4.13-4.77,4.41a48,48,0,0,0-4.82,2.13s-2,2.69-3.61,2.81a13,13,0,0,0-3.29,1.19c-1.44.66-2.72,1.36-2.72,1.36l-16.85-34.92a37.22,37.22,0,0,1-4.1-4.23,58.58,58.58,0,0,1-6.08-8.6,14.46,14.46,0,0,1-1.91-10.41,12,12,0,0,1,1.91-4.6l12-.84,23.86-1.69.2,7.51.47,17.91s.4.89.84,2.07a22.58,22.58,0,0,1,1.69,5.15c0,1.47,1.74,4.15,1.74,4.15s1.74,2.54,1.74,3.61a21.81,21.81,0,0,0,1.07,4.15s1.6,2.68,1.2,3.74S539.92,492.57,539.92,492.57Z"/><path class="cls-8" d="M512.74,507a9.62,9.62,0,0,0-1.93,2.24c-7.28.52-15.73-3.29-17.93-4.33a3,3,0,0,0,0-.85l2.49-2.48S516,504.42,512.74,507Z"/><path class="cls-43" d="M534.21,449.61s-1.07,3.74-1.47,5.35-1.2,9.5-1.2,9.5l-.46,2.21-7.61,36.44-1.7,7.92c-2.94,1.6-10.3-2.69-10.3-2.69-8.55,1-19.12-4.54-19.12-4.54s1.74-5.62,1.33-8.46,2.41-5.08,2.41-5.08c-.67-2.53,1.74-13.64,1.74-13.64s.54-4.15,2.53-5.22-.26-2.67-.84-3.61a4.13,4.13,0,0,1,.19-2.46,18.5,18.5,0,0,1,.61-1.82c-5.07-5.08-5.92-13.07-5.92-17.5a31.92,31.92,0,0,1,.14-3.24l11.06-1.93,24.12-4.23,2.46,7.62.61,1.9Z"/><path class="cls-8" d="M531.94,347.26a13.81,13.81,0,0,0-1.11,3.38c-.06.3-.13.61-.2.93-2.33,1.52-3.77,1.52-6.77,1.52-1,0-1.59-2-2.53-2.16,0,0-1.46-5.25-1.87-.85-2.8-.58-5.22,1.61-7.21-.3V349a31.63,31.63,0,0,0-.23-5,136.46,136.46,0,0,1,13.65.63C529.61,345.13,532.69,345.9,531.94,347.26Z"/><path class="cls-40" d="M537.46,338.28a14.92,14.92,0,0,1-14.9,14.91,14.41,14.41,0,0,1-3-.31,14.9,14.9,0,0,1-11.47-11.05,14.9,14.9,0,1,1,29.37-3.55Z"/><path class="cls-8" d="M529.3,361.67c-.11,1.25-.17,2-.17,2s-23.95-1.61-19.8-5.62a8.73,8.73,0,0,0,2.19-4l10.39,1.69s2.93,2.29,5.22,4.42A8.76,8.76,0,0,0,529.3,361.67Z"/><path class="cls-8" d="M532.87,446.93a7.75,7.75,0,0,1-3.14-.24,6.9,6.9,0,0,1-1.28-.56c-2-1.2-8.68.27-8.68.27s-18.2,1.21-19,0c-.46-.69-3.66-.58-6.29-.37-1.07.08-2.05.18-2.71.26a12,12,0,0,1,1.91-4.59l12-.85,24.13-4.23,2.45,7.61C532.53,445.77,532.87,446.93,532.87,446.93Z"/><path class="cls-42" d="M521.94,356.61l-13.05-2.14a3.81,3.81,0,0,1-1,1.35,3.71,3.71,0,0,1-1.46.79c-1.75.41-9.5,4.42-13,9.24L490,370.67s-2.82,3.47-1.88,6.28,2,12.32,2,12.32l1.34,10.57s2.54,7.61,1.73,11,.41,17.4.41,17.4l-2.68,17.39s9.1-1.2,9.9,0,19,0,19,0,6.68-1.47,8.7-.27a7.17,7.17,0,0,0,4.4.85s-1.6-5.49-.67-8.56.67-8.7.67-8.7,1.35-8.17.68-9.64,1.47-6.82,1.47-6.82l7.09-37.33s-.85-6.69-4.65-9-8.06-2.94-10.34-5.07S521.94,356.61,521.94,356.61Z"/><path class="cls-40" d="M527.92,393.42v4.41l4.17,11.1,1.5,10.31s2.67,7.36,2.67,9.9S542.77,444,542.77,444s1.79,4.16.9,5-8.65,18.43,1.11,17.89,6.69-19,6.69-19l-1.34-8s-1.88-20.06-1.88-21.54c0,0-2.4-8.57-2.67-10.44s-2-11.37-2-11.37l-1.48-6.15Z"/><path class="cls-8" d="M523.28,407.33l-14.55,8.33-4.51,6.82,6-6.12Z"/><path class="cls-8" d="M518.86,423.29s-6.62,4.31-9.73,4.31S498.8,435,498.8,435s10.23-6.62,11-6.42S518.86,423.29,518.86,423.29Z"/><path class="cls-8" d="M501.91,425.6s-6.22,5.61-4.62,6.21,9.94-6.21,9.94-6.21Z"/><path class="cls-8" d="M529.39,405.52s-4.81,6.52-3.51,6.42,5-3.8,5-3.8Z"/><path class="cls-8" d="M530.1,411.94s-5.22,5.92-5,7.43S530.1,411.94,530.1,411.94Z"/><path class="cls-8" d="M531.41,414.9s-3.52,6.28-2,7.62S531.41,414.9,531.41,414.9Z"/><path class="cls-8" d="M526.89,398.8s-2.61,4.41-.7,4.72,2.09,0,2.09,0Z"/><path class="cls-8" d="M527.59,382.65a45.6,45.6,0,0,1-2.67,7.87,37.61,37.61,0,0,1-1-3.95A27.06,27.06,0,0,1,527.59,382.65Z"/><path class="cls-8" d="M535.55,331a6.36,6.36,0,0,1-1,1.55,6.06,6.06,0,0,0-2.47,5.64c-.19,1.2-.94,2.54-2.14,2.54a4.78,4.78,0,0,1-1.77-.53,1.94,1.94,0,0,0-.89-.21,1.77,1.77,0,0,0-.87.26,2,2,0,0,0-.56,1.33,18.21,18.21,0,0,0-.18,3.13,10.19,10.19,0,0,0,.08,1.24c.13,1.35.39,2.79-.25,4a4.76,4.76,0,0,1-2.46,2,15.05,15.05,0,0,1-3.47,1,38.15,38.15,0,0,1-6.84.23,1.77,1.77,0,0,1-.61-.1.78.78,0,0,1-.26-.17,22.19,22.19,0,0,0,.4-3.81,14.91,14.91,0,0,1,13.28-25.37,15,15,0,0,1,10,7.32Z"/><path class="cls-45" d="M529.32,318.29c-1.37-.13-2.66.59-4,.89-2.78.62-5.62-.65-8.46-.64a15.49,15.49,0,0,0-6.95,2.08,16.13,16.13,0,0,0-4.64,3.25,7.47,7.47,0,0,0-2.21,5.07c0,1.1.32,2.26-.1,3.28a9.43,9.43,0,0,1-1,1.55,4.62,4.62,0,0,0-.66,1.86,4.55,4.55,0,0,0,.19,2,12.49,12.49,0,0,0,2.28,3.38c1.84,2.36,3,5.18,4.63,7.67a22.84,22.84,0,0,0,2.41,3.06,1.68,1.68,0,0,0,.51.41,1.86,1.86,0,0,0,.61.1c3.49.09,7.11.16,10.31-1.21a4.65,4.65,0,0,0,2.47-2c.64-1.19.37-2.64.25-4a17.74,17.74,0,0,1,.1-4.37,2,2,0,0,1,.56-1.33,1.77,1.77,0,0,1,.87-.26,1.72,1.72,0,0,1,.89.21,4.59,4.59,0,0,0,1.76.52c1.21,0,2-1.35,2.16-2.54s.08-2.47.65-3.54a11.16,11.16,0,0,1,1.81-2.07,8.58,8.58,0,0,0,1.51-7.55C534.5,321.67,532.09,318.58,529.32,318.29Z"/><path class="cls-39" d="M599.21,359.86a12.94,12.94,0,1,0-12.94-12.94A12.94,12.94,0,0,0,599.21,359.86Z"/><path class="cls-39" d="M592.89,352.32s.91,12.26-1.6,15.07a111.22,111.22,0,0,1-9,8.12l2,8.34,11.33,1.3L608.84,371l-3-3.71s-2.31-7.82-.4-11.74S592.89,352.32,592.89,352.32Z"/><path class="cls-8" d="M620.28,379.25l-.7,1.08-4-1.11-2.81-10.48.17-3.05.84-1.19s4.42.1,4.23,4.12C617.79,372.12,619.79,377.92,620.28,379.25Z"/><path class="cls-8" d="M629,437.34s-3.19.71-6.85,1.18-7.88.73-9.6-.28c-2.9-1.7-18.61-1.23-23.16-1.05h-.78l1.17-4.3H621l.38,1.84,4.43.27,2.54.55C628.74,436.63,629,437.34,629,437.34Z"/><path class="cls-46" d="M613,365.29s4.42.09,4.23,4.11,2.4,10.94,2.4,10.94l-1,2.31s-1.41,5.61-.31,7,5.12,1.4,2.81,12.94c0,0-.5,8.63.7,11.44s1.21,9.53,3,12.34A69,69,0,0,1,629,435.7s-13,2.91-16.45.89-24.38-1-24.38-1,.1-3.51,0-3.92a3.41,3.41,0,0,1,.51-2.54c.7-.95,1.8-2.54,1.2-4s1.5-3.46.41-5.65-2.46-2.6-2.19-3.8a5.11,5.11,0,0,0-1.23-3.79c-.81-1-6.22-11.61-6.22-11.61l-.9-4.95s-7-5.12-6.85-7.53,2.64-5.74,2.64-5.74l6.76-6.6s3.71,4,7.33,2.61S601,370,601,370s2.77-1.5,3-2.6,1.9-.11,1.9-.11,2.54-1.38,3-.88a8.29,8.29,0,0,0,2.71.88Z"/><path class="cls-39" d="M575,386.19l-2.14,1.69s-2.18,3.92-2.68,10.94a144.26,144.26,0,0,1-2.7,16.92l-4.23,7.55s-6.93,14.54-7.83,18.41-5,10.39-5,10.39-13.94,12.53-4.23,14.79,10-10,10-10,2.27-2.54,2.64-4.23,12.69-23.53,12.69-23.53,4.31-5.87,3.38-9c0,0,5.61-13.22,5.61-16.53a57.32,57.32,0,0,0-.9-8.26l.9-6.92Z"/><path class="cls-8" d="M604,413.85s-9.83,5.15-11.74,5.42,8.32-1.1,8.32-1.1Z"/><path class="cls-8" d="M612,417.86s-13.05,4.42-18.76,3.62C593.2,421.48,607.44,424.19,612,417.86Z"/><path class="cls-8" d="M612.76,419.3s-11.74,7.4-18.67,6.2c0,0,16.16,3.2,18.67,1.5l-7.22-2S613.56,420.75,612.76,419.3Z"/><path class="cls-8" d="M599.23,324.14c-3.39-.69-7.16-.27-9.87,1.87-2,1.58-3.38,4-5.62,5.18a33.06,33.06,0,0,1-3.66,1.29,10.62,10.62,0,0,0-6.47,11.39c.36,2,1.29,3.83,1.75,5.8.85,3.5.1,7.16-.79,10.65A112.14,112.14,0,0,1,563.42,388a2.93,2.93,0,0,0-.55,1.86,2.65,2.65,0,0,0,.69,1.19c4.63,5.35,12.17,7.2,19.25,7.44,2.62.09,5.35,0,7.61-1.27a11.53,11.53,0,0,0,3.73-3.39,18.08,18.08,0,0,0,3.45-11.65c-.19-3.39-1.32-6.77-.47-10a2.76,2.76,0,0,1,.6-1.24c.76-.77,2-.56,3.11-.69,2.95-.35,4.85-3.45,5.2-6.39s-.38-5.93-.4-8.88a18.47,18.47,0,0,1,3.5-10.91c1-1.36,2.22-2.68,2.54-4.38.4-2.11-.85-3.67-1.87-5.34-1.69-2.6-2.46-5.65-5-7.62A13.48,13.48,0,0,0,599.23,324.14Z"/><path class="cls-47" d="M598.42,323.33c-3.38-.67-7.15-.26-9.86,1.88-2,1.58-3.39,4-5.62,5.18a34.57,34.57,0,0,1-3.66,1.29,10.55,10.55,0,0,0-6.46,11.39c.35,2,1.28,3.83,1.74,5.8.85,3.5.1,7.16-.79,10.65a112.3,112.3,0,0,1-11.15,27.66,2.92,2.92,0,0,0-.55,1.85,2.69,2.69,0,0,0,.69,1.2c4.63,5.35,12.17,7.2,19.26,7.43,2.6.1,5.33,0,7.61-1.26a11.62,11.62,0,0,0,3.73-3.42,18.18,18.18,0,0,0,3.45-11.66c-.2-3.39-1.32-6.77-.47-10a2.6,2.6,0,0,1,.6-1.22c.76-.79,2-.58,3.11-.71,3-.34,4.84-3.45,5.2-6.39s-.39-5.92-.41-8.88a18.66,18.66,0,0,1,3.5-10.91c1-1.35,2.24-2.68,2.54-4.37.41-2.12-.85-3.67-1.87-5.35-1.69-2.6-2.45-5.63-5-7.61A13.4,13.4,0,0,0,598.42,323.33Z"/><path class="cls-8" d="M543.64,381.77a17.37,17.37,0,0,0,0,5.48c-.13,1.47,0,9.63,0,9.63-4.41-1.33-15.64,1.35-15.64,1.35l-1.35-4a9.94,9.94,0,0,1-1.69-3.3,37.61,37.61,0,0,1-1.05-4,82.36,82.36,0,0,1-1.31-8.4c-.55-4.23,5.77-8.83,10.56-11.38s9,8.29,9,8.29S544.18,379.63,543.64,381.77Z"/><path class="cls-42" d="M543.64,381a17.37,17.37,0,0,0,0,5.48c-.13,1.48,0,9.64,0,9.64-4.41-1.34-15.64,1.35-15.64,1.35l-1.35-4a10.13,10.13,0,0,1-1.69-3.3,39,39,0,0,1-1.05-3.95,82.36,82.36,0,0,1-1.31-8.4c-.55-4.23,5.77-8.84,10.56-11.38s9,8.29,9,8.29S544.18,378.82,543.64,381Z"/><path class="cls-8" d="M594.09,448.81s2.54,12,6.86,15.32Z"/><path class="cls-17" d="M535.15,324.16a8.72,8.72,0,0,0-1-2.15c.07.19.14.37.19.54a8.56,8.56,0,0,1,.15,4,8.44,8.44,0,0,1-1.66,3.59,11.89,11.89,0,0,0-1.81,2.07,11.39,11.39,0,0,0-.65,3.56c-.18,1.2-1,2.53-2.15,2.53a4.33,4.33,0,0,1-1.76-.52,1.82,1.82,0,0,0-1.77.06,2,2,0,0,0-.56,1.32,18.27,18.27,0,0,0-.1,4.37c.13,1.35.39,2.79-.24,4a4.82,4.82,0,0,1-2.47,2c-3.22,1.38-6.83,1.3-10.32,1.2a2.1,2.1,0,0,1-.61-.09,1.6,1.6,0,0,1-.51-.42,23.58,23.58,0,0,1-2.41-3c-1.65-2.5-2.8-5.31-4.62-7.67-.5-.65-1.06-1.28-1.52-1.94v.12a12.2,12.2,0,0,0,2.29,3.39c1.82,2.36,3,5.17,4.62,7.66a22.32,22.32,0,0,0,2.4,3.06,1.75,1.75,0,0,0,.52.42,1.81,1.81,0,0,0,.61.09c3.49.1,7.1.17,10.32-1.2a4.82,4.82,0,0,0,2.47-2c.63-1.19.37-2.64.24-4a18.87,18.87,0,0,1,.09-4.38,2.09,2.09,0,0,1,.57-1.33,1.7,1.7,0,0,1,.88-.25,1.84,1.84,0,0,1,.89.2,4.3,4.3,0,0,0,1.75.53c1.21,0,2-1.36,2.15-2.54a11.32,11.32,0,0,1,.65-3.54,12.07,12.07,0,0,1,1.82-2.08,8.5,8.5,0,0,0,1.67-3.57A8.65,8.65,0,0,0,535.15,324.16Z"/><g class="cls-10"><path class="cls-8" d="M573.58,345.77c-.14-.47-.3-.94-.46-1.41C573.26,344.84,573.42,345.3,573.58,345.77Z"/><path class="cls-8" d="M610.17,335.26a4,4,0,0,1,0,1.14c-.33,1.69-1.58,3-2.54,4.37a18.66,18.66,0,0,0-3.5,10.92c0,3,.75,5.92.41,8.87s-2.25,6.05-5.2,6.39c-1.09.13-2.35-.07-3.12.7a2.89,2.89,0,0,0-.6,1.23c-.84,3.26.28,6.67.48,10a18.21,18.21,0,0,1-3.45,11.66,11.72,11.72,0,0,1-3.72,3.39c-2.3,1.24-5.08,1.35-7.61,1.27-7-.25-14.38-2-19-7.2a1.79,1.79,0,0,0-.12,1,2.73,2.73,0,0,0,.68,1.19c4.64,5.36,12.18,7.2,19.27,7.44,2.6.09,5.34,0,7.61-1.26a11.77,11.77,0,0,0,3.73-3.43,18.09,18.09,0,0,0,3.45-11.66c-.2-3.38-1.32-6.76-.47-10A2.58,2.58,0,0,1,597,370c.76-.78,2-.57,3.11-.7,2.95-.35,4.84-3.45,5.2-6.4s-.39-5.92-.41-8.87a18.55,18.55,0,0,1,3.51-10.91c1-1.36,2.23-2.69,2.53-4.38A5,5,0,0,0,610.17,335.26Z"/></g></g></svg>