<svg xmlns="http://www.w3.org/2000/svg" xmlns:xlink="http://www.w3.org/1999/xlink" viewBox="0 0 1440 485"><defs><style>.cls-1{fill:none;}.cls-2{clip-path:url(#clip-path);}.cls-3{fill:url(#linear-gradient);}.cls-4{fill:url(#linear-gradient-2);}.cls-11,.cls-5{fill:#5cd894;}.cls-10,.cls-17,.cls-5{opacity:0.1;}.cls-10,.cls-21,.cls-30,.cls-5{isolation:isolate;}.cls-6{fill:url(#linear-gradient-3);}.cls-7{fill:#d38884;}.cls-8{fill:#1c1c1c;}.cls-9{fill:#b07473;}.cls-12{fill:#585268;}.cls-13{fill:#e1e7ef;}.cls-14{fill:url(#linear-gradient-4);}.cls-15{fill:#a27772;}.cls-16{fill:#cc818c;}.cls-18{fill:#f6f8fb;}.cls-19{fill:url(#linear-gradient-5);}.cls-20{fill:#fbbebe;}.cls-21,.cls-28{opacity:0.05;}.cls-22{fill:#7c5c5c;}.cls-23{fill:url(#linear-gradient-6);}.cls-24{fill:#fdc2cc;}.cls-25{fill:#d39999;}.cls-26{fill:#7e5659;}.cls-27{fill:#865a61;}.cls-29{fill:#a8a8a8;}.cls-30{opacity:0.2;}</style><clipPath id="clip-path"><rect class="cls-1" x="7.01" y="8.4" width="1425.7" height="447.2"/></clipPath><linearGradient id="linear-gradient" x1="-509.13" y1="-1255.3" x2="-218.2" y2="-1552.47" gradientTransform="matrix(1, 0, 0, -1, 539.01, -1107.6)" gradientUnits="userSpaceOnUse"><stop offset="0" stop-color="#012952"/><stop offset="1" stop-color="#05386b"/></linearGradient><linearGradient id="linear-gradient-2" x1="870.9" y1="-1255.34" x2="579.97" y2="-1552.51" xlink:href="#linear-gradient"/><linearGradient id="linear-gradient-3" x1="-267.77" y1="-1490.6" x2="-267.77" y2="-1115.97" gradientTransform="matrix(1, 0, 0, -1, 539.01, -1107.6)" gradientUnits="userSpaceOnUse"><stop offset="0" stop-color="gray" stop-opacity="0.25"/><stop offset="0.54" stop-color="gray" stop-opacity="0.12"/><stop offset="1" stop-color="gray" stop-opacity="0.1"/></linearGradient><linearGradient id="linear-gradient-4" x1="612.3" y1="-303916" x2="612.3" y2="-67399.5" xlink:href="#linear-gradient-3"/><linearGradient id="linear-gradient-5" x1="721.64" y1="-309372" x2="721.64" y2="-90490.09" xlink:href="#linear-gradient-3"/><linearGradient id="linear-gradient-6" x1="-371.79" y1="-306755" x2="-371.79" y2="-86978.5" xlink:href="#linear-gradient-3"/></defs><title>registration</title><g id="Layer_2" data-name="Layer 2"><g class="cls-2"><path class="cls-3" d="M141.41,421.2c-33-14.4-79.4-35.5-108.1-86.1-22.6-40-44.7-117.1-1.9-166.5,53.1-61.3,172.9-41.8,190.4-1.9,11.9,27.2-27.8,55-15.3,78.5,20.3,38.1,82.8-18.8,137.4,31.6,33.6,31,37.7,96,13.4,134C311.31,482.5,217.41,454.4,141.41,421.2Z"/><path class="cls-4" d="M1298.41,421.2c33-14.4,79.4-35.5,108.1-86.1,22.6-40,44.7-117.1,1.9-166.5-53.1-61.3-172.9-41.8-190.4-1.9-11.9,27.2,27.8,55,15.3,78.5-20.3,38.1-82.8-18.8-137.4,31.6-33.6,31-37.7,96-13.4,134C1128.41,482.5,1222.31,454.4,1298.41,421.2Z"/><path class="cls-5" d="M1146.21,421.3c26.3,0,47.7-4.8,47.7-10.7s-21.3-10.7-47.7-10.7-47.7,4.8-47.7,10.7S1119.91,421.3,1146.21,421.3Z"/><path class="cls-5" d="M1257,451.7c47.5,0,86-3.2,86-7.1s-38.5-7.1-86-7.1-86,3.2-86,7.1S1209.51,451.7,1257,451.7Z"/><path class="cls-5" d="M152.31,442.3c47.5,0,86-4.8,86-10.7s-38.5-10.7-86-10.7-86,4.8-86,10.7S104.81,442.3,152.31,442.3Z"/><path class="cls-5" d="M283.41,388.7c35.7,0,64.7-4.8,64.7-10.7s-29-10.7-64.7-10.7-64.7,4.8-64.7,10.7S247.71,388.7,283.41,388.7Z"/><path class="cls-6" d="M331.81,123.2c-1.4-9.2-9.7-30.7-9.7-30.7a13.32,13.32,0,0,0-.5-1.9c-6-20.4-14.2-22.2-14.2-22.2L278,62.1c.2.2.5.4.6.6a.9.9,0,0,0-.5.1,12.57,12.57,0,0,1-2.6-5.6,2.77,2.77,0,0,1-.1-.9,20.61,20.61,0,0,0,4.8-7.3,20.94,20.94,0,0,0-.9-17.2,21.34,21.34,0,0,0-5.6-6.7c-.3-.2-.6-.5-.9-.7,1.4-1.5,1.4-3.5.4-5.6-2.3-4.8-7.4-7.9-12.5-9.4a22,22,0,0,0-12.2-.3,41.23,41.23,0,0,0-6.4,3c-3.9,2-8.2,3.5-11.2,6.7a3.17,3.17,0,0,0-1.1,2.7,9.93,9.93,0,0,0,1.1,2,6.39,6.39,0,0,1,.1,4.9,45.24,45.24,0,0,0-1.8,4.7,4.92,4.92,0,0,0,1,4.7,20.28,20.28,0,0,0,1.8,1.3,8.6,8.6,0,0,1,1.8,2c1.2,1.6,2.3,3.1,3.5,4.7a58.24,58.24,0,0,1,4.4,6.6,35.64,35.64,0,0,0,2.7,5.1,4.56,4.56,0,0,0,1.2,1.2l-.3-.1a5.67,5.67,0,0,0,1.8,1.2,5.22,5.22,0,0,0,2.1.4h.2a.91.91,0,0,0,.7-.3v.6a52.71,52.71,0,0,1-.1,6.9l-.3-.1a2,2,0,0,0-1.3-.2,1.85,1.85,0,0,0-1.2.5l-27.1,21.8s-5.9,8.1-5.1,22l-4.8,20.9s-5.9,17.7-1.4,30.4,7.2,19.9,7.2,19.9,1.8,14.4,4.6,15.5,3.9,1.8,3.9,1.8l.5,3.4a9.24,9.24,0,0,1,.5.9c2,3.5,9.4,15.7,13.7,14.4a56.54,56.54,0,0,1,.7,10.1l4.3,28.6s3,7.8,2.8,11.8,3.5,9.9,3.5,9.9a18.69,18.69,0,0,0-1.8,13.3c1.7,7.6,3.9,42.7,3.9,42.7l3.2,8.5-.1,10a8.88,8.88,0,0,1-2,4.4c-2.1,2.2-1.9,4.8-6.8,7.9s-8.1,4.2-8.1,8.2a9.85,9.85,0,0,1-.2,1.7c-.5,3-1.3,4.6,7.8,5.4a23.9,23.9,0,0,0,17.8-6s1.6-2.9,9-4c0,0,2.5-.1,2.7-2.4.1-.8,0-2.3,0-3.9-.1-3.1-.4-6.7-.8-6.9s-1.4-3.3-1.7-4.5h2.1s1.9-14.4,0-23.7a38.63,38.63,0,0,1-.2-15.9l-.4-24.6s-2.5-2.7-.5-7.5,0-28.5,0-28.5.7-8.5,2.8-10.5.1-12.4,0-13l3.7,12.5s1.6,24.9,5.1,29.5l1,11.3s7.1,10.4,5.8,16,1.5,25.8,1.5,25.8v20.7s-3.2,8.3,1.3,11.3l1.9-.1c-.6.6-1.1,1.5-1.9,2.2-.9.9-1.3,4.2-1.6,7.1-.2,2.4-.3,4.5-.3,4.5a7.76,7.76,0,0,0,5.5,3.3c3.6.2,15.4,9.2,15.4,9.2s11.7,0,14.7-.6h.2a3.94,3.94,0,0,0,2.3-1.9,4.45,4.45,0,0,0,.5-3.4c-.4-1.8-1.8-3.7-4.9-5.4-7.8-4.1-8.9-8-8.9-8l-5.1-7.7h.7s-.4-8.1,5.1-17.3l-.4-40.2s2.3-13.8-1.6-21.3c0,0-.3-7.9,2.3-10.4s-3.5-27.1-3.5-27.1-1.3-13.2-2.8-25.3c6.2,5.9,12.6-15.2,13.6-19h.2l-.1-.3a.44.44,0,0,1,.1-.3s-1.4-4.9-.4-3.9,3.5-2.7,3.5-2.7-.4-20.2,3.9-30.3C338,148,331.81,123.2,331.81,123.2Zm-18.4,12.9c.7,12.2-.1,38.5-.1,38.5s-.8,3.4-1.8,7.3l-.6-24.9-.6-23.5Zm-78.7-8.5s3.1,38.9,0,44.5a27.85,27.85,0,0,0-2.2,7.7c-1-2.7-3.2-9-2.4-12.4,1-4.3-2-15.7-2-16s-.3-6.3,1.9-11,.7-6.6.7-6.6S232.61,126.1,234.71,127.6Z"/><path class="cls-7" d="M242.31,215.1c-2.7,11.9-13.5-6.1-15.9-10.4a9.24,9.24,0,0,0-.5-.9l1.2-5.5,6.2-2.5a17.39,17.39,0,0,1,9,19.3Z"/><path class="cls-7" d="M325.81,195.6a.77.77,0,0,1-.1.3c0,.1-.1.2-.1.3-1.1,3.7-7.3,24.6-13.4,18.8-6.6-6.3-3.4-21-3.4-21l13.9-1.4,2.8,2.8Z"/><path class="cls-8" d="M317.71,298.5l.4,39.9c-5.5,9.1-5,17.1-5,17.1l-18,.7c-4.4-3-1.3-11.2-1.3-11.2V324.4s-2.8-20.1-1.4-25.7-5.6-15.8-5.6-15.8l-1-11.2c-3.4-4.5-5-29.2-5-29.2l-3.7-12.5c.1.5,2,11,0,12.9s-2.8,10.4-2.8,10.4,2,23.5,0,28.3.5,7.4.5,7.4l.4,24.4s-1.7,6.5.2,15.8,0,23.5,0,23.5H256l.1-10-3.1-8.4s-2.2-34.8-3.9-42.3a18.88,18.88,0,0,1,1.8-13.2s-3.6-5.7-3.4-9.8-2.8-11.7-2.8-11.7l-4.2-28.3a54.37,54.37,0,0,0-2.1-16.1c-2.4-8.1-6-18.7-6-18.7l4,.4,20.4,1.8s49.7-3.3,51.9-.6a7.54,7.54,0,0,1,.9,2.9c2.2,10,5.2,41.4,5.2,41.4s6,24.5,3.4,26.9-2.3,10.3-2.3,10.3C320,284.8,317.71,298.5,317.71,298.5Z"/><path class="cls-9" d="M275.71,367.9c-.1,2.2-2.6,2.4-2.6,2.4-7.3,1.1-8.8,4-8.8,4a23.47,23.47,0,0,1-17.5,5.9c-8.9-.9-8.1-2.5-7.6-5.4a9.15,9.15,0,0,0,.1-1.7c0-4,3.1-5.2,7.9-8.2s4.7-5.6,6.7-7.8,2.2-6.5,2.2-6.5c2.3-4,8.1.6,8.1.6.3,1.4,8.9,1.2,8.9,1.2s1.1,4.6,1.7,4.8c.4.2.7,3.8.8,6.8A17.86,17.86,0,0,1,275.71,367.9Z"/><path class="cls-10" d="M275.71,367.9c-.1,2.2-2.6,2.4-2.6,2.4-7.3,1.1-8.8,4-8.8,4a23.47,23.47,0,0,1-17.5,5.9c-8.9-.9-8.1-2.5-7.6-5.4,4,1,11.6,2.4,16.1-.1,6.2-3.4,10.6-5.7,10.6-5.7l9.8-4.9A23.35,23.35,0,0,1,275.71,367.9Z"/><path class="cls-9" d="M330.41,379.9a3.89,3.89,0,0,1-2.2,1.8H328c-3,.6-14.4.6-14.4.6s-11.6-8.9-15.1-9.1a7.41,7.41,0,0,1-5.4-3.2s.1-2.1.3-4.5c.3-2.9.7-6.2,1.6-7.1,1.5-1.6,1.9-3.8,5.4-2.4,0,0,5-8.8,10.8-2l6.1,9.2s1.1,3.8,8.8,7.9c3.1,1.6,4.4,3.6,4.8,5.4A4.45,4.45,0,0,1,330.41,379.9Z"/><path class="cls-10" d="M330.41,379.9c-.7.6-1.4,1.2-2.2,1.8H328c-3,.6-14.4.6-14.4.6s-11.6-8.9-15.1-9.1a7.41,7.41,0,0,1-5.4-3.2s.1-2.1.3-4.5c3.6,1.1,9,2.9,10.4,5,2.2,3.1,9,7.4,9,7.4s12.6-1.2,18.1-1.4A4.45,4.45,0,0,1,330.41,379.9Z"/><path class="cls-7" d="M281.61,66.9,265,84.4s-20-1.5-16.5-7.4c1.8-3,2.1-9.3,1.9-14.8a97,97,0,0,0-.7-9.8s28.1-14,26-.9a20.48,20.48,0,0,0-.1,7.4C276.81,65.4,281.61,66.9,281.61,66.9Z"/><path class="cls-10" d="M275.71,51.4a20.48,20.48,0,0,0-.1,7.4,22.22,22.22,0,0,1-6.7,4.6,19.72,19.72,0,0,1-8,1.6c-3.8,0-7.9-3.1-11-4.9-.1-5.3-.2-7.7-.2-7.7S277.81,38.3,275.71,51.4Z"/><path class="cls-7" d="M281.61,43.2a20.71,20.71,0,0,1-16.1,20.2,20.67,20.67,0,0,1-23.3-11.2,20.55,20.55,0,0,1-1.5-13.6A20.22,20.22,0,0,1,248,27a20.74,20.74,0,0,1,25.8,0,20,20,0,0,1,5.7,7.2A20.16,20.16,0,0,1,281.61,43.2Z"/><path class="cls-10" d="M309.71,198.7c-5.2,12.3-38.3,12.5-38.3,12.5V197.8l-2-.1c.9,3.8-1.2,13.2-1.2,13.2-26.2,3.7-32.6-11.2-32.6-11.2l.9-5.1,20.4,1.8s49.7-3.3,51.9-.6A7.54,7.54,0,0,1,309.71,198.7Z"/><path class="cls-11" d="M271.41,209.6V196.2l-2-.1c.9,3.8-1.2,13.2-1.2,13.2-19.7,2.8-28.2-5-31.2-9a16.44,16.44,0,0,1-1.4-2.2l8-45.1,1.9-66.3,2.9-11.6.6-5.7h.1l2,.9,12.2,5.3,13.9-10.5.2-.1.7-.5,1.1.9,2.9,2.3,9.1,59.1S307,172.3,310,190.6l.3,2.1C312.31,209.3,271.41,209.6,271.41,209.6Z"/><path class="cls-8" d="M264.81,78a1.22,1.22,0,0,0,1.2-1.2,1.2,1.2,0,1,0-2.4,0A1.29,1.29,0,0,0,264.81,78Z"/><path class="cls-8" d="M265.41,88.8a1.2,1.2,0,0,0,0-2.4,1.2,1.2,0,1,0,0,2.4Z"/><path class="cls-8" d="M266.61,106.2a1.22,1.22,0,0,0,1.2-1.2,1.2,1.2,0,1,0-1.2,1.2Z"/><path class="cls-8" d="M268.51,125a1.22,1.22,0,0,0,1.2-1.2,1.2,1.2,0,0,0-2.4,0A1.22,1.22,0,0,0,268.51,125Z"/><path class="cls-8" d="M269.71,142.6a1.2,1.2,0,1,0-1.2-1.2A1.16,1.16,0,0,0,269.71,142.6Z"/><path class="cls-8" d="M270.91,161.3a1.2,1.2,0,1,0,0-2.4,1.22,1.22,0,0,0-1.2,1.2A1.16,1.16,0,0,0,270.91,161.3Z"/><path class="cls-8" d="M270.41,179.9a1.2,1.2,0,1,0-1.2-1.2A1.16,1.16,0,0,0,270.41,179.9Z"/><path class="cls-10" d="M249.81,159.5s-1.3,17.3-3.7,22.3-3.5,19.1-3.5,19.1l-5.6-.6a16.44,16.44,0,0,1-1.4-2.2l8-45.1,1.9-66.3,2.9-11.6.6-5.7h.1a2.6,2.6,0,0,1,2,0l.3.1a1.85,1.85,0,0,0-.2.7c-2.2,6.9-3,19.5-3,19.5s3.2,23.1,3.5,33.9S249.81,159.5,249.81,159.5Z"/><path class="cls-10" d="M236,197.6c-.1.1-.1.3-.2.4-2.2,3.7-7.7,6-9.4,6.7a9.24,9.24,0,0,0-.5-.9l1.2-5.5,6.2-2.5A21.11,21.11,0,0,1,236,197.6Z"/><path class="cls-8" d="M221.11,109.5l-5.1,3-4.7,20.7s-5.8,17.6-1.3,30.1,7.1,19.7,7.1,19.7,1.8,14.3,4.5,15.4,3.9,1.8,3.9,1.8l.5,3.4s7.3-2.5,9.9-6.8-1.9-15.2-1.9-15.2-3.9-9.2-2.9-13.5-2-15.6-2-15.8-.3-6.3,1.9-10.9.7-6.6.7-6.6l-1.3-13.2Z"/><path class="cls-10" d="M310.21,194.8s-13.5,5.1-17.8.6-3.9-25.5-3.9-25.5-4.1-38.8-6.7-45.1-1.3-52.3-1.3-52.3-1.7-5.9-3.3-7.5l-.3-.3.5.1,1.8.4,2.9,2.3,9.1,59.1S307,172.1,310,190.4Z"/><path class="cls-10" d="M325.81,196.2h-.2c-1.7.2-16.7,2-16.8-1.1a4.1,4.1,0,0,1,.1-1.1l13.9-1.4,2.8,2.8a.9.9,0,0,1,.1.5Z"/><path class="cls-8" d="M311.31,88.8l9.9,5.2s8.2,21.3,9.6,30.5c0,0,6.1,24.5,1.9,34.6s-3.9,30.1-3.9,30.1-2.4,3.7-3.4,2.7.4,3.9.4,3.9-16.9,2.2-17-1.1,3.9-19.2,3.9-19.2,1.1-37.8-.4-43.7C310.71,125.7,311.31,88.8,311.31,88.8Z"/><path class="cls-10" d="M281.81,129s-5.6,13.6-7.4,14.5.4,4.5.4,4.5S285,133.8,281.81,129Z"/><path class="cls-10" d="M278.51,81.2c.1-.3-6.6,6.6-8.4,7.6S276.61,88.7,278.51,81.2Z"/><path class="cls-10" d="M259.91,127.9s-10.2,6.6-8.9,9.2S259.91,127.9,259.91,127.9Z"/><path class="cls-10" d="M278.41,224.4a54.86,54.86,0,0,0,22.2,7Z"/><path class="cls-10" d="M257.51,237.9s8.1,10.1,11.7,10.4C273,248.5,257.51,237.9,257.51,237.9Z"/><path class="cls-10" d="M268.81,277.6c-.4.2-4.6,9.1-8.9,9.4S268.81,277.6,268.81,277.6Z"/><path class="cls-10" d="M306.21,297.3s8-1.8,9.8,3.9C316,301.2,315.51,299.4,306.21,297.3Z"/><path class="cls-10" d="M300.81,330.1s9.7-2,11.7.7C314.71,333.5,300.81,330.1,300.81,330.1Z"/><path class="cls-10" d="M273.41,334.7c0,.1-9.9,2-9.5,3.2s10.5,1.1,10.9-.9a.85.85,0,0,0,0-.7,1.45,1.45,0,0,0-.2-.7,2.65,2.65,0,0,0-.5-.6A1.49,1.49,0,0,0,273.41,334.7Z"/><path class="cls-10" d="M297.61,343.2s16.2-2,15.2,1.4S297.61,343.2,297.61,343.2Z"/><path class="cls-10" d="M212.81,143.5c.1.3,10.7,1.7,12.1,5.1,0,0-10.4-4.8-12-4.8"/><path class="cls-10" d="M227.71,171.2s-8.8,2.8-8.2,7S218.61,176.3,227.71,171.2Z"/><path class="cls-10" d="M223.61,192.6s3.2-4.4,6.2-3.6S223.61,192.6,223.61,192.6Z"/><path class="cls-10" d="M273.81,27a7,7,0,0,1-1,.8c-2.5,1.5-3.2,3.8-4.4,6.4-1.1,2.4-2.4,4.9-4.6,6.3-2.9,1.8-6.8,1.1-9.8,2.6a8,8,0,0,0-3.2,3.1,8.32,8.32,0,0,0-.9,4.4,18.87,18.87,0,0,0,.9,3.4,23.4,23.4,0,0,1,.9,7.5v.2a19.51,19.51,0,0,1-6.7-5.4,21.33,21.33,0,0,1-4-7.6,20.77,20.77,0,0,1-.5-8.6,21.47,21.47,0,0,1,3-8.1,21.78,21.78,0,0,1,6-6.1,19.66,19.66,0,0,1,8-3.1,21,21,0,0,1,16.3,4.2Z"/><path class="cls-12" d="M273.21,20.7c-2.3-4.8-7.2-7.8-12.3-9.3a21.32,21.32,0,0,0-12-.3,51.07,51.07,0,0,0-6.3,2.9c-3.8,1.9-8.1,3.5-10.9,6.7a3.17,3.17,0,0,0-1.1,2.7,5.24,5.24,0,0,0,1.1,1.9,6.39,6.39,0,0,1,.1,4.9,45.24,45.24,0,0,0-1.8,4.7,5,5,0,0,0,1,4.7c.5.5,1.2.8,1.8,1.3a8.2,8.2,0,0,1,1.7,2l3.4,4.7a57.44,57.44,0,0,1,4.3,6.6,29.6,29.6,0,0,0,2.6,5,5.89,5.89,0,0,0,4.8,2.6.6.6,0,0,0,.4-.1l.3-.3a.75.75,0,0,0,.1-.5,23.13,23.13,0,0,0-.9-7.4,21.36,21.36,0,0,1-.9-3.4,8.51,8.51,0,0,1,.9-4.4,7.38,7.38,0,0,1,3.2-3.1c3-1.5,6.9-.9,9.8-2.6,2.3-1.4,3.5-3.9,4.6-6.3,1.2-2.6,1.9-4.9,4.4-6.4C274.21,25.7,274.51,23.3,273.21,20.7Z"/><path class="cls-10" d="M264,359.4s3.2,4,2.3,6.3S264,359.4,264,359.4Z"/><path class="cls-10" d="M306.81,369.6s.7-5.4,3.5-5.5,3-.3,5.1.5,4.2,2.1,3.5,2.3-3.7-3.1-6.8-1.4A26,26,0,0,0,306.81,369.6Z"/><path class="cls-10" d="M254.51,82.3l8.9-6.2s-13-7.7-14.5-6.6-2.6,10.8-2.6,10.8Z"/><path class="cls-13" d="M254.51,81.9l8.9-6.3s-13-7.7-14.5-6.6-2.6,11.3-2.6,11.3Z"/><path class="cls-11" d="M254.51,81.9l8.9-6.3s-13-7.7-14.5-6.6-2.6,11.3-2.6,11.3Z"/><path class="cls-8" d="M250.31,69l-.3-.1a1.91,1.91,0,0,0-1.3-.2,1.85,1.85,0,0,0-1.2.5l-26.6,21.6s-5.8,8-5,21.8l15.7,22.2s1.8-7.5,3.9-6.1c0,0,3,38.6,0,44.1s-4.4,26.4-4.4,26.4l10.3,1.2s1.1-14.1,3.5-19.1,3.7-22.3,3.7-22.3,2.2-25.1,1.8-35.8-3.5-33.9-3.5-33.9S247.91,75.7,250.31,69Z"/><path class="cls-10" d="M276.81,78.4l-11.1-4.1s14.1-15.4,15.8-6.9Z"/><path class="cls-13" d="M276.81,77.8l-11.1-4.1s14.1-15.4,15.8-6.9Z"/><path class="cls-11" d="M276.81,77.8l-11.1-4.1s14.1-15.4,15.8-6.9Z"/><path class="cls-10" d="M276.41,64.7a.9.9,0,0,1,.5.1Z"/><path class="cls-8" d="M277.51,63.6l29.3,6.3s8.1,1.8,13.9,22.1-8,45.1-8,45.1l-3-2.6,1.5,59.2s-13.5,5.1-17.8.6-3.9-25.5-3.9-25.5-4.1-38.7-6.7-45.1-1.3-52.3-1.3-52.3S279.21,63.3,277.51,63.6Z"/><path class="cls-10" d="M304.31,101.4c-.4.4-.9,18.3.9,31.9a173.3,173.3,0,0,0,5.1,24.6l-2.7-54.6C307.71,103.2,305.61,100.2,304.31,101.4Z"/><path class="cls-10" d="M300.81,85.9c.7.5,3.9,7.9,2.4,10.9S300.81,85.9,300.81,85.9Z"/><path class="cls-10" d="M273.11,20.7a16.76,16.76,0,0,0-6.4-6.8,14.7,14.7,0,0,1,4.8,5.7c1.3,2.5.9,5.1-1.6,6.5s-3.2,3.8-4.4,6.4c-1.1,2.4-2.4,4.9-4.6,6.3-2.9,1.8-6.8,1.1-9.8,2.6a8.64,8.64,0,0,0-3.2,3.1,8.32,8.32,0,0,0-.9,4.4,18.87,18.87,0,0,0,.9,3.4,23.4,23.4,0,0,1,.9,7.5.9.9,0,0,1-.1.5l-.3.3a.6.6,0,0,1-.4.1,4.13,4.13,0,0,1-2.2-.4,4.52,4.52,0,0,0,1.7,1.1,5.22,5.22,0,0,0,2.1.4h.3c.1,0,.2-.1.3-.2s.1-.2.2-.3V61a24.09,24.09,0,0,0-.9-7.5,21.36,21.36,0,0,1-.9-3.4,8.51,8.51,0,0,1,.9-4.4,7.38,7.38,0,0,1,3.2-3.1c3-1.5,6.9-.9,9.8-2.6,2.3-1.4,3.5-3.9,4.6-6.3,1.2-2.6,1.9-4.9,4.4-6.4S274.31,23.3,273.11,20.7Z"/><path class="cls-14" d="M1213,102.7c-8.7-.2-16.4-6.3-20.8-13.9a14,14,0,0,1-2.1-5.9,5.9,5.9,0,0,1,.2-1.4,7.94,7.94,0,0,0,.6-2.2v-1A5.25,5.25,0,0,0,1189,74c-1.2-1.1-2.6-1.9-3.8-3-3.8-3.3-4.9-8.6-5-13.6v-.3c0-2.2.2-4.3.2-6.5a23.58,23.58,0,0,0-.2-3.7c-.4-3-1.5-6.2-3.9-8.1-6.2-5.1-16.8.2-23.2-4.6-1.6-1.2-2.8-2.9-4.8-3.4a8.08,8.08,0,0,0-4.3.6c-4.8,1.6-10.1,3.6-11.9,8.2-1.1,2.6-.8,5.7-1.7,8.3-.6,1.8-1.8,3.3-2.7,5a7.69,7.69,0,0,0-1,4.2,4.09,4.09,0,0,0,.3,2.2,5,5,0,0,0,1.6,2.2,11.91,11.91,0,0,1-.9,1.5c-1.2,1.5-3.1,2.5-4.4,4-2.3,2.7-2.3,6.4-1.1,9.6s3.2,6.1,4.7,9.2c.6,1.4,1.1,2.9.5,4.2a11.67,11.67,0,0,1-2.1,2.4,7.68,7.68,0,0,0-1.9,4.2c-14.3,3.3-14.3,14.7-14.3,14.7l-7.7,19.4s-1.2,3.3-2.7,7.6l-9.1-1.6,6.3,10.6c-1.2,4.3-2,8.3-1.8,10.3,0,0-2.8,13.3,2.2,15.6l11.1,5a10.09,10.09,0,0,0,1.5.7l.4.2a.9.9,0,0,0,.5.1.75.75,0,0,0,.5-.1h.1a1.27,1.27,0,0,0,.6-.1,1.7,1.7,0,0,0,.6-.6v-.1l3.3-1,2.8,3.3c1.3.9,2.5,1.7,3.7,2.4l-4.4,43.4s-.7,57.7-2.8,70.8a36,36,0,0,0-.5,10.4l-.1.1c.5,3.7,1.9,4.4,1.9,4.4V312a.1.1,0,0,1,.1.1,31.16,31.16,0,0,1,2.3-4.9v1c0,4.9-.2,11.7-.7,16.2-.9,7.6,2.2,32.7,2.2,32.7l1.1,22.8a20.47,20.47,0,0,1-2.6,11.1c-2.5,4.6-5.8,11-6,13.8v.5l-5.4,6.5s-2.1,3.3,2.7,4.6c2.6.7,7,0,10.6-.8a6.51,6.51,0,0,0,3.9-2.5,7.1,7.1,0,0,0,1.5-4.4,23.66,23.66,0,0,1,4.5-8.6l.9,5.3,6,1.5.8-14.4a7.27,7.27,0,0,0,.4-2.5c1.2-10.2-2.8-9.3-2.8-9.3a.52.52,0,0,1,.2.4l-.2-.3c-2.4-4.8-1.3-12.7-1.3-12.7s3.2-22.8,4.3-28.9c.8-4.3.5-18.2.2-26v-.9c9.3-.1,20.6-.4,28.6-1.2v.9l-1.5,53.9a28.86,28.86,0,0,1-2.1,10c0,.1,0,.1-.1.2a45.44,45.44,0,0,0-2.9,14.1l-.7,17.1v.5c-1.2.5-3.1,1.8-3.1,5.6-.1,5.6,9.8,3.8,9.8,3.8,9.9,0,10-10.3,10-10.3s.3-9.5.8-15.8-1.5-4.9-1.5-4.9l-.2,18V388.5l.2-2.3v-.6l1.2-18.6s9.1-31,10.5-36.9c1-4.2.6-16.9.3-24a2.77,2.77,0,0,0-.1-.9,59.12,59.12,0,0,1,6.3-.3h.5s-.5-49.7-1.7-68.5-3.1-35.9-7.8-41c-2.9-3.1-6.8-12.7-9.5-19.9a105.26,105.26,0,0,0,17.5,5.7c14.9,3.1,12.9-9.9,12.9-9.9l-1.5-24.6h.1a138.13,138.13,0,0,0-1.6-19.2,53.55,53.55,0,0,0-3.9-13.9c1.6-.6,3.2-1.3,4.8-2,4.1-1.8,8.6-4.3,9.2-8.7h-.2C1212.91,103.4,1212.91,103,1213,102.7Zm-92.7,35.5c0,2.5-.1,6.9-.2,11.8l-4.7-6.3,4.8-7.7Zm65.6,22.5-7.9-2.5a31.36,31.36,0,0,1,4.9-6l.7-.6-.2.1.4-.3h.2l-.4.3.4-.1a13.75,13.75,0,0,0,2.7,5.4C1189.51,159.9,1185.91,160.7,1185.91,160.7Z"/><path class="cls-15" d="M1137.91,388.9l-.9,17.5-5.9-1.5-1.2-7.3Z"/><path class="cls-10" d="M1137.91,388.9l-.9,17.5-5.9-1.5-1.2-7.3Z"/><path class="cls-16" d="M1159.51,408.8l9,1.9,6.7-5.9V388.2l.2-2.3v-.6l1.2-18.5s9-30.7,10.4-36.6c1-4.2.6-16.8.2-23.8-.1-2.9-.2-4.8-.2-4.8l-19.9-4.8-.4,15.3-1.5,53.5a31.22,31.22,0,0,1-2,10l-.1.2a44.83,44.83,0,0,0-2.9,14l-.7,17v2Z"/><path class="cls-10" d="M1159.51,408.8l9,1.9,6.7-5.9v-1.4a1.61,1.61,0,0,1-.3.9,1.34,1.34,0,0,1-.7.6l-.1.1a18.56,18.56,0,0,1-10.1,2l-3.5-.3a2.92,2.92,0,0,0-.9.2v.5Z"/><path class="cls-9" d="M1174.11,405.4a2.85,2.85,0,0,0,.8-.7,1.69,1.69,0,0,0,.3-1l.1-17.9s1.9-1.4,1.5,4.9-.8,15.7-.8,15.7-.1,10.2-9.9,10.2c0,0-9.8,1.9-9.7-3.7s4-5.8,4-5.8l3.5.3A18.73,18.73,0,0,0,1174.11,405.4Z"/><path class="cls-16" d="M1112.61,405c.2,4,12.1,1.7,12.1,1.7l8-15.5s6.7-5.1,3.3-9.6a5.58,5.58,0,0,1-.5-.8c-.1-.1-.1-.2-.2-.4-2.4-4.8-1.2-12.6-1.2-12.6s3.1-22.7,4.2-28.6c.8-4.2.5-18.1.2-25.8-.1-3.2-.2-5.4-.2-5.4l-19.7-5.3v5.9c0,4.9-.2,11.7-.7,16.1-.8,7.5,2.2,32.4,2.2,32.4l1,22.7a21,21,0,0,1-2.5,11c-2.5,4.5-5.7,10.9-5.9,13.7C1112.71,404.7,1112.61,404.8,1112.61,405Z"/><path class="cls-10" d="M1112.61,405c.2,4,12.1,1.7,12.1,1.7l8-15.5s6.7-5.1,3.3-9.6a5.58,5.58,0,0,1-.5-.8c-.1,2.4-2.7,8.2-2.7,8.2s-6.6,13.2-8.7,16.2-11.2-.6-11.6-.7A.9.9,0,0,1,1112.61,405Z"/><path class="cls-9" d="M1135.41,380.3s3.9-.9,2.7,9.3a6.22,6.22,0,0,1-.8,3.3,6.14,6.14,0,0,1-2.3,2.5,22.3,22.3,0,0,0-9.3,12.9,7.1,7.1,0,0,1-1.5,4.4,7.76,7.76,0,0,1-3.9,2.5c-3.5.8-7.9,1.5-10.5.8-4.7-1.3-2.6-4.6-2.6-4.6l5.4-6.4s9.5,3.7,11.6.7,8.7-16.2,8.7-16.2S1136.51,381.2,1135.41,380.3Z"/><path class="cls-10" d="M1167.11,298.7l-.4,15.3c5.3-.5,9.1-1.2,9.7-2.2,1.4-2.2,6.5-3.1,10.8-3.5-.1-2.9-.2-4.8-.2-4.8Z"/><path class="cls-10" d="M1118.61,310.4a7.84,7.84,0,0,1,2.2-2.6c2.1-1.2,1.9,7.5,1.9,7.5s7,.1,15.9-.1c-.1-3.2-.2-5.4-.2-5.4l-19.7-5.3C1118.61,304.5,1118.71,307,1118.61,310.4Z"/><path class="cls-8" d="M1116.41,312.5s2.3-6.3,4.4-7.5,1.9,7.4,1.9,7.4,51.2.5,53.8-3.5,17.5-3.7,17.5-3.7-.5-49.4-1.6-68-3-35.6-7.7-40.8c-3-3.3-7.3-14-9.9-21.2-1.4-3.9-2.4-6.8-2.4-6.8l-48.9,2.8-.4,4-5.2,51.9s-.7,57.3-2.8,70.3C1112.91,310.6,1116.41,312.5,1116.41,312.5Z"/><g class="cls-17"><path class="cls-10" d="M1172.41,308.9c2.5-4,17.5-3.7,17.5-3.7s-.5-49.4-1.6-68-3-35.6-7.7-40.8c-3-3.3-7.3-14-9.9-21.2-1.2-3.3-2.1-5.8-2.3-6.5l3.8-.2s1,2.8,2.4,6.8c2.6,7.2,6.9,17.9,9.9,21.2,4.7,5.1,6.5,22.1,7.7,40.8s1.6,68,1.6,68-14.9-.2-17.5,3.7c-2.2,3.4-39.9,3.5-50.8,3.5C1139.61,312.4,1170.51,312,1172.41,308.9Z"/><path class="cls-10" d="M1116.81,305c.9-.5,1.4.9,1.6,2.7a35.09,35.09,0,0,0-2.2,4.8s-1.3-.7-1.9-4.4A8.36,8.36,0,0,1,1116.81,305Z"/></g><path class="cls-12" d="M1131.51,49.1c-3.4,4.6,0,11.2-3.6,15.7-1.2,1.5-3,2.5-4.3,4-2.3,2.7-2.2,6.4-1.1,9.5s3.2,6.1,4.6,9.2a5.18,5.18,0,0,1,.5,4.2,11.67,11.67,0,0,1-2.1,2.4c-2.3,2.6-2.4,6.2-1.1,9.3s3.6,5.7,6,8.3a5.19,5.19,0,0,0,3.7,2.1,4.89,4.89,0,0,0,2.3-.8,23.46,23.46,0,0,0,10.7-30.6c-2-4.7-5.2-9.2-5.3-14.2,0-3.9,2-7.7,2.4-11.7.4-4.8-2.4-12.4-8.2-14.5C1136.31,45.1,1133.21,46.7,1131.51,49.1Z"/><path class="cls-10" d="M1131.51,49.1c-3.4,4.6,0,11.2-3.6,15.7-1.2,1.5-3,2.5-4.3,4-2.3,2.7-2.2,6.4-1.1,9.5s3.2,6.1,4.6,9.2a5.18,5.18,0,0,1,.5,4.2,11.67,11.67,0,0,1-2.1,2.4c-2.3,2.6-2.4,6.2-1.1,9.3s3.6,5.7,6,8.3a5.19,5.19,0,0,0,3.7,2.1,4.89,4.89,0,0,0,2.3-.8,23.46,23.46,0,0,0,10.7-30.6c-2-4.7-5.2-9.2-5.3-14.2,0-3.9,2-7.7,2.4-11.7.4-4.8-2.4-12.4-8.2-14.5C1136.31,45.1,1133.21,46.7,1131.51,49.1Z"/><path class="cls-10" d="M1169,216.9c-6.8.4-13.1,3.3-19.1,6.6s-11.7,7-18,9.4"/><path class="cls-10" d="M1164.81,232.9a27.86,27.86,0,0,0-17.6,8.6c-1.6,1.7-3.1,3.7-4.8,5.4a20.55,20.55,0,0,1-9.4,5.3"/><path class="cls-10" d="M1166.21,245.1a31,31,0,0,0-14.1,8.5c-1,1.1-2,2.3-3,3.4-5.6,6-13.5,9.2-21.2,12.2"/><path class="cls-16" d="M1165.61,76.5a126.5,126.5,0,0,0,1.4,16.2c.6,3.8,1.5,7.2,2.8,8.7,3.7,4.4-18.2,10.4-18.2,10.4l-12.9-10s10.2-9.4,5.5-18.6S1165.61,76.5,1165.61,76.5Z"/><path class="cls-10" d="M1123,175.3h51.7c-1.4-3.9-2.4-6.8-2.4-6.8l-48.9,2.8Z"/><path class="cls-11" d="M1119.61,174.3h55.2c-1.6-5.6,0-10.7,2.2-14.7a32.71,32.71,0,0,1,5.8-7.5l.4-.3,19.3-4.3,1-.2s.2-35.1-12.3-39.9a73.46,73.46,0,0,1-19.9-11.3l-17.1,5.3-12.6-6.3c-4,4.3-14.7,2.6-14.7,2.6-17.5,2-17.5,15.2-17.5,15.2s10.2,23.9,11,23.9S1119.61,174.3,1119.61,174.3Z"/><path class="cls-10" d="M1138.71,152s-11.3-2.5-15.1-6.9Z"/><path class="cls-10" d="M1195.51,138.9l-13.1,10.7a18.66,18.66,0,0,0,.4,2.5l.4-.3,19.3-4.3Z"/><path class="cls-10" d="M1160.11,170.6s2.9,1.6,7.2,3.7h7.5c-1.6-5.6,0-10.7,2.2-14.7l-13.2-4.3C1168.41,159.6,1160.11,170.6,1160.11,170.6Z"/><path class="cls-11" d="M1117.31,108.7l-7.8,4.2-7.6,19.3s-7.9,21.1-7.1,26.7c0,0-2.8,13.2,2.2,15.5l12.9,5.9a1.7,1.7,0,0,0,.7.1c.2-.1.5-.2.6-.4a.91.91,0,0,0,.3-.7,1.7,1.7,0,0,0-.1-.7c-1.8-3.5-3.9-9-.6-12l-3.7-7.8,13.5-22,4.5-7.6Z"/><path class="cls-10" d="M1134.51,147.6c.7,2.7,2.9,7,10.4,8.6l8.2,6.8,8.8,4,3.6,1.6,1.5-10.9-3.4-1.9-4-2.2s-9-16.4-23.4-9.5a3.12,3.12,0,0,0-1.5,1.5A3.38,3.38,0,0,0,1134.51,147.6Z"/><path class="cls-16" d="M1135,146.7c.7,2.7,2.9,7,10.4,8.6l8.2,6.8,8.8,4,3.6,1.6,1.5-10.9-3.4-1.9-4-2.2s-9.1-16.4-23.4-9.5a2.76,2.76,0,0,0-1.5,1.5A2.69,2.69,0,0,0,1135,146.7Z"/><path class="cls-10" d="M1151.21,90.7a20,20,0,1,0-20-20A20,20,0,0,0,1151.21,90.7Z"/><path class="cls-16" d="M1151.21,90.3a20,20,0,1,0-20-20A20,20,0,0,0,1151.21,90.3Z"/><path class="cls-10" d="M1163.61,113l-6-11.7s8.8-3.6,9.4-7.7,8.4,4.8,6.8,7.8S1163.61,113,1163.61,113Z"/><path class="cls-11" d="M1163.61,112.1l-6-11.7s8.8-3.6,9.4-7.7,8.4,4.8,6.8,7.8S1163.61,112.1,1163.61,112.1Z"/><path class="cls-18" d="M1114.31,142.3l33.3,44.7s-12.3,6.7-29.1-5.3l-7.3-8.7-20.8-35.1Z"/><path class="cls-16" d="M1107.81,166.7l3-.1s18.5-18,23-8.9-11.5,17.6-11.5,17.6l-4.9,2.6-6.4,1.9-4.1-5.5Z"/><path class="cls-10" d="M1112.21,176.4a4.73,4.73,0,0,1,.1,3.1.9.9,0,0,1-.6.6,1.27,1.27,0,0,1-.6.1,6.31,6.31,0,0,1-4.2-2.1,17,17,0,0,1-2.7-3.9c-.8-1.4-1.7-3-1.4-4.7s1.9-3,3.4-4c3.1-2,3.2.3,3.8,2.9C1110.81,171.1,1111.51,173.7,1112.21,176.4Z"/><path class="cls-11" d="M1111.81,176.4a4.73,4.73,0,0,1,.1,3.1.9.9,0,0,1-.6.6,1.27,1.27,0,0,1-.6.1,6.31,6.31,0,0,1-4.2-2.1,17,17,0,0,1-2.7-3.9c-.8-1.4-1.7-3-1.4-4.7s1.9-3,3.4-4c3.1-2,3.2.3,3.8,2.9S1111.11,173.7,1111.81,176.4Z"/><path class="cls-10" d="M1120.61,136.8l1.5-2.6-1.3,4.9Z"/><path class="cls-10" d="M1162.51,166l3.6,1.6,1.5-10.9-3.4-1.9C1166.51,157.5,1164.41,162.5,1162.51,166Z"/><path class="cls-10" d="M1176.81,153.3s-11.5.7-16.4-2.4Z"/><g class="cls-17"><path class="cls-10" d="M1175.41,160.6a32.71,32.71,0,0,1,5.8-7.5,9.15,9.15,0,0,1,1.7-.9l18-3.7,1-.2s.2-35.1-12.3-39.9a72.74,72.74,0,0,1-19.4-10.9l1.4-.4a71.46,71.46,0,0,0,19.9,11.3c12.4,4.8,12.3,39.9,12.3,39.9h-1.9l-18.4,3.5-1,1a34.82,34.82,0,0,0-5.9,7.8,19.3,19.3,0,0,0-1.5,14.7h-1.9C1171.61,169.7,1173.21,164.6,1175.41,160.6Z"/><path class="cls-10" d="M1126.31,98.7c.3,0,.6-.1.9-.1a24.33,24.33,0,0,0,3.8.3C1129.51,98.9,1127.91,98.8,1126.31,98.7Z"/><path class="cls-10" d="M1152.71,102.3l-11.4-5.8.6-.6,11.9,6Z"/></g><path class="cls-11" d="M1195.91,138l7.6,9.3,1.6,25.3s2,12.9-12.7,9.8-31.8-12.7-31.8-12.7,8.2-11,3.7-15.2l21.1,6.8s3.6-.8.8-3.9-3.3-8.7-3.3-8.7Z"/><path class="cls-10" d="M1199.41,164.7l4.2,4.8a6.45,6.45,0,0,1-2.8-1.8A5.57,5.57,0,0,1,1199.41,164.7Z"/><path class="cls-10" d="M1192.21,163.9l6.5,8.4-3.3.8Z"/><path class="cls-10" d="M1127.31,61a6.7,6.7,0,0,1,.7-5.5,48.2,48.2,0,0,0,2.7-5c1-2.6.7-5.6,1.7-8.2,1.8-4.6,7.1-6.7,11.8-8.2a8.08,8.08,0,0,1,4.3-.6c1.9.5,3.1,2.2,4.7,3.3,6.4,4.8,16.7-.5,22.9,4.6,2.4,1.9,3.5,5,3.9,8s0,6.1,0,9.1c-.1,5.3.9,11.2,4.9,14.7,1.2,1.1,2.6,1.9,3.8,3a5.06,5.06,0,0,1,1.9,4.2c-.2.7-.4,1.5-.6,2.2-.8,2.8.4,5.7,1.8,8.2,4.3,7.5,11.9,13.6,20.5,13.8-.6,4.3-5.1,6.9-9.1,8.7-5.1,2.3-10.5,4.5-16,4.2s-11.4-3.9-12.4-9.4c-.3-1.9-.3-4.2-1.9-5.2-1-.6-2.3-.5-3.3-.9-1.5-.6-2.3-2.4-2.8-4a38.84,38.84,0,0,1-1.7-10.1c-.1-4.1.5-8.5-1.8-11.9-2.1-3.1-5.9-4.7-8.4-7.5-2.3-2.6-4.8-5.8-8.5-6.3C1141,61.5,1130.31,68.5,1127.31,61Z"/><path class="cls-12" d="M1127.31,60.1a6.7,6.7,0,0,1,.7-5.5,48.2,48.2,0,0,0,2.7-5c1-2.6.7-5.6,1.7-8.2,1.8-4.6,7.1-6.7,11.8-8.2a8.08,8.08,0,0,1,4.3-.6c1.9.5,3.1,2.2,4.7,3.3,6.4,4.8,16.7-.5,22.9,4.6,2.4,1.9,3.5,5,3.9,8s0,6.1,0,9.1c-.1,5.3.9,11.2,4.9,14.7,1.2,1.1,2.6,1.9,3.8,3a5.06,5.06,0,0,1,1.9,4.2c-.2.7-.4,1.5-.6,2.2-.8,2.8.4,5.7,1.8,8.2,4.3,7.4,11.9,13.6,20.5,13.8-.6,4.3-5.1,6.9-9.1,8.7-5.1,2.3-10.5,4.5-16,4.2s-11.4-3.9-12.4-9.4c-.3-1.9-.3-4.2-1.9-5.2-1-.6-2.3-.4-3.3-.9-1.5-.6-2.3-2.4-2.8-4a38.84,38.84,0,0,1-1.7-10.1c-.1-4.1.5-8.5-1.8-11.9-2.1-3.1-5.9-4.7-8.4-7.5-2.3-2.7-4.8-5.8-8.5-6.3C1141,60.6,1130.31,67.6,1127.31,60.1Z"/><path class="cls-10" d="M1141.51,111.6l11.5-9.3s-7.9-4.3-8.8-7.9-7.2,1.7-6.6,5S1141.51,111.6,1141.51,111.6Z"/><path class="cls-11" d="M1141.91,110.2l11.5-9.3s-7.9-4.3-8.8-7.9-7.2,1.7-6.6,5S1141.91,110.2,1141.91,110.2Z"/><path class="cls-10" d="M1153.81,109.6a.9.9,0,1,0-.9-.9A.9.9,0,0,0,1153.81,109.6Z"/><path class="cls-10" d="M1153.81,114.6a.9.9,0,1,0-.9-.9A.9.9,0,0,0,1153.81,114.6Z"/><path class="cls-10" d="M1153.81,119.7a.9.9,0,1,0-.9-.9A.9.9,0,0,0,1153.81,119.7Z"/><g class="cls-17"><path class="cls-10" d="M1131.91,47.2c.9-2.5.7-5.3,1.6-7.8a16.18,16.18,0,0,0-1,1.8c-1.1,2.6-.8,5.6-1.7,8.2l-.1.2A13.44,13.44,0,0,0,1131.91,47.2Z"/><path class="cls-10" d="M1204.31,109.9c-5.1,2.3-10.5,4.5-16,4.2s-11.4-3.9-12.4-9.4c-.3-1.9-.3-4.2-1.9-5.2-1-.6-2.3-.5-3.3-.9-1.5-.6-2.3-2.4-2.8-4a38.84,38.84,0,0,1-1.7-10.1c-.1-4.1.5-8.5-1.8-11.9-2.1-3.1-5.9-4.7-8.4-7.5-2.3-2.6-4.8-5.8-8.5-6.3-5.1-.7-15.8,6.3-18.9-1.2a5.8,5.8,0,0,1,.2-4.3c-.2.4-.4.7-.6,1.1a6.7,6.7,0,0,0-.7,5.5c3,7.5,13.7.5,18.9,1.2,3.7.5,6.2,3.7,8.5,6.3,2.5,2.9,6.3,4.4,8.4,7.6,2.3,3.4,1.8,7.8,1.8,11.9a34.49,34.49,0,0,0,1.7,10.1c.5,1.6,1.3,3.3,2.8,4,1.1.5,2.3.3,3.3.9,1.6,1,1.6,3.3,1.9,5.2,1,5.5,6.8,9.1,12.4,9.4s10.9-1.9,16-4.2c3.7-1.6,7.8-3.9,8.9-7.6C1210.31,107,1207.11,108.7,1204.31,109.9Z"/></g><path class="cls-19" d="M1316.21,145.7c-13.4-7.7-18.5-9.6-18.5-9.6l-.3-.2a11,11,0,0,1-3.4-4.3v-.8c.2-4.1,3.1-7.8,5.9-11.1l7.1-8.3a7.89,7.89,0,0,0,1.8-2.9,11,11,0,0,0,.2-1.8V106c0-2.1-.1-4.1-.2-6.2-.1-1.8-.5-4.1-2.3-4.4-.9-.2-2.2.1-2.7-.6a1.38,1.38,0,0,1-.1-1.1v0a30.67,30.67,0,0,0,.7-4.2,7.11,7.11,0,0,0-.3-2.1c-1-3-4.6-4.2-7.8-4.8s-6.7-1-8.7-3.5c-.5-.8-1.1-1.6-1.7-2.4a6.49,6.49,0,0,0-3.2-1.6,18.42,18.42,0,0,0-11.8,1c-1.5.7-3.1,1.6-4.8,1.5s-3.2-1.3-5-1.6c-2.8-.5-5.5,1.6-6.8,4a9.77,9.77,0,0,0-1.3,4.7V85a7,7,0,0,0,1.8,4.8c1.2,1.3,3,2.1,3.5,3.7a15.17,15.17,0,0,1,.3,2.1c0,.1,0,.2.1.2l-.1.1a20.76,20.76,0,0,0-4.4,12.9,21.19,21.19,0,0,0,4.2,12.6,22.07,22.07,0,0,0,10.8,7.7v.6a9.08,9.08,0,0,1-2.9,7.1l-19,7.6s-11.5-1.4-15.6,15.4a27,27,0,0,0-.7,8.5c.2,2.5-.2,7-3.2,12.7-4.7,9.2-3.6,30.3,6,32.4,9.1,2,12.6,1.2,13,1.1v.4c-.2,4-1.6,38.2-6.8,42.3-1.4,1.1-1.2,1.9,0,2.4v.6c-.2,2.5-1,12-4.4,17.4-4.1,6.3-3.6,42.5-3.6,42.5l-2.8,21.3s1.7,13.2,0,15.5c-1.5,2-3.6,50.8-4,61.4h-.2a5.27,5.27,0,0,0-2.4.8,4.9,4.9,0,0,0-1.7,1.8c-2.2,3.6-10.1,10.4-10.1,10.4-1.7,2.4-8,4.7-11.3,5.8a3.79,3.79,0,0,0-1.3.6,7.62,7.62,0,0,0-2.9,3,2.84,2.84,0,0,0-.4,1.2,2.88,2.88,0,0,0,.1,1.3c.8,2.1,18.6,3.6,23.1,1.5,3.5-1.6,17.5-3.8,23.3-4.7a4.44,4.44,0,0,0,2.8-1.4,5,5,0,0,0,1.4-2.8,2.08,2.08,0,0,0-.1-1.1,3.13,3.13,0,0,0-.5-1c-1.1-1.4-1.7-5.1-1.9-7.6a5.67,5.67,0,0,0,1.3-.8,55.19,55.19,0,0,1,3.2-22.4c4.3-11.3,5.5-32.2,4.5-45.8,0,0,13-56.1,23.3-61.3.2.2,5.1,6.6,5.8,26.4.6,20.1,7.9,33.3,7.9,33.3s-3.2,34.1,0,46.9l-4.2,20.1-.5-.5s.1.6.3,1.5l-.1.4h.2c.5,2.5,1.2,6.9.9,9.5-.2,1.5-.6,3.5-.9,5.4-.4,3.1-.6,6.1,1.1,6.8,2.7,1.1,18.4,2.5,21-.9a4.72,4.72,0,0,0,1.1-2.5,5.11,5.11,0,0,0-.4-2.7,5.67,5.67,0,0,0-.8-1.3s-4.2-6.8-3-11.6a3.3,3.3,0,0,0,0-1.4,5,5,0,0,0-.5-1.3,137,137,0,0,1,3.6-22.5c2.7-10.1,8.3-32.1,4.2-46.7-.2-.6-.3-1.1-.5-1.7a61.37,61.37,0,0,1-2.3-24.5,51,51,0,0,1,0-21.3c2.6-11.7,4.4-23.2,4.4-23.2s1.4-15.5.2-25c0-.2-.1-.4-.1-.6l.7-.2s-3.6-16.1-4.9-26.4c-.3-2.4-.7-5.5-1.1-8.8a22.51,22.51,0,0,0,3.5-.9c11.5-4,15.2-39.9,15.2-39.9V170.8C1325.81,171,1329.71,153.4,1316.21,145.7Zm-85.8,277.8-.6-.3Z"/><path class="cls-8" d="M1309.31,353.3c5,14.4-.8,37.7-3.5,48.2a143.71,143.71,0,0,0-3.5,22.9,47.53,47.53,0,0,1-18.3-.4l4.4-21.5c-3.1-12.7,0-46.7,0-46.7s-7.1-13.1-7.7-33.2c-.6-19.7-5.5-26.1-5.6-26.3-10,5.2-22.7,61.1-22.7,61.1,1,13.5-.2,34.4-4.4,45.6a56.15,56.15,0,0,0-3.1,22.3c-1.5,1.3-3.5,1.4-5.7,1.1-5.9-1-13.1-6.1-13.1-6.1s2.3-60.9,4-63.2,0-15.4,0-15.4l2.7-21.3s-.4-36.1,3.5-42.3c3.4-5.4,4.2-14.9,4.4-17.4v-.6l6-7.2s58.3-4.4,62.7,0c1.1,1.1,1.7,3.5,2.1,6.6,1.2,9.5-.2,24.9-.2,24.9s-1.7,11.5-4.3,23.1a51,51,0,0,0,0,21.3A61.37,61.37,0,0,0,1309.31,353.3Z"/><path class="cls-15" d="M1305.61,444.8c-2.6,3.4-17.9,2-20.5.9-1.6-.6-1.5-3.7-1-6.7.3-2,.7-4,.8-5.4.4-3.8-1.3-11.4-1.3-11.4s3.4,3.7,4.3,0a3.89,3.89,0,0,1,3-2.8,8.33,8.33,0,0,1,5.4.3c2.7,1.2,7.2,3.7,6.4,7.1-1.1,4.8,2.9,11.6,2.9,11.6a5.67,5.67,0,0,1,.8,1.3,5,5,0,0,1,.4,2.7A6.76,6.76,0,0,1,1305.61,444.8Z"/><path class="cls-10" d="M1305.61,444.8c-2.6,3.4-17.9,2-20.5.9-1.6-.6-1.5-3.7-1-6.7,1.6.8,4.4,1.4,9.1,1,1.1-.1,2.2-.1,3.3-.1a81.8,81.8,0,0,0,9.9-.2,4.16,4.16,0,0,1,.3,2.7A4.77,4.77,0,0,1,1305.61,444.8Z"/><path class="cls-10" d="M1252.21,357.5c1,13.5-.2,34.4-4.4,45.6a56.15,56.15,0,0,0-3.1,22.3c-1.5,1.3-3.5,1.4-5.7,1.1,1.3-8.8,6.6-46.7,10-76.6,3.9-34.1,22.2-57.5,22.2-57.5l3.6,4C1264.91,301.6,1252.21,357.5,1252.21,357.5Z"/><path class="cls-20" d="M1299.41,138.4l-2.5,12.5-12.5,21-15.4-6.6s-20.9-21.9-7.8-25a11.56,11.56,0,0,0,4.4-1.9,8.88,8.88,0,0,0,3.4-7.5,23.68,23.68,0,0,0-2.1-9l26.9-8.4a44.48,44.48,0,0,0-1.9,10.9c-.2,7.3,2.5,10.9,4.7,12.7A12,12,0,0,0,1299.41,138.4Z"/><path class="cls-10" d="M1293.81,113.4a44.48,44.48,0,0,0-1.9,10.9c-.5.6-1,1.1-1.6,1.7a21.3,21.3,0,0,1-10,5.4,20.72,20.72,0,0,1-11.3-.5,23.68,23.68,0,0,0-2.1-9Z"/><path class="cls-20" d="M1296.81,109.9a20.76,20.76,0,0,1-3.6,11.8,21.26,21.26,0,0,1-9.5,7.8,21.59,21.59,0,0,1-12.3,1.2,21.14,21.14,0,0,1-16.7-16.7,21.59,21.59,0,0,1,1.2-12.3,20.74,20.74,0,0,1,7.8-9.5,21.55,21.55,0,0,1,11.8-3.6,20.19,20.19,0,0,1,8.1,1.6,21.14,21.14,0,0,1,11.5,11.5A18.31,18.31,0,0,1,1296.81,109.9Z"/><path class="cls-10" d="M1299.41,138.4l-2.5,12.5-12.5,21-15.4-6.6s-20.9-21.9-7.8-25a11.56,11.56,0,0,0,4.4-1.9c-2.4,6.5,7.4,20.1,7.4,20.1,1.1,1.7,3.8.6,3.8.6,6.3-1,17.9-19.1,19.8-22.1A9.2,9.2,0,0,0,1299.41,138.4Z"/><path class="cls-10" d="M1311.41,259.7c-3.7.8-24.2,5.4-31.9,4.2-8.5-1.3-25.1-2.1-25.1-2.1s-10.6.6-13.8-.9v-.6l6-7.2s58.3-4.4,62.7,0C1310.41,254.1,1311,256.6,1311.41,259.7Z"/><path class="cls-11" d="M1273,159s-11-15.2-6.8-21.2l-18.6,7.6s-11.2-1.4-15.2,15.3a30.25,30.25,0,0,0-.7,8.5c.2,2.5-.2,7-3.1,12.7-4.6,9.2-3.5,30.2,5.8,32.3s12.7,1,12.7,1-1.3,38.2-6.7,42.5,13.8,3.3,13.8,3.3,16.6.8,25.2,2.1,32.5-4.4,32.5-4.4-3.5-16.1-4.8-26.3-4.2-32-4.2-32l21.2-28.8s3.8-17.4-9.4-25.1-18.1-9.6-18.1-9.6-13.2,21.5-20.1,22.5C1276.81,159.7,1274.21,160.7,1273,159Z"/><path class="cls-10" d="M1248.61,165.1s-.2,6.9,1,9.6,5.8,17.7,5.8,17.7H1245s5.6-6,5.2-9S1248.61,165.1,1248.61,165.1Z"/><path class="cls-20" d="M1279.51,217s-23-5.6-25.2-10.4-8.1-15.5-8.1-15.5l2.4-3.3,11.2,8.8s13.3,10.6,19.6,11.7S1279.51,217,1279.51,217Z"/><path class="cls-21" d="M1279.51,217s-23-5.6-25.2-10.4-8.1-15.5-8.1-15.5l2.4-3.3,11.2,8.8s13.3,10.6,19.6,11.7S1279.51,217,1279.51,217Z"/><path class="cls-20" d="M1299.41,189.9v12.5h-2a58.19,58.19,0,0,0-28.3,7.3l-3.8,2.1-1,.6-6.5-14.6,6-5.4h.3c1.5.1,7.9.7,10.6-.2s5.8-3.6,13.3-1.7c3.7,1,6.9,5.1,10.5,3.8Z"/><path class="cls-10" d="M1319.51,167.1l4.2,4.7v11.4s-3.5,35.9-14.8,39.8-31.3-2.3-31.3-2.3-5.2-13.8-2.8-14.6,21.4-5.9,21.4-5.9-.3-21,3.9-27.3c0,0-2.7-19.6,6.7-20S1319.51,167.1,1319.51,167.1Z"/><path class="cls-11" d="M1320.11,167.1l4.2,4.7v11.4s-3.5,35.9-14.8,39.8-31.3-2.3-31.3-2.3-5.2-13.8-2.8-14.6,21.4-5.9,21.4-5.9-.3-21,3.9-27.3c0,0-2.7-19.6,6.7-20S1320.11,167.1,1320.11,167.1Z"/><path class="cls-10" d="M1291,119a8.18,8.18,0,0,0-.5-4.1,3.11,3.11,0,0,0-3.3-1.9c-1.8.4-2.5,2.7-4.3,3.3-1.5.5-3.1-.6-3.8-2a9.91,9.91,0,0,1-.7-4.5v-5.2c0-1.9-.1-3.9-1.2-5.4-1.5-1.9-4.9-2.7-7.1-2.6a6.2,6.2,0,0,0-4.1,1.6,5.23,5.23,0,0,1-4.3,1.5,3.72,3.72,0,0,1-1.9-.9,4.52,4.52,0,0,1-1.1-1.7V97a21.6,21.6,0,0,1,6.6-5.8,22.35,22.35,0,0,1,8.3-2.6,21.41,21.41,0,0,1,8.7.9,20.76,20.76,0,0,1,7.6,4.4,22.06,22.06,0,0,1,5.2,7,21,21,0,0,1,1.9,8.5,21.29,21.29,0,0,1-1.7,8.6,19.9,19.9,0,0,1-5,7.2A61.84,61.84,0,0,0,1291,119Z"/><path class="cls-22" d="M1261.71,99.1a3.72,3.72,0,0,1-1.9-.9,4.52,4.52,0,0,1-1.1-1.7c-.2-.7-.1-1.4-.3-2.1-.5-1.6-2.2-2.5-3.4-3.7-2.3-2.5-2.2-6.6-.5-9.6,1.3-2.4,3.9-4.4,6.7-4,1.7.3,3.2,1.5,4.9,1.6s3.2-.8,4.6-1.5a17.52,17.52,0,0,1,11.5-1,6.49,6.49,0,0,1,3.2,1.6c.6.8,1.2,1.6,1.7,2.4,1.9,2.5,5.4,3,8.5,3.5s6.6,1.8,7.6,4.8c.7,2,0,4.1-.4,6.2a2,2,0,0,0,.1,1.3c.5.8,1.7.5,2.6.6,1.8.4,2.2,2.6,2.3,4.4.1,2.1.1,4.1.2,6.2a6,6,0,0,1-.2,2.3,7.89,7.89,0,0,1-1.8,2.9l-6.9,8.3c-3.1,3.7-6.3,7.9-5.7,12.7-1.4.6-3.2-.6-3.6-2.1a9.38,9.38,0,0,1,.2-4.7,56.27,56.27,0,0,0,1.1-8.1,8.18,8.18,0,0,0-.5-4.1,3.11,3.11,0,0,0-3.3-1.9c-1.8.4-2.5,2.7-4.3,3.3-1.5.5-3.1-.6-3.8-2a9.91,9.91,0,0,1-.7-4.5v-5.2c0-1.9-.1-3.9-1.2-5.4-1.4-1.9-4.9-2.7-7.1-2.6a6.2,6.2,0,0,0-4.1,1.6C1264.71,98.6,1263.31,99.4,1261.71,99.1Z"/><path class="cls-10" d="M1266.51,164.6l6.5,26.8S1278.11,191.3,1266.51,164.6Z"/><path class="cls-10" d="M1288.81,160.1s-8.5,14-5.2,28.5l1.6.1C1285.11,188.7,1282.31,182,1288.81,160.1Z"/><path class="cls-10" d="M1294.11,239.3s10.5-3.5,11.3,4.6C1305.41,243.9,1303.41,238.4,1294.11,239.3Z"/><path class="cls-10" d="M1263.91,193s-2.1,14.6,1.7,20.4a46.06,46.06,0,0,1-18.3,2.5L1246,193Z"/><path class="cls-10" d="M1265.31,211.8l-1,.6-6.5-14.6,6-5.4h.3C1264.11,193.1,1262.41,205.6,1265.31,211.8Z"/><path class="cls-11" d="M1263.91,192.4s-2.1,14.6,1.7,20.4a46.06,46.06,0,0,1-18.3,2.5l-7.3-22.9Z"/><path class="cls-15" d="M1245.81,435.9a5.17,5.17,0,0,1-1.3,2.8,5.41,5.41,0,0,1-2.7,1.4c-5.7.8-19.3,3-22.7,4.6-4.4,2.1-21.7.6-22.5-1.5a2.88,2.88,0,0,1-.1-1.3,4.23,4.23,0,0,1,.4-1.2,6.78,6.78,0,0,1,2.8-3c.4-.2.8-.4,1.3-.6,3.3-1.1,9.4-3.4,11.1-5.8,0,0,7.7-6.7,9.9-10.3a5.81,5.81,0,0,1,1.7-1.8,4.76,4.76,0,0,1,2.3-.7c1.8-.1,3.9.8,4.7,4.8,0,0,10,5.7,12.7.7,0,0,.4,7.7,2.1,9.8a3.13,3.13,0,0,1,.5,1C1245.91,435.1,1245.91,435.5,1245.81,435.9Z"/><path class="cls-10" d="M1245.81,435.9a5.17,5.17,0,0,1-1.3,2.8,5.41,5.41,0,0,1-2.7,1.4c-5.7.8-19.3,3-22.7,4.6-4.4,2.1-21.7.6-22.5-1.5a2.88,2.88,0,0,1-.1-1.3,4.23,4.23,0,0,1,.4-1.2,6.78,6.78,0,0,1,2.8-3c2.8,1.9,9.1,3.7,22.8,1.6,13.1-2.1,19.6-4.1,22.8-5.4a3.13,3.13,0,0,1,.5,1A1.67,1.67,0,0,1,1245.81,435.9Z"/><g class="cls-17"><path class="cls-10" d="M1302.71,95v-.1a19.54,19.54,0,0,0,.6-4.7,25,25,0,0,1-.6,3.8A1.7,1.7,0,0,0,1302.71,95Z"/><path class="cls-10" d="M1290.51,114.5a6.87,6.87,0,0,1,.5,2.4,7.39,7.39,0,0,0-.5-3.3,3.11,3.11,0,0,0-3.3-1.9c-1.8.4-2.5,2.7-4.3,3.3-1.5.5-3.1-.6-3.8-2a9.91,9.91,0,0,1-.7-4.5v-5.2c0-1.9-.1-3.9-1.2-5.4-1.5-1.9-4.9-2.7-7.1-2.6a6.2,6.2,0,0,0-4.1,1.6,5.23,5.23,0,0,1-4.3,1.5,3.72,3.72,0,0,1-1.9-.9,4.52,4.52,0,0,1-1.1-1.7c-.2-.7-.1-1.4-.3-2.1-.5-1.6-2.2-2.5-3.4-3.7a7.2,7.2,0,0,1-1.8-4.4,7.19,7.19,0,0,0,.3,2.9,7.68,7.68,0,0,0,1.4,2.5c1.2,1.3,2.9,2.1,3.4,3.7a13.27,13.27,0,0,1,.3,2.1,3.77,3.77,0,0,0,3,2.6,5.23,5.23,0,0,0,4.3-1.5,6.2,6.2,0,0,1,4.1-1.6c2.3-.1,5.7.7,7.1,2.6,1.2,1.5,1.2,3.5,1.2,5.4v5.2a9.7,9.7,0,0,0,.7,4.5,3.49,3.49,0,0,0,3.8,2c1.7-.6,2.5-2.9,4.3-3.3A3,3,0,0,1,1290.51,114.5Z"/><path class="cls-10" d="M1307.71,108.7a8.8,8.8,0,0,1-1.8,2.9l-6.9,8.3c-2.9,3.5-6,7.5-5.7,12,.2-4.1,3-7.8,5.7-11l6.9-8.3a7.89,7.89,0,0,0,1.8-2.9,9,9,0,0,0,.2-2.3C1307.81,107.9,1307.81,108.3,1307.71,108.7Z"/><path class="cls-10" d="M1289.71,130.4a4.25,4.25,0,0,1-.2-1.1,5,5,0,0,0,.2,2.1c.5,1.5,2.2,2.8,3.6,2.1,0-.3-.1-.6-.1-.9C1291.81,133.2,1290.21,131.9,1289.71,130.4Z"/></g><path class="cls-10" d="M1220.51,422.9s2.2,3.8,10.1.5Z"/><path class="cls-10" d="M1287.21,423.8s6.8,8,15.4,2.6Z"/><path class="cls-10" d="M1307,328.9s-4.8,3-5,4.7,2.5-1.3,2.5-1.3Z"/><path class="cls-10" d="M1308.91,352a10.11,10.11,0,0,1-5.9,2.3c-3.6.2-3.3,4.8-.9,3.4A61.66,61.66,0,0,0,1308.91,352Z"/><path class="cls-10" d="M1309.81,355s-2.3,11.3-4.2,9.2Z"/><path class="cls-23" d="M104.81,437.6s14.5,4,21.4-1.3,10-3.6,10-3.6,16.6-.9,18-4.8-6.4-18.2-6.4-18.2c-.6-1.3-1.4-2.9-1.7-2.9l.1-6,2.4-25.2c5.6-14.3.1-32.7.1-32.7l-1-4.6a11.65,11.65,0,0,1,.9-7.6l10.1-20.3a34.92,34.92,0,0,1,1.9-3.9c.6-1.2,1.5-2.6,2.5-4.3a13,13,0,0,1,1-1.5c1.2-1.9,2.7-4.1,4.5-6.5,4.5-6.2,6.8-13.9,8-19.7l.5,1.8h.8l3.1,39.5c.2,15.4,5.8,23.9,5.8,23.9l-.8,34c1.1,8.2-1.3,19.1-2.3,23.5l-2.4,5.5a6.11,6.11,0,0,0-2.4,2.1,7.89,7.89,0,0,0-1.2,3c-.5,4.1-4.8,12.9-4.8,12.9-1.7,2.1-5.3,7.8-5.3,7.8s-1.7,5.5-.6,7.5,9.8,1.8,9.8,1.8c10,2.2,17.7-3.2,17.3-6.9s1.6-4.7,1.6-4.7c4-1.3,3.6-4,3.6-4a24.73,24.73,0,0,0-3-16.2l-.6,1.5a20.89,20.89,0,0,1,1.2-8.6l-.4.3-.1.1c.6-5.6,6.5-15.8,6.5-15.8,10.7-18.8,6.8-44.3,6.8-44.3l-1.7-7.9-.1-3a102.4,102.4,0,0,1,1.6-21.4c.6-3.1,1.2-6.9,1.6-11,1-8.8,4.1-17.8,5.5-21.7l.4-.1h.1l1.8-.3h.1s.3-1.9.6-5c.2-2,.3-4.6.3-7.5a86.13,86.13,0,0,0-4-26.1l.3-.5s.8-1,2.2-2.8c2.6-3.3,6.6-8.2,11.5-13.8,8.8-10.1,6.2-20.3,6.2-20.3s-6.4-23.5-9.2-37.5a42.9,42.9,0,0,0-7-16.7,38.36,38.36,0,0,0,.9-6.8c.2-4.2,0-8.5-1.8-12.3s-5.9-6.7-10-6.2a5.44,5.44,0,0,1-1.8,0,2.94,2.94,0,0,1-1.2-1c-2.4-3.4-2.6-7.9-1.8-12s2.3-8,3-12.1.4-8.6-2.2-11.9c-3.1-3.8-8.4-4.9-12.4-7.7-2.8-2-4.9-4.9-7.8-6.7s-5.7-1.1-8.9-.4c-5.4,1.1-10.5,1.7-15.6,4a40.41,40.41,0,0,0-13.6,9.9,11.5,11.5,0,0,0-3,4.8c-1.3,4.2,1.2,8.7.7,13-.4,3.1-2.2,5.7-3.6,8.5s-2.5,6-1.4,8.9c1.8,4.5,7.6,5.4,11.8,7.8a4.07,4.07,0,0,1,1.4,1.2c1,1.8-1.1,3.7-2.4,5.3a7.45,7.45,0,0,0-1.6,3.2,11.21,11.21,0,0,0-4.5,3.3,12.21,12.21,0,0,0-2.4,5c-1.4,6.4.8,14.4,2.7,19.8-2.1,11.9.6,16.5,2.7,18.3a10.29,10.29,0,0,1,3.5,6.9v.2c.1,2.2.4,4.3.7,6.4-.1-.5-.1-1-.2-1.3-1.7,3.1-4.8,10.9-6.6,24a82.76,82.76,0,0,1-1.6,8.4,44.49,44.49,0,0,0-1.3,15l.3,4.3a1.61,1.61,0,0,1-.9-.3l2.2,4.1v6.9a25.76,25.76,0,0,1-1.7,9.1c-.2.4-.3.8-.5,1.3a6.82,6.82,0,0,0-.7,3.7c-4.8,7.3-15.7,48.4-15.7,48.4-5.9,13.5.5,22.2.5,22.2s3.1,37.5,3.7,39.5,1.9,24.8,1.9,24.8v1.8a2,2,0,0,0-1.1-.3c-5.2-.3-6.6,7.9-6.6,7.9l-10.7,10.2s-4.9-.8-12,4.6S104.81,437.6,104.81,437.6Zm106.6-216.8v-.1l-.3.2-.1.1h-.1L206,203.6a30.1,30.1,0,0,1-.4-14.3l3.8-16.7v-4l12.1,32.2C222.31,205.2,215.11,215.7,211.41,220.8Z"/><path class="cls-24" d="M216.71,273.2s-4.9,11.9-6.1,23.3c-.5,4.1-1,7.8-1.6,10.9a99.57,99.57,0,0,0-1.6,21.1l.1,3,1.6,7.8s3.8,25.2-6.7,43.7c0,0-6.2,11.1-6.4,16.4l-4.2,1.6-8.5-2.4s4.1-14.8,2.8-25.1l.8-33.6s-5.5-8.4-5.7-23.6l-3.3-41.8Z"/><path class="cls-24" d="M177.81,267.2s-1,16.3-9.1,27.5-9.8,16.1-9.8,16.1l-9.9,20a11.43,11.43,0,0,0-.9,7.5l1,4.5s5.4,18.2-.1,32.3l-2.6,27.2h-15.1s-1.3-22.6-1.8-24.5-3.6-39-3.6-39-6.3-8.6-.5-21.9c0,0,13.2-49.8,16.7-48.9S177.81,267.2,177.81,267.2Z"/><g class="cls-17"><path class="cls-10" d="M147.61,342.9l-1-4.5a11.43,11.43,0,0,1,.9-7.5l9.9-20.1s1.7-4.9,9.8-16.1c7.7-10.8,9-26.2,9.1-27.4l1.5-.1s-1,16.3-9.1,27.5-9.8,16.1-9.8,16.1l-9.9,20a11.43,11.43,0,0,0-.9,7.5l1,4.5s5.4,18.2-.1,32.3l-2.6,27.2h-1.5l2.6-27.2C152.91,361.1,147.61,342.9,147.61,342.9Z"/></g><path class="cls-10" d="M194.51,399.4c.2-5.3,6.4-16.4,6.4-16.4,10.5-18.6,6.7-43.7,6.7-43.7l-1.6-7.9-.1-3a99.57,99.57,0,0,1,1.6-21.1c.6-3.1,1.1-6.8,1.6-10.9,1.2-11,5.8-22.4,6.1-23.2l1.6-.1s-4.9,11.9-6.1,23.3c-.5,4.1-1,7.8-1.6,10.9a99.57,99.57,0,0,0-1.6,21.1l.1,3,1.6,7.8s3.8,25.2-6.7,43.7c0,0-6.2,11.1-6.4,16.4l-4.2,1.6-.9-.2Z"/><path class="cls-25" d="M189.61,399.2a7.36,7.36,0,0,0,3.6.5,8.3,8.3,0,0,0,3.4-1.3A22.57,22.57,0,0,0,196,411c1.7,6.9-16.1-5.6-16.1-5.6l3.8-8.7S185.21,399.5,189.61,399.2Z"/><path class="cls-10" d="M190.91,399.6a7.57,7.57,0,0,0,3,0,6.6,6.6,0,0,0,2.7-1.2A22.57,22.57,0,0,0,196,411c1.7,6.9-16.1-5.6-16.1-5.6l3.8-8.7a5.34,5.34,0,0,0,4.3,2.4C189,399.3,190,399.4,190.91,399.6Z"/><path class="cls-24" d="M149.21,238.1h7.4V195.9l-5.6-1Z"/><path class="cls-21" d="M149.21,238.1h7.4V195.9l-5.6-1Z"/><path class="cls-26" d="M185.41,402.5s4.7-.3,6.8,3.9l2.6,2,1.3-3a24.72,24.72,0,0,1,2.9,16s.4,2.7-3.5,3.9c0,0-2,1-1.5,4.6s-7.1,9-16.9,6.8c0,0-8.6.2-9.7-1.8s.7-7.4.7-7.4,3.5-5.6,5.2-7.7c0,0,4.2-8.7,4.7-12.7C178.31,403.2,182.91,400.3,185.41,402.5Z"/><path class="cls-25" d="M146.61,406l.1-6s-8.6,2.5-15.5-.3c0,0,.6,6-.4,6.8S134,415,134,415l4.7,4.9,8-2.9,2.2-6.8C148.81,410.2,147.11,406,146.61,406Z"/><path class="cls-10" d="M146.61,406l.1-6s-8.6,2.5-15.5-.3c0,0,.6,6-.4,6.8S134,415,134,415l4.7,4.9,8-2.9,2.2-6.8C148.81,410.2,147.11,406,146.61,406Z"/><path class="cls-26" d="M130.21,403.8s4.5.5,4,6.3.2,0,.2,0,4.8,2,6.6,4.7,4.8-2.4,5.1-3.9,2.2-2.1,2.2-2.1,7.6,14.1,6.3,18-17.7,4.8-17.7,4.8-3-1.7-9.8,3.5-21.1,1.3-21.1,1.3-11.6-4.8-4.5-10.1,11.8-4.5,11.8-4.5l10.5-10.1C123.71,411.7,125.11,403.6,130.21,403.8Z"/><path class="cls-27" d="M184.61,70.4c2.9,1.8,5,4.6,7.7,6.6,3.9,2.8,9.1,3.9,12.1,7.6,2.5,3.2,2.9,7.7,2.2,11.7s-2.2,7.9-3,11.9-.6,8.5,1.8,11.8a2.94,2.94,0,0,0,1.2,1,5.44,5.44,0,0,0,1.8,0c4.1-.5,8,2.4,9.9,6.1s2,8,1.8,12.1c-.2,3.4-.5,6.8-2,9.9-2.5,5.2-7.8,8.4-13,10.8a94.15,94.15,0,0,1-10.4,4.2c-2.4.8-5,1.6-7.5,1.1-4.3-.7-7.4-4.7-11.5-6.2-3.4-1.3-7.1-.8-10.7-.5-3.1.3-6.5.3-8.6-2-2.7-2.9-1.5-7.5-.1-11.2a8.38,8.38,0,0,1-4.1-1.4,7.91,7.91,0,0,1-2.7-3.3,7.82,7.82,0,0,1-.6-4.3,7.68,7.68,0,0,1,1.7-3.9c1.3-1.6,3.4-3.4,2.4-5.2a3.33,3.33,0,0,0-1.4-1.2c-4.1-2.4-9.8-3.3-11.5-7.7-1.1-2.8,0-6.1,1.4-8.8s3.2-5.4,3.6-8.4c.5-4.3-1.9-8.7-.7-12.8a11.16,11.16,0,0,1,3-4.7,42.92,42.92,0,0,1,13.3-9.8c5-2.3,10-2.8,15.3-3.9C179,69.3,181.61,68.6,184.61,70.4Z"/><path class="cls-24" d="M156.61,134.2s-12.1-.6-14.4,9.7,5,25.1,5,25.1Z"/><path class="cls-21" d="M156.61,134.2s-12.1-.6-14.4,9.7,5,25.1,5,25.1Z"/><path class="cls-24" d="M148.91,165l4.6,3.6,21.4,1,13.4-9.2,13.6-23.4A16.72,16.72,0,0,1,189,123.7a29.57,29.57,0,0,1-.3-11.1s-21.8-11.3-19.1,6.3a24.35,24.35,0,0,1,.2,6.6c-1.3,10.3-11.3,8.4-11.3,8.4l-3.8,5.9-4.4,14.6Z"/><path class="cls-10" d="M169.61,119a24.35,24.35,0,0,1,.2,6.6,19.61,19.61,0,0,0,9.8,1.7,18.94,18.94,0,0,0,9.4-3.5,29.57,29.57,0,0,1-.3-11.1S166.91,101.4,169.61,119Z"/><path class="cls-24" d="M177.81,126.5a19.3,19.3,0,1,0-19.3-19.3A19.31,19.31,0,0,0,177.81,126.5Z"/><path class="cls-11" d="M164.21,161.3c.5,0,.9.1,1.4.1,2.5.3,13.1.8,19.2-6.4,6.7-8.1,15.7-18,16.1-18.4l9.1,2.8s-7.2-2.6-12,10.9a13.28,13.28,0,0,0-.3,8.8,13.56,13.56,0,0,0,5,7.2,13.28,13.28,0,0,0,6,2.5v5.9L205,191.2a28.06,28.06,0,0,0,.4,14.1l5.7,20.2c-.9.6-36.2,24.7-59.9,8,.1-.7,3-24.4,1-36-.5-3-.9-6-1.1-9v-.2a9.86,9.86,0,0,0-3.5-6.8c-2.1-1.9-5-7-2.2-20.4a47.94,47.94,0,0,1,3.2-9.7l7.9-17.9,7.3.1v.1c-.6.8-9.1,11.4-10,18.2C152.81,158.5,151.71,160.5,164.21,161.3Z"/><path class="cls-24" d="M216.11,142.5s7.1,6.1,10,20,9.1,37,9.1,37,2.5,10.1-6.1,20-14.4,17.8-14.4,17.8l-5.7,8.4a7.12,7.12,0,0,1-4.1,2.9c-2.6.7-6.6,1.2-10-.7a5.7,5.7,0,0,1-2.7-3.2,6.06,6.06,0,0,1,.1-4.2l1.3-2.9s-11.7,7.4-12.8,3.3,13.7-8.2,13.7-8.2,12.1-2,14.6-7.8c0,0,13-16.7,12-22.5l-12.6-33.7s-15.7-2.1-10.4-19.7S216.11,142.5,216.11,142.5Z"/><path class="cls-8" d="M140.91,269.7s28.7,5.7,35.5,5l.7,2.4s10.9,2.4,35.5-1.5c1.6-.3,3.3-.5,5-.9l.6-.1s.3-1.8.6-4.9c.6-7.1.8-20.8-4.2-34.8l-4.1-12.8s-25.6,15.4-42.6,13.9l-4.5-.3c-3.5-.1-8.9,0-12.4-2.8l-7.3,1.3v20.9a25.22,25.22,0,0,1-1.7,9c-.2.4-.3.8-.5,1.3A7.82,7.82,0,0,0,140.91,269.7Z"/><path class="cls-10" d="M177.11,270.6v6.5s12.5,2.8,41.1-2.4c0,0,.3-1.8.6-4.9C210.11,271.1,185.91,274.5,177.11,270.6Z"/><path class="cls-10" d="M140.91,269.7s28.7,5.7,35.5,5l.7,2.4v-6.5c-3.3,1.4-26.6-4.3-35.1-6.4-.2.4-.3.8-.5,1.3A7.47,7.47,0,0,0,140.91,269.7Z"/><path class="cls-8" d="M210.51,262.4l2.1,13.2c1.6-.3,3.3-.5,5-.9-.7-3.9-2.1-12.7-1.7-14.1l-2.7-2.3Z"/><path class="cls-10" d="M210.81,262.1l2.1,13.2c1.6-.3,3.3-.5,5-.9-.7-3.9-2.1-12.7-1.7-14.1l-2.7-2.3Z"/><g class="cls-28"><path class="cls-21" d="M166.51,236.1l-4.5-.3c-3.4-.1-8.5,0-12.1-2.6l1.2-.2c3.5,2.8,8.9,2.7,12.4,2.8l4.5.3c.5,0,1,.1,1.5.1C168.51,236.2,167.51,236.2,166.51,236.1Z"/><path class="cls-21" d="M211.11,275.6c1.6-.3,3.3-.5,5-.8l.6-.1s.3-1.8.6-4.9c.6-7.1.8-20.8-4.2-34.8l-3.9-12a9.21,9.21,0,0,1,1.3-.7l4.1,12.8c5,14,4.8,27.7,4.2,34.8-.3,3.1-.6,4.9-.6,4.9l-.6.1c-1.7.3-3.4.6-5,.8a154.38,154.38,0,0,1-25.8,2.2A178.49,178.49,0,0,0,211.11,275.6Z"/><path class="cls-21" d="M174.91,274.6l-.8.1A2.2,2.2,0,0,0,174.91,274.6Z"/></g><path class="cls-25" d="M214.11,264.9c.6,0,1.1-1,1.1-2.2s-.5-2.2-1.1-2.2-1.1,1-1.1,2.2S213.51,264.9,214.11,264.9Z"/><path class="cls-24" d="M145,217.5c1.7-13,4.8-20.7,6.5-23.7.1.4.2,1.7.3,2.2.3,1.9,0,4.3.1,6.7l-1.6,29.4,2.2,9.2c2,7.3-5.5,1.5-5.5,1.5-1.6,3.4-4.4,3.1-4.4,3.1l-.4-5.3a46,46,0,0,1,1.3-14.8C144.11,223,144.61,220.2,145,217.5Z"/><path class="cls-21" d="M145,217.5c1.7-13,4.8-20.7,6.5-23.7.1.4.2,1.7.3,2.2.3,1.9,0,4.3.1,6.7l-1.6,29.4,2.2,9.2c2,7.3-5.5,1.5-5.5,1.5-1.6,3.4-4.4,3.1-4.4,3.1l-.4-5.3a46,46,0,0,1,1.3-14.8C144.11,223,144.61,220.2,145,217.5Z"/><path class="cls-24" d="M217.71,233.3c-1.4,1.8-2.1,2.8-2.1,2.8l-5.7,8.4a7.12,7.12,0,0,1-4.1,2.9c-2.6.7-6.6,1.2-10-.7a5.7,5.7,0,0,1-2.7-3.2,6.06,6.06,0,0,1,.1-4.2l1.3-2.9s-11.7,7.4-12.8,3.3,13.7-8.2,13.7-8.2,12.1-2,14.6-7.8c0,0,1.1-1.4,2.5-3.4"/><path class="cls-8" d="M210.51,247.4s-13.9-1.4-18.3-9.3l-2,6.6s14.6,10.1,17.9,8.8Z"/><path class="cls-10" d="M210.11,247.3s-13.9-1.3-18.3-9.3l-2,6.5s14.6,10.1,17.9,8.8Z"/><path class="cls-8" d="M147.41,243.7s-4.9,1.7-5.8.8l2.2,4,4.1-3.2Z"/><path class="cls-10" d="M147.41,243.7s-4.9,1.7-5.8.8l2.2,4,4.1-3.2Z"/><path class="cls-10" d="M177.11,270.6v-8.4l-2,8.6Z"/><path class="cls-10" d="M196.81,97a7.4,7.4,0,0,1-5.2,2.7,41.39,41.39,0,0,1-6.1,0c-3.2-.1-6.5.4-9.1,2.3a24.93,24.93,0,0,0-4.2,4.4c-3.9,4.8-9.4,9.3-15.5,8.8a4.53,4.53,0,0,1-1.6-.3,3.81,3.81,0,0,1-1.3-.9,4.1,4.1,0,0,1-.7-2.6,58.27,58.27,0,0,1,.4-11.8,22.5,22.5,0,0,1,1.8-7.1,24,24,0,0,1,4.3-6.1,25.8,25.8,0,0,1,7.5-6,13.34,13.34,0,0,1,9.4-1.2c3.7,1,6.6,3.9,10.1,5.4C190.61,86.2,201.21,90.8,196.81,97Z"/><path class="cls-27" d="M196.81,96.2a7.4,7.4,0,0,1-5.2,2.7,41.39,41.39,0,0,1-6.1,0c-3.2-.1-6.5.4-9.1,2.3a24.93,24.93,0,0,0-4.2,4.4c-3.9,4.8-9.4,9.3-15.5,8.8a4.53,4.53,0,0,1-1.6-.3,3.81,3.81,0,0,1-1.3-.9,4.1,4.1,0,0,1-.7-2.6,58.27,58.27,0,0,1,.4-11.8,22.5,22.5,0,0,1,1.8-7.1,24,24,0,0,1,4.3-6.1,24.25,24.25,0,0,1,7.5-6,13.34,13.34,0,0,1,9.4-1.2c3.7,1,6.6,3.9,10.1,5.4C190.61,85.5,201.21,90,196.81,96.2Z"/><path class="cls-24" d="M151.11,233l-.1,2.3-.5-2.2Z"/><path class="cls-21" d="M151.11,233l-.1,2.3-.5-2.2Z"/><g class="cls-28"><path class="cls-21" d="M199.91,147.9c-5.4,17.7,10.3,19.7,10.3,19.7l12.6,33.7c1,5.7-12,22.5-12,22.5-.9,2.1-3.2,3.8-5.6,5a9.06,9.06,0,0,0,3.3-3.7s13-16.7,12-22.5l-12.6-33.7s-15.6-2.1-10.3-19.7c1.8-5.9,4.4-8.6,7.1-9.6C202.91,141.1,201.21,143.6,199.91,147.9Z"/></g><g class="cls-17"><path class="cls-10" d="M200.21,163.9a14.21,14.21,0,0,0,2.5,2.4,13.28,13.28,0,0,0,6,2.5v.6a13.19,13.19,0,0,1-5.4-2.4A13,13,0,0,1,200.21,163.9Z"/><path class="cls-10" d="M151.61,189.2v.2c.2,3,.6,6,1.1,9,1.9,10.9-.6,32.6-.9,35.6-.2-.1-.4-.3-.6-.4.1-.7,3-24.4,1-36-.5-3-.9-6-1.1-9v-.2a9.29,9.29,0,0,0-1.7-4.8A10.23,10.23,0,0,1,151.61,189.2Z"/><path class="cls-10" d="M163.31,134.5l-6.2-.1-7.9,17.9A52.51,52.51,0,0,0,146,162c-2.3,10.8-.9,16.2.9,18.9-2-2.3-4-7.7-1.5-19.7a54.78,54.78,0,0,1,3.1-9.7l8-17.9,7.3.1C163.71,133.9,163.51,134.1,163.31,134.5Z"/><path class="cls-10" d="M207.71,139.2l-6.2-1.9c-.4.4-9.3,10.4-16.1,18.4-6,7.2-16.6,6.6-19.2,6.4a6.6,6.6,0,0,0-1.4-.1c-6.9-.4-9.6-1.3-10.6-3,1.3,1.3,4.2,1.9,10,2.3.5,0,.9.1,1.4.1,2.5.3,13.1.8,19.2-6.4,6.7-8.1,15.7-18,16.1-18.4l9,2.7A8.13,8.13,0,0,0,207.71,139.2Z"/></g><path class="cls-10" d="M134.21,413.1s-8.7,2.4-10.4-1.4Z"/><path class="cls-10" d="M189.71,411.3s-10.1,2.6-12.5-1.4Z"/><path class="cls-11" d="M40.91,395.9c14.1,0,25.5-1.9,25.5-4.3s-11.4-4.3-25.5-4.3-25.5,1.9-25.5,4.3S26.91,395.9,40.91,395.9Z"/><path class="cls-11" d="M30.41,384.5a6.68,6.68,0,0,1-2.4-3.7,3.18,3.18,0,0,1,1.7-3.7c1.6-.6,3.2.5,4.5,1.6s2.7,2.3,4.4,2.1a6.13,6.13,0,0,1-1.8-2.8,6.57,6.57,0,0,1-.2-3.4,3.1,3.1,0,0,1,.6-1.3c.9-.9,2.4-.5,3.5.2,3.3,2.3,4.2,6.8,4.2,10.8a21.74,21.74,0,0,0,.1-4.4c0-1.5.4-3.2,1.7-3.9a5.42,5.42,0,0,1,2.5-.6,5,5,0,0,1,4.1,1.2c1.3,1.3.9,3.6-.2,5.1s-2.8,2.4-4.3,3.4a9.53,9.53,0,0,0-3.1,2.9c-.1.2-.2.3-.2.5h-9.3A26,26,0,0,1,30.41,384.5Z"/><path class="cls-5" d="M1377.81,416.2c9.4,0,17.1-1.3,17.1-2.9s-7.6-2.9-17.1-2.9-17.1,1.3-17.1,2.9S1368.31,416.2,1377.81,416.2Z"/><path class="cls-29" d="M1366.31,399.9s9.7-.3,12.7-2.4,15-4.6,15.7-1.2,14.6,16.7,3.6,16.8-25.5-1.7-28.5-3.5S1366.31,399.9,1366.31,399.9Z"/><path class="cls-30" d="M1398.51,411.8c-11,.1-25.5-1.7-28.5-3.5-2.2-1.4-3.1-6.2-3.4-8.5h-.3s.6,7.9,3.5,9.6,17.5,3.6,28.5,3.5c3.2,0,4.3-1.2,4.2-2.8C1402.11,411.2,1400.91,411.8,1398.51,411.8Z"/></g></g></svg>