<svg xmlns="http://www.w3.org/2000/svg" xmlns:xlink="http://www.w3.org/1999/xlink" viewBox="0 0 584 549"><defs><style>.cls-1{fill:none;}.cls-2{clip-path:url(#clip-path);}.cls-3{fill:url(#linear-gradient);}.cls-4{clip-path:url(#clip-path-2);}.cls-5{fill:#5cd894;}.cls-6{fill:#d0cde1;}.cls-7{fill:#a0616a;}.cls-8,.cls-9{fill:#1c1c1c;}.cls-9{opacity:0.15;isolation:isolate;}.cls-10{fill:#05386b;}</style><clipPath id="clip-path"><rect class="cls-1" x="25" y="19.4" width="534" height="421"/></clipPath><linearGradient id="linear-gradient" x1="-420.27" y1="-1011.13" x2="-72.62" y2="-1375.95" gradientTransform="matrix(1, 0, 0, -1, 539.01, -979.6)" gradientUnits="userSpaceOnUse"><stop offset="0" stop-color="#062a4e"/><stop offset="1" stop-color="#05386b"/></linearGradient><clipPath id="clip-path-2"><rect class="cls-1" x="38" y="106.4" width="508" height="424"/></clipPath></defs><title>setup_password</title><g id="Layer_2" data-name="Layer 2"><g class="cls-2"><path class="cls-3" d="M80.24,295.6C45,277,25,235.24,25,197.74c0-58.86,49.47-110.27,95.61-114.9,45.51-4.58,59.09,39.22,103,35.1,59.82-5.57,64.87-89.37,123.28-97.86,56.75-8.23,133.73,59,139.2,120.21,2.13,24.11-6.66,48.91,5.3,56.41,14.36,9,37-20.42,52.07-13.86C566.8,193,568.05,289.56,518,356.23c-53.58,71.36-164,106.2-211.44,69.17-42.35-33.07-7.7-102.45-51-131.93C208.1,261.18,144.17,329.56,80.24,295.6Z"/></g><g class="cls-4"><path class="cls-5" d="M517.9,242c0,17.64-4.17,32.17-11.42,44.61a89.44,89.44,0,0,1-8.12,11.67c-26.64,32.6-76.16,50.44-120.92,79.35C245.31,463,231,326.27,237,242c2.4-34,15.63-65.13,36.65-89a139,139,0,0,1,14.27-14c23.85-20.34,54.68-32.64,89.55-32.64,59.82,0,110.9,36.1,131.16,87A131.57,131.57,0,0,1,517.9,242Z"/><path class="cls-6" d="M407.36,137l-133.74,16.1a139,139,0,0,1,14.27-14Z"/><path class="cls-6" d="M506.48,286.65a89.44,89.44,0,0,1-8.12,11.67L383.8,284.53Z"/><path class="cls-6" d="M513.27,207.37l-194.16-25.2L508.6,193.38a129.65,129.65,0,0,1,4.67,14Z"/><path class="cls-5" d="M250.14,142.53c0,.35,0,.69,0,1a14,14,0,0,1-6,10.5,13.93,13.93,0,0,1-5.73,2.34,14,14,0,0,1-11.6-3.33A14.07,14.07,0,0,1,223.68,136a13.5,13.5,0,0,1,1-1.66,14,14,0,0,1,25.38,7.08C250.12,141.76,250.14,142.14,250.14,142.53Z"/><path class="cls-6" d="M250.14,142.53c0,.35,0,.69,0,1l-21-2.53,21,.37C250.12,141.76,250.14,142.14,250.14,142.53Z"/><path class="cls-6" d="M245.12,149.61,225.68,152a13.67,13.67,0,0,1-1.49-2Z"/><path class="cls-6" d="M239.61,134.05,223.68,136a13.5,13.5,0,0,1,1-1.66Z"/><path class="cls-5" d="M442.57,395.49c-.17.31-.34.6-.52.88A14,14,0,0,1,420.42,399a14.09,14.09,0,0,1-4.25-11.31,14,14,0,0,1,6.1-10.42,13.58,13.58,0,0,1,1.69-1,14,14,0,0,1,19.1,18.16C442.91,394.8,442.75,395.15,442.57,395.49Z"/><path class="cls-6" d="M442.57,395.49c-.17.31-.34.6-.52.88l-17.38-12.09,18.39,10.18C442.91,394.8,442.75,395.15,442.57,395.49Z"/><path class="cls-6" d="M434.82,399.39l-18.28-7.05a15.42,15.42,0,0,1-.38-2.45Z"/><path class="cls-6" d="M437.23,383.06l-15-5.77a13.58,13.58,0,0,1,1.69-1Z"/><path class="cls-5" d="M542,153.29c.24.25.47.5.69.76a14,14,0,1,1-24.2,13,12.26,12.26,0,0,1-.42-1.91,14,14,0,0,1,23.1-12.66C541.47,152.75,541.74,153,542,153.29Z"/><path class="cls-6" d="M542,153.29c.24.25.47.5.69.76l-16.82,12.88,15.3-14.42C541.47,152.75,541.74,153,542,153.29Z"/><path class="cls-6" d="M543.36,161.86l-12.28,15.27a14.36,14.36,0,0,1-2.45-.38Z"/><path class="cls-6" d="M528.56,154.58l-10.06,12.5a12.26,12.26,0,0,1-.42-1.91Z"/><path class="cls-7" d="M278.59,412.21s30.82,1.29,30.82,9-34.67,0-34.67,0Z"/><path class="cls-8" d="M232.37,530.4l-57.77-3.85L172,495.71l-12.84,27L102.7,515c1.29-48.81,21.83-96.35,23.11-102.77s4.36-33,4.36-33c5.61-11.91,35-13,58.05-11.95,9.55.44,18,1.26,23.25,1.85,3.46.38,5.5.67,5.5.67,9.2,9.49,15.13,22.43,18.78,36.88C248.9,458.77,232.37,530.4,232.37,530.4Z"/><path class="cls-7" d="M168.18,232.36a32.12,32.12,0,1,0-32.1-32.12A32.11,32.11,0,0,0,168.18,232.36Z"/><path class="cls-7" d="M146.36,208s-9,39.82-23.11,51.39,55.2,0,55.2,0-15.41-25.7-3.85-37.26S146.36,208,146.36,208Z"/><path class="cls-6" d="M211.83,372.39l-21.3,2.36L131,381.38l-.78-2.13C125.84,367.44,105,310,102.7,292.74c-2.56-19.27,24.4-42.4,24.4-42.4s25.67-5.14,33.38-5.14S199,256.77,199,256.77l11.5,103.42,1,9Z"/><path class="cls-9" d="M235.75,406.7l-43.18-25.32s-.75-2.47-2-6.63c-.64-2.08-1.42-4.6-2.31-7.45-5-16-13.34-42.42-20-61.72C157.91,276,208,358.25,208,358.25l2.5,1.94,1,9c3.46.38,5.5.67,5.5.67C226.17,379.31,232.1,392.25,235.75,406.7Z"/><path class="cls-6" d="M178.45,259.34s-12.84,16.7-2.57,46.24,24.4,75.8,24.4,75.8l74.46,43.68L285,412.21l-69.33-54s-2.56-97.63-15.4-101.48S178.45,259.34,178.45,259.34Z"/><path class="cls-7" d="M114.9,371.74s18,37.26,25.68,33.41-19.26-42.4-19.26-42.4Z"/><path class="cls-6" d="M113,269.61l-68,56.53s-25.68,18,21.83,30.83,51.35,20.55,51.35,20.55,5.14-16.7,11.56-14.13l-55.21-27,44.93-27Z"/><path class="cls-8" d="M85.63,226.6c3.57-1.77,11.45-5.34,18.17-9.64-.47-14,1.25-26.71,6.3-33.45,2.83-6.43,8.77-12.86,13.43-17.94,11.43-12.45,36.71-19.4,41.19-13.18,33.91.67,37.48,27.27,37.48,27.27-.17,11.13-11.73,11.48-21.85,11.07.91,7.6-1.51,15.49-8.51,19-13.37,6.69-17.39,15.39-10.7,21.42s18.73,22.08,2.68,26.1-18.06,12.05-13.38,15.39-10.7-6-10.7-6-2.68,16.06-16.72,12.05a8.49,8.49,0,0,1-3.76-2.67c-3.79,4.18-7.17,6.64-9.72,6.66-14.61.07-12.86-16.12-12.86-16.12s-17.34,4.88-11.93,2.92S90.39,259.21,76,251,77.56,230.6,85.63,226.6Z"/><path class="cls-10" d="M264.85,268.57l-.23,0,.57,2.17a57.89,57.89,0,0,0,2.33,8.87l16.66,63.37a10.76,10.76,0,0,0,8.74,7.89l34,5.26A10.75,10.75,0,0,0,338,350.54l32.29-60.35a56.78,56.78,0,0,0,2.76-5.16l1.1-2-.17,0a57.1,57.1,0,1,0-109.14-14.39Z"/><path class="cls-6" d="M329,360.23a11.89,11.89,0,0,1-1.79-.14l-35.52-5.5a11.73,11.73,0,0,1-9.54-8.61l-17.42-66.24a60,60,0,0,1-2.44-9.32l-.44-2.89a60.19,60.19,0,0,1,68.89-67.17l-.15,1A59.22,59.22,0,0,0,262.92,268l.34,2.17a60,60,0,0,0,2.42,9.23l17.43,66.29a10.71,10.71,0,0,0,8.73,7.87l35.52,5.5a10.76,10.76,0,0,0,11.09-5.54l.88.47a11.75,11.75,0,0,1-10.34,6.2Z"/><path class="cls-6" d="M338,283l-21.61,59,1.22.44,21.61-59Z"/><path class="cls-6" d="M302.71,277.51l-1.29.06,2.75,62.81,1.3-.05Z"/><path class="cls-10" d="M326,390.26l-45.51-7a1.3,1.3,0,0,1,.39-2.57l45.51,7.05a1.2,1.2,0,0,1,.48.17,1.24,1.24,0,0,1,.38.34,1.28,1.28,0,0,1,.21.46,1.46,1.46,0,0,1,0,.51,1.4,1.4,0,0,1-.18.48,1.5,1.5,0,0,1-.34.37,1.33,1.33,0,0,1-.47.21,1.2,1.2,0,0,1-.5,0Z"/><path class="cls-10" d="M327.15,380.59l-45.51-7a1.4,1.4,0,0,1-.48-.18,1.19,1.19,0,0,1-.37-.34,1.3,1.3,0,0,1-.22-.46,1.25,1.25,0,0,1,0-.51,1.28,1.28,0,0,1,.18-.47,1.12,1.12,0,0,1,.34-.38,1.28,1.28,0,0,1,.46-.21,1.25,1.25,0,0,1,.51,0l45.51,7a1.2,1.2,0,0,1,.48.17,1.33,1.33,0,0,1,.37.34,1.15,1.15,0,0,1,.22.46,1.25,1.25,0,0,1,0,.51,1.23,1.23,0,0,1-.52.85,1.28,1.28,0,0,1-.46.21,1.25,1.25,0,0,1-.51,0Z"/><path class="cls-10" d="M328.32,370.92l-45.51-7a1.34,1.34,0,0,1-.84-.52,1.28,1.28,0,0,1-.24-1,1.31,1.31,0,0,1,1.48-1.09l45.51,7a1.34,1.34,0,0,1,.84.52,1.31,1.31,0,0,1-.28,1.81,1.26,1.26,0,0,1-1,.24Z"/><path class="cls-10" d="M301.82,395.89c9,1.4,17.12-2.5,18.08-8.72l-32.69-5.06C286.25,388.32,292.79,394.49,301.82,395.89Z"/><path class="cls-6" d="M318.18,270.53a8,8,0,0,1-4.43-2.86c-.29-.34-.57-.69-.86-1a10.06,10.06,0,0,0-3.34-3.12c-3-1.39-6.48.56-9.52,2.64l-.73-1.07c3.34-2.29,7.23-4.41,10.8-2.74a11.32,11.32,0,0,1,3.81,3.47c.27.35.54.68.82,1,.92,1.07,2.74,2.81,4.7,2.41a6.32,6.32,0,0,0,2.26-1.2,11.82,11.82,0,0,1,1.59-1,6.35,6.35,0,0,1,3.64-.57,6.45,6.45,0,0,1,3.34,1.55c.33.32.64.65.94,1a4.57,4.57,0,0,0,1.85,1.52c1.06.34,2.18-.26,3.37-.9a6.72,6.72,0,0,1,3.93-1.18l.14,0c2.55.4,3.73,3.22,4.4,5.33l-1.24.39c-.91-2.86-2-4.29-3.45-4.45a5.71,5.71,0,0,0-3.16,1c-1.37.74-2.8,1.51-4.38,1a5.59,5.59,0,0,1-2.43-1.9,10.38,10.38,0,0,0-.85-.9,5.11,5.11,0,0,0-5.52-.78,10.71,10.71,0,0,0-1.43.9,7.23,7.23,0,0,1-2.74,1.41A4.26,4.26,0,0,1,318.18,270.53Z"/></g></g></svg>