<svg xmlns="http://www.w3.org/2000/svg" xmlns:xlink="http://www.w3.org/1999/xlink" viewBox="0 0 584 343"><defs><style>.cls-1{fill:#edf5e0;opacity:0.5;}.cls-1,.cls-11,.cls-16,.cls-7{isolation:isolate;}.cls-2{fill:url(#linear-gradient);}.cls-3{fill:url(#linear-gradient-2);}.cls-4{fill:#be6f72;}.cls-5,.cls-7{fill:#1c1c1c;}.cls-6{fill:#389583;}.cls-11,.cls-16,.cls-7,.cls-9{opacity:0.1;}.cls-8{fill:#e3e8f4;}.cls-10{fill:#fed253;}.cls-11{fill:#fff;}.cls-12{fill:url(#linear-gradient-3);}.cls-13{fill:#fbbebe;}.cls-14{fill:#444053;}.cls-15{fill:#e8e8f0;}.cls-16,.cls-17{fill:#5cd894;}</style><linearGradient id="linear-gradient" x1="-53.9" y1="-1066.61" x2="-430.01" y2="-1330.69" gradientTransform="matrix(1, 0, 0, -1, 539.01, -979.6)" gradientUnits="userSpaceOnUse"><stop offset="0" stop-color="#042d57"/><stop offset="1" stop-color="#05386b"/></linearGradient><linearGradient id="linear-gradient-2" x1="-177.75" y1="-1238.23" x2="-177.75" y2="-1041.99" gradientTransform="matrix(1, 0, 0, -1, 539.01, -979.6)" gradientUnits="userSpaceOnUse"><stop offset="0" stop-color="gray" stop-opacity="0.25"/><stop offset="0.54" stop-color="gray" stop-opacity="0.12"/><stop offset="1" stop-color="gray" stop-opacity="0.1"/></linearGradient><linearGradient id="linear-gradient-3" x1="18876.77" y1="-1192.74" x2="42981.84" y2="-1192.74" xlink:href="#linear-gradient-2"/></defs><title>winner</title><g id="Layer_2" data-name="Layer 2"><path class="cls-1" d="M348.48,241.77c10.79-.61,24.17-7.92,34.57-11.16q18.48-5.73,37.09-11,64.83-18.42,131-31.41c4.12-.8,8.24-1.6,12.38-2.37a87.66,87.66,0,0,0-28.93-34.71,87.54,87.54,0,0,0,.49-9.16c0-48.35-38.66-87.55-86.38-87.55a85.13,85.13,0,0,0-41.92,11C373,43.19,329,29.75,280.73,29.75c-68.53,0-128.7,27.14-162.78,68l160.21,27.05,98.26,16.58C264.4,144.71,152,148,40.34,140.19A88.42,88.42,0,0,0,27.59,251.88c0,1.75.07,3.49.2,5.21,2.85.81,5.6,1.6,8.06,2.12q59.36,12.53,119.46,21c-29.53,18.2-65.49,20.78-99.56,28.48,16.5,13.61,38.9,21.95,63.59,21.95H486.89c39.8,0,72.06-27.69,72.06-61.85a87.87,87.87,0,0,0,11.71-32.13C497,243.73,422.45,237.56,348.48,241.77Z"/><path class="cls-2" d="M571.16,222.08a87.72,87.72,0,0,0-37.09-71.9,90.36,90.36,0,0,0,.49-9.16c0-48.35-38.69-87.53-86.38-87.53a85.08,85.08,0,0,0-41.93,11c-33.77-22.21-77.86-35.65-126.09-35.65-78.44,0-146,35.58-175.91,86.6-1.67-.1-3.34-.15-5-.15-47.7,0-86.38,39.19-86.38,87.55A87.91,87.91,0,0,0,27.05,251c0,43.5,41.09,78.77,91.75,78.77H486.36c39.8,0,72.06-27.69,72.06-61.85A87.92,87.92,0,0,0,571.16,222.08Z"/><path class="cls-3" d="M422.63,168.44a5.33,5.33,0,0,0-2.38-1.05c-.91-.21-1.84-.34-2.77-.48l-12-1.74a14.2,14.2,0,0,0-3.68-.19,4.71,4.71,0,0,0-3.21,1.66,2.51,2.51,0,0,0-.55,1.56,4.09,4.09,0,0,0,.54,1.62,4.87,4.87,0,0,1,.3.71c.12.56.26,1.1.43,1.64a1.26,1.26,0,0,0,.21.32v.08c-.14.68.29,1.38.1,2s-.71.89-1.05,1.35a2.06,2.06,0,0,0-.05,2.25c.37.57,1,1,1.22,1.6.25.85-.42,1.68-1,2.34a34.46,34.46,0,0,0-3.06,3.85,2.38,2.38,0,0,0-.49,1.14c-.05.85.76,1.6.62,2.44-.11.66-.76,1.07-1.32,1.46a8.22,8.22,0,0,0-3.9,6.05,21.18,21.18,0,0,0-4.73-10.73,7.72,7.72,0,0,1-1.75-2.75c-.11-.42-.13-.88-.27-1.29-.49-1.29-2-1.85-2.72-3-.49-.83-.49-1.91-1.1-2.65s-1.55-.9-2.07-1.61a9.65,9.65,0,0,1-.67-1.51,3.23,3.23,0,0,0-.9-1.08,1.88,1.88,0,0,0-.23-.16.73.73,0,0,0,.2-.26.85.85,0,0,0,.06-.31c0-.58-.56-.95-1.06-1.23s-1.25-.75-1.85-1.16a4.38,4.38,0,0,0,1.66-1.36,4.49,4.49,0,0,0,.63-2.93,3.7,3.7,0,0,0-.87-2.24c-.31-.32-.69-.56-1-.86a7.23,7.23,0,0,1-1.46-3.13A6.41,6.41,0,0,0,369.9,155c-.65-.38-1.4-.55-2-.95a1.77,1.77,0,0,1-.94-1.85c.15-.49.61-.83.91-1.24a2.48,2.48,0,0,0-.62-3.42c-.36-.23-.8-.43-.88-.85a1.55,1.55,0,0,1-1.13-1.2,4.58,4.58,0,0,1,0-1.73c.13-.91.25-1.81.38-2.71a1.82,1.82,0,0,0,1.35,0,12.94,12.94,0,0,0,1.47,1.91,19.36,19.36,0,0,1,3.42,5.92,3.53,3.53,0,0,0,1.28,2.07c.25.14.53.22.77.37a2.86,2.86,0,0,1,.77.78c.58.77,1.17,1.54,1.75,2.32l0,.12a.46.46,0,0,0,.08.19.64.64,0,0,0,.42.22c1.79.41,3.81.79,5.36-.19s2-2.61,3.21-3.77c.85-.83,2-1.47,2.28-2.63l-.84-.3c.25-.25.49-.53.82-.85a9.63,9.63,0,0,0,1.3-1.55,10.4,10.4,0,0,0,1-2.18q1.41-4,2.83-8c.45-1.26.9-2.54,1.46-3.78s1.28-2.62,1.92-3.93a52.43,52.43,0,0,0,3.8-10.68,4.06,4.06,0,0,0,.15-1.55,4.11,4.11,0,0,0-1.39-2.11,9.82,9.82,0,0,0-2.08-1.72,3.32,3.32,0,0,0-1.26-.47,3.19,3.19,0,0,0-1.34,0,3.73,3.73,0,0,0-2.32,2.92,30.15,30.15,0,0,0-.31,3.91c-.17,1.87-.82,3.69-1,5.57-.09,1.09,0,2.19-.14,3.28a12,12,0,0,1-1.46,4,26,26,0,0,1-6.31,7.77c-.3.25-.6.49-.9.76a4.64,4.64,0,0,1,.07-.64,4.13,4.13,0,0,0-.62.22,1.83,1.83,0,0,0-.08-.73c-.39-1.17-2.12-1.46-2.44-2.65a5.26,5.26,0,0,1-.08-.89c-.1-1-.81-1.91-1.05-2.92a13.21,13.21,0,0,0-.49-2.82,7.86,7.86,0,0,0-1.3-1.46,5.78,5.78,0,0,1-1.24-2.33c-.06-.23-.12-.48-.19-.72a3.27,3.27,0,0,0-.17-1.61c-.45-1.1-1.59-1.81-2-2.92-.32-.87-.18-2-.79-2.63a2.9,2.9,0,0,0-1.15-.7,26.12,26.12,0,0,0-7-1.64c-1.34-.12-2.81-.19-3.77-1.13-1.11-1.09-1.17-3.06-2.48-3.9a3,3,0,0,0-3.67.85,5.72,5.72,0,0,0-.37.49,5,5,0,0,1-.1-2c0-.17,0-.34,0-.49a9.75,9.75,0,0,0,5.29-4.17v0l.06.15c.14.35.37.69.7.73a1,1,0,0,0,.61-.22,5.35,5.35,0,0,0,.81-.7c.12-.13.24-.28.35-.42a5.33,5.33,0,0,0,.57-1,5.57,5.57,0,0,0,.49-1.63c.09-.57.1-1.15.2-1.71a11.88,11.88,0,0,1,.35-1.3c0-.14.1-.28.14-.42s.11-.33.16-.49a11.14,11.14,0,0,0,.49-3.09v-.53a5.24,5.24,0,0,0-.45-2,5.39,5.39,0,0,0-1.19-1.65c-.84-.69-1.95-1-2.57-1.91a8.85,8.85,0,0,1-.72-2.16A4.87,4.87,0,0,0,354.31,83a4.28,4.28,0,0,0-3,.84l-.07,0A5,5,0,0,0,350,85.21a4.11,4.11,0,0,1-1.72-1c-.49-.45-.86-1-1.36-1.46a3.47,3.47,0,0,0-3.47-.73,4.12,4.12,0,0,0-1.58,1.12,4,4,0,0,0-.9,1.72c-.27,1-.22,2.16-.78,3-.44.65-1.15,1-1.65,1.57a2.89,2.89,0,0,0-.61,1.3,3.75,3.75,0,0,0-.09.82,1.46,1.46,0,0,0,0,.36V92c0,.13.05.26.08.39a3.44,3.44,0,0,0,.73,1.34,3.22,3.22,0,0,0,1.18.85,5.22,5.22,0,0,0,.56.18l.59.13.2.05a9.68,9.68,0,0,0-.27,8.59c0,.13,0,.27-.05.41a33.51,33.51,0,0,0,.25,5.75,3.1,3.1,0,0,1-.35,2.19,5.33,5.33,0,0,1-.71.63c.26-.35.53-.68.8-1a3.48,3.48,0,0,0-2.75-.71,12.74,12.74,0,0,0-5.37,1.64c-1.09.63-2.21,1.46-3.46,1.31-.74-.08-1.47-.48-2.18-.29a4.38,4.38,0,0,0-1.12.67,1.52,1.52,0,0,1-.92.28,20.29,20.29,0,0,0-2.87-2.35,22.32,22.32,0,0,1-2.85-3.06q-2.39-2.85-4.71-5.74c-1.31-1.62-2.65-3.37-2.88-5.44a4.4,4.4,0,0,1,0-.62,16,16,0,0,1,.37-2.93,1.42,1.42,0,0,0,0-.71c-.14-.48-.7-.66-1.19-.77a8.89,8.89,0,0,0,.13-1.13c.28-4.19,0-8.46.87-12.56a8.64,8.64,0,0,1,2-4.33c1.79-1.8,4.77-2.23,6.13-4.36a5,5,0,0,0-.74-5.86,7.42,7.42,0,0,0-5.75-2.12,2.93,2.93,0,0,0-1.68.45,3.49,3.49,0,0,0-1,1.54l-2.1,5.08a33,33,0,0,0-1.53,4.09c-.58,2.14-.72,4.39-1.18,6.55,0,1.65-1.07,3.72-1.65,5.25-.66,1.72-1.37,3.41-2,5.16-.14.44-.65,1.74-1,2.93a1.59,1.59,0,0,0-.33.25,8.89,8.89,0,0,0-.7,1c-.44.58-1.16.9-1.65,1.46s-.59,1.61.09,1.89a1.5,1.5,0,0,0,.42.09l.26,0a1.66,1.66,0,0,1,.92,1.89c-.11.76-.49,1.47-.55,2.23a5.91,5.91,0,0,0,1.42,3.73,31.72,31.72,0,0,0,2.6,3.5c.69.77,1.47,1.47,2.16,2.21,2.64,2.71,4.74,5.88,7.11,8.83a19.27,19.27,0,0,0,2.89,3,22,22,0,0,0,2.2,1.51l4.08,2.58a4.37,4.37,0,0,0,1.54.73,2.44,2.44,0,0,0,.54,0c0,.12.05.24.08.36a21.48,21.48,0,0,1,1.09,3.74c.08,1.3,0,2.63,0,3.95s.36,2.44.43,3.63a23.08,23.08,0,0,1-1,6.83c-.82,3.3-1.32,6.67-2.92,9.65a5.72,5.72,0,0,0-1,2.61,1.31,1.31,0,0,0,0,.34l-.73.42c-.22.12-.43.24-.63.37a5.19,5.19,0,0,0-2.3,2.31c-.3.85-.16,1.81-.53,2.63l-.06.11c-.39.76-1.17,1.33-1.34,2.16-.14.64.12,1.32,0,1.95v0a6.78,6.78,0,0,0-.27,1,1.66,1.66,0,0,0,0,.32,1.83,1.83,0,0,0,.59.95,3.7,3.7,0,0,0,.57.46c.21.13.42.26.64.38l.13.07c.18.09.37.19.56.27l.13.06.67.26.15.05.54.16.12,0,.11,0,.49.1.18,0,.66.08h.2l.48,0h.9a5.36,5.36,0,0,0,.69-.06h.07c.2,0,.41-.06.61-.11l.16,0,.57-.15.1,0c.23-.07.46-.14.69-.23a18.79,18.79,0,0,0,2.25-1.11c.49-.27,1-.55,1.46-.79a10,10,0,0,1,1.12-.49,6.24,6.24,0,0,1,2.93-.49,12.19,12.19,0,0,1,1.46.3v.16q.6,3.51,1.18,7a14.2,14.2,0,0,1,2-1.21,4.13,4.13,0,0,0-.26,1.09,4.31,4.31,0,0,0,0,.88,1.91,1.91,0,0,1-.14,1.34c-.17.22-.49.35-.58.6a2.15,2.15,0,0,0-.05.8,1.26,1.26,0,0,1-.36.8,1.28,1.28,0,0,1-.8.38,1.86,1.86,0,0,1,0,1.21,1.79,1.79,0,0,1-.75,1,3,3,0,0,0-.56.37,1.71,1.71,0,0,0-.33.74,13,13,0,0,1-3.82,6.28,11.75,11.75,0,0,0-1.89,1.84,8.29,8.29,0,0,0-.85,1.68q-2,4.77-4,9.55a21.45,21.45,0,0,0-1.7,5.51c-.58,5.25-5.27,9.71-4.39,14.93A7.34,7.34,0,0,0,319,229.1a9,9,0,0,0,3.9,2.4,71.94,71.94,0,0,0,11.68,3.07l6.21,1.27a27.39,27.39,0,0,0,3.7.59,23.94,23.94,0,0,1,4.49.34,13.79,13.79,0,0,0,2.7.71c.8.05,1.79-.12,2.26.53s.11,1.52.56,2.1c.72.92,2.48,0,3.27.87a4.15,4.15,0,0,1,.49,1.07,1.85,1.85,0,0,0,.49.62,4.57,4.57,0,0,1,0,.83,14.11,14.11,0,0,1-.7,3.33c-.58,2-1.17,4-1.75,5.94a13.13,13.13,0,0,0-.49,2.15,6.25,6.25,0,0,0,0,1.06,2.91,2.91,0,0,0,1.75,2.54,3.24,3.24,0,0,0,2.38-.29,10.14,10.14,0,0,0,1.95-1.32,13.06,13.06,0,0,0,2.81-2.89c2.44-3.65,1.65-8.59,3.37-12.62,1.13-2.69,3.35-4.88,4.09-7.72a3,3,0,0,0,.05-1.66,3.45,3.45,0,0,0-2.31-1.89h-.05a20.55,20.55,0,0,0-2.44-.69c-.2-.05-.41-.08-.62-.12a3.62,3.62,0,0,1-1.08-1.4,3.49,3.49,0,0,0-.23-.84.8.8,0,0,0-.3-.28.83.83,0,0,0-.4-.11c-.49-.05-1.15.12-1.68.08-1.09-.07-1.81-1.14-2.78-1.64a5.67,5.67,0,0,0-3.08-.29,3,3,0,0,1-1.11-.07A4.09,4.09,0,0,1,355,224a5,5,0,0,0-2.05-.93,4.89,4.89,0,0,0-2.25.07,4.62,4.62,0,0,1-1.47.33c-1-.05-1.62-.9-2.32-1.54-1.93-1.76-4.67-2.23-7-3.38a1.62,1.62,0,0,1-.84-.73c-.27-.66.34-1.32.89-1.78l4-3.33c4.39-3.64,9.88-6.39,11.92-11.74a6.59,6.59,0,0,1,1-2,2.48,2.48,0,0,1,.54-.48,4.07,4.07,0,0,1,3-.59,10.05,10.05,0,0,1,3.53,1.54q2.63,1.59,5.1,3.42a43.82,43.82,0,0,1,4.66,3.82c2.57,2.44,4.7,5.33,7.09,8a22.7,22.7,0,0,0,8.42,6.34c3.32,1.26,7.32,1.21,10.17-.91,3.28-2.44,4.34-6.8,5.17-10.79,1.83-1.77,2.38-4.46,3.27-6.83.56-1.51,1.28-2.93,1.89-4.43.72-1.77,1.29-3.59,1.85-5.41a26.08,26.08,0,0,0,1.3-5.64c.23-3-.58-6.28.27-9.13a34.11,34.11,0,0,0,3.26-1.25,16.23,16.23,0,0,1,5.17-.45h.11a2.61,2.61,0,0,0,1.72-.4,2.72,2.72,0,0,0,.7-2.08C424.15,171.74,424,169.65,422.63,168.44Zm-70.71-83.2a3.64,3.64,0,0,1-1.23.09Z"/><path class="cls-4" d="M353.85,116.1a5.48,5.48,0,0,1-2,1.07l-3.46,1.24a13,13,0,0,1-5.82,1.11c-1.11-.14-5.85-.84-6.57-1.7-1.09-1.34,2.74-3.3,4-4.43a4.7,4.7,0,0,0,.82-.72,2.92,2.92,0,0,0,.36-2.18,33.35,33.35,0,0,1-.25-5.74,12.36,12.36,0,0,1,.19-1.36c.49-2.24,2.58-1.42,4.23-.83a34.2,34.2,0,0,1,5.73,2.48,4.22,4.22,0,0,1,1.42,1.2c.72,1.1.43,2.53.32,3.9a3.62,3.62,0,0,0,.57,2.87,8.53,8.53,0,0,1,.92,1,1.9,1.9,0,0,1,.11,1.13A1.82,1.82,0,0,1,353.85,116.1Z"/><path class="cls-4" d="M306.05,80.94c.48-2.16.59-4.38,1.18-6.53a29.79,29.79,0,0,1,1.53-4.07l2.15-5a3.53,3.53,0,0,1,1-1.53,3,3,0,0,1,1.67-.45,7.42,7.42,0,0,1,5.75,2.12,4.92,4.92,0,0,1,.75,5.82c-1.37,2.13-4.35,2.56-6.13,4.35a8.54,8.54,0,0,0-2,4.32c-.89,4.1-.59,8.35-.86,12.53-.09,1.3-.34,2.79-1.47,3.46a4.31,4.31,0,0,1-2.18.43l-3.2,0c-.54,0-2.49.34-2.84-.07-.63-.71.8-4.23,1.05-5,.58-1.74,1.29-3.44,2-5.15C305,84.66,306.05,82.6,306.05,80.94Z"/><path class="cls-5" d="M372.15,234.17c-.73,2.82-2.95,5-4.09,7.7-1.71,4-.94,8.94-3.36,12.58a13.16,13.16,0,0,1-2.82,2.9,10.78,10.78,0,0,1-1.95,1.32,3.25,3.25,0,0,1-2.37.29,2.91,2.91,0,0,1-1.75-2.54,4.7,4.7,0,0,1,0-1.06,12.27,12.27,0,0,1,.49-2.14c.58-2,1.17-3.95,1.75-5.93a14.46,14.46,0,0,0,.7-3.31c.06-1.23-.72-2.83-.39-4,.16-.52.72-1,1-1.41a7.93,7.93,0,0,0,.84-2,12.32,12.32,0,0,1,1.51-4,9.22,9.22,0,0,1,1.91-1.78,4.85,4.85,0,0,1,1.81-1,4.28,4.28,0,0,1,1.95.09,20,20,0,0,1,2.44.69h.05a3.43,3.43,0,0,1,2.32,1.88A3.06,3.06,0,0,1,372.15,234.17Z"/><path class="cls-5" d="M424.08,174.21a2.69,2.69,0,0,1-.71,2.07,2.6,2.6,0,0,1-1.72.4h-.13a16.49,16.49,0,0,0-5.16.45,20.67,20.67,0,0,1-3.72,1.33c-1.8.2-3.49-.79-5.09-1.64a48.83,48.83,0,0,0-4.62-2.2c-1-.42-3.15-.7-3.64-1.83a15,15,0,0,1-.43-1.63,4.87,4.87,0,0,0-.3-.71,4.27,4.27,0,0,1-.55-1.62,2.52,2.52,0,0,1,.56-1.56,4.65,4.65,0,0,1,1.43-1.14,4.74,4.74,0,0,1,1.77-.5,14.2,14.2,0,0,1,3.68.19l12,1.73a25.89,25.89,0,0,1,2.77.49,5.52,5.52,0,0,1,2.39,1C424,170.27,424.15,172.36,424.08,174.21Z"/><path class="cls-6" d="M413.52,177.33c-1.47,3.09-.41,6.74-.68,10.15a25.84,25.84,0,0,1-1.29,5.63c-.57,1.82-1.14,3.63-1.86,5.4-.6,1.46-1.32,2.92-1.88,4.41-.9,2.38-1.47,5.06-3.28,6.83-.83,4-1.88,8.35-5.17,10.77-2.85,2.11-6.83,2.18-10.16.91a22.87,22.87,0,0,1-8.43-6.34c-2.39-2.63-4.52-5.49-7.08-7.94a43.71,43.71,0,0,0-4.67-3.82q-2.47-1.8-5.1-3.39a10.16,10.16,0,0,0-3.54-1.53,4.12,4.12,0,0,0-3,.58,2.79,2.79,0,0,0-.54.49,6.74,6.74,0,0,0-1,2c-2.05,5.34-7.55,8.08-11.95,11.72l-4,3.32c-.54.45-1.15,1.11-.88,1.77a1.53,1.53,0,0,0,.84.72c2.33,1.15,5.07,1.62,7,3.37.7.65,1.38,1.5,2.33,1.55a4.56,4.56,0,0,0,1.46-.33,4.88,4.88,0,0,1,4.3.86,4.26,4.26,0,0,0,1.17.8,2.83,2.83,0,0,0,1.12.07,5.89,5.89,0,0,1,3.07.3c.93.46,1.7,1.55,2.79,1.63.53,0,1.17-.14,1.67-.09a1.08,1.08,0,0,1,.4.11,1,1,0,0,1,.31.28,3.06,3.06,0,0,1,.22.84c.2.69.88,1.11,1.32,1.68a4.6,4.6,0,0,1,.7,3.14,13.45,13.45,0,0,1-4.27,9,5.32,5.32,0,0,1-2.64,1.46,2.46,2.46,0,0,1-1.49-.16,2.5,2.5,0,0,1-1.11-1,4.15,4.15,0,0,0-.49-1.07c-.79-.86-2.55.05-3.27-.87-.45-.57-.13-1.5-.56-2.09s-1.46-.49-2.26-.52a14.26,14.26,0,0,1-2.69-.72,24.17,24.17,0,0,0-4.5-.34,27.39,27.39,0,0,1-3.7-.59l-6.21-1.26A74,74,0,0,1,322.85,232a9.4,9.4,0,0,1-3.9-2.39,7.34,7.34,0,0,1-1.53-3.56c-.88-5.21,3.81-9.65,4.4-14.9a21,21,0,0,1,1.69-5.49q2-4.76,4-9.52a8,8,0,0,1,.83-1.69,11.75,11.75,0,0,1,1.89-1.84,13.1,13.1,0,0,0,3.82-6.26,1.69,1.69,0,0,1,.32-.74,3.47,3.47,0,0,1,.57-.37,1.79,1.79,0,0,0,.74-.95,1.82,1.82,0,0,0,0-1.22,1.24,1.24,0,0,0,.8-.37,1.29,1.29,0,0,0,.36-.81,1.92,1.92,0,0,1,.05-.79c.11-.25.41-.38.58-.6a1.85,1.85,0,0,0,.13-1.34,4.22,4.22,0,0,1,0-.87,4.51,4.51,0,0,1,1.31-2.73c1.17-1.14,2.83-.85,4.44-1.12a25.77,25.77,0,0,0,4.68-1.5,46.38,46.38,0,0,1,13.23-3.05A29,29,0,0,1,374.6,172a7.72,7.72,0,0,1,1.72,1,3.23,3.23,0,0,1,.9,1.08,9.44,9.44,0,0,0,.67,1.49c.52.72,1.5.94,2.08,1.62s.62,1.81,1.09,2.64c.68,1.19,2.25,1.74,2.72,3,.14.41.16.86.27,1.29a7.29,7.29,0,0,0,1.75,2.74,21.09,21.09,0,0,1,4.73,10.73,8.17,8.17,0,0,1,3.9-6c.56-.37,1.21-.77,1.32-1.43.15-.84-.67-1.59-.62-2.44a2.38,2.38,0,0,1,.49-1.14,35.29,35.29,0,0,1,3.06-3.84c.6-.66,1.27-1.47,1-2.33-.19-.65-.85-1-1.22-1.6a2,2,0,0,1-.31-1.13,2,2,0,0,1,.36-1.11c.34-.47.88-.8,1.05-1.35s-.23-1.35-.1-2a2.45,2.45,0,0,1,1-1.3,8.51,8.51,0,0,1,2.18-1.44,8.31,8.31,0,0,1,4.09-.12c2.29.32,4.85.81,6.14,2.72A4.66,4.66,0,0,1,413.52,177.33Z"/><path class="cls-7" d="M424.08,174.21a2.69,2.69,0,0,1-.71,2.07,2.6,2.6,0,0,1-1.72.4h-.13c.2-1,1.44-1.59,1.65-2.62a2.29,2.29,0,0,0-.08-.94,2.42,2.42,0,0,0-.46-.83,8.76,8.76,0,0,0-4.39-2.76,29.12,29.12,0,0,0-14.67-1.1,14.82,14.82,0,0,0-3.85,1.19,10.74,10.74,0,0,0-1.17.83,4.11,4.11,0,0,1-.55-1.62,2.51,2.51,0,0,1,.55-1.56,4.69,4.69,0,0,1,1.44-1.14,4.74,4.74,0,0,1,1.76-.5,14.18,14.18,0,0,1,3.68.19l12,1.73a26.34,26.34,0,0,1,2.77.49,5.48,5.48,0,0,1,2.38,1C424,170.27,424.15,172.36,424.08,174.21Z"/><path class="cls-7" d="M372.15,234.17c-.74,2.82-2.95,5-4.09,7.7-1.71,4-.94,8.94-3.36,12.58a13.16,13.16,0,0,1-2.82,2.9,10.78,10.78,0,0,1-1.95,1.32,3.25,3.25,0,0,1-2.37.29,2.91,2.91,0,0,1-1.75-2.54,4.7,4.7,0,0,1,0-1.06l0,.08c.42,1,1.11,2.1,2.21,2.28a3.11,3.11,0,0,0,1.21-.16,3,3,0,0,0,1-.64,13.83,13.83,0,0,0,3.44-5.07,21.15,21.15,0,0,0,1.65-4.21c.2-.83.29-1.68.49-2.51.93-4,4.09-7.31,4.78-11.4a2.7,2.7,0,0,0,0-.85,4,4,0,0,0-.42-1.06,5.57,5.57,0,0,1-.37-1.18,3.42,3.42,0,0,1,2.32,1.87A3,3,0,0,1,372.15,234.17Z"/><path class="cls-7" d="M364.78,227.17a7.08,7.08,0,0,1-2.2,3,10.72,10.72,0,0,1-4.74,2,4.8,4.8,0,0,1-2.44,0c-1.08-.38-1.86-1.39-3-1.69a22,22,0,0,0-2.44-.14c-1.44-.2-2.56-1.29-3.72-2.17-3.56-2.67-8.23-3.54-11.79-6.21a1.22,1.22,0,0,1-.38-.4A1.27,1.27,0,0,1,334,221a11.13,11.13,0,0,1,1.07-4.68,16.42,16.42,0,0,1,2-2.87,86.82,86.82,0,0,1,10.21-11.12,15.36,15.36,0,0,1,5.36-3.29,8,8,0,0,1,4.71-.09,2.52,2.52,0,0,0-.54.49,6.42,6.42,0,0,0-1,2c-2.05,5.34-7.55,8.08-11.95,11.72l-4,3.32c-.54.45-1.15,1.11-.88,1.77a1.53,1.53,0,0,0,.84.72c2.33,1.15,5.07,1.62,7,3.37.7.65,1.38,1.5,2.33,1.55a4.56,4.56,0,0,0,1.46-.33,4.88,4.88,0,0,1,4.3.86,4.26,4.26,0,0,0,1.17.8,2.83,2.83,0,0,0,1.12.07,5.89,5.89,0,0,1,3.07.3c.93.46,1.7,1.55,2.79,1.63C363.64,227.3,364.27,227.12,364.78,227.17Z"/><path class="cls-5" d="M319.9,161a5.22,5.22,0,0,0-2.3,2.3c-.31.85-.16,1.81-.54,2.63s-1.22,1.39-1.4,2.27c-.14.64.12,1.31,0,1.95a8.85,8.85,0,0,0-.27,1,2.15,2.15,0,0,0,1.18,1.73,9.91,9.91,0,0,0,8.87,1,39.74,39.74,0,0,0,3.73-1.91,7.34,7.34,0,0,1,4-1c.8.09,1.57.38,2.38.49a2.44,2.44,0,0,0,1.2-.06,2.52,2.52,0,0,0,1-.61,2.87,2.87,0,0,0,.49-1.15,17.18,17.18,0,0,0-.28-8.21c-.64-2.69-1.62-5.28-2.3-8a37.19,37.19,0,0,0-1.68-5.9,7.76,7.76,0,0,0-4.11-4.34.82.82,0,0,0-.49-.06.79.79,0,0,0-.31.23,15,15,0,0,0-3.35,5.63c-.77,2.34-1,4.82-1.68,7.16a7.3,7.3,0,0,1-1.46,3A17,17,0,0,1,319.9,161Z"/><path class="cls-7" d="M338.3,169.61a2.88,2.88,0,0,1-.51,1.16,2.64,2.64,0,0,1-1,.61,2.56,2.56,0,0,1-1.2.05c-.8-.1-1.57-.4-2.38-.49a7.3,7.3,0,0,0-4,1c-1.25.63-2.44,1.4-3.74,1.91a9.9,9.9,0,0,1-5.92.33,9.57,9.57,0,0,1-2.93-1.28,2.11,2.11,0,0,1-1.18-1.73,9.43,9.43,0,0,1,.27-1c.12-.63-.13-1.31,0-1.95.18-.87,1-1.46,1.4-2.27s.23-1.78.54-2.62a5.19,5.19,0,0,1,2.3-2.31,17.56,17.56,0,0,0,2.77-1.79,2.36,2.36,0,0,0,.26-.36,8.76,8.76,0,0,0,1.16-2.68c.72-2.35.91-4.83,1.67-7.17a14.93,14.93,0,0,1,3.36-5.62.73.73,0,0,1,.31-.24.84.84,0,0,1,.49.06,7.79,7.79,0,0,1,4.1,4.35,38.15,38.15,0,0,1,1.68,5.89c.68,2.68,1.66,5.28,2.31,8A17.39,17.39,0,0,1,338.3,169.61Z"/><path class="cls-7" d="M352.82,110.13a9.77,9.77,0,0,1-11.89-5.36,12.54,12.54,0,0,1,.19-1.37c.49-2.24,2.58-1.42,4.23-.82a32.63,32.63,0,0,1,5.73,2.48,4.22,4.22,0,0,1,1.42,1.2C353.22,107.34,352.93,108.77,352.82,110.13Z"/><path class="cls-4" d="M349.87,110.1a9.76,9.76,0,1,0-9.76-9.75A9.76,9.76,0,0,0,349.87,110.1Z"/><path class="cls-7" d="M376.35,173.24c0,.81-1.09,1.07-1.91,1-2.93-.18-5.79-1-8.69-.74-3.67.34-7,2.36-10.71,2.54a33.47,33.47,0,0,0-4.25.13c-1.81.33-3.42,1.43-5.26,1.59-1.59.13-3.17-.47-4.76-.4a7.56,7.56,0,0,0-3.19.9,4.48,4.48,0,0,1,1.31-2.72c1.16-1.15,2.82-.85,4.43-1.12A25.62,25.62,0,0,0,348,173a45.91,45.91,0,0,1,13.23-3.06A29,29,0,0,1,374.6,172a7.72,7.72,0,0,1,1.72,1A.57.57,0,0,1,376.35,173.24Z"/><path class="cls-8" d="M345.35,118.16l-4-1.47-1.67-.61a8.59,8.59,0,0,0-2.13-.57,5.43,5.43,0,0,0-4.73,2.76,14.7,14.7,0,0,0-1.73,5.44c-.45,2.58-.83,5.18-1.14,7.78a51,51,0,0,0-.52,7.09c.11,6,1.39,12,2.8,17.87a63,63,0,0,1,1.56,7.92c.11,1.11.17,2.21.28,3.32s.34,2.47.54,3.71l1.18,7a9.32,9.32,0,0,1,4.93-2c1.59-.06,3.17.54,4.76.4,1.83-.15,3.45-1.25,5.26-1.58a31.82,31.82,0,0,1,4.26-.13c3.67-.18,7-2.21,10.7-2.54,2.9-.26,5.79.56,8.7.73.81.05,1.9-.21,1.9-1,0-.57-.56-.95-1.05-1.23a52.22,52.22,0,0,1-6.62-4.71,22.86,22.86,0,0,1-5.2-5.14c-3.18-5-2.09-11.65-4.81-16.88-2.21-4.24,0-9.8,0-14.58a30.26,30.26,0,0,0-.56-7.12,29.91,29.91,0,0,0-1.31-3.8L354.9,114a.61.61,0,0,0-.65-.49,4.58,4.58,0,0,0-3.16,1c-.89.72-1.46,1.77-2.34,2.52S346.55,118.6,345.35,118.16Z"/><path class="cls-5" d="M351.73,115.39a8.62,8.62,0,0,1,1.54-3.77,3,3,0,0,1,3.68-.85c1.31.85,1.36,2.81,2.48,3.9,1,.94,2.44,1,3.77,1.13a25.67,25.67,0,0,1,7,1.64,2.92,2.92,0,0,1,1.16.69c.61.7.49,1.76.79,2.62.41,1.11,1.56,1.82,2,2.93s0,2.6-.41,3.87c-.73,2.26-1.2,4.62-1.91,6.9a15.4,15.4,0,0,1-3.42,6.24c-.74.76-1.85,1.46-2.82,1l-.38,2.7a4.58,4.58,0,0,0,0,1.73,1.63,1.63,0,0,0,.4.77,1.51,1.51,0,0,0,.73.43c.08.42.52.62.88.85a2.32,2.32,0,0,1,.67.69,2.39,2.39,0,0,1,.36.89,2.58,2.58,0,0,1,0,1,2.48,2.48,0,0,1-.39.88c-.3.41-.76.74-.9,1.23a1.75,1.75,0,0,0,.93,1.85c.64.39,1.38.57,2,.95a6.29,6.29,0,0,1,2.51,3.76,7,7,0,0,0,1.47,3.13c.32.3.7.54,1,.86a3.7,3.7,0,0,1,.87,2.24,4.4,4.4,0,0,1-.63,2.92c-1,1.4-2.8,1.81-4.39,2.44-2.59,1.07-4.73,3-7,4.59a7.49,7.49,0,0,1-3.2,1.5c-1.58.21-3.14-.49-4.73-.55a11.67,11.67,0,0,0-2.82.37l-2.93.63c.16-2.26-1.09-4.54-1.79-6.7A33.49,33.49,0,0,1,347,158.14a100.36,100.36,0,0,1,2-12.65c.6-2.93.55-6,1.47-8.83s2.1-5.36,2.55-8.21C353.77,123.84,350.69,119.93,351.73,115.39Z"/><path class="cls-5" d="M373.93,124.41a5.23,5.23,0,0,1,.56,1.58,5.74,5.74,0,0,0,1.24,2.32,8.25,8.25,0,0,1,1.3,1.47c.45.84.28,1.88.49,2.81s1,1.88,1.05,2.92a5.26,5.26,0,0,0,.08.89c.32,1.18,2.06,1.46,2.44,2.64.26.77-.18,1.6-.1,2.41a1.94,1.94,0,0,1,0,.76,1.54,1.54,0,0,1-.55.71,11.11,11.11,0,0,0-3.21,5.71,32.56,32.56,0,0,0-.74,6.6l-1.91-2.52a2.82,2.82,0,0,0-.76-.78c-.24-.15-.53-.22-.78-.37a3.55,3.55,0,0,1-1.28-2.06,18.91,18.91,0,0,0-3.42-5.91,6.58,6.58,0,0,1-1.85-3,5.55,5.55,0,0,1,.09-1.63c.49-3.19,1-6.47,2.57-9.3.73-1.33,1.67-2.53,2.37-3.87C372,124.88,372.68,122.56,373.93,124.41Z"/><path class="cls-5" d="M325.79,127.47a2.27,2.27,0,0,1-.3,1.17,1.56,1.56,0,0,1-.71.47,1.59,1.59,0,0,1-.84,0,4.43,4.43,0,0,1-1.54-.72l-4.08-2.58a23.53,23.53,0,0,1-2.19-1.5,19.72,19.72,0,0,1-2.89-3c-2.38-2.93-4.47-6.1-7.12-8.78-.71-.73-1.46-1.43-2.15-2.2a32.79,32.79,0,0,1-2.61-3.5,6,6,0,0,1-1.42-3.72c.08-.76.45-1.47.55-2.22a1.64,1.64,0,0,0-.91-1.88,1.19,1.19,0,0,0-.26,0,1.57,1.57,0,0,1-.43-.09c-.68-.28-.57-1.33-.09-1.88s1.21-.86,1.66-1.47a10.27,10.27,0,0,1,.69-1,2.73,2.73,0,0,1,1.14-.57,17.52,17.52,0,0,1,8.66-.32c.49.1,1.05.3,1.19.77a1.38,1.38,0,0,1,0,.7,16.2,16.2,0,0,0-.37,2.93,4.3,4.3,0,0,0,0,.62c.23,2.06,1.57,3.81,2.88,5.43q2.32,2.88,4.7,5.73a23.58,23.58,0,0,0,2.86,3,16.07,16.07,0,0,1,3,2.5c.62.84.42,2,.49,3A66.67,66.67,0,0,1,325.79,127.47Z"/><path class="cls-4" d="M387.77,147.82a10.52,10.52,0,0,0,1.3-1.53,9.75,9.75,0,0,0,1-2.19l2.83-8c.45-1.27.9-2.54,1.47-3.77s1.28-2.62,1.92-3.91a52.31,52.31,0,0,0,3.79-10.6,3.07,3.07,0,0,0-1.24-3.66,10.13,10.13,0,0,0-2.08-1.72,3.32,3.32,0,0,0-1.26-.47,3.56,3.56,0,0,0-1.34,0,3.76,3.76,0,0,0-2.32,2.93,29.72,29.72,0,0,0-.31,3.9c-.17,1.87-.82,3.68-1,5.56-.09,1.09,0,2.19-.14,3.27a11.83,11.83,0,0,1-1.46,4,26.31,26.31,0,0,1-6.31,7.76,9.87,9.87,0,0,0-1.89,1.82,6,6,0,0,0-.92,2.27,5.24,5.24,0,0,0,.4,3.69,5.4,5.4,0,0,0,3.78,2.25C386,149.89,386.42,149.22,387.77,147.82Z"/><path class="cls-5" d="M349.93,86.21a4.55,4.55,0,0,1,4.42-2.39,4.85,4.85,0,0,1,3.83,3.44,9,9,0,0,0,.73,2.16c.6.94,1.72,1.21,2.56,1.89A5.23,5.23,0,0,1,362.66,93a5.06,5.06,0,0,1,.45,2,10.79,10.79,0,0,1-.65,4.1,12.91,12.91,0,0,0-.48,1.72c-.1.57-.11,1.14-.2,1.71a5.49,5.49,0,0,1-.75,2.07,5.61,5.61,0,0,1-1.49,1.62.94.94,0,0,1-.6.22c-.39,0-.62-.49-.76-.89-.78-2.24-.59-5-2-6.76A7.5,7.5,0,0,0,353.85,97a3,3,0,0,0-1.19-.44,3.09,3.09,0,0,0-1.7.62,10.55,10.55,0,0,1-3.38,1.49,4,4,0,0,1-1.83,0,4.14,4.14,0,0,1-1.66-.77c-.67-.55-1.17-1.39-1.91-1.82a14.46,14.46,0,0,0-2.27-.71,3.27,3.27,0,0,1-1.22-.89,3.28,3.28,0,0,1-.75-2.84,3.26,3.26,0,0,1,.62-1.38c.48-.59,1.21-.92,1.64-1.57.56-.83.51-2,.78-3a4.1,4.1,0,0,1,2.48-2.83,3.6,3.6,0,0,1,1.84-.12,3.53,3.53,0,0,1,1.64.84c.49.44.88,1,1.36,1.47A3.89,3.89,0,0,0,350,86a3.94,3.94,0,0,0,1.93,0"/><path class="cls-7" d="M358,158a1.92,1.92,0,0,0-.58.95,2,2,0,0,0,.06,1.12c.11.23,5.15-.74,5.68-.82,1.33-.19,3.65-.09,4.55-1.31,1.59-2.15-3.34-1.67-4.24-1.59C361.7,156.49,359.26,156.73,358,158Z"/><path class="cls-5" d="M312.13,95.08a16.2,16.2,0,0,0-.37,2.93,8.48,8.48,0,0,1-4.39-.68l-4-1.37a1.08,1.08,0,0,0-.82-.16,1.14,1.14,0,0,0-.72.44A31.86,31.86,0,0,1,299.35,99a1.5,1.5,0,0,1-.42-.09c-.68-.28-.58-1.33-.09-1.88s1.21-.86,1.65-1.47a8.89,8.89,0,0,1,.7-1,2.63,2.63,0,0,1,1.13-.57,17.57,17.57,0,0,1,8.67-.32c.48.1,1,.3,1.19.77A1.46,1.46,0,0,1,312.13,95.08Z"/><path class="cls-7" d="M312.13,95.08a16.2,16.2,0,0,0-.37,2.93,8.48,8.48,0,0,1-4.39-.68l-4-1.37a1.08,1.08,0,0,0-.82-.16,1.14,1.14,0,0,0-.72.44A31.86,31.86,0,0,1,299.35,99a1.5,1.5,0,0,1-.42-.09c-.68-.28-.58-1.33-.09-1.88s1.21-.86,1.65-1.47a8.89,8.89,0,0,1,.7-1,2.63,2.63,0,0,1,1.13-.57,17.57,17.57,0,0,1,8.67-.32c.48.1,1,.3,1.19.77A1.46,1.46,0,0,1,312.13,95.08Z"/><path class="cls-7" d="M349.05,187.68a2.41,2.41,0,0,1,1.71,1.28l-5.66-1.44-2.92-.74c-.52-.14-2.38-.29-2.72-.69-.49-.6,1.25-.19,1.56-.14,1,.14,1.89.28,2.84.45C345.63,186.72,347.34,187.24,349.05,187.68Z"/><path class="cls-7" d="M351.24,192.68a10.2,10.2,0,0,0-2.48-.43c-.88-.21-1.75-.49-2.61-.76-1.75-.57-3.49-1.22-5.29-1.64-.33-.07-1.47-.09-1.41-.51s1.13-.56,1.4-.58a13.62,13.62,0,0,1,5.07,1.16A21.87,21.87,0,0,1,351.24,192.68Z"/><path class="cls-7" d="M347.66,183.22c-1.79-.49-3.41-1.6-5.26-1.81a2.21,2.21,0,0,1-1.34-.41,1.65,1.65,0,0,1-.44-.78,8.93,8.93,0,0,1,3.8.95,12,12,0,0,1,1.77.94C346.6,182.36,347.22,183.08,347.66,183.22Z"/><path class="cls-5" d="M381.81,139.55a8.52,8.52,0,0,0,6,9.43c-.24,1.15-1.44,1.79-2.28,2.62-1.19,1.15-1.81,2.88-3.21,3.76-1.57,1-3.58.6-5.37.19a.69.69,0,0,1-.42-.22.77.77,0,0,1-.08-.19,12.62,12.62,0,0,1-.37-6.64,21.7,21.7,0,0,1,2.6-5C379.59,141.83,379.68,140.09,381.81,139.55Z"/><path class="cls-5" d="M338.17,111.58a12.74,12.74,0,0,0-5.37,1.64c-1.09.62-2.21,1.46-3.46,1.31-.74-.08-1.47-.49-2.19-.29a4,4,0,0,0-1.11.66,1.21,1.21,0,0,1-.59.26,1.26,1.26,0,0,1-.64-.07l-.49,6.76a24.4,24.4,0,0,0,.25,7.68,21.48,21.48,0,0,1,1.09,3.74c.08,1.29,0,2.63,0,3.94s.36,2.41.43,3.62a22.88,22.88,0,0,1-1,6.8c-.82,3.28-1.32,6.64-2.92,9.62a5.64,5.64,0,0,0-1,2.6,1.27,1.27,0,0,0,0,.34c-.49.27-.94.52-1.36.78a5.24,5.24,0,0,0-2.3,2.31c-.3.85-.16,1.81-.53,2.63s-1.22,1.39-1.41,2.27c-.13.64.12,1.31,0,1.95a8.85,8.85,0,0,0-.27,1,2.11,2.11,0,0,0,1.19,1.72,9.39,9.39,0,0,0,2.93,1.29l2.91-11.56a92.47,92.47,0,0,0,6.6-15.35,33.8,33.8,0,0,1,1.91-5.05,25,25,0,0,0,1.47-2.87,22.45,22.45,0,0,0,.7-3.86,26.45,26.45,0,0,1,1.15-4.45,19.61,19.61,0,0,0,1.24-4.77c.16-2.35-.69-4.83.21-7a9.61,9.61,0,0,1,1.49-2.24c1.26-1.54,2.41-3.15,3.67-4.69A3.38,3.38,0,0,0,338.17,111.58Z"/><g class="cls-9"><path class="cls-7" d="M351.92,84.61l-.61,0-.07,0A3.84,3.84,0,0,0,351.92,84.61Z"/><path class="cls-7" d="M363.09,94.73a12.63,12.63,0,0,1-.63,2.85A12.91,12.91,0,0,0,362,99.3c-.1.56-.11,1.14-.2,1.7a5.54,5.54,0,0,1-.75,2.08,5.61,5.61,0,0,1-1.49,1.62,1,1,0,0,1-.6.22c-.39,0-.62-.49-.76-.89-.78-2.24-.59-5-2-6.76a7.35,7.35,0,0,0-2.31-1.72,2.2,2.2,0,0,0-2.89.18,10.77,10.77,0,0,1-3.38,1.49,4.19,4.19,0,0,1-1.83,0,4.14,4.14,0,0,1-1.66-.77,16.32,16.32,0,0,0-1.91-1.82,14.46,14.46,0,0,0-2.27-.71,3.46,3.46,0,0,1-1.2-.87,3.33,3.33,0,0,1-.7-1.31,1.16,1.16,0,0,1,0-.18,3.41,3.41,0,0,0,0,1.65,3.29,3.29,0,0,0,.7,1.3,3.34,3.34,0,0,0,1.2.87,16.15,16.15,0,0,1,2.27.71,19,19,0,0,1,1.91,1.82,4.14,4.14,0,0,0,1.66.77,4,4,0,0,0,1.83,0A10.55,10.55,0,0,0,351,97.19a3.09,3.09,0,0,1,1.7-.62,3,3,0,0,1,1.19.44,7.28,7.28,0,0,1,2.27,1.74c1.43,1.78,1.25,4.52,2,6.76.15.4.38.84.76.88a.93.93,0,0,0,.64-.23,5.7,5.7,0,0,0,1.5-1.63,5.48,5.48,0,0,0,.75-2.08c.08-.56.09-1.14.19-1.7a12.54,12.54,0,0,1,.49-1.72,11.22,11.22,0,0,0,.65-4.1Z"/></g><path class="cls-10" d="M332.21,116.61l-.33,4.46c-.05.6-1.21,15-9.74,31.83a90.36,90.36,0,0,1-48.46,43.79q-3.15,1.25-6.53,2.32l-2.52-7.9a92.51,92.51,0,0,0,18.16-7.94,80.33,80.33,0,0,0,31.8-33.73,90.35,90.35,0,0,0,8.35-24.54h-30.6v-8.29Z"/><path class="cls-11" d="M270.39,196.69a90.26,90.26,0,0,0,48.45-43.79c8.53-16.82,9.7-31.21,9.74-31.82l.33-4.46h3.42l-.33,4.46c-.05.6-1.21,15-9.74,31.82a90.32,90.32,0,0,1-48.46,43.79q-3.15,1.25-6.54,2.33l-.33-1C268.11,197.56,269.26,197.13,270.39,196.69Z"/><path class="cls-10" d="M216.54,191.11,214,199q-3.39-1.08-6.54-2.33A90.31,90.31,0,0,1,159,152.9c-8.53-16.83-9.69-31.22-9.74-31.83l-.33-4.46h39.85v8.29h-30.6a90.74,90.74,0,0,0,8.37,24.54,80.24,80.24,0,0,0,31.8,33.72A92,92,0,0,0,216.54,191.11Z"/><path class="cls-11" d="M210.78,196.69a90.28,90.28,0,0,1-48.46-43.79c-8.53-16.82-9.69-31.21-9.74-31.82l-.33-4.46h-3.42l.34,4.46c0,.6,1.2,15,9.73,31.82a90.32,90.32,0,0,0,48.46,43.79q3.15,1.25,6.54,2.33l.33-1Q212.48,197.35,210.78,196.69Z"/><path class="cls-10" d="M286.62,267.49v44.7H194.54v-44.7l2.93-3.91c29.84-10.58,35.89-38.18,37.09-49.1a43.28,43.28,0,0,0,.31-4.55h11.39c0,1.52.13,3,.3,4.55,1.23,10.92,7.28,38.53,37.1,49.1Z"/><path class="cls-7" d="M286.62,267.49H194.54v5.6h92.08Z"/><path class="cls-11" d="M202.35,263.58c29.84-10.58,35.89-38.18,37.09-49.1a43.28,43.28,0,0,0,.31-4.55h-4.88a43.28,43.28,0,0,1-.31,4.55c-1.22,10.92-7.27,38.53-37.09,49.1l-2.93,3.91v44.7h4.88v-44.7Z"/><path class="cls-7" d="M180.56,116.61h8.25v8.29h-7.52Q180.84,120.81,180.56,116.61Z"/><path class="cls-7" d="M216.54,191.11,214,199q-3.39-1.08-6.54-2.33a86.06,86.06,0,0,1-9.11-13.52A92,92,0,0,0,216.54,191.11Z"/><path class="cls-7" d="M264.62,191.11a92.86,92.86,0,0,0,18.17-7.94,87.46,87.46,0,0,1-9.11,13.52q-3.15,1.25-6.54,2.32Z"/><path class="cls-7" d="M300.6,116.61q-.28,4.2-.73,8.29h-7.52v-8.29Z"/><path class="cls-7" d="M246.58,214.48a31.46,31.46,0,0,1-12,0c.18-1.51.28-3,.31-4.55h11.39A43.26,43.26,0,0,0,246.58,214.48Z"/><path class="cls-10" d="M181.53,102.88c.21,61.48,26.57,111.2,59.06,111.2s58.83-49.72,59-111.2Z"/><path class="cls-11" d="M192,102.88h-10.5c.21,61.48,26.57,111.2,59.06,111.2a31.77,31.77,0,0,0,5.24-.44C215.8,208.62,192.23,161,192,102.88Z"/><path class="cls-5" d="M271.9,284.6H209.27v16.09H271.9Z"/><path class="cls-11" d="M212.2,286.79h59.7V284.6H209.27v16.09h2.93Z"/><path class="cls-12" d="M148.13,179.49c-1.13-.37-7.76-5.62-8.27-8s3.51-24.5,3.51-24.5a9.28,9.28,0,0,1-1-.07v-.36l.82-29.07s3.38-19.5-3-18.37-2.39,18.37-2.39,18.37-.72,8.75-1.24,11.38-2.72,12.84-1.2,16a3.72,3.72,0,0,0,.19.34s.25,11-2.5,12.5-3.73,8.62-3.82,9.26l-.14-.06a7.67,7.67,0,0,1-2-1.85c-.06-.08-.1-.16-.15-.23a10.72,10.72,0,0,0-.29-14.57,10.93,10.93,0,0,0-3-2.21,7.18,7.18,0,0,0-.65-2.69c-1.27-2.71-8.3-6.26-13.29-6.34-2.31-.07-4.19.59-4.88,2.39a13.4,13.4,0,0,0-.39,2.89,7.43,7.43,0,0,1-3.16,4.7,19.17,19.17,0,0,0-2.1-2,46.12,46.12,0,0,1-4.88-5.36s-10.15-10.5-10.9-13.38-10.89-20.16-13.14-17.15S78,127.24,78,127.24s1.9,4.77,3.37,6.38,12.69,17.9,12.69,17.9l.53,1.11c-2.37,1.25-4.54,2.84-5.3,5.32-1.12,3.64,1.33,7.31,3,10.73,3.31,6.66,3.78,15.15-.49,21.24-3.82,5.38-10.46,7.93-16.67,10.17a16.39,16.39,0,0,0,10.54,3.49c-1.44,4.16-6.52,5.53-10.86,6.3,2.28,2.19,5.53,3,8.66,3.47a25.66,25.66,0,0,0,4.63.36h.38l.38,0a11.82,11.82,0,0,0,1.57-.2,8.27,8.27,0,0,0,5.6-3.67c1-1.71,1.32-4,3.09-4.88a3.91,3.91,0,0,1,1.47-.35h1l7.38.08h.94c2.09,0,4.31-.41,5.37-2.14a5.77,5.77,0,0,0,.67-2.7c.16-2.34,0-4.74.06-7.1.63,4.29,1.29,11-.27,13.44a23.21,23.21,0,0,1-4.58,5,7.89,7.89,0,0,0-1.21,1.24l-.38.26-.15.45a8.81,8.81,0,0,0-1.2,2.76,2.12,2.12,0,0,0-.09.79c.17.35-1.22,1.77-.81,2.37-3.48,4.08-4.14,10.25-4.14,10.25l-6.34,9.62c-3.26,8.56-8.14,9.44-8.14,9.44s-11.47-7.68-11.78-8.06A43.12,43.12,0,0,0,72.2,238a5,5,0,0,0-2.26-2.06c-1.5-.63-1.63-2.93-1.63-2.93-.18-5.44-3.38-5.85-3.38-5.85a10.4,10.4,0,0,0-6.06,1.08l-.45,0c-2.22.18-4.89.38-7.81.58-8.15.53-10.09,5.81-10.09,5.81a1.61,1.61,0,0,0,.32,2.34c1.31,1.22,9.71,0,10.07,0a5.34,5.34,0,0,1-1.91-.13c1.32-.05,3.14-.1,4.69-.1h.38a20.63,20.63,0,0,0-.15,2.48c0,1.56,4.32,2.56,4.32,2.56L71.4,253.48s8.26,3.69,13.53,9,9.91.73,9.91.73c5.57-1.38,21.59-20.74,21.6-20.76,0,.57.34,19.4,1,23.18a2.19,2.19,0,0,0,.14.56c.75,1.62-.25,6.06-.69,7.93a22.24,22.24,0,0,0-.31,4.75s-6,22.92-5.51,24.94-3.26,11.37-3.26,11.37V323l.65,0c-.08.13-.16.26-.23.39l0,.09a27.76,27.76,0,0,0,6.7.62c2.69-.25,7.32,2.07,7.32,2.07s1.56.74,6.39,1.06,4.82-2.13,4.82-2.13c-.55-3.32-8.17-4.43-8.41-4.47-.61-.38-1.19-.8-1.66-1.16l-.1-.08a2.09,2.09,0,0,0,.08-.23c.82-3.31-3.69-4.75-3.69-4.75v-.81c2.93-1.5,3.51-11.81,3.51-11.81s4.39-12.75,5-14.88a14.15,14.15,0,0,0,0-5.31l.44-2.75a13.4,13.4,0,0,0,.94-2.25,5.54,5.54,0,0,1,1.06-2.62c.69-.82-.75-2.75-.75-2.75l1.25-3.25v-3.57L134,251.43s3.07-15.07,2-20,1.25-7.44,1.25-7.44c-.21.11-.42.21-.64.3a21.51,21.51,0,0,0,.76-2.08L144,223v.1h2.38s-.75-9.27-.75-13S148.13,193,148.13,193,149.26,179.87,148.13,179.49Zm-29.25-10.81c0,.36,0,.74-.06,1.13l-.13.2-.24-.2-.3.46-.09,0c-.64-.33-1-2.22-1.44-1.81l-.06.05c-.1-.12-.2-.15-.31-.05l-.1.08v-.44a10.93,10.93,0,0,0,2.73.35A1.21,1.21,0,0,1,118.88,168.68Zm21.92,43.15h.14l-.24.61C140.73,212.24,140.76,212,140.8,211.83Zm-24.06,110.6-.9-.22.49-.09.45.3.06,0Zm9.18-1.31c-.3-.16-.6-.34-.9-.52A9.42,9.42,0,0,1,125.92,321.12Z"/><path class="cls-6" d="M144,202.62,138.13,218h1.43L134,222.44l10,1.25Z"/><path class="cls-7" d="M144,202.62,138.13,218l-1.49-.4L134,222.44l10,1.25Z"/><path class="cls-6" d="M134.77,212.46H144l3.4-28H134.77Z"/><path class="cls-7" d="M134.77,212.46H144l3.4-28H134.77Z"/><path class="cls-13" d="M116.67,191.12l2-.34,4.6-.78s13.8-3.11,16.65-3.37a17.44,17.44,0,0,0,5-1.42c.75-.32,1.22-.57,1.22-.57l-5-9.07-7.72-5.72s-4.88-1-6.94-3.88a4.65,4.65,0,0,1-.88-2.08,4.54,4.54,0,0,1,.24-2.25c1.26-3.9-7.52,3.73-7.52,3.73s.08,1.83,0,4.16c0,.46,0,.94-.08,1.43,0,.32,0,.64-.08,1a15.56,15.56,0,0,1-1.52,6.13C114.54,181.54,116.67,191.12,116.67,191.12Z"/><path class="cls-7" d="M118.35,169.73h.19c.35,0,.64-.75,1-.78,2.75-.26,5.25-.84,7-2.79a4.52,4.52,0,0,1-.87-2.08,4.4,4.4,0,0,1,.23-2.24c1.26-3.9-7.52,3.72-7.52,3.72S118.45,167.4,118.35,169.73Z"/><path class="cls-13" d="M107.66,158.67a10.7,10.7,0,0,0,6.6,9.88,10.86,10.86,0,0,0,4.1.81,7.25,7.25,0,0,0,1-.05A10.69,10.69,0,1,0,114,148.9a10.68,10.68,0,0,0-6.36,9.77Z"/><path class="cls-5" d="M104.37,142.44a13.14,13.14,0,0,0-.38,2.88c-.52,3.47-4,5.55-7.24,7s-6.8,3.18-7.81,6.53c-1.12,3.62,1.31,7.26,3,10.66,3.29,6.62,3.76,15.07-.48,21.12-3.78,5.37-10.35,7.91-16.54,10.15a16.32,16.32,0,0,0,10.47,3.48c-1.42,4.13-6.47,5.5-10.78,6.26,2.26,2.18,5.5,3,8.6,3.45a19.36,19.36,0,0,0,6.83.12,8.22,8.22,0,0,0,5.55-3.65c1-1.7,1.31-4,3.07-4.86a5.53,5.53,0,0,1,2.51-.36l7.32.07c2.28,0,5-.17,6.15-2.12a5.85,5.85,0,0,0,.67-2.69c.31-4.8-.61-9.87,1.37-14.25.59-1.32-3.23-3.41-2.83-4.81a45,45,0,0,0,1.71-13.62c0-3.87,2.52-7.22,4.61-10.49s3.82-7.4,2.18-10.91C120.49,142.48,106.56,136.79,104.37,142.44Z"/><path class="cls-13" d="M114.12,321l1.86,1.23.29.19.06,0,2.21,1.47,5.16.87,4.54-.32s1.31-2.73-.75-2.66a4.23,4.23,0,0,1-1.87-.55l-.28-.14c-.3-.15-.6-.33-.89-.51-.61-.39-1.19-.81-1.65-1.17-.69-.52-1.14-.92-1.14-.92Z"/><path class="cls-7" d="M116,322.26l.29.19,0,0,2.21,1.47,5.16.87,4.54-.32s1.31-2.73-.74-2.66a4.31,4.31,0,0,1-1.88-.55c.36.29.67.59.7.85.08.7-3.36,1.95-3.36,1.95l-4.85-1.28-2-.53-.1,0Z"/><path class="cls-5" d="M107.71,323.45a27.42,27.42,0,0,0,6.65.62c2.68-.25,7.29,2.05,7.29,2.05s1.55.73,6.34,1.05,4.79-2.12,4.79-2.12c-.55-3.3-8.11-4.39-8.35-4.44a8.52,8.52,0,0,1,.89.52c.54.35,1.12.81,1.16,1.18.09.69-3.36,1.95-3.36,1.95L118.27,323s-.82-.24-2-.53h-.11a40.17,40.17,0,0,0-5.08-1.05,3.54,3.54,0,0,0-3.38,2Z"/><path class="cls-13" d="M45,235.74l2.11,1.62,1.53-.06H49c1.31-.05,3.12-.09,4.66-.09a14.76,14.76,0,0,1,3,.16c1,.37,2.93-6,2.93-6l-2.12-.48-.7-.17-.49-.12-1.72-.4-5.23.59-3.67,2.36Z"/><path class="cls-7" d="M45,235.74l2.11,1.62,1.53-.06a1.83,1.83,0,0,1-1-.87C46.32,232.64,53.1,231,53.1,231l3.16-.14.61,0h.49l-.7-.17-.49-.12-1.72-.4-5.22.59-3.68,2.36Z"/><path class="cls-5" d="M40.85,237.45c1.28,1.18,9.65,0,10,0a5.28,5.28,0,0,1-1.9-.14,1.89,1.89,0,0,1-.85-.36,2,2,0,0,1-.62-.68c-1.36-3.8,5.41-5.41,5.41-5.41l3.16-.14.61,0,7.68-.33.37-2.11s-2.49.23-6.41.54c-2.2.18-4.88.38-7.77.57-8.09.54-10,5.78-10,5.78A1.62,1.62,0,0,0,40.85,237.45Z"/><path class="cls-13" d="M134.77,145.91a2.59,2.59,0,0,0,.19.33l1.86,2.73,4.85.49.06-1.92.81-28.91s3.36-19.4-3-18.28-2.37,18.28-2.37,18.28-.72,8.7-1.23,11.31S133.26,142.74,134.77,145.91Z"/><path class="cls-13" d="M123.89,217.72l1.38,2.36,3.09,5.28s5.6,2.06,7,.49c.79-.85,1.64-3.83,2.23-6.34.49-2,.82-3.74.82-3.74Z"/><path class="cls-7" d="M123.89,217.72l1.38,2.36a1.84,1.84,0,0,0,.23-.25c1.56-2,8.44-.42,12.12-.29.49-2,.82-3.75.82-3.75Z"/><path class="cls-7" d="M53.62,237.2a14.76,14.76,0,0,1,3,.16c1,.37,2.93-6,2.93-6l-2.82-.66,7.67-.33.38-2.11s-2.5.23-6.41.54a8.33,8.33,0,0,0-2.14,1.78l-.11.15A12.73,12.73,0,0,0,53.62,237.2Z"/><path class="cls-7" d="M114.12,321l2.15,1.42c3.21-.58,6.15-1.49,6.49-2.93v-.07c-.68-.52-1.13-.92-1.13-.92Z"/><path class="cls-7" d="M107.76,323.37a75.15,75.15,0,0,0,8.46-.91,41.8,41.8,0,0,0-5.09-1.06A3.5,3.5,0,0,0,107.76,323.37Z"/><path class="cls-5" d="M53.85,239.66c0,1.55,4.29,2.55,4.29,2.55l13.07,11.62s8.21,3.67,13.43,8.95,9.83.75,9.83.75c5.53-1.37,21.47-20.64,21.47-20.64s.37,22,1.12,23.62-.25,6-.69,7.9a22.62,22.62,0,0,0-.31,4.72s-6,22.81-5.47,24.8-3.23,11.32-3.23,11.32V323s14.61-.57,15.42-3.86-3.67-4.72-3.67-4.72v-.81c2.93-1.5,3.48-11.75,3.48-11.75s4.36-12.68,5-14.79a13.84,13.84,0,0,0,0-5.29l.43-2.73a13.61,13.61,0,0,0,.94-2.24,5.49,5.49,0,0,1,1.06-2.61c.68-.81-.75-2.73-.75-2.73l1.24-3.24v-3.54l2.93-12.86s3.05-15,2-19.9,1.25-7.39,1.25-7.39c-5,2.61-7.51-3.21-8.34-5.71-.21-.64-.31-1.07-.31-1.07s-6.86-2.53-13.24-1.92a14.87,14.87,0,0,0-3.8.8c-7.09,2.55-8.21,13.12-8.21,13.12l-6.28,9.57c-3.24,8.52-8.09,9.39-8.09,9.39s-11.38-7.65-11.71-8A44.57,44.57,0,0,0,72,238.48a4.89,4.89,0,0,0-2.24-2c-1.49-.62-1.61-2.93-1.61-2.93-.19-5.4-3.36-5.85-3.36-5.85C53.79,226.73,53.85,238.11,53.85,239.66Z"/><path class="cls-6" d="M117.17,209.27h6.72V188.45h-6.72Z"/><path class="cls-7" d="M117.17,209.27h6.72V188.45h-6.72Z"/><path class="cls-7" d="M134.77,145.87v0a1.74,1.74,0,0,0,.18.33l1.87,2.73,4.85.49.05-1.92C140.21,147.42,136.77,147,134.77,145.87Z"/><path class="cls-6" d="M135,146.24s.25,10.94-2.49,12.43-3.8,9.26-3.8,9.26,8.3,5.46,10.15,7.86,6.09,8.11,5.22,9.48,2.12,7.58,2.12,7.58-5.48,11.19-4.24,15.42,1.37,15.41,1.37,15.41h2.37s-.75-9.2-.75-12.93,2.48-17,2.48-17,1.13-13.05,0-13.42-7.71-5.6-8.2-8S142.67,148,142.67,148,137.57,147.73,135,146.24Z"/><path class="cls-7" d="M117,186.52a10.61,10.61,0,0,0,1.63,4.26l4.6-.78s13.8-3.11,16.65-3.37a17.44,17.44,0,0,0,5-1.42,22.06,22.06,0,0,0-6.17-10.12L137,173.47a29.32,29.32,0,0,0-8.83-5.65c.21.17,14.69,12.53,11.52,15S128,179.3,128,179.3L118.25,171l-.35-.3-.56.87a8.09,8.09,0,0,1,.84.4,14.28,14.28,0,0,1,6.83,8.49C127,187.12,117,186.52,117,186.52Z"/><path class="cls-14" d="M114.06,217.59s9.2,5.1,11.44,2.24a3.76,3.76,0,0,1,2.8-1c-.21-.65-.31-1.08-.31-1.08s-6.86-2.52-13.25-1.92Z"/><path class="cls-15" d="M118.29,170.67l10.07,8.65s8.5,5.92,11.71,3.48-11.52-15-11.52-15a29.71,29.71,0,0,1,8.83,5.63l1.75,1.62c4.6,4.27,5.64,4.27,5.8,10.54a8.83,8.83,0,0,1-.89,4.16c-1.5,1.47-2.54,12.09-2.31,13.34s-2.78,12-1.81,15-12.2-1.49-14.43,1.37-11.43-2.24-11.43-2.24,5.1-13.05,6.34-13.92,2.74-7.58,0-10.69a11.57,11.57,0,0,1-3-6.09s10,.61,8-6.09a14.11,14.11,0,0,0-7.65-8.89Z"/><path class="cls-7" d="M131.72,192.67s-3.86,7.27-8.85,9.16l-.49.16C117.17,203.58,132.11,194.93,131.72,192.67Z"/><path class="cls-13" d="M77.74,128.34s1.86,4.72,3.35,6.34,12.57,17.77,12.57,17.77l.93,2,.81,1.66,7.09-.75.49-2.86-.28-.33a33.66,33.66,0,0,0-4-4.14,45.46,45.46,0,0,1-4.85-5.34S83.82,132.2,83.08,129.34s-10.83-20-13.06-17S77.74,128.34,77.74,128.34Z"/><g class="cls-9"><path class="cls-7" d="M98.31,205.22a5.46,5.46,0,0,0-2.5.36c-1.76.85-2.09,3.16-3.07,4.85a8.21,8.21,0,0,1-5.55,3.66,12.48,12.48,0,0,1-1.35.18,15.28,15.28,0,0,0,4.27-.18,8.23,8.23,0,0,0,5.56-3.66c1-1.69,1.31-4,3.07-4.85a3.71,3.71,0,0,1,1.46-.34Z"/><path class="cls-7" d="M115.65,167.8c0-3.87,2.52-7.22,4.6-10.49s3.83-7.4,2.18-10.91c-1.4-3-9.88-7-14.77-6.23,4.79.62,10.69,3.77,11.84,6.23,1.65,3.51-.1,7.64-2.18,10.91s-4.61,6.62-4.6,10.49A45.76,45.76,0,0,1,111,181.42c-.4,1.39,3.41,3.49,2.83,4.8-2,4.39-1.06,9.46-1.37,14.26a6,6,0,0,1-.67,2.69c-1,1.6-3,2-4.93,2.1h1.71c2.27,0,5-.17,6.14-2.12a5.73,5.73,0,0,0,.67-2.69c.32-4.8-.61-9.87,1.37-14.25.6-1.32-3.22-3.41-2.83-4.81A44.84,44.84,0,0,0,115.65,167.8Z"/></g><path class="cls-7" d="M94.59,154.4l.81,1.66,7.09-.75.49-2.86-.28-.33C102,152.49,96.28,155.22,94.59,154.4Z"/><path class="cls-7" d="M120.78,173.09s-1.75-2.73-2.74-2-1.38-2.24-2-1.74-2.24,1.88-2.93-.05c-.54-1.55-6.44-11.3-8.83-15.22l-1-1.64s-6.72,3.36-8.33,2.24v2.36l1.36.13,7.33,13.66s2.3,3.66,2.14,4.94,3,6.87,3.45,7.24,5.86,6.59,5.86,6.59,2.74,13.43.37,17.16a25.49,25.49,0,0,1-6.47,6.46s-1.23,3.6-1.05,4-1.43,2-.69,2.49,1.74,4,1.74,4,3.49-5.59,5.37-6.46,4.3-12.31,4.3-12.31.69-6.74.74-11.09S119.28,173.09,120.78,173.09Z"/><path class="cls-6" d="M120.4,173.09s-1.74-2.73-2.73-2-1.39-2.24-2-1.74-2.23,1.88-2.93-.05c-.55-1.55-6.44-11.3-8.83-15.22l-1-1.64s-6.72,3.36-8.34,2.24v2.36l1.37.13,7.32,13.66s2.31,3.66,2.15,4.94,2.93,6.87,3.45,7.24,5.86,6.59,5.86,6.59,2.74,13.43.37,17.16a22.67,22.67,0,0,1-4.5,5,8.73,8.73,0,0,0-2.93,4.69,2.06,2.06,0,0,0-.09.78c.18.37-1.43,2-.68,2.49s1.75,4,1.75,4,3.48-5.59,5.37-6.46,4.3-12.31,4.3-12.31.68-6.74.74-11.09S118.94,173.09,120.4,173.09Z"/><path class="cls-7" d="M103.36,229.66s5.23,1,7.32,2.48-8-2.36-8-2.36Z"/><path class="cls-7" d="M115.93,242.89s5.45,4.54,4.47,8.65S116.91,266,116.91,266Z"/><path class="cls-7" d="M68.25,234.16s-7.68.84-7.18,1.84,7.18-.92,7.18-.92Z"/><path class="cls-7" d="M127.23,271.92s.49.62-2.36,0-.75-2.53-.75-2.53Z"/><path class="cls-7" d="M126.26,280.5s-3.91.62-6,0S126.26,280.5,126.26,280.5Z"/><path class="cls-7" d="M118.22,314.07s-.68-.75-4.1.61-4.79,1.43-5.78,1S118.22,314.07,118.22,314.07Z"/><path class="cls-7" d="M122,233.1l-4.85,6.75S119.78,233.94,122,233.1Z"/><path class="cls-7" d="M112.59,171.1s-.21,2.24-3.34,3.11-3.72,1.58-3.72,1.58"/><path class="cls-7" d="M104.46,154.87s-4.13,2.93-8.44,2.31Z"/><path class="cls-7" d="M107.6,217.53s1.21.76,4.1-2.55Z"/><path class="cls-7" d="M137.66,182.47a2.11,2.11,0,0,0-.69-1.64l-.81-1a3.45,3.45,0,0,0-.54-.54c-.48-.38-1.11-.49-1.62-.83"/><path class="cls-16" d="M399.7,12.44S358.61,10,363.45,38.74c0,0-1,5.09,3.65,7.4,0,0,.07-2.14,4.21-1.41a19.14,19.14,0,0,0,4.47.22,9.26,9.26,0,0,0,5.45-2.26s11.56-4.77,16-23.63c0,0,3.32-4.12,3.19-5.18l-6.94,3s2.37,5,.49,9.16c0,0-.22-9-1.56-8.78-.26,0-3.6,1.73-3.6,1.73s4.08,8.71,1,15c0,0,1.17-10.73-2.27-14.41l-4.88,2.85s4.76,9,1.53,16.33c0,0,.83-11.25-2.56-15.64l-4.42,3.45s4.47,8.87,1.74,15c0,0-.35-13.1-2.7-14.09,0,0-3.87,3.41-4.46,4.81,0,0,3.06,6.43,1.16,9.83,0,0-1.17-8.73-2.12-8.78,0,0-3.86,5.78-4.26,9.75,0,0,.17-5.89,3.33-10.3A11.63,11.63,0,0,0,364,35.8s.6-4.09,6.86-4.45c0,0,3.18-4.39,4-4.65,0,0-6.21-.52-10,1.15,0,0,3.32-3.86,11.14-2.11l4.36-3.56s-8.19-1.12-11.66.12c0,0,4-3.42,12.84-.93l4.75-2.84s-7-1.5-11.14-1c0,0,4.39-2.37,12.54.2l3.42-1.53s-5.12-1-6.62-1.17-1.57-.57-1.57-.57a17.75,17.75,0,0,1,9.61,1.07S399.83,12.9,399.7,12.44Z"/><path class="cls-16" d="M349,19.77s-18.54-1.13-16.37,11.88A3.18,3.18,0,0,0,334.29,35s0-1,1.91-.64a8.54,8.54,0,0,0,2,.1,4.16,4.16,0,0,0,2.46-1s5.22-2.15,7.26-10.68c0,0,1.49-1.86,1.43-2.34l-3.13,1.34a5.58,5.58,0,0,1,.23,4.14s-.1-4.06-.7-4c-.12,0-1.63.78-1.63.78s1.84,3.94.45,6.8c0,0,.53-4.85-1-6.51l-2.2,1.29s2.15,4.06.69,7.38c0,0,.38-5.09-1.16-7.07l-2,1.57s2,4,.79,6.76c0,0-.16-5.92-1.23-6.37a12.53,12.53,0,0,0-2,2.18s1.38,2.93.52,4.44c0,0-.52-3.95-1-4a13.24,13.24,0,0,0-1.93,4.39A9.53,9.53,0,0,1,335.58,29a5.21,5.21,0,0,0-2.67,1.38s.27-1.84,3.1-2a13.24,13.24,0,0,1,1.82-2.1,11.33,11.33,0,0,0-4.51.52s1.5-1.75,5-1l1.95-1.61s-3.7-.48-5.27.06c0,0,1.81-1.54,5.8-.42L343,22.51a19.12,19.12,0,0,0-5-.44s2-1.07,5.66.09l1.54-.69s-2.31-.46-3-.52-.72-.26-.72-.26a8,8,0,0,1,4.35.48A20,20,0,0,0,349,19.77Z"/><path class="cls-17" d="M413.81,329.78c10.83,0,19.62-1.48,19.62-3.32s-8.79-3.31-19.62-3.31-19.63,1.48-19.63,3.31S403,329.78,413.81,329.78Z"/><path class="cls-17" d="M421.92,321a5.63,5.63,0,0,0,1.87-2.82,2.52,2.52,0,0,0-1.31-2.88c-1.2-.46-2.48.38-3.45,1.22s-2.09,1.8-3.36,1.62a5.23,5.23,0,0,0,1.42-2.19,5.1,5.1,0,0,0,.16-2.6,2,2,0,0,0-.44-1c-.67-.72-1.87-.41-2.67.15-2.54,1.78-3.25,5.23-3.26,8.33a15.63,15.63,0,0,1-.05-3.42,3.49,3.49,0,0,0-1.29-3,3.79,3.79,0,0,0-2-.46,4.05,4.05,0,0,0-3.19.9,3.16,3.16,0,0,0,.12,3.91,12.59,12.59,0,0,0,3.31,2.64,7.22,7.22,0,0,1,2.35,2.25,1.59,1.59,0,0,1,.18.4h7.15A19.49,19.49,0,0,0,421.92,321Z"/></g></svg>