<svg xmlns="http://www.w3.org/2000/svg" viewBox="0 0 48 48"><defs><style>.cls-1{fill:none;stroke:#389583;stroke-width:2px;}</style></defs><title>bin</title><g id="Layer_2" data-name="Layer 2"><path class="cls-1" d="M29.72,20.7a1.85,1.85,0,0,0-1.78-1.27H24.26l-3.67-7.21a2,2,0,0,0-1.9-1h-7a2,2,0,0,0-2,1.08L3.63,25.8A1.87,1.87,0,1,0,7,27.36L10,20.9c0,1.67-.05,21.25-.05,22.92a2.25,2.25,0,0,0,2.36,2.25,2.29,2.29,0,0,0,2.14-2.31V31.38a.77.77,0,0,1,1.54,0V43.76a2.29,2.29,0,0,0,2.14,2.31,2.25,2.25,0,0,0,2.35-2.25c0-16.41,0-23.67,0-23.67l1,2a1.88,1.88,0,0,0,1.67,1h0l4.83,0A1.88,1.88,0,0,0,29.72,20.7Z"/><path class="cls-1" d="M15.47,10.45a4.26,4.26,0,1,0-4.26-4.26A4.27,4.27,0,0,0,15.47,10.45Z"/><path class="cls-1" d="M43.42,28.26H27.84a1.09,1.09,0,1,0,0,2.17H28l1.7,13.07a2.1,2.1,0,0,0,2.11,1.8h7.68a2.11,2.11,0,0,0,2.11-1.8l1.7-13.07h.14a1.09,1.09,0,1,0,0-2.17ZM33.31,36.94a1.08,1.08,0,0,1-1,1.21H32.2a1.12,1.12,0,0,1-1.12-.95l-.88-6.78h2.26Z"/><path class="cls-1" d="M31.75,26.15a.66.66,0,0,0,.35.49.69.69,0,0,0,.61,0l2.95-1.45A.63.63,0,0,0,36,24.5l-.59-2.71a.65.65,0,0,0-.33-.43.73.73,0,0,0-.56,0L31.78,22.4a.62.62,0,0,0-.41.66Z"/></g></svg>