<svg xmlns="http://www.w3.org/2000/svg" viewBox="0 0 64 64"><defs><style>.cls-1{fill:none;stroke:#389583;stroke-linecap:round;stroke-linejoin:round;stroke-width:2px;}</style></defs><title>closed_house</title><g id="Layer_2" data-name="Layer 2"><path class="cls-1" d="M5,29l9-7,9,7V40a2,2,0,0,1-2,2H7a2,2,0,0,1-2-2Z"/><path class="cls-1" d="M23,29l9-7,9,7V40a2,2,0,0,1-2,2H25a2,2,0,0,1-2-2Z"/><polyline class="cls-1" points="29 42 29 32 35 32 35 42"/><path class="cls-1" d="M41,29l9-7,9,7V40a2,2,0,0,1-2,2H43a2,2,0,0,1-2-2Z"/></g></svg>