<svg xmlns="http://www.w3.org/2000/svg" viewBox="0 0 64 64"><defs><style>.cls-1{fill:none;}.cls-2{fill:#edebed;}.cls-3{fill:#dbd9dc;}.cls-4{fill:#4b3f4e;}.cls-5{fill:#6f6571;}.cls-6{fill:#5d5360;}.cls-7{fill:#c9c6ca;}.cls-8{fill:#e6646e;}</style></defs><title>electric_meter</title><g id="Layer_2" data-name="Layer 2"><rect class="cls-1" width="64" height="64"/><path class="cls-2" d="M12.39,46.45V61.94A2.06,2.06,0,0,0,14.45,64h35.1a2.06,2.06,0,0,0,2.06-2.06V46.45Z"/><path class="cls-3" d="M51.61,46.45H12.39v3.1H51.61Z"/><path class="cls-4" d="M6.19,21.68a2.07,2.07,0,0,0,0,4.13,2.07,2.07,0,0,1,2.07,2.06V19.61A2.07,2.07,0,0,1,6.19,21.68Z"/><path class="cls-4" d="M57.81,21.68a2.07,2.07,0,0,1-2.07-2.07v8.26a2.07,2.07,0,0,1,2.07-2.06,2.07,2.07,0,0,0,0-4.13Z"/><path class="cls-5" d="M51.61,47.48H12.39a4.12,4.12,0,0,1-4.13-4.13V4.13A4.13,4.13,0,0,1,12.39,0H51.61a4.13,4.13,0,0,1,4.13,4.13V43.35A4.12,4.12,0,0,1,51.61,47.48Z"/><path class="cls-6" d="M52.64,39.23v-33A3.09,3.09,0,0,0,49.55,3.1h-33a1,1,0,0,1-1-1V0H12.39A4.13,4.13,0,0,0,8.26,4.13V43.35a4.12,4.12,0,0,0,4.13,4.13H51.61a4.12,4.12,0,0,0,4.13-4.13V40.26H53.68A1,1,0,0,1,52.64,39.23Z"/><path class="cls-2" d="M49.55,42.32H14.45a1,1,0,0,1-1-1V6.19a1,1,0,0,1,1-1h35.1a1,1,0,0,1,1,1v35.1A1,1,0,0,1,49.55,42.32Z"/><path class="cls-6" d="M16.52,47.48v7.23a1,1,0,0,0,1,1h28.9a1,1,0,0,0,1-1V47.48Z"/><path class="cls-4" d="M47.48,47.48h-31v2.07h31Z"/><path class="cls-6" d="M43.35,22.71H20.64a1,1,0,0,1-1-1V17.55a1,1,0,0,1,1-1H43.35a1,1,0,0,1,1,1v4.13A1,1,0,0,1,43.35,22.71Z"/><path class="cls-7" d="M21.68,32a2.07,2.07,0,1,0-2.07-2.07A2.06,2.06,0,0,0,21.68,32Z"/><path class="cls-7" d="M42.32,32a2.07,2.07,0,1,0-2.06-2.07A2.07,2.07,0,0,0,42.32,32Z"/><path class="cls-8" d="M32,32a2.07,2.07,0,1,0-2.07-2.07A2.06,2.06,0,0,0,32,32Z"/><path class="cls-4" d="M24.78,16.52H22.71v6.19h2.07Z"/><path class="cls-4" d="M28.9,16.52H26.84v6.19H28.9Z"/><path class="cls-4" d="M33,16.52H31v6.19H33Z"/><path class="cls-4" d="M37.16,16.52H35.1v6.19h2.06Z"/><path class="cls-4" d="M41.29,16.52H39.23v6.19h2.06Z"/><path class="cls-8" d="M43.35,22.71H41.29V16.52h2.06a1,1,0,0,1,1,1v4.13A1,1,0,0,1,43.35,22.71Z"/><path class="cls-3" d="M27.87,40.26A12.39,12.39,0,0,1,15.48,27.87V5.16h-1a1,1,0,0,0-1,1v35.1a1,1,0,0,0,1,1h35.1a1,1,0,0,0,1-1v-1Z"/><path class="cls-3" d="M21.68,47.48v5.16a1,1,0,1,0,2.06,0V47.48Z"/><path class="cls-7" d="M22.71,53.68a1,1,0,1,0-1-1A1,1,0,0,0,22.71,53.68Z"/><path class="cls-7" d="M22.71,50.58a1,1,0,1,0-1-1A1,1,0,0,0,22.71,50.58Z"/><path class="cls-3" d="M27.87,47.48v5.17a1,1,0,0,0,2.07,0V47.48Z"/><path class="cls-7" d="M28.9,53.68a1,1,0,1,0-1-1A1,1,0,0,0,28.9,53.68Z"/><path class="cls-7" d="M28.9,50.58a1,1,0,1,0-1-1A1,1,0,0,0,28.9,50.58Z"/><path class="cls-3" d="M34.07,47.48v5.17a1,1,0,0,0,2.06,0V47.48Z"/><path class="cls-7" d="M35.1,53.68a1,1,0,0,0,0-2.07,1,1,0,1,0,0,2.07Z"/><path class="cls-7" d="M35.1,50.58a1,1,0,1,0-1-1A1,1,0,0,0,35.1,50.58Z"/><path class="cls-3" d="M40.26,47.48v5.17a1,1,0,0,0,2.06,0V47.48Z"/><path class="cls-7" d="M41.29,53.68a1,1,0,1,0-1-1A1,1,0,0,0,41.29,53.68Z"/><path class="cls-7" d="M41.29,50.58a1,1,0,1,0-1-1A1,1,0,0,0,41.29,50.58Z"/></g></svg>