<svg xmlns="http://www.w3.org/2000/svg" xmlns:xlink="http://www.w3.org/1999/xlink" viewBox="0 0 48 48"><defs><style>.cls-1{fill:none;}.cls-2{clip-path:url(#clip-path);}.cls-3{fill:#389583;}</style><clipPath id="clip-path"><rect class="cls-1" width="48" height="48"/></clipPath></defs><title>electricity</title><g id="Layer_2" data-name="Layer 2"><g class="cls-2"><path class="cls-3" d="M41.93,28.57l0-.47C41.35,21,38,16.46,35.07,12.5,32.35,8.84,30,5.67,30,1A1,1,0,0,0,28.42.19,25.41,25.41,0,0,0,19,13.76,44.62,44.62,0,0,0,18,23.9c-4.08-.87-5-7-5-7a1,1,0,0,0-.52-.74,1,1,0,0,0-.91,0C11.35,16.21,6.32,18.76,6,29c0,.34,0,.68,0,1a18,18,0,0,0,36,0C42,29.5,42,29,41.93,28.57ZM24,46a6.21,6.21,0,0,1-6-6.39c0-.12,0-.24,0-.39A8.14,8.14,0,0,1,18.64,36a3.65,3.65,0,0,0,3.3,2.39,1,1,0,0,0,1-1,19.64,19.64,0,0,1,.39-4.54,9.51,9.51,0,0,1,2-3.84,12.68,12.68,0,0,0,2.06,3.78A11.41,11.41,0,0,1,30,39.08a4.45,4.45,0,0,1,0,.53A6.21,6.21,0,0,1,24,46Zm6.32-1.31A8.53,8.53,0,0,0,32,39.61c0-.24,0-.46,0-.86a13.14,13.14,0,0,0-2.91-7.07c-1.07-1.51-2-2.82-2-4.68a1,1,0,0,0-1.6-.8,11.69,11.69,0,0,0-4.08,6.22A19.12,19.12,0,0,0,21,36a4.78,4.78,0,0,1-.91-2.15,1,1,0,0,0-.53-.75,1,1,0,0,0-.92,0c-.25.13-2.46,1.4-2.59,6.07,0,.15,0,.31,0,.47a8.53,8.53,0,0,0,1.68,5.08A16,16,0,0,1,8,30c0-.3,0-.6,0-.93.17-6,2.09-9,3.34-10.28C12.24,21.92,14.52,26,19,26a1,1,0,0,0,1-1,44.82,44.82,0,0,1,1-10.75A23.72,23.72,0,0,1,28.13,3c.55,4.28,2.89,7.42,5.34,10.72,2.91,3.93,5.93,8,6.43,14.55l0,.48c0,.42.06.83.06,1.28A16,16,0,0,1,30.32,44.69Z"/></g></g></svg>