<svg xmlns="http://www.w3.org/2000/svg" viewBox="0 0 48 48"><defs><style>.cls-1{fill:#389583;}</style></defs><title>energy</title><g id="Layer_2" data-name="Layer 2"><path class="cls-1" d="M40.22,19.37,24,19.32,30.13,1.69A1.3,1.3,0,0,0,29.77.3a1.22,1.22,0,0,0-1.71.15C25.68,3.35,23.3,6.24,21,9.14L6.69,26.66a1.33,1.33,0,0,0-.26.78,1.17,1.17,0,0,0,1.19,1.19l16.25.05L17.71,46.31a1.3,1.3,0,0,0,.37,1.39,1.2,1.2,0,0,0,1.7-.15c2.49-3,4.87-5.9,7.25-8.74C31.84,33,36.65,27.23,41.2,21.34a1.23,1.23,0,0,0,.26-.73A1.26,1.26,0,0,0,40.22,19.37ZM25.16,37.21c-.93,1.14-1.91,2.27-2.84,3.41L26.77,27.9A1.22,1.22,0,0,0,26,26.35a1.44,1.44,0,0,0-.46-.05l-15.32-.05c4.24-5.17,8.43-10.34,12.68-15.51l2.69-3.31L21.13,20.1a1.21,1.21,0,0,0,.77,1.55,1.51,1.51,0,0,0,.47.05l15.42.05C33.7,27,29.46,32.09,25.16,37.21Z"/><path class="cls-1" d="M20.45,3.24A1.21,1.21,0,0,0,19,2.31,21.57,21.57,0,0,0,6.74,10a22,22,0,0,0,6.78,33,1.23,1.23,0,1,0,1.14-2.17A19.52,19.52,0,0,1,4.41,23.66a19.58,19.58,0,0,1,15.11-19A1.21,1.21,0,0,0,20.45,3.24Z"/><path class="cls-1" d="M43,12.5a21.91,21.91,0,0,0-8.33-8.07,1.22,1.22,0,0,0-1.19,2.12,19.61,19.61,0,0,1,7.4,7.14,19.5,19.5,0,0,1-12.62,29A1.21,1.21,0,0,0,28.78,45,22.06,22.06,0,0,0,46,23.56,21.13,21.13,0,0,0,43,12.5Z"/></g></svg>