<svg xmlns="http://www.w3.org/2000/svg" viewBox="0 0 48 48"><defs><style>.cls-1{fill:none;stroke:#389583;stroke-width:2px;}</style></defs><title>footprint</title><g id="Layer_2" data-name="Layer 2"><path class="cls-1" d="M32.62,16.93c-4.79-5.53-16.18-5.14-17-.69C15,20,18.91,22,20.77,24a6.58,6.58,0,0,1,.75,8.27c-.74,1-5.16,5.49-3.85,9.9a5,5,0,0,0,4.14,3.66C28.35,47.14,29,42,29.1,39.65a16.09,16.09,0,0,1,1.28-6.24C32.56,28.45,35.87,20.67,32.62,16.93Z"/><path class="cls-1" d="M16.09,2c1.47-.24,3,1.51,3.37,3.9s-.51,4.52-2,4.76-3-1.51-3.37-3.9S14.61,2.26,16.09,2Zm8.64,4.52c.09,1.67-.68,3.07-1.71,3.13s-1.94-1.25-2-2.93.68-3.07,1.71-3.13S24.63,4.87,24.73,6.54Zm4.34,1.21c.07,1.35-.55,2.49-1.39,2.54S26.1,9.27,26,7.91s.54-2.5,1.38-2.54S29,6.39,29.07,7.75Zm2.67,2c-.07,1-.63,1.79-1.25,1.74s-1.07-.89-1-1.9.63-1.78,1.25-1.73S31.82,8.75,31.74,9.75Zm1.9,2.37c0,.8-.5,1.42-1,1.39s-.85-.71-.8-1.52.51-1.42,1-1.38S33.7,11.32,33.64,12.12Z"/></g></svg>