<svg xmlns="http://www.w3.org/2000/svg" viewBox="0 0 48 48"><defs><style>.cls-1{fill:#389583;}</style></defs><title>fuel_oil</title><g id="Layer_2" data-name="Layer 2"><path class="cls-1" d="M35.61,6.19H19.35V4.65h.78a.77.77,0,0,0,.77-.78V.77A.77.77,0,0,0,20.13,0H9.29a.77.77,0,0,0-.77.77v3.1a.77.77,0,0,0,.77.78h.77V6.72A5.45,5.45,0,0,0,7,11.61v31A5.42,5.42,0,0,0,12.39,48H35.61A5.42,5.42,0,0,0,41,42.58v-31A5.42,5.42,0,0,0,35.61,6.19Zm3.87,5.42V23.68l-3.09-3.1V13.16a2.33,2.33,0,0,0-2.33-2.32H26.64l-3.09-3.1H35.61A3.87,3.87,0,0,1,39.48,11.61ZM34.84,19l-6.65-6.64h5.87a.77.77,0,0,1,.78.77ZM10.06,1.55h9.29V3.1H10.06Zm1.55,3.1h6.2V6.19H12.39a5,5,0,0,0-.78.07Zm24,41.8H12.39a3.87,3.87,0,0,1-3.87-3.87v-31a3.87,3.87,0,0,1,3.87-3.87h9L39.48,25.87V42.58A3.87,3.87,0,0,1,35.61,46.45Z"/><path class="cls-1" d="M20.68,9.52a.78.78,0,0,0-.55-.23h-7a3.1,3.1,0,0,0-3.1,3.1V41.81a3.1,3.1,0,0,0,3.1,3.09H34.84a3.1,3.1,0,0,0,3.1-3.09V27.1a.79.79,0,0,0-.23-.55ZM36.39,41.81a1.55,1.55,0,0,1-1.55,1.54H13.16a1.55,1.55,0,0,1-1.55-1.54V12.39a1.55,1.55,0,0,1,1.55-1.55h6.65L36.39,27.42Z"/><path class="cls-1" d="M17.81,34.64a5.53,5.53,0,0,0,4.76,5.58c.22,0,.43,0,.64,0a5.42,5.42,0,0,0,5.44-5.42v-.2a9.1,9.1,0,0,0-1.12-4.36l-3.62-6.65a.8.8,0,0,0-1.36,0l-3.63,6.65A9.09,9.09,0,0,0,17.81,34.64ZM20.28,31l2.95-5.4L26.17,31a7.53,7.53,0,0,1,.93,3.62v.2a3.89,3.89,0,0,1-1.3,2.89,3.85,3.85,0,0,1-3.05,1,4,4,0,0,1-3.4-4A7.53,7.53,0,0,1,20.28,31Z"/><path class="cls-1" d="M26.32,34.84H24.77a1.55,1.55,0,0,1-1.54,1.55v1.55A3.1,3.1,0,0,0,26.32,34.84Z"/></g></svg>