<svg xmlns="http://www.w3.org/2000/svg" xmlns:xlink="http://www.w3.org/1999/xlink" viewBox="0 0 48 48"><defs><style>.cls-1{fill:none;}.cls-2{clip-path:url(#clip-path);}.cls-3{fill:#389583;}</style><clipPath id="clip-path"><rect class="cls-1" width="48" height="48"/></clipPath></defs><title>heat</title><g id="Layer_2" data-name="Layer 2"><g class="cls-2"><path class="cls-3" d="M44.4,5.44H3.6A3.61,3.61,0,0,0,0,9.05V27.1a3.61,3.61,0,0,0,3.6,3.61h9.92a7.59,7.59,0,0,1-.07,8.34L12,41.19a.85.85,0,0,0,.7,1.31.85.85,0,0,0,.7-.38L14.85,40a9.28,9.28,0,0,0,.61-9.28h9a7.59,7.59,0,0,1-.07,8.34L23,41.19a.85.85,0,0,0,.7,1.31.85.85,0,0,0,.7-.38L25.8,40a9.28,9.28,0,0,0,.61-9.28h9a7.61,7.61,0,0,1-.07,8.34l-1.43,2.14a.84.84,0,0,0,.24,1.16.79.79,0,0,0,.46.15.87.87,0,0,0,.71-.38L36.75,40a9.27,9.27,0,0,0,.6-9.28h7A3.61,3.61,0,0,0,48,27.1v-18a3.61,3.61,0,0,0-3.6-3.61ZM46.32,27.1A1.92,1.92,0,0,1,44.4,29h-8a7.68,7.68,0,0,1-.92-3.61V22.28h2.42a.83.83,0,0,0,.7-.38.84.84,0,0,0,.07-.8L35.53,14a.84.84,0,0,0-.77-.51A.83.83,0,0,0,34,14L30.86,21.1a.83.83,0,0,0,.77,1.18h2.15v3.13A9.29,9.29,0,0,0,34.52,29H25.45a7.58,7.58,0,0,1-.93-3.61V22.28h2.42a.83.83,0,0,0,.7-.38.84.84,0,0,0,.07-.8L24.58,14a.83.83,0,0,0-.77-.51A.84.84,0,0,0,23,14L19.91,21.1a.81.81,0,0,0,.07.8.83.83,0,0,0,.7.38h2.16v3.13A9.28,9.28,0,0,0,23.57,29H14.5a7.58,7.58,0,0,1-.93-3.61V22.28H16a.83.83,0,0,0,.77-1.18L13.63,14a.83.83,0,0,0-.77-.51.85.85,0,0,0-.77.51L9,21.1a.84.84,0,0,0,.07.8.83.83,0,0,0,.7.38h2.16v3.13A9.28,9.28,0,0,0,12.62,29h-9A1.93,1.93,0,0,1,1.68,27.1v-18A1.93,1.93,0,0,1,3.6,7.13H44.4a1.92,1.92,0,0,1,1.92,1.92Zm-13.4-6.5,1.84-4.21L36.6,20.6Zm-11,0,1.84-4.21,1.84,4.21ZM11,20.6l1.84-4.21L14.7,20.6Z"/></g></g></svg>