<svg xmlns="http://www.w3.org/2000/svg" viewBox="0 0 48 48"><defs><style>.cls-1{fill:#389583;}</style></defs><title>recycle</title><g id="Layer_2" data-name="Layer 2"><path class="cls-1" d="M43.54,6.5a.8.8,0,0,0-.71,0L39.39,8.25l-2.7-4.63A5.29,5.29,0,0,0,32,.82H18.66A5.71,5.71,0,0,0,13.8,3.57l-2.48,4a.79.79,0,0,0,.25,1.09l8.8,5.6a.82.82,0,0,0,.43.12l.2,0a.8.8,0,0,0,.5-.38l3.36-6,3.68,7-3.35,2a.79.79,0,0,0-.37.86.8.8,0,0,0,.69.62l11.9,1.35h.09a.8.8,0,0,0,.72-.45l5.7-11.74A.8.8,0,0,0,43.54,6.5Zm-23,6L13.09,7.76,15.17,4.4a4.11,4.11,0,0,1,3.49-2h3.25l2,4ZM37,18.1l-9-1,2-1.19a.79.79,0,0,0,.29-1.05L23.74,2.42H32a3.74,3.74,0,0,1,3.31,2L38.38,9.7a.8.8,0,0,0,1.06.31l2-1Z"/><path class="cls-1" d="M47.3,23.2,44.71,18a.79.79,0,0,0-1.07-.35l0,0L34,23.31a.8.8,0,0,0-.3,1.08l3.34,6H29.6V27.2a.8.8,0,0,0-.8-.8.77.77,0,0,0-.59.26l-8,8.79a.8.8,0,0,0,0,1l8,10.39a.81.81,0,0,0,1.44-.49V44h5.6a5.12,5.12,0,0,0,4.69-2.8l5.6-9.58,1.66-2.69A5.66,5.66,0,0,0,47.3,23.2ZM38.5,40.4a3.57,3.57,0,0,1-3.3,2H28.8a.8.8,0,0,0-.8.8V44l-6.16-8L28,29.26v1.93a.8.8,0,0,0,.8.8H43.4Zm7.29-12.33-1.44,2.32H38.87L35.48,24.3l8.18-4.78L45.88,24A4.08,4.08,0,0,1,45.79,28.07Z"/><path class="cls-1" d="M19.13,24.46l-4.8-10.39a.8.8,0,0,0-.78-.46l-12.8.8a.8.8,0,0,0-.75.85.82.82,0,0,0,.38.63h0l4,2.45L1.69,23.62a5.77,5.77,0,0,0,0,5.58l4.45,7.68,2.43,4.21a5.9,5.9,0,0,0,5,2.89h3.2a.8.8,0,0,0,.8-.8V32a.8.8,0,0,0-.8-.8h-6l4-6.91,3.3,1.27a.82.82,0,0,0,1-.46A.86.86,0,0,0,19.13,24.46ZM16,32.79v9.59H13.6A4.24,4.24,0,0,1,10,40.29l-2.2-3.8,2.27-3.7ZM14.75,22.54a.79.79,0,0,0-1,.35l-6.92,12L3.09,28.4a4.15,4.15,0,0,1,0-4l3-6a.81.81,0,0,0-.3-1L3.35,15.85l9.75-.61,3.75,8.11Z"/></g></svg>