<svg xmlns="http://www.w3.org/2000/svg" viewBox="0 0 64 64"><defs><style>.cls-1{fill:#4671c6;}.cls-2{fill:#a4c9ff;}.cls-3{fill:#f9cfcf;}.cls-4{fill:#ffea92;}.cls-5{fill:#6bdddd;}.cls-6{fill:#f9a7a7;}.cls-7{fill:#3762cc;}.cls-8{fill:#e0ebfc;}</style></defs><title>smart_meter</title><g id="Layer_2" data-name="Layer 2"><path class="cls-1" d="M32,62.23A21.68,21.68,0,1,0,10.32,40.56,21.68,21.68,0,0,0,32,62.23Z"/><path class="cls-2" d="M41.28,40.56a9.28,9.28,0,1,0-18.56,0H14.29a17.71,17.71,0,0,0,35.42,0Z"/><path class="cls-3" d="M32,46.5a5.95,5.95,0,1,0-5.95-5.94A5.95,5.95,0,0,0,32,46.5Z"/><path class="cls-4" d="M32,22.84a17.55,17.55,0,0,0-9.65,2.88l4.59,7.06a9.28,9.28,0,0,1,10.12,0l4.59-7.06A17.55,17.55,0,0,0,32,22.84Z"/><path class="cls-5" d="M26.94,32.78l-4.59-7.06a17.69,17.69,0,0,0-8.06,14.84h8.43A9.28,9.28,0,0,1,26.94,32.78Z"/><path class="cls-6" d="M41.65,25.72l-4.59,7.06a9.28,9.28,0,0,1,4.22,7.78h8.43a17.69,17.69,0,0,0-8.06-14.84Z"/><path class="cls-7" d="M32,62.73A22.18,22.18,0,1,1,54.18,40.56,22.2,22.2,0,0,1,32,62.73Zm0-43.35A21.18,21.18,0,1,0,53.18,40.56,21.2,21.2,0,0,0,32,19.38Z"/><path class="cls-3" d="M35,10.79a4.45,4.45,0,0,0-6,0,1.27,1.27,0,0,0,0,1.9,1.06,1.06,0,0,0,.66.23h0a1.07,1.07,0,0,0,.71-.27,2.35,2.35,0,0,1,3.16,0,1,1,0,0,0,.7.27,1.06,1.06,0,0,0,.67-.24,1.3,1.3,0,0,0,0-1.9Z"/><path class="cls-3" d="M38.19,8.34A8.13,8.13,0,0,0,32,5.46h0A8.13,8.13,0,0,0,25.82,8.4,1.29,1.29,0,0,0,26,10.2a1.06,1.06,0,0,0,.66.23,1.1,1.1,0,0,0,.82-.38A6,6,0,0,1,32,7.87h0A6,6,0,0,1,36.58,10a1.11,1.11,0,0,0,.82.38,1,1,0,0,0,.66-.24,1.27,1.27,0,0,0,.44-.86,1.32,1.32,0,0,0-.31-.94Z"/><path class="cls-6" d="M41.28,5.86A11.9,11.9,0,0,0,32,1.27H32A11.9,11.9,0,0,0,22.71,6a1.28,1.28,0,0,0,.19,1.76,1.07,1.07,0,0,0,.66.24h0a1.06,1.06,0,0,0,.83-.42A9.8,9.8,0,0,1,32,3.68h0a9.76,9.76,0,0,1,7.58,3.78,1,1,0,0,0,1.51.16,1.29,1.29,0,0,0,.16-1.76Z"/><path class="cls-6" d="M32,16.79a1.35,1.35,0,1,0-1.34-1.34A1.35,1.35,0,0,0,32,16.79Z"/><path class="cls-7" d="M37.06,33.28a.57.57,0,0,1-.28-.08,8.76,8.76,0,0,0-9.56,0,.51.51,0,0,1-.7-.15L21.93,26a.49.49,0,0,1,.15-.69,18.1,18.1,0,0,1,19.84,0,.49.49,0,0,1,.15.69l-4.59,7.06a.51.51,0,0,1-.32.22ZM32,30.78a9.68,9.68,0,0,1,4.9,1.32L41,25.87a17.13,17.13,0,0,0-17.92,0L27.1,32.1A9.68,9.68,0,0,1,32,30.78Z"/><path class="cls-7" d="M22.72,41.06H14.29a.5.5,0,0,1-.5-.5A18.17,18.17,0,0,1,22.08,25.3a.44.44,0,0,1,.37-.07.47.47,0,0,1,.32.21l4.59,7.07a.5.5,0,0,1-.14.69,8.74,8.74,0,0,0-4,7.36.5.5,0,0,1-.5.5Zm-7.92-1h7.43a9.75,9.75,0,0,1,4-7.41l-4.05-6.24A17.17,17.17,0,0,0,14.8,40.06Z"/><path class="cls-7" d="M49.71,41.06H41.28a.5.5,0,0,1-.5-.5,8.74,8.74,0,0,0-4-7.36.5.5,0,0,1-.14-.69l4.59-7.07a.49.49,0,0,1,.32-.21.47.47,0,0,1,.38.07,18.18,18.18,0,0,1,8.28,15.26.5.5,0,0,1-.5.5Zm-7.94-1h7.44a17.2,17.2,0,0,0-7.42-13.65l-4,6.24a9.75,9.75,0,0,1,4,7.41Z"/><path class="cls-7" d="M32,58.77A18.23,18.23,0,0,1,13.79,40.56a.5.5,0,0,1,.5-.5h7.94a9.78,9.78,0,0,1,19.54,0h7.94a.5.5,0,0,1,.5.5A18.23,18.23,0,0,1,32,58.77ZM14.8,41.06a17.21,17.21,0,0,0,34.41,0H41.28a.5.5,0,0,1-.5-.5,8.78,8.78,0,0,0-17.56,0,.5.5,0,0,1-.5.5Zm27-.5Z"/><path class="cls-7" d="M32,47a6.45,6.45,0,1,1,6.45-6.44A6.46,6.46,0,0,1,32,47Zm0-11.89a5.45,5.45,0,1,0,5.45,5.45A5.46,5.46,0,0,0,32,35.11Z"/><path class="cls-8" d="M29,39.45A3.13,3.13,0,0,0,30.85,43a3.11,3.11,0,0,0,4-1.85A3,3,0,0,0,35,39.53L32.4,26.09a.46.46,0,0,0-.9,0Z"/><path class="cls-7" d="M32,43.67a3.54,3.54,0,0,1-1.28-.24,3.61,3.61,0,0,1-2.16-4.07L31,26a.94.94,0,0,1,.94-.77h0a.94.94,0,0,1,.94.77l2.59,13.45a3.44,3.44,0,0,1-.11,1.84A3.66,3.66,0,0,1,32,43.67ZM32,26.4,29.49,39.54A2.53,2.53,0,0,0,32,42.67a2.65,2.65,0,0,0,2.44-1.73,2.48,2.48,0,0,0,.07-1.31ZM29,39.45Z"/><path class="cls-6" d="M32,41.59a1.52,1.52,0,1,0-1.51-1.52A1.51,1.51,0,0,0,32,41.59Z"/><path class="cls-7" d="M32,42.09a2,2,0,1,1,2-2A2,2,0,0,1,32,42.09Zm0-3a1,1,0,1,0,1,1A1,1,0,0,0,32,39.06Z"/></g></svg>