<svg xmlns="http://www.w3.org/2000/svg" viewBox="0 0 48 48"><defs><style>.cls-1{fill:none;}.cls-2{fill:#389583;}</style></defs><title>sound</title><g id="Layer_2" data-name="Layer 2"><rect class="cls-1" y="0.02" width="48" height="47.96"/><path class="cls-2" d="M4.05,41.81a7.05,7.05,0,0,0,8.85.9l4.86,4.86a1.41,1.41,0,0,0,2,0l4-4a1.39,1.39,0,0,0,0-2L19,36.86c9.48-9,19.25-9.6,22.29-10.67a1.4,1.4,0,0,0,.66-2.35L20.05,2a1.41,1.41,0,0,0-2.36.65C16.66,5.52,16,16,6.28,25.67L2.06,29.89a7,7,0,0,0,0,9.94Zm14.71,2.78L15,40.82l2-2,3.77,3.77ZM9,26.9A41.16,41.16,0,0,0,18.11,12L31.94,25.78a41,41,0,0,0-15,9.09ZM19.82,5.72,38.18,24.07l-3.18.8L19,8.9ZM4.05,31.88l3-3,8,8-3,3a4.22,4.22,0,0,1-6,0l-2-2A4.21,4.21,0,0,1,4.05,31.88Z"/><path class="cls-2" d="M29.63,8.55A1.41,1.41,0,0,0,31,7.14V1.43a1.41,1.41,0,1,0-2.81,0V7.14A1.41,1.41,0,0,0,29.63,8.55Z"/><path class="cls-2" d="M34.62,11.21a1.42,1.42,0,0,0,1.89-.63L38.45,6.7l1.43,1.43a1.4,1.4,0,0,0,2.25-.35L45,2.06A1.41,1.41,0,0,0,42.53.79l-2,4L39.06,3.34a1.4,1.4,0,0,0-2.25.36L34,9.32A1.42,1.42,0,0,0,34.62,11.21Z"/><path class="cls-2" d="M42,11.86a1.41,1.41,0,0,0-1-.5,1.39,1.39,0,0,0-1.06.41l-2.81,2.81a1.4,1.4,0,1,0,2,2l1.72-1.72,1.82,2.21a1.41,1.41,0,0,0,2.17,0l2.9-3.48a1.41,1.41,0,0,0-2.16-1.8L43.69,14Z"/></g></svg>