<svg xmlns="http://www.w3.org/2000/svg" viewBox="0 0 48 48"><defs><style>.cls-1{fill:#389583;}</style></defs><title>water</title><g id="Layer_2" data-name="Layer 2"><path class="cls-1" d="M15.18,33.6c7.75,0,12-4.55,12-12.81,0-7.73-10.95-20-11.42-20.54a.84.84,0,0,0-.6-.25.82.82,0,0,0-.59.25C14.12.77,3.17,13.06,3.17,20.79,3.17,29.05,7.44,33.6,15.18,33.6ZM15.18,2C17.48,4.7,25.6,14.65,25.6,20.79,25.6,25.9,23.79,32,15.18,32S4.77,25.9,4.77,20.79C4.77,14.65,12.89,4.7,15.18,2Z"/><path class="cls-1" d="M37.61,35.2c4.58,0,7.21-3.06,7.21-8.38,0-5-6.35-11.88-6.62-12.17a.82.82,0,0,0-1.18,0c-.27.29-6.62,7.16-6.62,12.17C30.4,32.14,33,35.2,37.61,35.2Zm0-18.8c1.54,1.8,5.61,6.86,5.61,10.42,0,4.49-1.89,6.78-5.61,6.78S32,31.31,32,26.82C32,23.26,36.06,18.2,37.61,16.4Z"/><path class="cls-1" d="M25.8,32.27c-.21.23-5,5.71-5,9.33,0,4.07,2,6.4,5.61,6.4S32,45.67,32,41.6c0-3.62-4.8-9.1-5-9.33a.83.83,0,0,0-.6-.26A.79.79,0,0,0,25.8,32.27Zm.6,14.13c-2.66,0-4-1.62-4-4.8,0-2.18,2.51-5.72,4-7.56,1.5,1.84,4,5.38,4,7.56C30.4,44.78,29.05,46.4,26.4,46.4Z"/><path class="cls-1" d="M13.5,30.39h.08a.8.8,0,0,0,.08-1.6,5.91,5.91,0,0,1-4.28-2.18C7.25,23.84,8,19.37,8,19.32a.79.79,0,0,0-.66-.89.81.81,0,0,0-.92.63c0,.21-.83,5.19,1.73,8.52A7.37,7.37,0,0,0,13.5,30.39Z"/><path class="cls-1" d="M36.81,32a5.61,5.61,0,0,0,3.92-1.69,4.79,4.79,0,0,0,.87-4,.8.8,0,0,0-1.58.27,3.26,3.26,0,0,1-.51,2.74,4,4,0,0,1-2.7,1.13.8.8,0,0,0,0,1.6Z"/><path class="cls-1" d="M26,43.28a.88.88,0,0,1-.52-.56.89.89,0,0,1,.08-.76.8.8,0,1,0-1.43-.72,2.52,2.52,0,0,0,1.16,3.48A.8.8,0,0,0,26,43.29Z"/></g></svg>