<svg width="57" height="60" viewBox="0 0 57 60" fill="none" xmlns="http://www.w3.org/2000/svg">
<mask id="mask0" mask-type="alpha" maskUnits="userSpaceOnUse" x="2" y="8" width="52" height="52">
<path d="M28.2856 59.9999C42.4872 59.9999 53.9999 48.4872 53.9999 34.2856C53.9999 20.084 42.4872 8.57129 28.2856 8.57129C14.084 8.57129 2.57129 20.084 2.57129 34.2856C2.57129 48.4872 14.084 59.9999 28.2856 59.9999Z" fill="white"/>
</mask>
<g mask="url(#mask0)">
<path d="M28.2856 59.9999C42.4872 59.9999 53.9999 48.4872 53.9999 34.2856C53.9999 20.084 42.4872 8.57129 28.2856 8.57129C14.084 8.57129 2.57129 20.084 2.57129 34.2856C2.57129 48.4872 14.084 59.9999 28.2856 59.9999Z" fill="#E6E6E6"/>
<path d="M53.9999 8.57129H2.57129V59.9999H53.9999V8.57129Z" fill="#65C9FF"/>
</g>
<mask id="mask1" mask-type="alpha" maskUnits="userSpaceOnUse" x="0" y="0" width="57" height="60">
<path d="M2.57143 34.2857C2.57143 48.4873 14.0841 60 28.2857 60C42.4873 60 54 48.4873 54 34.2857H56.5714V0H0V34.2857H2.57143Z" fill="white"/>
</mask>
<g mask="url(#mask1)">
<mask id="mask2" mask-type="alpha" maskUnits="userSpaceOnUse" x="6" y="7" width="44" height="53">
<path d="M33.4288 38.7024V42.6429H34.286C42.8069 42.6429 49.7146 49.5505 49.7146 58.0715V60.0001H6.85742V58.0715C6.85742 49.5505 13.765 42.6429 22.286 42.6429H23.1431V38.7024C19.4494 36.9477 16.7943 33.3616 16.3514 29.1175C15.1032 28.941 14.1431 27.8684 14.1431 26.5715V23.5715C14.1431 22.2974 15.0698 21.2397 16.286 21.0356V19.7144C16.286 13.0869 21.6586 7.71436 28.286 7.71436C34.9134 7.71436 40.286 13.0869 40.286 19.7144V21.0356C41.5021 21.2397 42.4288 22.2974 42.4288 23.5715V26.5715C42.4288 27.8684 41.4688 28.941 40.2206 29.1175C39.7777 33.3616 37.1226 36.9477 33.4288 38.7024Z" fill="white"/>
</mask>
<g mask="url(#mask2)">
<path d="M33.4288 38.7024V42.6429H34.286C42.8069 42.6429 49.7146 49.5505 49.7146 58.0715V60.0001H6.85742V58.0715C6.85742 49.5505 13.765 42.6429 22.286 42.6429H23.1431V38.7024C19.4494 36.9477 16.7943 33.3616 16.3514 29.1175C15.1032 28.941 14.1431 27.8684 14.1431 26.5715V23.5715C14.1431 22.2974 15.0698 21.2397 16.286 21.0356V19.7144C16.286 13.0869 21.6586 7.71436 28.286 7.71436C34.9134 7.71436 40.286 13.0869 40.286 19.7144V21.0356C41.5021 21.2397 42.4288 22.2974 42.4288 23.5715V26.5715C42.4288 27.8684 41.4688 28.941 40.2206 29.1175C39.7777 33.3616 37.1226 36.9477 33.4288 38.7024Z" fill="#D0C6AC"/>
<path d="M56.5714 7.71436H0V60.0001H56.5714V7.71436Z" fill="#FFDBB4"/>
<path fill-rule="evenodd" clip-rule="evenodd" d="M40.2861 24.6431V29.5716C40.2861 36.1991 34.9135 41.5716 28.2861 41.5716C21.6587 41.5716 16.2861 36.1991 16.2861 29.5716V24.6431V27.8574C16.2861 34.4848 21.6587 39.8574 28.2861 39.8574C34.9135 39.8574 40.2861 34.4848 40.2861 27.8574V24.6431Z" fill="black" fill-opacity="0.1"/>
</g>
<mask id="mask3" mask-type="alpha" maskUnits="userSpaceOnUse" x="6" y="42" width="44" height="18">
<path fill-rule="evenodd" clip-rule="evenodd" d="M35.5632 42.7061C43.4867 43.3554 49.7146 49.9917 49.7146 58.0826V60H6.85742V58.0826C6.85742 49.9185 13.1986 43.2354 21.2243 42.6899C21.2178 42.77 21.2146 42.8506 21.2146 42.9317C21.2146 45.4738 24.4285 47.5345 28.3931 47.5345C32.3577 47.5345 35.5717 45.4738 35.5717 42.9317C35.5717 42.856 35.5689 42.7808 35.5632 42.7061Z" fill="white"/>
</mask>
<g mask="url(#mask3)">
<path fill-rule="evenodd" clip-rule="evenodd" d="M35.5632 42.7061C43.4867 43.3554 49.7146 49.9917 49.7146 58.0826V60H6.85742V58.0826C6.85742 49.9185 13.1986 43.2354 21.2243 42.6899C21.2178 42.77 21.2146 42.8506 21.2146 42.9317C21.2146 45.4738 24.4285 47.5345 28.3931 47.5345C32.3577 47.5345 35.5717 45.4738 35.5717 42.9317C35.5717 42.856 35.5689 42.7808 35.5632 42.7061Z" fill="#E6E6E6"/>
<path d="M56.5714 36.4287H0V60.0001H56.5714V36.4287Z" fill="#262E33"/>
<g opacity="0.6">
<g opacity="0.6">
<path opacity="0.6" d="M28.3936 49.0203C33.0843 49.0203 36.8869 46.4383 36.8869 43.2531C36.8869 40.0679 33.0843 37.4858 28.3936 37.4858C23.7029 37.4858 19.9004 40.0679 19.9004 43.2531C19.9004 46.4383 23.7029 49.0203 28.3936 49.0203Z" fill="black" fill-opacity="0.16"/>
</g>
</g>
</g>
<path fill-rule="evenodd" clip-rule="evenodd" d="M21.597 42.6689C13.3958 43.0293 6.85742 49.7923 6.85742 58.0824H6.85742V59.9999H21.7206C20.9919 57.4113 20.5717 54.3661 20.5717 51.107C20.5717 48.037 20.9446 45.1566 21.597 42.6689ZM35.0656 59.9999H49.7146V58.0824C49.7146 49.8656 43.2913 43.1491 35.1921 42.68C35.8428 45.1651 36.2146 48.0415 36.2146 51.107C36.2146 54.3661 35.7944 57.4113 35.0656 59.9999Z" fill="#3A4C5A"/>
<path fill-rule="evenodd" clip-rule="evenodd" d="M38.7861 54.8571L40.8338 53.3213C41.143 53.0894 41.5692 53.0932 41.8743 53.3305L43.2861 54.4285L38.7861 54.8571Z" fill="#E6E6E6"/>
<path fill-rule="evenodd" clip-rule="evenodd" d="M21.6433 42.4287C20.7861 46.5716 21.1433 52.4287 22.7147 60.0001H19.2861L16.2861 52.2859L17.5718 50.3573L16.2861 49.0716L20.3576 42.643C20.7921 42.5078 21.2206 42.4364 21.6433 42.4287Z" fill="#2F4351"/>
<path fill-rule="evenodd" clip-rule="evenodd" d="M34.929 42.4287C35.7861 46.5716 35.429 52.4287 33.8576 60.0001H37.2861L40.2861 52.2859L39.0004 50.3573L40.2861 49.0716L36.2147 42.643C35.7802 42.5078 35.3516 42.4364 34.929 42.4287Z" fill="#2F4351"/>
<path d="M25.2852 32.1429C25.2852 33.294 26.6048 34.0715 28.2852 34.0715C29.9656 34.0715 31.2852 33.294 31.2852 32.1429C31.2852 31.9062 31.0816 31.7144 30.8566 31.7144C30.5796 31.7144 30.4559 31.9083 30.428 32.1429C30.1618 32.7725 29.503 33.1536 28.2852 33.2144C27.0673 33.1536 26.4085 32.7725 26.1423 32.1429C26.1144 31.9083 25.9907 31.7144 25.7137 31.7144C25.4887 31.7144 25.2852 31.9062 25.2852 32.1429Z" fill="black" fill-opacity="0.6"/>
<path fill-rule="evenodd" clip-rule="evenodd" d="M25.7139 27.8574C25.7139 28.8042 26.8651 29.5717 28.2853 29.5717C29.7055 29.5717 30.8567 28.8042 30.8567 27.8574" fill="black" fill-opacity="0.16"/>
<path d="M22.7135 25.2858C23.4235 25.2858 23.9992 24.7102 23.9992 24.0001C23.9992 23.29 23.4235 22.7144 22.7135 22.7144C22.0034 22.7144 21.4277 23.29 21.4277 24.0001C21.4277 24.7102 22.0034 25.2858 22.7135 25.2858Z" fill="black" fill-opacity="0.6"/>
<path d="M33.856 25.2858C34.5661 25.2858 35.1417 24.7102 35.1417 24.0001C35.1417 23.29 34.5661 22.7144 33.856 22.7144C33.1459 22.7144 32.5703 23.29 32.5703 24.0001C32.5703 24.7102 33.1459 25.2858 33.856 25.2858Z" fill="black" fill-opacity="0.6"/>
<path d="M19.6344 21.2484C20.4733 20.0679 22.7732 19.406 24.7543 19.8925C24.9841 19.949 25.2162 19.8084 25.2727 19.5785C25.3291 19.3487 25.1886 19.1165 24.9587 19.0601C22.658 18.4951 19.9948 19.2616 18.9357 20.7518C18.7986 20.9448 18.8439 21.2123 19.0368 21.3495C19.2297 21.4866 19.4973 21.4413 19.6344 21.2484Z" fill="black" fill-opacity="0.6"/>
<path d="M36.9359 21.2484C36.097 20.0679 33.7971 19.406 31.816 19.8925C31.5862 19.949 31.3541 19.8084 31.2976 19.5785C31.2412 19.3487 31.3818 19.1165 31.6116 19.0601C33.9123 18.4951 36.5755 19.2616 37.6346 20.7518C37.7717 20.9448 37.7265 21.2123 37.5335 21.3495C37.3406 21.4866 37.073 21.4413 36.9359 21.2484Z" fill="black" fill-opacity="0.6"/>
<mask id="mask4" mask-type="alpha" maskUnits="userSpaceOnUse" x="0" y="0" width="57" height="60">
<path d="M56.5714 0H0V60H56.5714V0Z" fill="white"/>
</mask>
<g mask="url(#mask4)">
<mask id="mask5" mask-type="alpha" maskUnits="userSpaceOnUse" x="12" y="3" width="33" height="43">
<path fill-rule="evenodd" clip-rule="evenodd" d="M14.2418 22.8627C14.1775 23.0878 14.143 23.3255 14.143 23.5712V26.3569C14.143 27.6466 15.0925 28.7146 16.3305 28.8999C16.7041 33.2387 19.3864 36.9176 23.143 38.7021V42.6426H22.2859C18.9389 42.6426 15.8409 43.7084 13.3126 45.519C12.74 43.8805 12.4287 42.1194 12.4287 40.2855L12.4287 19.7141C12.4287 10.9564 19.5282 3.85693 28.2859 3.85693C37.0435 3.85693 44.143 10.9564 44.143 19.7141V40.2855C44.143 42.1194 43.8317 43.8805 43.2591 45.519C40.7308 43.7084 37.6328 42.6426 34.2858 42.6426H33.4287V38.7021C37.1853 36.9176 39.8676 33.2387 40.2412 28.8999C41.4792 28.7146 42.4287 27.6466 42.4287 26.3569V23.5712C42.4287 23.2092 42.3539 22.8647 42.2189 22.5523C39.4426 22.0834 36.317 20.9502 33.2463 19.1774C30.6467 17.6764 28.4244 15.9122 26.715 14.0895C27.4494 15.7842 28.3386 17.2687 29.3826 18.543C26.6665 17.3595 24.8171 15.4567 23.8345 12.8347C23.7535 13.0322 23.6692 13.2296 23.5815 13.4266C21.4731 18.1621 17.9125 21.5745 14.2418 22.8627Z" fill="white"/>
</mask>
<g mask="url(#mask5)">
<path fill-rule="evenodd" clip-rule="evenodd" d="M14.2418 22.8627C14.1775 23.0878 14.143 23.3255 14.143 23.5712V26.3569C14.143 27.6466 15.0925 28.7146 16.3305 28.8999C16.7041 33.2387 19.3864 36.9176 23.143 38.7021V42.6426H22.2859C18.9389 42.6426 15.8409 43.7084 13.3126 45.519C12.74 43.8805 12.4287 42.1194 12.4287 40.2855L12.4287 19.7141C12.4287 10.9564 19.5282 3.85693 28.2859 3.85693C37.0435 3.85693 44.143 10.9564 44.143 19.7141V40.2855C44.143 42.1194 43.8317 43.8805 43.2591 45.519C40.7308 43.7084 37.6328 42.6426 34.2858 42.6426H33.4287V38.7021C37.1853 36.9176 39.8676 33.2387 40.2412 28.8999C41.4792 28.7146 42.4287 27.6466 42.4287 26.3569V23.5712C42.4287 23.2092 42.3539 22.8647 42.2189 22.5523C39.4426 22.0834 36.317 20.9502 33.2463 19.1774C30.6467 17.6764 28.4244 15.9122 26.715 14.0895C27.4494 15.7842 28.3386 17.2687 29.3826 18.543C26.6665 17.3595 24.8171 15.4567 23.8345 12.8347C23.7535 13.0322 23.6692 13.2296 23.5815 13.4266C21.4731 18.1621 17.9125 21.5745 14.2418 22.8627Z" fill="#ECC797"/>
<path d="M69.0001 3.85693H12.4287V63.8569H69.0001V3.85693Z" fill="#2C1B18"/>
</g>
<path fill-rule="evenodd" clip-rule="evenodd" d="M12.4287 21.9465V23.322C16.7027 22.6604 21.1265 18.9404 23.5815 13.4264C23.6692 13.2294 23.7535 13.032 23.8345 12.8345C24.6926 15.1244 26.2118 16.8657 28.392 18.0584C28.7051 18.5288 29.0353 18.976 29.3826 19.4C26.6665 18.2165 24.8171 16.3137 23.8345 13.6916C23.7535 13.8892 23.6692 14.0865 23.5815 14.2835C21.1265 19.7975 16.7027 23.5176 12.4287 24.1791V21.9465ZM44.143 21.6725V23.6312C40.9388 23.4452 37.0504 22.2306 33.2463 20.0343C31.045 18.7634 29.1143 17.3037 27.5365 15.7795C27.244 15.2415 26.9702 14.6781 26.715 14.0894C28.4244 15.912 30.6467 17.6763 33.2463 19.1772C37.0504 21.3734 40.9388 22.588 44.143 22.774V21.6725Z" fill="black" fill-opacity="0.16"/>
</g>
</g>
</svg>
