<svg id="Layer_1" data-name="Layer 1" xmlns="http://www.w3.org/2000/svg" xmlns:xlink="http://www.w3.org/1999/xlink" viewBox="0 0 460 110"><defs><style>.cls-1{fill:url(#linear-gradient);}.cls-2{fill:url(#linear-gradient-2);}.cls-3{fill:url(#linear-gradient-3);}.cls-4{fill:url(#linear-gradient-4);}.cls-5{fill:url(#linear-gradient-5);}.cls-6{fill:url(#linear-gradient-6);}.cls-7{fill:url(#linear-gradient-7);}.cls-8{fill:url(#linear-gradient-8);}.cls-9{fill:url(#linear-gradient-9);}.cls-10{fill:url(#linear-gradient-10);}.cls-11{fill:url(#linear-gradient-11);}.cls-12{fill:url(#linear-gradient-12);}.cls-13{fill:url(#linear-gradient-13);}.cls-14{fill:url(#linear-gradient-14);}.cls-15{fill:url(#linear-gradient-15);}.cls-16{fill:url(#linear-gradient-16);}.cls-17{fill:url(#linear-gradient-17);}.cls-18{fill:url(#linear-gradient-18);}</style><linearGradient id="linear-gradient" x1="-0.49" y1="61.56" x2="429.21" y2="63.1" gradientUnits="userSpaceOnUse"><stop offset="0" stop-color="#389583"/><stop offset="1" stop-color="#6ec38f"/></linearGradient><linearGradient id="linear-gradient-2" x1="1.32" y1="73.82" x2="98" y2="77.22" xlink:href="#linear-gradient"/><linearGradient id="linear-gradient-3" x1="1.72" y1="62.37" x2="98.4" y2="65.77" xlink:href="#linear-gradient"/><linearGradient id="linear-gradient-4" x1="2.17" y1="49.64" x2="98.85" y2="53.05" xlink:href="#linear-gradient"/><linearGradient id="linear-gradient-5" x1="2.43" y1="42.25" x2="99.11" y2="45.66" xlink:href="#linear-gradient"/><linearGradient id="linear-gradient-6" x1="1.97" y1="55.33" x2="98.65" y2="58.74" xlink:href="#linear-gradient"/><linearGradient id="linear-gradient-7" x1="2.59" y1="37.78" x2="99.27" y2="41.18" xlink:href="#linear-gradient"/><linearGradient id="linear-gradient-8" x1="1.66" y1="64.03" x2="98.34" y2="67.43" xlink:href="#linear-gradient"/><linearGradient id="linear-gradient-9" x1="2.79" y1="32.05" x2="99.47" y2="35.46" xlink:href="#linear-gradient"/><linearGradient id="linear-gradient-10" x1="-0.49" y1="61.35" x2="429.21" y2="62.88" xlink:href="#linear-gradient"/><linearGradient id="linear-gradient-11" x1="3.24" y1="63.28" x2="418.55" y2="60.01" gradientUnits="userSpaceOnUse"><stop offset="0" stop-color="#051f45"/><stop offset="1" stop-color="#1c3a6a"/></linearGradient><linearGradient id="linear-gradient-12" x1="3.24" y1="63.56" x2="418.55" y2="60.28" xlink:href="#linear-gradient-11"/><linearGradient id="linear-gradient-13" x1="3.24" y1="63.78" x2="418.56" y2="60.5" xlink:href="#linear-gradient-11"/><linearGradient id="linear-gradient-14" x1="3.25" y1="64.29" x2="418.56" y2="61.01" xlink:href="#linear-gradient-11"/><linearGradient id="linear-gradient-15" x1="3.25" y1="64.68" x2="418.56" y2="61.41" xlink:href="#linear-gradient-11"/><linearGradient id="linear-gradient-16" x1="3.25" y1="65.02" x2="418.57" y2="61.75" xlink:href="#linear-gradient-11"/><linearGradient id="linear-gradient-17" x1="348.28" y1="12.68" x2="420.9" y2="16.37" xlink:href="#linear-gradient-11"/><linearGradient id="linear-gradient-18" x1="345.45" y1="68.28" x2="418.07" y2="71.97" xlink:href="#linear-gradient-11"/></defs><title>gresident-logo</title><path class="cls-1" d="M71.26,34.64H87.92c14.92,0,23.17,5.28,23.17,15,0,7.34-5.28,12.2-14.35,13.27v.17c8.66.66,12.78,4,12.78,12.86v3.71c0,4.21.83,7.17,2.48,9.4H101.36c-1.49-1.73-2.31-4.45-2.31-8.57v-3.8c0-7.34-2.72-10-9.73-10H81.57V89.06H71.26Zm10.31,7.75v17h6.1c8.41,0,12.45-2.64,12.45-8.5s-4-8.49-12.45-8.49Z"/><path class="cls-2" d="M25.84,75.58c2.71,3.62,6.91,5.7,12.63,5.7a16.86,16.86,0,0,0,7.61-1.57c2.89-1.48,3.64-3.88,3.64-7.11V61.11H59.81V81.86c-4.55,5-12.66,8-21,8A29.08,29.08,0,0,1,13.34,74.19l3,1.94a6.06,6.06,0,0,0,1.95.85C20.82,77.56,23.5,76.74,25.84,75.58Z"/><path class="cls-3" d="M16.05,73.14c-1.85,1.09-6.51-3.06-9.14-6.81C3.2,61,1.33,53.43,3.33,52.18s8,3.6,11,9.22C16.65,65.82,17.91,72.05,16.05,73.14Z"/><path class="cls-4" d="M16.07,58.64c-2,.61-5.75-3.07-7.58-6.2C5.92,48,5.61,42.05,7.82,41.34S14.88,45,16.7,49.58C18.13,53.19,18.11,58,16.07,58.64Z"/><path class="cls-5" d="M20,47.67c1.27,1.69,6.45,1,9.79-.43,4.72-2,8.54-6.57,7.19-8.47s-7.83-1.31-12,1.27C21.6,42.07,18.7,46,20,47.67Z"/><path class="cls-6" d="M19.55,62.09c1.51.5,4.47-2,6-4.17,2.11-3.06,2.57-7.29.92-7.86s-5.47,2.37-7,5.58C18.2,58.15,18,61.6,19.55,62.09Z"/><path class="cls-7" d="M16.76,45.21c-1.55-.34-2.84-4-3-6.62-.27-3.71,1.48-7.59,3.19-7.25s3.52,4.82,3.23,8.37C19.92,42.5,18.32,45.56,16.76,45.21Z"/><path class="cls-8" d="M19.09,74.53c1.7,1.31,6.83-2.23,9.91-5.62,4.34-4.79,7.14-12.11,5.3-13.6s-8.33,2.58-12,7.79C19.4,67.19,17.37,73.22,19.09,74.53Z"/><path class="cls-9" d="M54,40.1a.91.91,0,0,1-.17-.09c-4.58-2.62-9.22-5.44-14.56-6.11-5.12-.68-10.07,1.68-15.11.81a2.28,2.28,0,0,1-1.05-.4c-2.2-1.8,2.37-4.5,3.57-5.22a15,15,0,0,1,13.61-1c5.26,2.07,11.19,6.25,14,11.3.14.24.21.63-.05.72A.37.37,0,0,1,54,40.1Z"/><path class="cls-10" d="M122.3,34.64H157v8.08h-24.4V57.15h22.18v8.08H132.61V81H157v8.08H122.3Z"/><path class="cls-11" d="M163.52,81.47l6.27-6.84c3,4.54,9,6.84,14.59,6.84,6.35,0,9.65-3,9.65-7.42,0-3.54-2.23-6.1-7.5-7.25l-6.68-1.49c-9.07-2-13.77-7.17-13.77-14.43,0-9.64,8.33-17.07,20.2-17.07,7.5,0,15.09,3,18.31,7.76l-6.52,6.51c-2.55-4-7.58-5.85-12.2-5.85-6,0-9.4,3.21-9.4,7.5,0,3.87,2.72,6,7.42,7.09l6.68,1.48c8.74,1.9,13.85,7.1,13.85,14.6,0,9.56-8.24,17-20.86,17C175.64,89.89,167.15,86.83,163.52,81.47Z"/><path class="cls-12" d="M214.48,34.64h10.3V89.06h-10.3Z"/><path class="cls-13" d="M237.81,34.64H257.1c16.58,0,27.54,11.21,27.54,27.21s-11,27.21-27.54,27.21H237.81Zm10.31,7.92V81.14h8.49c11.13,0,17.07-7,17.07-19.29s-5.94-19.29-17.07-19.29Z"/><path class="cls-14" d="M294.87,34.64h34.71v8.08H305.17V57.15h22.18v8.08H305.17V81h24.41v8.08H294.87Z"/><path class="cls-15" d="M340.54,34.64h9.32l24.65,37.6V34.64h9.4V89.06H374.6l-24.66-37.6v37.6h-9.4Z"/><path class="cls-16" d="M408.32,42.72H392.07V34.64h42.8v8.08H418.62V89.06h-10.3Z"/><path class="cls-17" d="M457.11,28.45a.74.74,0,0,1-.51,1.36c-8.51-1.74-16.83-4-25.07-6.49Q417.15,19,403.09,13.69a21.49,21.49,0,0,0-3-1,17.74,17.74,0,0,0-2.92-.44,15.5,15.5,0,0,0-3,0,14.66,14.66,0,0,0-1.48.22l-1.65.37c-4.87,1.16-9.75,2.27-14.67,3.25-8.44,1.69-16.94,3.19-25.59,4.12a.73.73,0,0,1-.38-1.4c7.93-3.57,16-6.58,24.16-9.4,4.73-1.64,9.51-3.15,14.29-4.62l.9-.28,1.08-.29c.73-.18,1.47-.33,2.22-.44a25.18,25.18,0,0,1,4.51-.26,24.46,24.46,0,0,1,4.5.6,28.61,28.61,0,0,1,4.11,1.3Q420.24,10.72,434,16.87C441.78,20.42,449.55,24.16,457.11,28.45Z"/><path class="cls-18" d="M447.56,39.28a.67.67,0,0,1,1.33,0c1.4,11.14,2.19,22.28,2.78,33.41.16,3.2.32,6.4.42,9.59l.09,2.4,0,.6,0,.74-.05,1.47v.06a21.24,21.24,0,0,1-1.44,5.81,21.54,21.54,0,0,1-12.78,11.82,22.91,22.91,0,0,1-5.77,1.21l-1.48.06c-.51,0-.83,0-1.25,0H427l-4.79,0-9.59-.17c-6.4-.17-12.79-.38-19.19-.72-11.15-.59-22.29-1.39-33.44-2.8a.66.66,0,0,1,0-1.32c11.15-1.41,22.29-2.21,33.44-2.8,6.4-.34,12.79-.55,19.19-.71l9.59-.18,4.79,0h2.4c.37,0,.86,0,1.14,0l.93,0A14,14,0,0,0,443.07,90a12.88,12.88,0,0,0,1.05-3.38l.08-.9,0-.46,0-.6.1-2.4c.1-3.19.26-6.39.42-9.59C445.37,61.56,446.16,50.42,447.56,39.28Z"/></svg>