<svg id="Layer_1" data-name="Layer 1" xmlns="http://www.w3.org/2000/svg" xmlns:xlink="http://www.w3.org/1999/xlink" viewBox="0 0 500 100"><defs><style>.cls-1{fill:url(#linear-gradient);}.cls-2{fill:url(#linear-gradient-2);}.cls-3{fill:url(#linear-gradient-3);}.cls-4{fill:url(#linear-gradient-4);}.cls-5{fill:url(#linear-gradient-5);}.cls-6{fill:url(#linear-gradient-6);}.cls-7{fill:url(#linear-gradient-7);}.cls-8{fill:url(#linear-gradient-8);}.cls-9{fill:url(#linear-gradient-9);}.cls-10{fill:url(#linear-gradient-10);}.cls-11{fill:url(#linear-gradient-11);}.cls-12{fill:url(#linear-gradient-12);}.cls-13{fill:url(#linear-gradient-13);}.cls-14{fill:url(#linear-gradient-14);}.cls-15{fill:url(#linear-gradient-15);}</style><linearGradient id="linear-gradient" x1="3.91" y1="54.24" x2="404.54" y2="55.67" gradientUnits="userSpaceOnUse"><stop offset="0" stop-color="#389583"/><stop offset="1" stop-color="#6ec38f"/></linearGradient><linearGradient id="linear-gradient-2" x1="3.91" y1="53.96" x2="404.54" y2="55.39" xlink:href="#linear-gradient"/><linearGradient id="linear-gradient-3" x1="3.91" y1="53.73" x2="404.54" y2="55.15" xlink:href="#linear-gradient"/><linearGradient id="linear-gradient-4" x1="3.91" y1="53.51" x2="404.54" y2="54.94" xlink:href="#linear-gradient"/><linearGradient id="linear-gradient-5" x1="3.92" y1="53.34" x2="404.55" y2="54.76" xlink:href="#linear-gradient"/><linearGradient id="linear-gradient-6" x1="3.92" y1="53.15" x2="404.55" y2="54.58" xlink:href="#linear-gradient"/><linearGradient id="linear-gradient-7" x1="3.92" y1="52.95" x2="404.55" y2="54.37" xlink:href="#linear-gradient"/><linearGradient id="linear-gradient-8" x1="3.85" y1="71.8" x2="404.48" y2="73.22" xlink:href="#linear-gradient"/><linearGradient id="linear-gradient-9" x1="3.91" y1="54.85" x2="404.54" y2="56.27" xlink:href="#linear-gradient"/><linearGradient id="linear-gradient-10" x1="3.97" y1="38.91" x2="404.6" y2="40.34" xlink:href="#linear-gradient"/><linearGradient id="linear-gradient-11" x1="4" y1="30.35" x2="404.63" y2="31.77" xlink:href="#linear-gradient"/><linearGradient id="linear-gradient-12" x1="3.94" y1="45.4" x2="404.57" y2="46.83" xlink:href="#linear-gradient"/><linearGradient id="linear-gradient-13" x1="4.02" y1="24.03" x2="404.65" y2="25.46" xlink:href="#linear-gradient"/><linearGradient id="linear-gradient-14" x1="3.9" y1="58.69" x2="404.53" y2="60.12" xlink:href="#linear-gradient"/><linearGradient id="linear-gradient-15" x1="4.05" y1="16.53" x2="404.68" y2="17.96" xlink:href="#linear-gradient"/></defs><title>groenity-logo</title><path class="cls-1" d="M96.2,21.44h20.31c18.19,0,28.24,6.43,28.24,18.29,0,9-6.43,14.88-17.49,16.18v.21c10.56.8,15.58,4.92,15.58,15.68v4.52c0,5.13,1,8.75,3,11.46h-13c-1.81-2.11-2.81-5.43-2.81-10.45V72.7c0-8.94-3.32-12.16-11.86-12.16h-9.45V87.78H96.2Zm12.57,9.44V51.59h7.44c10.25,0,15.17-3.21,15.17-10.35s-4.92-10.36-15.17-10.36Z"/><path class="cls-2" d="M154.5,54.61c0-18.7,13.67-34.18,31.46-34.18s31.47,15.48,31.47,34.18S203.76,88.79,186,88.79,154.5,73.3,154.5,54.61Zm49.56,0c0-14.18-7.24-23.52-18.1-23.52s-18.09,9.44-18.09,23.52S175,78.13,186,78.13,204.06,68.78,204.06,54.61Z"/><path class="cls-3" d="M229.88,21.44H272.2v9.85H242.45V48.88h27v9.85h-27v19.2H272.2v9.85H229.88Z"/><path class="cls-4" d="M285.57,21.44h11.36L327,67.27V21.44h11.46V87.78H327.08L297,41.94V87.78H285.57Z"/><path class="cls-5" d="M354.32,21.44h12.56V87.78H354.32Z"/><path class="cls-6" d="M396.63,31.29h-19.8V21.44H429v9.85H409.2V87.78H396.63Z"/><path class="cls-7" d="M452.82,62.75,430.7,21.44h13.47L459.35,52l15.18-30.55h13L465.38,62.75v25H452.82Z"/><path class="cls-8" d="M39.88,72.13c3.38,4.52,8.62,7.12,15.75,7.12a21.09,21.09,0,0,0,9.49-2c3.61-1.86,4.54-4.85,4.54-8.87V54.09H82.24V80C76.56,86.26,66.46,90,56,90,41.73,90,29.75,81.08,24.29,70.4l3.78,2.42a7.53,7.53,0,0,0,2.43,1.06C33.62,74.6,37,73.58,39.88,72.13Z"/><path class="cls-9" d="M29.37,68c-2.3,1.35-8.11-3.82-11.39-8.5-4.63-6.6-7-16.09-4.46-17.65s9.91,4.49,13.67,11.51C30.13,58.86,31.7,66.64,29.37,68Z"/><path class="cls-10" d="M29.35,49.78C26.82,50.53,22.17,46,19.9,42c-3.22-5.52-3.6-12.95-.85-13.84s8.81,4.55,11.08,10.28C31.91,43,31.89,49,29.35,49.78Z"/><path class="cls-11" d="M33.1,37c1.76,2,8.12.52,12.11-1.61,5.64-3,9.88-9.11,8-11.32S43.33,23.31,38.38,27C34.5,29.87,31.34,35,33.1,37Z"/><path class="cls-12" d="M33.27,53c1.88.61,5.57-2.5,7.44-5.2,2.64-3.82,3.2-9.09,1.15-9.81S35,41,33.1,45C31.58,48.11,31.37,52.41,33.27,53Z"/><path class="cls-13" d="M30.71,32.52c-2,.07-4.66-3.94-5.7-7.06-1.47-4.41-.55-9.62,1.62-9.74s5.74,4.73,6.48,9.11C33.7,28.27,32.7,32.46,30.71,32.52Z"/><path class="cls-14" d="M33,71.91c2.31,1.35,8.12-3.82,11.4-8.5,4.63-6.59,7-16.08,4.46-17.65S39,50.25,35.21,57.27C32.27,62.77,30.7,70.55,33,71.91Z"/><path class="cls-15" d="M75.6,20.22c-.77-.33-1.65-.63-2.51-.9s-1.72-.53-2.59-.76c-1.74-.46-3.47-.87-5.21-1.17a34.3,34.3,0,0,0-10-.48,12.22,12.22,0,0,0-4.39,1.38c-.69.37-1.33.8-2,1.17a16.68,16.68,0,0,1-2,1c-1.38.53-2.89,1-4.52,1.47-.83.23-1.7.48-2.64.72s-1.91.48-3.07.7L36,22.76a9.68,9.68,0,0,1,.57-3.36A13.34,13.34,0,0,1,38,16.46,14.72,14.72,0,0,1,42.57,12a10.77,10.77,0,0,1,3-1.25,18.72,18.72,0,0,1,3.23-.51,50.68,50.68,0,0,1,6.4-.12,32.29,32.29,0,0,1,11.4,3.3,48,48,0,0,1,5,2.73,31.26,31.26,0,0,1,4.57,3.37Z"/></svg>